<svg xmlns="http://www.w3.org/2000/svg" viewBox="0 0 58.37 19.44"><defs><style>.cls-1{fill:#fff;}</style></defs><g id="Layer_2" data-name="Layer 2"><g id="HEADER"><path class="cls-1" d="M14.72,1.75a1,1,0,0,1,0,.14.74.74,0,0,1,0,.14l.11.1c0,.1.05.19.08.27l.06.26a1.65,1.65,0,0,1,.14.26.94.94,0,0,1,.07.3l0,.29a.67.67,0,0,1,0,.28q0,.12,0,.21a.85.85,0,0,0,0,.17c0,.09,0,.18-.05.26s0,.17,0,.24,0,.21-.05.31a.84.84,0,0,1-.1.29,1.19,1.19,0,0,0-.08.2L15,5.69a1.78,1.78,0,0,1-.23.48,4.17,4.17,0,0,1-.29.44l-.23.31-.21.3c0,.07,0,.14,0,.21a1.21,1.21,0,0,0,0,.19,1.22,1.22,0,0,0,.26.16l.26.11a1,1,0,0,1,.17.1.44.44,0,0,1,.14.18l0,.05a.05.05,0,0,1,0,0c-.22.33-.45.68-.69,1.07a.57.57,0,0,1-.08.13.22.22,0,0,1-.17.06l0,0a.21.21,0,0,0,0-.06.42.42,0,0,0-.15-.24A.68.68,0,0,0,13.39,9l-.6-.28a4.15,4.15,0,0,1-.57-.35L12,8.3l-.22-.08a1.2,1.2,0,0,0-.37-.1l-.37,0L10.57,8l-.49-.13a.66.66,0,0,0-.26-.16l-.29-.1a3.3,3.3,0,0,1-.35-.28A1.91,1.91,0,0,0,8.83,7a.64.64,0,0,1-.15-.14l-.33-.45L8.05,6a.94.94,0,0,1-.14-.26l-.09-.27c0-.08-.05-.16-.08-.25a.59.59,0,0,1,0-.27s0-.09,0-.14a.56.56,0,0,0,0-.12,2,2,0,0,1,0-.24V4.18a1.09,1.09,0,0,0,0-.18,1.83,1.83,0,0,0,0-.21.36.36,0,0,0,0-.11.34.34,0,0,0,0-.12c0-.05,0-.1,0-.16s0-.12,0-.18.07-.21.11-.31l.11-.3a.24.24,0,0,0,0-.08l0-.06a.93.93,0,0,0,.18-.34l.12-.37.25-.29.27-.29A.79.79,0,0,0,9.2.69L9.49.56,9.77.42,10,.34l.18-.09a.78.78,0,0,1,.33-.14l.36,0,.1-.06a1.15,1.15,0,0,0,.26,0l.25,0,.32,0,.35,0,.28.11.29.13h.22A.27.27,0,0,1,13,.29a.47.47,0,0,0,.1.1.5.5,0,0,1,.23.09,1,1,0,0,1,.22.2.9.9,0,0,1,.21.08.44.44,0,0,1,.19.17L14,1l.09.05a.73.73,0,0,0,.13.2,1.3,1.3,0,0,0,.25.11s0,.08,0,.12a.83.83,0,0,0,0,.15A.75.75,0,0,0,14.72,1.75ZM8.58,4.36,8.52,4.3a.27.27,0,0,0-.08-.07l-.19.15.06.14a.42.42,0,0,0,.16,0A.22.22,0,0,0,8.58,4.36ZM8.31,3.17l0,0,0,0C8.33,3.26,8.35,3.24,8.31,3.17Zm.19-.25A.2.2,0,0,1,8.5,3a.38.38,0,0,0,0,.1.3.3,0,0,0,0,.1.29.29,0,0,0,.1.07.65.65,0,0,0,0-.19.85.85,0,0,0,0-.17Zm.1.63v0h0s0,0,0,0Zm0,1.57A.24.24,0,0,0,8.69,5s0-.08,0-.13v.24h0Zm0-1.39h0v.08h0v0S8.66,3.75,8.66,3.73ZM9.28,6.3a.23.23,0,0,0,.07-.07.1.1,0,0,1,.05-.06l-.12-.1L9.16,6l-.09-.1a.07.07,0,0,0-.06,0v.17l.13.1Zm2.36-4.84-.37.09-.37.07a1.48,1.48,0,0,0-.52.22,2.67,2.67,0,0,0-.47.36,1.69,1.69,0,0,0-.3.36c-.07.14-.14.28-.2.42a1.94,1.94,0,0,0-.17.6.51.51,0,0,0,0,.13s0,.1,0,.17a.13.13,0,0,1,0,.13.51.51,0,0,0,0,.17,1.91,1.91,0,0,1,.06.33l.06.32.08.09,0,.18a.39.39,0,0,1,0,.14c.09.1.16.2.23.29a2.23,2.23,0,0,1,.2.3l.2.14.22.19h.08l0,0,.05,0a.57.57,0,0,0,.74,0,1.15,1.15,0,0,0,.1-.69A.7.7,0,0,0,11,5a0,0,0,0,1,0,0,.05.05,0,0,0,0,0A.88.88,0,0,0,11,4.78a1.42,1.42,0,0,0,.3,0,.94.94,0,0,1,.29,0,.66.66,0,0,0,.28,0,.26.26,0,0,1,.23,0l.2,0,.17,0h.25l.25,0a.16.16,0,0,1,.12,0,.12.12,0,0,1,.06.12l-.13.22a.53.53,0,0,0-.06.26.22.22,0,0,0,.29.1,1.47,1.47,0,0,0,.1-.13l.11-.12A.4.4,0,0,0,13.64,5a1.22,1.22,0,0,0,.06-.26.62.62,0,0,1,.12-.39V3.74a2.66,2.66,0,0,1-.08-.33,2.58,2.58,0,0,0-.09-.35l-.15-.12a3.45,3.45,0,0,0-.14-.34,1.21,1.21,0,0,0-.21-.31A.58.58,0,0,1,13,2.18.51.51,0,0,1,12.85,2a1.19,1.19,0,0,1-.35-.15.89.89,0,0,0-.36-.11l-.05,0-.22-.1ZM10.51,6.82l-.11.06-.11,0a.65.65,0,0,1,0,.13.5.5,0,0,0,0,.13h.15a.2.2,0,0,0,.05-.09.38.38,0,0,0,0-.1l0-.09A.2.2,0,0,1,10.51,6.82Zm.3.12h0a.1.1,0,0,0,0,0h0a0,0,0,0,0,0,0Zm.53.16a.26.26,0,0,0-.15-.16L11,6.9v0h0a0,0,0,0,0,0,0l.13,0s0,.06,0,.12,0,.08.12.09S11.3,7.13,11.34,7.1Zm.36.19.11-.09.08-.07-.1-.07A.48.48,0,0,0,11.66,7a1,1,0,0,1,0,.16A1.37,1.37,0,0,0,11.7,7.29ZM12,.85a.08.08,0,0,0,0-.06h0s0,0,0,0l0,0Zm.13,5v0h0v0Zm.09.21a.35.35,0,0,0,0,.12.76.76,0,0,1,0,.11l0,.07.11.05a.3.3,0,0,0,0-.18A.85.85,0,0,0,12.22,6Zm.18.12h0Zm.08.34h0v0h0Zm.24,1v0h0s0,0,0,0Zm.12-.5,0,.07a0,0,0,0,0,0,0s0,0,0,0,0,0,0,0h0Zm.26-5.7A.21.21,0,0,0,13,1.22s0,0,0,.08h.12Zm.14,5-.05,0,0,0A.53.53,0,0,0,13,6.3a.2.2,0,0,0,0,.14l.08,0a.61.61,0,0,0,.07-.1Zm-.11,1.41a0,0,0,0,1,0,0l0,0a0,0,0,0,0,0,0h0a.08.08,0,0,1,0,0,.06.06,0,0,0,0,0S13.1,7.69,13.13,7.69Zm.2-6.51-.1.1.08.05.08,0a.46.46,0,0,1,0,.09s0,.06.1.06l0-.16a.44.44,0,0,0,0-.13l-.07,0Zm.14,5.27v-.1a.17.17,0,0,0,0-.07l-.07,0S13.41,6.39,13.47,6.45ZM13.61,6s0,0,0,0Zm.15-4.43s0,0,0,0S13.76,1.56,13.76,1.54Zm.15.44h0V1.93h0Zm.46.25a.38.38,0,0,0-.09-.09l-.12-.07,0,.1a.16.16,0,0,1,0,.09.12.12,0,0,1,0,.09s0,.06.08.08l.11-.08A.2.2,0,0,0,14.37,2.23Zm.09.67,0,0h0Z"/><path class="cls-1" d="M21.12,7.11H21l-.14.14-.12.11a.64.64,0,0,1-.16.17l-.1.06a.28.28,0,0,0-.09.07,1.52,1.52,0,0,1-.38.24l-.42.18a1.64,1.64,0,0,1-.74.13l-.29,0a.9.9,0,0,1-.27-.07,1.69,1.69,0,0,0-.27-.1l-.27-.1-.06,0-.05,0-.18-.13a.83.83,0,0,0-.18-.13.62.62,0,0,1-.18-.14L17,7.31a.27.27,0,0,1-.07-.08.35.35,0,0,0-.05-.08l-.05,0-.07,0a.19.19,0,0,0,0-.1l-.22-.32a3,3,0,0,1-.21-.33.51.51,0,0,1-.09-.16L16.11,6a.94.94,0,0,1-.06-.15s0-.11-.07-.17a1.19,1.19,0,0,1,0-.33c0-.11,0-.22,0-.34a1,1,0,0,0,0-.25.78.78,0,0,1,0-.14.24.24,0,0,1,0-.14v0A1.36,1.36,0,0,1,16,4a3.39,3.39,0,0,0,0-.45s0-.07,0-.11a.93.93,0,0,0,0-.13.13.13,0,0,0,0-.08.06.06,0,0,1,0,0c0-.18,0-.36,0-.52s0-.33,0-.49,0-.32,0-.48,0-.33,0-.51a1.3,1.3,0,0,1,0-.15,1.5,1.5,0,0,0,0-.2.84.84,0,0,0-.32-.41.16.16,0,0,0,0-.09l0-.08A.76.76,0,0,1,16,.22l.25,0h.26a2.09,2.09,0,0,1,.25,0h.19a.6.6,0,0,1,.22,0l.23,0h.48a.31.31,0,0,1,.06.13.55.55,0,0,1-.14.22,1,1,0,0,0-.19.24.92.92,0,0,1,0,.16v.2c0,.12,0,.24,0,.35a2,2,0,0,1,0,.34.45.45,0,0,0,0,.2c0,.07,0,.14,0,.24a1.25,1.25,0,0,0,0,.55,1.94,1.94,0,0,1,0,.24.91.91,0,0,1,0,.23,1.09,1.09,0,0,0,0,.4,2.15,2.15,0,0,0,0,.23l0,.19c0,.06,0,.11.08.16a.72.72,0,0,0-.06.35,3.25,3.25,0,0,0,0,.33,2.35,2.35,0,0,0,.1.6,1.64,1.64,0,0,0,.14.33.82.82,0,0,0,.25.24,1,1,0,0,1,.18.18.6.6,0,0,0,.21.14.31.31,0,0,1,.13.06l.13.07h.48l.28-.14a.82.82,0,0,0,.25-.21.61.61,0,0,1,.14-.1,1,1,0,0,0,.41-.65.83.83,0,0,1,0-.15.57.57,0,0,1,0-.14c0-.07,0-.14,0-.21a.65.65,0,0,1,0-.2V4.6a.86.86,0,0,0-.07-.25l.09-.16a1.11,1.11,0,0,1,0-.19,2.4,2.4,0,0,0,0-.24.57.57,0,0,0,0-.18.86.86,0,0,0,0-.22.79.79,0,0,1,0-.22,1.05,1.05,0,0,1,0-.24,1.16,1.16,0,0,0,0-.61A.75.75,0,0,0,20.34,2c0-.08,0-.17,0-.25a2.19,2.19,0,0,1,0-.36c0-.11,0-.23,0-.34V1a.38.38,0,0,0,0-.1A.52.52,0,0,0,20.09.5L20,.46l0,0a.14.14,0,0,1,0-.13l.1-.09h.56a1.92,1.92,0,0,1,.24,0h.2a.34.34,0,0,1,.19,0,.14.14,0,0,0,.09,0h.72l.11.1a.77.77,0,0,1,0,.1l0,0s0,0,0,0a.37.37,0,0,0-.2.21,1.06,1.06,0,0,0-.06.28s0,.09,0,.13a.35.35,0,0,1,0,.13,1.06,1.06,0,0,1,0,.47,2,2,0,0,0,0,.49,3.68,3.68,0,0,1,0,.47c0,.16,0,.32,0,.5a.18.18,0,0,0,0,.06.14.14,0,0,0,0,.07,2,2,0,0,0-.05.41,2.6,2.6,0,0,0,0,.4.74.74,0,0,1,0,.21.25.25,0,0,0,0,.21v0s0,0,0,0a.91.91,0,0,0,0,.4c0,.14,0,.28,0,.41a.51.51,0,0,1,0,.18,2.18,2.18,0,0,1-.06.22L21.77,6a2.29,2.29,0,0,1-.16.35l-.22.32a3.53,3.53,0,0,0-.21.32S21.15,7.05,21.12,7.11Zm-4.37-5h0l-.07.09a.19.19,0,0,1,.09,0S16.75,2.18,16.75,2.15Zm-.09-.45h0V1.63h0v0S16.66,1.69,16.66,1.7Zm0,.81.08.06,0,0s0-.07,0-.1Zm.08.19c0,.06,0,.09,0,.11l0,.06C16.8,2.85,16.8,2.79,16.74,2.7Zm.08,2.65,0,0h0s0,0,0,0h0a0,0,0,0,1,0,0h0ZM17,2.12v0Zm.12,3.38a.29.29,0,0,1-.07.08s0,.06,0,.11l.06,0h.05V5.58Zm1.66,1.88h.05a.16.16,0,0,0,0-.08.32.32,0,0,1,0-.09.11.11,0,0,0-.15,0Zm.59-.23h.05l0,0Zm.51-.05v0h-.06v0ZM20,7l-.06-.06Q19.86,7,20,7Zm.36-.26,0-.09a.56.56,0,0,1-.05-.08l-.09,0-.07,0a.5.5,0,0,0,0,.12s0,.07.09.1l.09-.05Zm.22-.26.07-.1.07-.09-.08,0a.09.09,0,0,1-.06,0,.17.17,0,0,0-.06.12S20.48,6.38,20.53,6.44Zm0,.25.1,0a.14.14,0,0,0,0-.09s0,0-.1-.06Zm.32-1-.09.11a.21.21,0,0,0,0,.14.26.26,0,0,1,.11.07A.19.19,0,0,0,21,6V6a.22.22,0,0,1,0-.08.24.24,0,0,1,0-.08.44.44,0,0,1,0-.1l0,0Zm.05-3.56A.52.52,0,0,0,21,2s0,0-.07-.08a.64.64,0,0,0,0,.11S20.87,2,20.91,2.09Zm0,4.2c-.05,0-.05,0,0,.09s0-.06,0-.09,0,0,0,0,0,0,0,0Zm0-5.11.1-.1L21.14,1a.41.41,0,0,1,0-.08.21.21,0,0,0,0-.06A.61.61,0,0,0,21,1,.21.21,0,0,0,21,1.18Zm.18.13a.45.45,0,0,0,.07-.07s0-.06,0-.1l-.13.12,0,0ZM21.07,2.8h0Zm.11-.51s.05-.06,0-.08a.37.37,0,0,0-.1-.07A.57.57,0,0,0,21.18,2.29Zm-.06,3v.18c.07,0,.09,0,.08-.06a.08.08,0,0,0,0,0A.28.28,0,0,1,21.12,5.33Zm.12-2.28.06.06Q21.35,3,21.24,3.05Z"/><path class="cls-1" d="M29.69,7.33a1.24,1.24,0,0,0,.14.18l.13.16a.57.57,0,0,0,.21.12.19.19,0,0,1,.12.16.16.16,0,0,1-.17.14l-.37,0h-.62l-.25,0H28.7l-.18,0a.17.17,0,0,0-.12,0h-.52a.14.14,0,0,1-.07-.19.07.07,0,0,1,0-.06A.49.49,0,0,0,28,7.52a.73.73,0,0,0-.08-.37A.65.65,0,0,1,27.73,7a1.29,1.29,0,0,0-.17-.16l-.31-.06a1,1,0,0,0-.3,0,1,1,0,0,1-.29.13,1.81,1.81,0,0,0-.31.09l-.13.13a.27.27,0,0,1-.19.05.45.45,0,0,1-.14.1l-.17.08-.16.08-.17.07-.16.06a.61.61,0,0,0-.14.07l-.34.23-.35.26a3.94,3.94,0,0,1-.91,0c-.31,0-.63-.06-.95-.11,0,0,0,0,0-.06a.3.3,0,0,1,0-.08l.1-.17.19-.24.18-.24A.57.57,0,0,0,23,7.14a.61.61,0,0,0,0-.12,1,1,0,0,1,.12-.34,1.79,1.79,0,0,0,.13-.32.11.11,0,0,1,0-.08l0-.07L23.49,6a.82.82,0,0,0,.1-.26.55.55,0,0,1,.08-.15l.11-.16.09-.32c0-.1.05-.2.08-.31a.78.78,0,0,0,.18-.35.74.74,0,0,1,.17-.33c0-.08.05-.16.07-.22l.06-.22s0,0,0,0v0a.45.45,0,0,0,.17-.45A1.77,1.77,0,0,0,24.77,3l.14-.16A.8.8,0,0,1,25,2.42a1.06,1.06,0,0,1,.18-.33A.33.33,0,0,0,25.21,2a1.34,1.34,0,0,1,.06-.12l.08-.16a1.4,1.4,0,0,1,.1-.16.36.36,0,0,0,.07-.17c0-.05,0-.11,0-.17a.15.15,0,0,0,0-.09.34.34,0,0,1,0-.1.69.69,0,0,0-.1-.51.25.25,0,0,1,0-.07l0,0a.13.13,0,0,1,.15-.12l.45,0a1.48,1.48,0,0,1,.47,0l.25,0H27a.36.36,0,0,1,.16.14,1.54,1.54,0,0,1,.08.19c.07.18.14.36.2.53a3.5,3.5,0,0,1,.17.55l0,.1,0,.09.12.26a2.45,2.45,0,0,1,.08.29,1.05,1.05,0,0,0,.06.24c0,.07.06.15.09.24l.14.35a2.06,2.06,0,0,1,.12.35,2.6,2.6,0,0,1,.1.25c0,.08.07.17.11.25s.05.11.07.16a.49.49,0,0,1,.06.17,2.44,2.44,0,0,1,.1.24.72.72,0,0,0,.12.21.11.11,0,0,1,0,.08l.19.52a2.38,2.38,0,0,1,.15.52l0,0a.07.07,0,0,0,0,.06,1,1,0,0,1,.16.4,1.24,1.24,0,0,0,.16.4.47.47,0,0,1,.06.21C29.65,7.16,29.67,7.24,29.69,7.33ZM24.08,6.22v0h0a.3.3,0,0,1,0,.08h-.12l0,.05s0,0,0,0l.14.06.1,0h.08l.13,0a.33.33,0,0,1-.11-.15A.2.2,0,0,0,24.08,6.22Zm.07.9a.44.44,0,0,0,0-.1s0,0-.06-.06S24.08,7.06,24.15,7.12Zm.19-1.5a.07.07,0,0,0,0,0v0Zm.1,1v0h0v0Zm0-.29v.05h.06V6.3h-.06Zm.08-.59v0h0Zm.68.87h0a0,0,0,0,0,0,0h0v0Zm.89-2.84h0c-.09.25-.19.48-.29.72l-.31.72a1.23,1.23,0,0,1,0,.2.24.24,0,0,0,.13.19.5.5,0,0,0,.24,0l.24-.08.22-.1.22-.09a.46.46,0,0,0,.19-.08A.83.83,0,0,0,27,5.09.41.41,0,0,0,27,4.91a.44.44,0,0,0,0-.13A1.49,1.49,0,0,1,27,4.53a1.18,1.18,0,0,0-.07-.2.89.89,0,0,1-.06-.2.7.7,0,0,0-.08-.2.64.64,0,0,1-.08-.19.88.88,0,0,0-.09-.2h-.1l-.1,0-.12.13Zm-.46,2.44a.42.42,0,0,1,0,.15.18.18,0,0,0,0,.16.21.21,0,0,0,.14-.07.23.23,0,0,0,.06-.13l0-.08S25.73,6.18,25.68,6.19Zm.09-3.32s0,0,0,0h0V3h0v0S25.77,2.88,25.77,2.87Zm.27-1,0,0s0,0,0,0v0Zm.32.11a.52.52,0,0,0,0-.21,1.34,1.34,0,0,0-.07-.18.3.3,0,0,0,0,.12.76.76,0,0,1,0,.11l.05.06Zm.37.22v0h0l0,0,0,0s0,.06.07,0l-.08,0s0,0,0,0Zm.13-.77h0Zm.26,1c0-.09,0-.11-.08-.06s0,0,0,0ZM27.06,3l0,0,0,0,0,0Zm.31.38a.24.24,0,0,1,.06.09.25.25,0,0,0,0-.08Zm.44,1.46,0,0,0,0s0,0,0,0Zm.3,1s0,0,0-.05H28s0,0,0,0Zm.41.87c.05,0,.09,0,.1,0s0-.09-.09-.08v0A.09.09,0,0,0,28.52,6.69Z"/><path class="cls-1" d="M35.14,6.45h.1a7.19,7.19,0,0,1-.24.79q-.14.38-.3.75a.66.66,0,0,1-.37.05H34.1a.6.6,0,0,1-.23,0s-.09,0-.11,0a.26.26,0,0,1-.15,0h-.15l-.34,0h-2.4s0-.05,0-.07a.21.21,0,0,0,0-.06.31.31,0,0,1,.06-.13.75.75,0,0,0,.18-.28L31,7.23A.37.37,0,0,0,31,7a1.73,1.73,0,0,1,0-.32c0-.11,0-.21,0-.32a1.93,1.93,0,0,1,0-.24,2,2,0,0,0,0-.23.28.28,0,0,1,0-.09s0-.07,0-.11a.84.84,0,0,0,0-.27,2.06,2.06,0,0,0,0-.26.45.45,0,0,1,0-.28,2.56,2.56,0,0,0,0-.47L31,4a1.22,1.22,0,0,1,0-.33c0-.11,0-.22,0-.33V3.05a1.22,1.22,0,0,0,0-.27,1.8,1.8,0,0,1,0-.22.52.52,0,0,1,0-.21.34.34,0,0,0,0-.2,1.19,1.19,0,0,1,0-.46c0-.24-.07-.46-.1-.68a1,1,0,0,0-.13-.3L30.58.45a.17.17,0,0,1,.15-.18l.22,0a.89.89,0,0,1,.23,0,1,1,0,0,0,.34,0l.35-.09a.76.76,0,0,0,.42.09,1.74,1.74,0,0,1,.45.06l0,0a.09.09,0,0,0,0,.06,1,1,0,0,0-.26.45c0,.17-.07.34-.1.51a.27.27,0,0,0,0,.11,3.23,3.23,0,0,1,0,.44c0,.14,0,.28,0,.44a.56.56,0,0,1,0,.34c0,.12,0,.25,0,.37s0,.21,0,.32a.93.93,0,0,0,0,.33.22.22,0,0,1,0,.08v.08s0,0,0,.07V4a1.23,1.23,0,0,0,0,.19,1.34,1.34,0,0,1,0,.2l0,.19a1.55,1.55,0,0,0,0,.21.76.76,0,0,0,0,.15s0,.1,0,.15,0,.07,0,.1a.38.38,0,0,1,0,.1,1.52,1.52,0,0,0,.07.58.89.89,0,0,0,.41.46.82.82,0,0,0,.28,0l.31,0,.57,0h1.06ZM31.75,1.62a1.88,1.88,0,0,0-.12-.23.12.12,0,0,0-.08,0c0,.06,0,.11.05.16S31.66,1.59,31.75,1.62Zm.16,4-.18.06-.17.07,0,.09s.07,0,.1,0a.2.2,0,0,1,.09,0l.08.06A.19.19,0,0,0,32,6a1.62,1.62,0,0,0,0-.19A.24.24,0,0,0,31.91,5.65Zm-.15-3.59,0-.06,0,0c-.05-.05-.09-.08-.11-.08s-.05,0-.07.06l0,0Zm0,.38h0l0,0S31.73,2.45,31.74,2.44Zm0,3.86.06,0a.06.06,0,0,0,0-.07l0,0h0l0,0,0,0,0,0S31.76,6.29,31.78,6.3Zm0,.15h0Zm.06-3.3,0,0h0v0h0Zm.07-2a.11.11,0,0,0,0,.17C32,1.26,32,1.2,31.89,1.16ZM32,6.33l0,0h0l0,0Zm0,.94a.14.14,0,0,0,0-.11A.51.51,0,0,0,32,7a.24.24,0,0,0,0,.12S32,7.23,32,7.27Zm.32,0s0,0,0-.07v.08h0Zm.37.1h.13a.14.14,0,0,1,0-.06l0,0A.38.38,0,0,0,32.68,7.32Zm.43-.05.1,0,.11,0s0-.06,0-.08,0,0,0-.07l.08,0,.08,0a.34.34,0,0,1,0-.11A.38.38,0,0,1,33.25,7l-.17,0a.44.44,0,0,0-.15,0c0,.08,0,.14,0,.16a.16.16,0,0,0,0,.1.13.13,0,0,1,.08,0Zm.94-.2a0,0,0,0,0,0,0h0Z"/><path class="cls-1" d="M37.5.56a1.27,1.27,0,0,0-.13.32,1,1,0,0,0,0,.34.76.76,0,0,1,0,.26,2.45,2.45,0,0,0,0,.27,2.46,2.46,0,0,1,0,.26.43.43,0,0,0,0,.27.06.06,0,0,1,0,.08.61.61,0,0,0,0,.3,1.5,1.5,0,0,1,0,.3,1.14,1.14,0,0,0,0,.32c0,.1,0,.21,0,.31a2.26,2.26,0,0,1,0,.26v.27a.92.92,0,0,1,0,.16,1.48,1.48,0,0,1,0,.19.42.42,0,0,1,0,.12.66.66,0,0,1,0,.14c0,.21,0,.42,0,.63s0,.42,0,.64a2.61,2.61,0,0,0,0,.28,1.26,1.26,0,0,0,0,.27v.06a.71.71,0,0,0,0,.38,1.15,1.15,0,0,1,0,.37.59.59,0,0,0,.12.41l.08.09.07.1a.17.17,0,0,1-.14.15h-.22a1.47,1.47,0,0,1-.21,0h-.21a.65.65,0,0,0-.2.05l-.53,0-.56-.06h0l0,0a.38.38,0,0,1,.1-.23,1.33,1.33,0,0,0,.14-.19s0-.08,0-.12l0-.11,0-.37a1.93,1.93,0,0,1,0-.34V6.17a2.19,2.19,0,0,1,0-.51.74.74,0,0,0,0-.21,1.42,1.42,0,0,1-.05-.22c0-.09,0-.17,0-.26a2.72,2.72,0,0,0,0-.28.55.55,0,0,0,0-.18,1,1,0,0,0-.06-.22A1.08,1.08,0,0,0,35.82,4a.55.55,0,0,0-.07-.32,2.5,2.5,0,0,0,.06-.38.84.84,0,0,0,0-.38.25.25,0,0,1,0-.12.51.51,0,0,0,0-.13c0-.1,0-.21,0-.31a.85.85,0,0,0,0-.32.55.55,0,0,1,0-.18.75.75,0,0,1,0-.2,1.37,1.37,0,0,0-.14-1A.58.58,0,0,0,35.52.5.51.51,0,0,1,35.4.37a.06.06,0,0,1,0,0v0l.06,0a.13.13,0,0,1,.08,0A2.26,2.26,0,0,0,36,.2a1.78,1.78,0,0,1,.46,0l.18,0h.18a2.61,2.61,0,0,1,.28,0h.3a.61.61,0,0,1,.28.07l0,0a.09.09,0,0,0,0,.06l-.12.1ZM36.37,2.51v0h0l0,0Zm.14,1.93-.06,0-.06,0a.74.74,0,0,0,0,.12.31.31,0,0,0,0,.1s0,0,0,.07a.93.93,0,0,1,.05-.1Zm-.09-3.19a.33.33,0,0,0-.06.13s0,0,.1.05a.14.14,0,0,0,0-.09A.36.36,0,0,0,36.42,1.25Zm0-.12h0Zm.06,4.38s0,0,0,0a.06.06,0,0,0-.05,0l0,0s0,0,0,0A0,0,0,0,1,36.47,5.51Zm-.06-3.79v0h0s0,0,0,0a0,0,0,0,0,0,0Zm.18.08a.47.47,0,0,1-.09.06l0,0s0,.05,0,.07a.13.13,0,0,0,0,.06h.19a.61.61,0,0,1,0-.11ZM36.51,7l.05,0s0,0,0,0l0,0-.05,0,0,0,0,0Zm.08-1,0-.1a.32.32,0,0,1,0-.09.47.47,0,0,1,0-.1.1.1,0,0,0-.08-.06.5.5,0,0,0,0,.16s0,.09,0,.13S36.53,6,36.59,6Zm.18,1.14s0,0,0-.06a.09.09,0,0,0,0,0l0-.07-.25.09.09.11h.19Zm-.18-2.44a.11.11,0,0,0,.06-.15Q36.52,4.61,36.59,4.72Zm0,.35s.06,0,.09,0l.08,0a.1.1,0,0,0-.08,0Zm.07-.73,0,0,0,0,0,0,0,0Zm0-3.39s0,0,0,0h0A0,0,0,0,1,36.63,1Zm.2,1.33h-.12a.14.14,0,0,1,0,.06l0,.06Zm0,3.75s0,0,0,0V6h0l0,0h0Zm0,.48-.06,0s0,0,0,0S36.79,6.54,36.83,6.51Z"/><path class="cls-1" d="M39.57,8a3.15,3.15,0,0,1,.22-.29.57.57,0,0,0,.12-.37c0-.1,0-.21,0-.31a.7.7,0,0,0,0-.31c0-.13,0-.26,0-.38a2.48,2.48,0,0,0,0-.38c0-.05,0-.1,0-.14V5.67c0-.15,0-.3,0-.43V4.81c0-.06,0-.12,0-.18a.63.63,0,0,1,0-.19.49.49,0,0,0,0-.17.88.88,0,0,1,0-.17.2.2,0,0,0,0-.07V4c0-.24,0-.47,0-.71s0-.47,0-.71l-.13-.25L39.64,2,39.46,2l-.17-.08a2,2,0,0,0-.34,0h-.81A.17.17,0,0,1,38,1.76c0-.06,0-.15.1-.3s.1-.29.16-.46l.18-.47L38.58.2a.14.14,0,0,1,.1,0h.11l.1,0H39c.21,0,.43,0,.64,0a2.38,2.38,0,0,0,.65,0,1.51,1.51,0,0,1,.37,0A1.09,1.09,0,0,0,41,.2l.16,0h.18a1.27,1.27,0,0,0,.34,0,2.43,2.43,0,0,0,.38,0h.35l.35,0c.08.19.16.36.23.54s.15.34.23.52.07.2.08.25a1.22,1.22,0,0,1,0,.22.16.16,0,0,1-.11.05H43.1l-.4,0h-.4a.73.73,0,0,0-.46.15l-.1.09-.11.1s0,.09-.07.14-.05.11-.07.17a.5.5,0,0,0,0,.13.53.53,0,0,0,0,.12v.49c0,.16,0,.32,0,.49s0,.4,0,.6,0,.4,0,.6a2,2,0,0,1,0,.42c0,.13,0,.27,0,.42a2.94,2.94,0,0,0,0,.42,2.28,2.28,0,0,1,0,.37.81.81,0,0,0,0,.22,1.34,1.34,0,0,1,0,.2.29.29,0,0,0,0,.09V7a.46.46,0,0,0,0,.2,2.07,2.07,0,0,0,0,.22,1,1,0,0,0,.2.4.1.1,0,0,1,0,0s0,0,0,.06l0,0a.05.05,0,0,1,0,0h-.37l-.36,0a1.7,1.7,0,0,1-.39,0,2.42,2.42,0,0,0-.38,0,1,1,0,0,1-.25,0h-.25C39.63,8.12,39.59,8.08,39.57,8Zm.54-6.77c0,.09.11.12.19.09l.05-.08-.17-.08S40.11,1.19,40.11,1.21Zm.16-.46h0a0,0,0,0,0,0,0h0s0,0,0,0Zm.29,5.72a.41.41,0,0,0,0-.12.17.17,0,0,0-.09-.06.27.27,0,0,0-.06.27c.05,0,.08,0,.1,0A.16.16,0,0,0,40.56,6.47Zm0-.68h0s0,0,0,0Zm0-4,0,0,0,0,0,0s0,0,0,0S40.57,1.74,40.58,1.76Zm.28,2.32a.22.22,0,0,0-.19-.17.1.1,0,0,0-.11.09A.27.27,0,0,0,40.86,4.08Zm-.19,1.16.06,0,.06-.05-.08,0L40.63,5a.16.16,0,0,0,0,.08l0,.06Zm-.06-3.31a.42.42,0,0,0,0,.12s0,.08.06.12l.16,0,0-.12a1,1,0,0,1,0-.14l-.09,0a.26.26,0,0,0-.09,0Zm0-1,0,0s0,0,0,0l0-.05,0,0L40.63.88Zm0,1.29a.49.49,0,0,0,0,.16l.12.12h.08s0,0,0-.08a.36.36,0,0,0-.09-.09Zm0,2.39a.35.35,0,0,1,.15.07.25.25,0,0,0,.15,0,.32.32,0,0,0-.12-.32l-.09.09Zm0-3.39h.06v0A.07.07,0,0,0,40.64,1.24Zm.18,5s0,0,0,0h0S40.82,6.3,40.82,6.28Zm.06-.92-.06.1s0,0,.06,0L41,5.43Zm.21-4a2.31,2.31,0,0,1-.18.23l.07.07a.24.24,0,0,0,.13-.08.42.42,0,0,0,0-.1Zm0-.29h.07s0,0,.07,0,0,0,0,0l0,0-.09,0h-.1v.1s0,0,0,0h0S41.05,1.09,41.06,1.09Zm.53-.21h0s0,0,0,0h0A0,0,0,0,1,41.59.88Z"/><path class="cls-1" d="M47.15,2.81h.13l.14,0a.49.49,0,0,0,.24-.18l.17-.24c.06-.11.11-.21.16-.32s.11-.22.17-.34a.23.23,0,0,1,.05-.1.76.76,0,0,0,.2-.27,2.1,2.1,0,0,1,.15-.3.43.43,0,0,0,.07-.2.58.58,0,0,1,0-.19,1.18,1.18,0,0,1-.08-.16L48.52.35a.18.18,0,0,0,.07,0l.07,0a.83.83,0,0,1,.22,0l.32,0h.54a.51.51,0,0,1,.2,0H50a.44.44,0,0,1,.3,0,.92.92,0,0,0,.29,0l.07,0,.08.06a.17.17,0,0,0-.06.06l0,0L50.5.59a.8.8,0,0,0-.2.21,2.44,2.44,0,0,0-.14.28,2.44,2.44,0,0,1-.1.24L50,1.56c-.06.11-.11.22-.16.32s-.1.21-.15.32a1.64,1.64,0,0,1-.14.22c0,.07-.1.14-.14.21l-.06.07-.25.51-.27.52L48.64,4a1.38,1.38,0,0,1-.19.25l0,.06a.1.1,0,0,1,0,.05c-.07.18-.14.35-.2.52a2.35,2.35,0,0,0-.1.54,5.09,5.09,0,0,0,0,.78c0,.26,0,.52,0,.77a1.09,1.09,0,0,1,0,.18.37.37,0,0,0,0,.18,1.07,1.07,0,0,0,.08.32.58.58,0,0,0,.22.25.84.84,0,0,0,0,.14,5.83,5.83,0,0,1-1,.07l-1,0h0l0,0V8a1.3,1.3,0,0,0,.22-.48,1.77,1.77,0,0,0,0-.52,2.41,2.41,0,0,1,0-.38V6.21a1.28,1.28,0,0,0,0-.19.6.6,0,0,1,0-.19,1.48,1.48,0,0,0,0-.21,1.48,1.48,0,0,1,0-.21,1,1,0,0,0,0-.3,2.33,2.33,0,0,0-.11-.28l-.17-.35L46,4.12c0-.06,0-.11-.08-.16a.55.55,0,0,0-.09-.14,1.75,1.75,0,0,1-.18-.29,1.91,1.91,0,0,0-.16-.32,0,0,0,0,1,0,0,0,0,0,0,0,0,0c-.17-.3-.33-.59-.5-.86a1.53,1.53,0,0,0-.14-.21,1,1,0,0,1-.12-.23.68.68,0,0,0-.11-.19,2,2,0,0,1-.2-.31c0-.11-.09-.21-.13-.32A.89.89,0,0,0,44,.74l-.2-.16L43.61.43s0,0,0-.06,0,0,0-.06A5.6,5.6,0,0,1,44.79.24l1.14.08,0,0a0,0,0,0,1,0,0,0,0,0,0,0,0,0,.38.38,0,0,1-.08.17.18.18,0,0,0,0,.19c0,.09.07.17.11.25a2.56,2.56,0,0,0,.11.24l0,.07a1.24,1.24,0,0,1,.17.27,1.82,1.82,0,0,0,.15.27c.07.12.14.23.2.35a2.39,2.39,0,0,0,.21.34.53.53,0,0,0,.11.14A.38.38,0,0,0,47.15,2.81ZM45,.8h.11a.11.11,0,0,0,.11,0,.08.08,0,0,1,0,0s0,0,0,0l-.08.07L45,.82a.12.12,0,0,0,0,.05s0,0,0,.08Zm.36.28a.19.19,0,0,0-.16-.2L45.1,1l0,.07a.56.56,0,0,1,0,.08Zm.14.55,0,0h0v0h0S45.45,1.63,45.47,1.63ZM46.59,3.8c.06,0,.1,0,.12,0l-.08,0S46.61,3.76,46.59,3.8Zm.23-.16a.47.47,0,0,1-.1-.11.18.18,0,0,0-.11-.08c0,.07,0,.12,0,.14A.51.51,0,0,0,46.82,3.64Zm.23.14c0-.07,0-.11,0-.14H47s0,0,0,.06l.05,0Zm0,.53h0Zm.25-.58a.17.17,0,0,1,.06-.06.08.08,0,0,0,0,0c0-.06,0-.07-.09,0A.42.42,0,0,1,47.26,3.73Zm.07.92s-.06,0,0,.08.05,0,.11,0V4.69S47.37,4.66,47.33,4.65Zm0-.09a.56.56,0,0,0,.06-.21s0-.06-.12-.09a.35.35,0,0,1,0,.13S47.32,4.49,47.34,4.56Zm0,.37,0,0a0,0,0,0,0,0,0s0,0,0,0l.06,0S47.37,4.94,47.37,4.93Zm0,1.72h0v.06h0Zm.2.36-.08,0-.12-.07A1.29,1.29,0,0,1,47.4,7l0,.08s0,0,0,0l0,.07v0h.06a.35.35,0,0,0,.08-.1A.24.24,0,0,0,47.54,7Zm0-2.8a.15.15,0,0,1,.06.09.11.11,0,0,0,.07.09h0v0h0l0-.08a1,1,0,0,1,0-.1.44.44,0,0,1,.11-.09A.52.52,0,0,0,47.8,4s0,0,0-.07a.13.13,0,0,0,0-.06s-.06,0-.08,0l0,.05a.13.13,0,0,1-.08,0l-.07,0a.34.34,0,0,0,0,.1Zm.28-.93c.07.06.12.06.16,0a0,0,0,0,0,0,0,0,0,0,0,1,0,0h0a.09.09,0,0,1-.06,0l0,.07A.17.17,0,0,1,47.78,3.28Zm1.29-2c0,.09,0,.14.07.17a.13.13,0,0,0,.16-.07l-.11-.05A.33.33,0,0,0,49.07,1.24Zm.06.39a0,0,0,0,0,0,0s0,0,0,0h0v0h0Zm.14-.52a0,0,0,0,0,0,0h0s0,0,0,0Z"/><path class="cls-1" d="M3.16,17.6a2.21,2.21,0,0,0-.63.13A1.2,1.2,0,0,0,2,18.1a2.11,2.11,0,0,0-.1.3l.08.21.09.19.12.16.11.15,0,.07s0,0,0,.05l-.06,0a.94.94,0,0,0-.37,0l-.38.06H1.13a2.36,2.36,0,0,0-.38,0H.16l0,0L0,19.18l.07-.09L.16,19a1,1,0,0,0,.2-.35,1.42,1.42,0,0,0,.06-.42c0-.33,0-.66,0-1V16.14a.71.71,0,0,0,0-.14.28.28,0,0,0,0-.09.34.34,0,0,1,0-.1.28.28,0,0,0,0-.09.22.22,0,0,1,0-.08,1.49,1.49,0,0,0,0-.21,1.36,1.36,0,0,0,0-.2.24.24,0,0,1,0-.12s0-.08,0-.13a1.18,1.18,0,0,1,0-.2,1.62,1.62,0,0,1,0-.22c0-.1,0-.2,0-.29a.66.66,0,0,0,0-.3.13.13,0,0,1,0-.06.22.22,0,0,0,0-.08c0-.18,0-.36,0-.54s0-.36,0-.54a1.52,1.52,0,0,0-.06-.53,1,1,0,0,0-.3-.44l0,0a.13.13,0,0,0,0-.05s0,0,0,0,0,0,0-.05l.07,0H.36a.58.58,0,0,0,.26-.06,1.28,1.28,0,0,0,.39,0,2.93,2.93,0,0,1,.41-.07,3.2,3.2,0,0,1,.53,0,3,3,0,0,0,.52,0h.11a1.73,1.73,0,0,0,.38.05h.37a1,1,0,0,1,.29,0l.34.12.36.11a.2.2,0,0,1,.08,0,.18.18,0,0,0,.07,0l.15.09.16.09.13.1a.34.34,0,0,1,.12.12c.07.1.14.19.2.29a2.51,2.51,0,0,0,.2.29,1.12,1.12,0,0,1,.16.28,1.88,1.88,0,0,1,.12.3,2.14,2.14,0,0,1,.13.48l0,.11a.46.46,0,0,0,0,.09v1a.17.17,0,0,0,0,.17.47.47,0,0,1,0,.2,1.05,1.05,0,0,0,0,.19.61.61,0,0,1,0,.15l-.2.34c-.06.11-.13.22-.21.34l-.08.05-.12.07a.51.51,0,0,1-.09.13l-.1.17L4.76,17l-.23.13h0a.86.86,0,0,0-.14.13l-.14.1-.14.07L4,17.43a2,2,0,0,1-.41.07.69.69,0,0,1-.2,0A.28.28,0,0,0,3.16,17.6ZM1,13l.12.09,0,0c0-.06,0-.1-.11-.11l0,0Zm0,1.18c.07,0,.09,0,.05-.05ZM1.07,17a.13.13,0,0,0,0,.19l.08,0,.06-.07L1.29,17Zm.23-.81-.12,0-.13.05a.23.23,0,0,1,0,.09s0,.06,0,.09l.08,0h.13l.08,0,0-.11ZM1.19,18a.83.83,0,0,0,.12.24s.08,0,.18,0a.51.51,0,0,0,0-.13A.17.17,0,0,0,1.45,18H1.19Zm.08-4.6c-.07,0-.09,0-.06.05Zm-.06.62.06.06Q1.32,14,1.21,14.05Zm0-1.4h0ZM1.45,17a.49.49,0,0,0,.07-.11l.06-.07-.12-.07s-.08,0-.13,0a.31.31,0,0,0,0,.1A.35.35,0,0,1,1.45,17Zm.1-4.87H1.43Q1.44,12.22,1.55,12.13Zm-.12,5.14h0v-.06h0Zm.23-4.8a.18.18,0,0,0,.07-.05l.1-.05a.23.23,0,0,1-.07-.11.15.15,0,0,0-.12-.08.26.26,0,0,1,0,.15A.15.15,0,0,0,1.66,12.47Zm.07,4.62s-.07,0-.07,0,0,0,0,.07l0,0Zm0-.17h0s0,0,0,0a0,0,0,0,0,0,0H1.72ZM4,13.21l-.21-.11A.85.85,0,0,0,3.53,13a1.35,1.35,0,0,0-.47-.09H2.69l-.38,0-.1.09-.1.09a.58.58,0,0,0-.19.45.74.74,0,0,0,0,.21v.65a1.1,1.1,0,0,1-.07.44l0,.13s0,.08.05.13a.6.6,0,0,0,0,.35,2.14,2.14,0,0,0,.09.34l.17.16.19.09.11,0,.14.06.3,0,.31,0a.51.51,0,0,0,.18-.08.54.54,0,0,1,.19-.13l.2-.08A1.33,1.33,0,0,0,4,15.75a1.08,1.08,0,0,0,.15-.13.67.67,0,0,0,.16-.37,1.28,1.28,0,0,1,.07-.34.12.12,0,0,1,0-.13.47.47,0,0,0,0-.1,1.87,1.87,0,0,0,0-.25.33.33,0,0,1,0-.14.68.68,0,0,0,0-.14L4.34,14a.63.63,0,0,1,0-.19.52.52,0,0,0,0-.11.13.13,0,0,0,0-.07.43.43,0,0,1-.15-.18A.8.8,0,0,0,4,13.21ZM2.05,17v0H2v0Zm.15-4.86-.11,0a.1.1,0,0,0-.08,0l0,0,0,0,.06,0Zm-.08.2s0,0,0,0H2.05v0a0,0,0,0,0,0,0Zm.18,0,0,0,0,0,.09.07C2.35,12.33,2.35,12.28,2.3,12.25Zm.25-.15v0h0Zm2.7,1.45,0-.06s0,0,0,.06Zm0,1c.05.06.1.07.14,0s0,0,0,0l0-.06Z"/><path class="cls-1" d="M6.35,18.66a2,2,0,0,0,.07-.4v-.37c0-.11,0-.22,0-.34s0-.22,0-.33a2.33,2.33,0,0,0,0-.46V16.3c0-.13,0-.27,0-.4a2.8,2.8,0,0,0,0-.41,1.36,1.36,0,0,1,0-.35.84.84,0,0,0,0-.35.11.11,0,0,1,0-.08,3.86,3.86,0,0,0,0-1c0-.15,0-.31,0-.47a3.73,3.73,0,0,1,0-.47,2.09,2.09,0,0,0,0-.5,1.38,1.38,0,0,0-.15-.46l-.11-.1A.87.87,0,0,1,6,11.66v-.05a.15.15,0,0,1,0-.07l0,0s0,0,0,0a1,1,0,0,0,.38-.05l.38-.08H7.91l.57,0a.06.06,0,0,1,.08,0,1.72,1.72,0,0,0,.39,0h.39a.57.57,0,0,1,.18,0l.18,0,.3.09.29.1.07,0,.06,0,.35.22a.88.88,0,0,1,.25.22,2.9,2.9,0,0,0,.19.29l.19.28a.66.66,0,0,1,.16.26l.08.18.06.18a.6.6,0,0,0,.06.19.58.58,0,0,1,0,.19.58.58,0,0,0,.05.16.84.84,0,0,1,.05.17l0,.21a.57.57,0,0,0,0,.22.26.26,0,0,1,0,.17.26.26,0,0,0,0,.15l0,.13c0,.15-.05.29-.08.43s0,.25-.05.37-.15.23-.21.34l-.19.34-.09.05-.14.07a2.2,2.2,0,0,1-.18.28l-.17.12-.19.11a.43.43,0,0,0-.09.26.91.91,0,0,0,.05.27,1.07,1.07,0,0,0,.36.2,2.22,2.22,0,0,1,.38.14.31.31,0,0,0,.19,0c.06,0,.12,0,.17.11-.12.2-.24.4-.35.61s-.25.4-.39.6l-.29-.08-.26-.06A1.18,1.18,0,0,1,10,19l-.37-.17a1.84,1.84,0,0,1-.28-.21l-.24-.26L9,18.18,8.89,18a.69.69,0,0,0-.49-.33l-.12,0-.13.07L8,17.81a.71.71,0,0,0-.12.31,1.71,1.71,0,0,0,0,.32.77.77,0,0,0,.11.3,1.55,1.55,0,0,1,.14.29s0,.08,0,.11l-.16,0-.17,0a4.35,4.35,0,0,0-.52.06,1.14,1.14,0,0,1-.52,0l-.26,0a.82.82,0,0,0-.27,0H6.14L6,19.06,6.1,19a1,1,0,0,1,.13-.15Zm.89-1-.1,0a.12.12,0,0,0-.1,0,.06.06,0,0,0,0,0v0l.16,0s0,0,0,0A.14.14,0,0,1,7.24,17.63Zm-.15-5.7h0a.25.25,0,0,0,0,.07l0,0A.16.16,0,0,1,7.09,11.93Zm0,4.22h0Zm.06,1s0,.06,0,.08l.05,0S7.18,17.11,7.13,17.11Zm.17-4.38v-.25l-.08,0-.08,0a.41.41,0,0,1,.06.11A.12.12,0,0,0,7.3,12.73Zm-.09,4s-.06.07-.06.09a.1.1,0,0,0,.06.07C7.28,16.8,7.28,16.75,7.21,16.69Zm0-4.34h0s0,0,0,0l0,0Zm.08,4.23s0,0,0,0h0l0,.06Zm.06.8c.06,0,.07-.06,0-.1a.06.06,0,0,0-.09,0S7.31,17.37,7.36,17.38Zm.25-5.22h0V12H7.58a.24.24,0,0,1,0,.08S7.61,12.13,7.61,12.16Zm.26,1.4a.19.19,0,0,1,0,.21.59.59,0,0,0,0,.23.44.44,0,0,1,0,.2c0,.07,0,.14,0,.21a.78.78,0,0,1,0,.22c0,.07,0,.15,0,.24a1.17,1.17,0,0,1,0,.11s0,.09.05.15a.68.68,0,0,0,0,.28,1.45,1.45,0,0,0,0,.25.8.8,0,0,0,.18.25.6.6,0,0,0,.21.14.81.81,0,0,0,.22.07l.22,0,.21,0h.16A.36.36,0,0,0,9.4,16a.61.61,0,0,1,.26-.15l.3-.11.14-.12.14-.12a1.16,1.16,0,0,1,.06-.15.28.28,0,0,0,0-.15l0-.17a.83.83,0,0,1,0-.15.75.75,0,0,0,0-.15.28.28,0,0,1,0-.13l0-.05v0c0-.12,0-.23,0-.34a1.19,1.19,0,0,0-.1-.32v0a.46.46,0,0,0-.15-.38.28.28,0,0,1-.11-.17.26.26,0,0,0-.13-.16l0,0s0,0,0,0L9.69,13,9.53,13l-.24-.06a.5.5,0,0,0-.24,0H8.57l-.1,0-.14,0L8.2,13l-.15.1-.09.2A1.36,1.36,0,0,1,7.87,13.56Zm.34,3.26.12,0a.16.16,0,0,0,.08-.06l0-.06-.11.05a.11.11,0,0,1-.11,0l0,.05Zm0-4.86v0l0,0s0,0-.05,0a0,0,0,0,0,0,0s0,0,.05,0Zm.64,4.86v0s0,0,0,0h0v0S8.9,16.81,8.9,16.82Zm.45,0s0-.06-.06-.06,0,0-.1,0,.05.06.07.06S9.3,16.85,9.35,16.84Zm.24-.08c-.08,0-.13,0-.14.08l.07.05a.21.21,0,0,0,0-.06S9.58,16.79,9.59,16.76Zm0,.23a.31.31,0,0,0,0,.1c.09,0,.12,0,.1-.13Zm.16.41v0h0v0Zm.1.13v0h0Zm0,.36a.05.05,0,0,1,0,0H9.85Zm.82-5.33.05,0,0,0,0,0Zm.33.36-.11.09a.15.15,0,0,0-.08.11.17.17,0,0,0,0,.1.11.11,0,0,0,.1,0l.07-.12s0,0,.06,0,0,0,.08,0a.34.34,0,0,0-.06-.12Zm0,.77-.07,0,0,.05H11Zm.21.88c-.06.08,0,.15.06.2l.08-.07-.09-.08Zm0-.88h0v0h0Z"/><path class="cls-1" d="M15.43,11.31a.05.05,0,0,1,0,0l0,0,.25,0a1.09,1.09,0,0,1,.26,0l.34,0,.36,0,.29.11a2.12,2.12,0,0,1,.31.14l.21-.05.09.09a.39.39,0,0,1,.1.08l.11.05a.34.34,0,0,1,.12.06l.12.09.15.12a.87.87,0,0,1,.42.26.15.15,0,0,0,.06,0l.1.06a.39.39,0,0,0,.35.3.83.83,0,0,1,0,.12l.07.17.06.06.1.08a.4.4,0,0,1,0,.13.64.64,0,0,0,.06.16l0,0,.05,0c0,.1.05.19.08.27s.05.18.07.28a1.23,1.23,0,0,1,.14.25.94.94,0,0,1,.07.31,2.64,2.64,0,0,0,0,.29.54.54,0,0,1,0,.28c0,.15,0,.28.06.38s0,.19,0,.27A2,2,0,0,0,20,16a2.87,2.87,0,0,1,0,.31,1.14,1.14,0,0,1-.09.3,1.42,1.42,0,0,0-.08.18l-.06.19a2.34,2.34,0,0,1-.25.56,4.41,4.41,0,0,1-.36.49,1.33,1.33,0,0,0-.14.19.86.86,0,0,1-.16.18.7.7,0,0,1-.22.2l-.29.16-.14.08-.13.1a.38.38,0,0,1-.13.09l-.14.08-.19.09-.23.1-.25,0a1.4,1.4,0,0,0-.29.09.66.66,0,0,1-.21,0h-.33a1.77,1.77,0,0,1-.76,0q-.36-.08-.72-.18l-.1,0a.61.61,0,0,0-.28-.16,1.63,1.63,0,0,1-.29-.1,3.51,3.51,0,0,1-.36-.29l-.35-.26a.39.39,0,0,1-.1-.08.27.27,0,0,1-.07-.08l-.34-.45a4,4,0,0,1-.33-.47A.8.8,0,0,1,12.4,17c0-.1-.07-.19-.1-.29a1.55,1.55,0,0,0-.08-.23.26.26,0,0,1,0-.23,3.17,3.17,0,0,1-.11-1,.19.19,0,0,0,0-.08l0-.07,0-.11a1.27,1.27,0,0,0,0-.14c0-.05,0-.11,0-.16s0-.12,0-.18.07-.22.11-.32l.12-.32s0,0,0-.06l0-.07a1.11,1.11,0,0,0,.18-.34c0-.12.09-.24.14-.37l.27-.31a3.82,3.82,0,0,1,.27-.32.37.37,0,0,0,.29-.16c.06-.09.13-.18.19-.29l.29-.15.3-.14.17-.08a.75.75,0,0,0,.18-.07.87.87,0,0,1,.37-.16ZM12.92,15a.25.25,0,0,0,0,.07h0A.13.13,0,0,0,13,15h0Zm0,.24v0h0v.05Zm.09.45-.08.09a.37.37,0,0,0,.1.14s0,0,0-.05a.59.59,0,0,0,0-.08l-.06,0Zm0-1,0,.06a0,0,0,0,0,0,0,.12.12,0,0,0,.18,0C13.18,14.7,13.12,14.66,13,14.63Zm.1,2a.57.57,0,0,0,.13-.08l.11-.11-.08-.07h-.11l-.08.11A.15.15,0,0,0,13.13,16.62Zm.27.35c.06,0,.09-.06.09-.07l-.08-.06A.45.45,0,0,0,13.4,17Zm2.86-4.26-.38.08-.36.08a1.54,1.54,0,0,0-.58.23,4.33,4.33,0,0,0-.51.39,2,2,0,0,0-.36.48c-.08.17-.16.35-.23.54a1.71,1.71,0,0,0-.09.3c0,.11,0,.21,0,.32a.34.34,0,0,1,0,.28c0,.13,0,.25.07.37a2.45,2.45,0,0,1,.06.34.28.28,0,0,1,.12.23.35.35,0,0,0,.07.23l.17.22a.86.86,0,0,1,.15.22,1,1,0,0,0,.26.24.83.83,0,0,1,.24.21H15a3.23,3.23,0,0,0,.41.22,1.63,1.63,0,0,0,.46.11l.34,0a1.77,1.77,0,0,0,.32,0,1.38,1.38,0,0,0,.29-.08,2.26,2.26,0,0,0,.26-.14,3.35,3.35,0,0,0,.36-.21l.38-.23a1.05,1.05,0,0,1,.15-.3,2.69,2.69,0,0,1,.22-.28.63.63,0,0,0,.21-.48.64.64,0,0,1,.12-.39V15c0-.13-.06-.24-.08-.36s-.06-.23-.1-.35l-.08-.06-.06,0L18,13.86a2.11,2.11,0,0,0-.21-.31l-.1-.05-.11-.06-.06-.11a.64.64,0,0,0-.06-.11,2.07,2.07,0,0,1-.34-.15.76.76,0,0,0-.36-.11l0,0h0l-.22-.11ZM13.9,13a.08.08,0,0,0-.14,0s.07,0,.09,0S13.88,13,13.9,13Zm.19-.13,0,.07,0,0,0,0,0-.07A.18.18,0,0,0,14.09,12.82Zm1,5.33a.14.14,0,0,0,0,.06h0v0A0,0,0,0,1,15.11,18.15Zm.46.73,0,0a0,0,0,0,0,0,0h0a0,0,0,0,0,0,0v0Zm.6-.33,0,0h0a.08.08,0,0,0,0,0Zm1.06-6.42s0,0,0,0v0h0Zm.18,5.61s-.07,0-.07,0a.14.14,0,0,0,0,.07A.25.25,0,0,0,17.41,17.74Zm0,.4s0,.05,0,.07a.09.09,0,0,0,.06.06.1.1,0,0,0,.07-.06l0,0Zm.32-5.75v0h.06v0Zm0,5.37a.41.41,0,0,1,.09.1l.09.09v-.18h-.18ZM18,12.7h.16l.15-.06c0-.09,0-.15-.11-.18a.26.26,0,0,1-.13.06.17.17,0,0,0-.12.1Zm.29,4.81a.15.15,0,0,0-.05.08.42.42,0,0,0,.05.1v-.18a0,0,0,0,1,0,0v0S18.28,17.51,18.27,17.51Zm.38-4.14,0,.07,0,0a.36.36,0,0,0,.07.1.12.12,0,0,0,.11,0,.41.41,0,0,0,0-.08l-.05-.07Zm.19,2.89.07.09.07.07.14-.06c.05,0,.08-.05.11-.11l-.08-.06,0-.06ZM19.29,14a.33.33,0,0,0-.16-.07.35.35,0,0,1-.18-.06.24.24,0,0,0,.15.3l.06,0,.06,0,0,0A.15.15,0,0,0,19.29,14Zm-.06.93c-.06.06-.08.11-.06.16s.06,0,.12,0a.09.09,0,0,0,0-.06A.29.29,0,0,1,19.23,14.94Zm0-.11v0h0v0Zm.14-.45c-.09,0-.12,0-.1.1h.12a.43.43,0,0,0,0-.05A.06.06,0,0,0,19.34,14.38Zm.1,1.31a.21.21,0,0,1-.05-.11h-.08l0,.07s0,.05,0,.09l.05,0Zm0-1v0Z"/><path class="cls-1" d="M26.14,13.31a1,1,0,0,0-.12.15,3.57,3.57,0,0,0-.1.35l-.11.41a5.82,5.82,0,0,0-.35.88,3.46,3.46,0,0,0-.13.6l-.11.17a.87.87,0,0,1-.08.14c0,.1,0,.19-.05.27s0,.16-.05.24a.71.71,0,0,0-.21.39,2.46,2.46,0,0,1-.11.45.69.69,0,0,0-.14.22,2.76,2.76,0,0,0-.08.27c0,.08,0,.16-.07.25l-.09.25a.21.21,0,0,0,0,.12.37.37,0,0,1,0,.12.45.45,0,0,0,.1.28.56.56,0,0,1,.12.27l-.06,0,0,0c-.26,0-.51.06-.76.07a3.92,3.92,0,0,1-.76,0h-.21l-.21,0h-.1l-.14-.09a2.58,2.58,0,0,1,.19-.37.65.65,0,0,0,.06-.45c0-.06,0-.14-.06-.24s-.06-.19-.09-.3a.92.92,0,0,0-.08-.25.24.24,0,0,0-.06-.09.36.36,0,0,1-.07-.1,2.07,2.07,0,0,1-.1-.43.8.8,0,0,0-.22-.4c0-.08,0-.15-.05-.23s0-.17-.05-.28a1.15,1.15,0,0,0-.08-.14l-.09-.17a5.73,5.73,0,0,0-.42-1.31L21,14.2A1.55,1.55,0,0,1,21,14a.17.17,0,0,0,0-.07l0-.07-.06-.17c0-.06,0-.13-.07-.21a1.49,1.49,0,0,1-.11-.15.74.74,0,0,0-.08-.29,2.52,2.52,0,0,1-.12-.29c0-.08-.07-.16-.11-.25a1.17,1.17,0,0,1-.1-.26.66.66,0,0,0-.13-.25,1.89,1.89,0,0,0-.2-.2.28.28,0,0,0-.09-.07.12.12,0,0,1-.05-.1c0-.06.05-.1.13-.11h.46l.35,0a.3.3,0,0,0,.21.05,1,1,0,0,0,.24,0,.86.86,0,0,1,.32,0,1.66,1.66,0,0,0,.32,0h0l.05,0a.14.14,0,0,1,0,.13.24.24,0,0,0-.06.09,1.34,1.34,0,0,0-.07.18.31.31,0,0,0,0,.19.83.83,0,0,1,0,.15c0,.05,0,.1.05.15s.1.28.16.45l.12.26c0,.09.08.19.12.29a.2.2,0,0,0,0,.07v0c0,.09.07.17.09.23a.7.7,0,0,1,.06.19,2,2,0,0,0,.1.26.56.56,0,0,0,.17.24,1,1,0,0,0,.12.54l0,.13,0,.16.09.15a1.63,1.63,0,0,0,.11.17l0,.19a.28.28,0,0,0,.1.17.2.2,0,0,0,.23,0,.7.7,0,0,0,.19-.16,1,1,0,0,1,.15-.41A1.59,1.59,0,0,0,24,15a3.12,3.12,0,0,0,.09-.44.09.09,0,0,0,0-.05.11.11,0,0,1,0,0,.6.6,0,0,0,.14-.21l.09-.25a1,1,0,0,1,.07-.2c0-.07.05-.14.08-.2a3.19,3.19,0,0,1,.21-.59c.08-.2.17-.41.25-.64s0-.21,0-.28v-.18l0-.14-.07-.17a.05.05,0,0,0,0,0,.08.08,0,0,1,0,0,.51.51,0,0,1,.27,0,.75.75,0,0,0,.26,0,.66.66,0,0,1,.28,0,.71.71,0,0,0,.29,0,1.13,1.13,0,0,1,.26,0l.27,0h.26a1.26,1.26,0,0,1,.27,0,.15.15,0,0,1,0,.06s0,0,0,.06l-.21.18-.19.18-.08.09a.6.6,0,0,0-.06.11,2.5,2.5,0,0,1-.15.38c-.06.12-.11.24-.16.37l-.06.16c0,.05,0,.11-.05.16A0,0,0,0,0,26.14,13.31Zm-4.75-.05a.29.29,0,0,0,.15.06.27.27,0,0,0,.11-.05s0-.08-.08-.09l-.08,0Zm0,.29.09.1.08-.11s0,0,0-.06l-.05,0Zm.22-.45a.54.54,0,0,0,0-.08L21.52,13Q21.48,13.07,21.61,13.1Zm0,1v0h0Zm1.26,3.44h0Zm.32.33-.09,0s-.05,0-.06.07l.06.09A.85.85,0,0,1,23.21,17.88Zm-.12-.21h.09s0,0,.06-.05l0-.05h-.07S23.11,17.61,23.09,17.67Zm.06-.25a1,1,0,0,1,.18.09l.11,0h.08l.09,0s-.06-.07-.1-.07a.22.22,0,0,1-.12,0l-.24-.14Zm.19-.79h0v0Zm.34-.11s0,0,0,0,0,0,0,0,0,0,0,0v0a0,0,0,0,0,0,0h-.05Zm1.25-1.72c0-.1-.05-.14-.13-.13s0,.14.08.18l0,0Zm0-.63a.76.76,0,0,0,0,.16.12.12,0,0,0,.06.1.19.19,0,0,0,.09,0,.17.17,0,0,0,0-.12l-.08,0Zm.07-.39v0Zm.19-.22,0,0s0,0,0,.06l.06,0,.06,0s0,.07,0,.11l.11-.06.07-.09a.39.39,0,0,0-.06-.11l-.07-.11-.09.1Zm.23-.41h0Zm0-.29.12,0,.13,0c0-.11,0-.18,0-.22a.37.37,0,0,0-.12-.07.11.11,0,0,0-.11,0,.19.19,0,0,0,0,.07A.38.38,0,0,1,25.47,12.86Z"/><path class="cls-1" d="M29,11.75a1.27,1.27,0,0,0-.13.32,1,1,0,0,0,0,.35,1,1,0,0,1,0,.25,2.44,2.44,0,0,0,0,.27,1.22,1.22,0,0,1,0,.26.44.44,0,0,0,.05.27.11.11,0,0,1,0,.08.77.77,0,0,0,0,.3c0,.1,0,.2,0,.3a1.15,1.15,0,0,0,0,.32c0,.1,0,.21,0,.32s0,.16,0,.25v.27s0,.1,0,.16a1.62,1.62,0,0,1,0,.19.56.56,0,0,1,0,.12c0,.05,0,.09,0,.14,0,.21,0,.42,0,.63s0,.42,0,.64a2.72,2.72,0,0,0,0,.28,2.51,2.51,0,0,0,0,.27v.06a.83.83,0,0,0,0,.38,1.54,1.54,0,0,1,0,.37A.59.59,0,0,0,29,19l.08.09a.36.36,0,0,1,.07.1.16.16,0,0,1-.13.15h-.23a.74.74,0,0,1-.21,0h-.21a.6.6,0,0,0-.19.06l-.54-.05-.55-.06h0l0,0a.45.45,0,0,1,.1-.23.85.85,0,0,0,.14-.19.56.56,0,0,0,0-.12l0-.11,0-.37a1.93,1.93,0,0,1,0-.34c0-.17,0-.34,0-.51a4.36,4.36,0,0,1,0-.51.74.74,0,0,0,0-.21c0-.06,0-.14-.05-.22l0-.26c0-.09,0-.18,0-.27a.63.63,0,0,0,0-.19,2.25,2.25,0,0,0-.05-.22.94.94,0,0,0,.07-.3.78.78,0,0,0-.07-.33c0-.12,0-.25.05-.38a.84.84,0,0,0,0-.38.14.14,0,0,1,0-.11.66.66,0,0,0,0-.14c0-.1,0-.21,0-.31a1.73,1.73,0,0,0,0-.32.55.55,0,0,1,0-.18,1.25,1.25,0,0,1,0-.19,1.35,1.35,0,0,0-.14-1,.39.39,0,0,0-.1-.14.49.49,0,0,1-.12-.13v-.05a.06.06,0,0,0,0,0,.23.23,0,0,1,.05-.05l.08,0a1.76,1.76,0,0,0,.46,0,1.71,1.71,0,0,1,.45,0l.18,0,.18,0h.58a.65.65,0,0,1,.29.07.43.43,0,0,0,0,.05l0,.07a.87.87,0,0,1-.11.09ZM27.91,13.7v0l0,0h0Zm.15,1.94-.06,0-.07,0a.36.36,0,0,1,0,.11.31.31,0,0,0,0,.1l.06.07a1,1,0,0,1,0-.1ZM28,12.44a.32.32,0,0,0-.07.13s0,0,.1,0a.1.1,0,0,0,0-.09A.39.39,0,0,1,28,12.44Zm0-.11h0ZM28,16.7s0,0,0,0l0,0,0,0s0,0,0,0ZM28,12.92v0h0s0,0,0,0Zm.18.07-.09.06s-.05,0-.06,0a.13.13,0,0,1,0,.06.13.13,0,0,0,0,.06h.2a.69.69,0,0,1,0-.1Zm-.08,5.17,0,0,0,0s0,0,0,0l0,0a.05.05,0,0,0,0,0s0,0,0,0Zm.08-.95,0-.1a.36.36,0,0,1,0-.09.33.33,0,0,1-.06-.1.1.1,0,0,0-.08-.06A.5.5,0,0,0,28,17a.78.78,0,0,1,0,.14A.23.23,0,0,0,28.14,17.21Zm.18,1.15v-.07a0,0,0,0,0,0-.05l0-.06a1.17,1.17,0,0,0-.24.09l.09.1h.19Zm-.18-2.45a.1.1,0,0,0,.05-.15C28.1,15.79,28.08,15.84,28.14,15.91Zm0,.35s.06,0,.09,0l.08,0a.13.13,0,0,0-.08,0A.32.32,0,0,0,28.11,16.26Zm.07-.73,0,0,0,0,0,0,0,0Zm0-3.39,0,0h0A0,0,0,0,0,28.17,12.14Zm.21,1.33h-.13s0,0,0,.06a.09.09,0,0,0,0,.06A.41.41,0,0,1,28.38,13.47Zm-.05,3.75v0h-.05l0,.06a0,0,0,0,1,0,0Zm.05.48-.06,0s0,0,0,0S28.33,17.73,28.38,17.7Z"/><path class="cls-1" d="M29.81,18.5l0-.05,0-.06a4.79,4.79,0,0,1,.25-.45,1.26,1.26,0,0,1,.35-.38.17.17,0,0,0,.06-.06.23.23,0,0,1,.07-.07,1,1,0,0,1,.13-.16.86.86,0,0,1,.19-.11l.07,0,.08,0,.31.22.33.21a.53.53,0,0,0,.15.08l.17.05a.4.4,0,0,1,.15,0l.17.07h.41a1.33,1.33,0,0,1,.24-.1.53.53,0,0,0,.23-.2,1.76,1.76,0,0,1,0-.19,2,2,0,0,1,0-.24.7.7,0,0,1-.08-.2c0-.07-.05-.14-.08-.22l-.24-.13-.27-.15a1,1,0,0,1-.36-.12,1.23,1.23,0,0,0-.26-.12l-.27-.1a3.9,3.9,0,0,1-.35-.19l-.37-.19-.06-.05-.1-.05,0,0-.06,0a1.49,1.49,0,0,0-.21-.22,1.59,1.59,0,0,1-.2-.24,3.78,3.78,0,0,1-.17-.35,1.19,1.19,0,0,0-.19-.35c0-.11,0-.2-.06-.29a1,1,0,0,1-.05-.29.61.61,0,0,1,0-.14,1,1,0,0,0,0-.16s0-.08,0-.12a.78.78,0,0,1,0-.14.53.53,0,0,1,.05-.15.84.84,0,0,0,.06-.14.14.14,0,0,0,0-.06.11.11,0,0,0,0-.05q.15-.22.27-.45a1.46,1.46,0,0,1,.27-.41l.25-.23.23-.2a.82.82,0,0,1,.19-.09l.2-.07.24-.07.25-.06.13,0h.46l.33,0,.45.07a1.66,1.66,0,0,1,.45.17l.37.2.37.23a.65.65,0,0,0,.4.14.34.34,0,0,1,.15,0,.13.13,0,0,1,.06.12.22.22,0,0,1-.07.09.75.75,0,0,0-.1.2l-.09.19-.11.16a1.06,1.06,0,0,1-.15.15l-.18.15a1.91,1.91,0,0,0-.15.21l-.1,0-.15.05-.41-.24a1.46,1.46,0,0,1-.38-.27l-.14,0-.12,0-.19,0h-.19l-.18,0a.5.5,0,0,0-.17,0l-.26.11-.23.14-.11.19a1.88,1.88,0,0,0-.12.18,1.08,1.08,0,0,0-.08.19.45.45,0,0,0,0,.23,2.78,2.78,0,0,0,.19.27l.16.19a.38.38,0,0,0,.23.11.5.5,0,0,1,.23.09l.23.12.26.11.28.11.16.06a.44.44,0,0,1,.15.1.17.17,0,0,0,.09,0l.11,0,.19.13a.18.18,0,0,0,.19,0l.15.15.09,0h.08a1.84,1.84,0,0,1,.46.51c.11.19.22.4.33.62a1.86,1.86,0,0,1,0,.34c0,.11,0,.23,0,.35v.12a.24.24,0,0,1,0,.12.34.34,0,0,1,0,.1l0,.09a.56.56,0,0,0,0,.12.5.5,0,0,1,0,.13c-.06.08-.11.16-.16.24a2.13,2.13,0,0,0-.16.25,1.74,1.74,0,0,1-.51.5l-.06,0a.22.22,0,0,1-.07.06.53.53,0,0,1-.15.08l-.19.07-.31,0-.31.05a1.79,1.79,0,0,1-.33,0,1.93,1.93,0,0,0-.34,0,2.52,2.52,0,0,1-.67-.09l-.32-.12L30.86,19l-.26-.14a1.08,1.08,0,0,1-.24-.18A.6.6,0,0,0,30,18.5Zm.63-4.93a.53.53,0,0,0,0,.15.16.16,0,0,0,.1.08l0,0h.05a.17.17,0,0,0-.08-.13Zm.24-.53L30.53,13l0,.1,0,.08s0,.05.05.1a.09.09,0,0,1,.07,0l.08,0v-.1s0,0,0-.07h0Zm-.09.46,0,0h0l0,0,0,0h.05Zm.13-.71c0,.05,0,.09.07.11l.16-.11s0,0,0-.07a.16.16,0,0,0-.12,0A.34.34,0,0,1,30.72,12.79Zm.42-.08h0a.25.25,0,0,1,0-.1h0A.28.28,0,0,0,31.14,12.71Zm.3,5.78h0l-.05,0v0Zm.3-.18a.56.56,0,0,1,.05.08l0,.07.15,0s.05-.05,0-.11l-.14,0Zm.77.43c.05,0,.07,0,.07-.07s0-.05-.1,0Zm.49-.39a.33.33,0,0,0-.17.21H33a.21.21,0,0,1,.06-.1S33,18.4,33,18.35Zm.44-6.09-.1-.06a.36.36,0,0,1-.07.1.37.37,0,0,0-.05.11.21.21,0,0,1,.1,0A.62.62,0,0,0,33.44,12.26Zm0,6c0,.05,0,.08,0,.08h0S33.46,18.27,33.41,18.25Zm.34-2a.46.46,0,0,0-.1-.07l-.11-.06a.44.44,0,0,1,0,.1v.09l.09,0Zm-.13,2.07a.19.19,0,0,0,0,.1l0,.08a.36.36,0,0,0,.07-.09A.3.3,0,0,0,33.62,18.3Zm.17-1.79,0,0s0,0,0,0l0,0Zm.06,1.31h0v0h0Zm.07-.7,0,0h0a0,0,0,0,0,0,0,.06.06,0,0,0,0,0,0,0,0,0,0,0,0Zm0,.38c.12,0,.19,0,.2,0s0-.06-.06-.06l-.08,0,0,0Zm.11.15s0,0,0,0h0s0,0,0,0h0Z"/><path class="cls-1" d="M37.33,11.75a1.27,1.27,0,0,0-.13.32,1,1,0,0,0,0,.35.69.69,0,0,1,0,.25,2.45,2.45,0,0,0,0,.27,2.46,2.46,0,0,1,0,.26.43.43,0,0,0,0,.27.06.06,0,0,1,0,.08.76.76,0,0,0,0,.3,1.5,1.5,0,0,1,0,.3,1.71,1.71,0,0,0,0,.32c0,.1,0,.21,0,.32a2,2,0,0,1,0,.25v.27a.92.92,0,0,1,0,.16,1.48,1.48,0,0,1,0,.19.53.53,0,0,1,0,.12.66.66,0,0,1,0,.14c0,.21,0,.42,0,.63a4.61,4.61,0,0,1,0,.64v.28a1.26,1.26,0,0,0,0,.27v.06a.72.72,0,0,0,0,.38,1.17,1.17,0,0,1,0,.37.59.59,0,0,0,.12.41l.08.09a.86.86,0,0,1,.07.1.16.16,0,0,1-.14.15h-.22a.74.74,0,0,1-.21,0H36.7a.66.66,0,0,0-.2.06L36,19.32l-.56-.06h0l0,0a.38.38,0,0,1,.1-.23,1.33,1.33,0,0,0,.14-.19s0-.08,0-.12l0-.11,0-.37v-.85a2.19,2.19,0,0,1,0-.51.74.74,0,0,0,0-.21c0-.06,0-.14,0-.22a2.11,2.11,0,0,0,0-.26,2.44,2.44,0,0,0,0-.27.62.62,0,0,0,0-.19,1,1,0,0,0-.06-.22.73.73,0,0,0,.07-.3.57.57,0,0,0-.07-.33,2.32,2.32,0,0,0,.06-.38.84.84,0,0,0,0-.38.2.2,0,0,1,0-.11.68.68,0,0,0,0-.14c0-.1,0-.21,0-.31a.87.87,0,0,0,0-.32.55.55,0,0,1,0-.18.63.63,0,0,1,0-.19,1.4,1.4,0,0,0-.14-1,.4.4,0,0,0-.11-.14l-.12-.13s0,0,0-.05v0l.06-.05.08,0a1.7,1.7,0,0,0,.45,0,1.81,1.81,0,0,1,.46,0l.18,0,.18,0h.58a.61.61,0,0,1,.28.07l0,.05a.13.13,0,0,0,0,.07l-.12.09ZM36.2,13.7v0l0,0h0Zm.14,1.94-.06,0-.06,0a.52.52,0,0,0,0,.11.31.31,0,0,0,0,.1s0,0,.05.07l0-.1A.47.47,0,0,1,36.34,15.64Zm-.09-3.2a.4.4,0,0,0-.06.13s0,0,.1,0a.14.14,0,0,0,0-.09Zm0-.11h0Zm.06,4.37s0,0,0,0l-.05,0,0,0s0,0,0,0S36.28,16.72,36.3,16.7Zm-.06-3.78v0h0a0,0,0,0,1,0,0,0,0,0,0,0,0,0Zm.18.07-.09.06s0,0,0,0,0,0,0,.06a.13.13,0,0,0,0,.06h.19l0-.1A.76.76,0,0,0,36.42,13Zm-.08,5.17,0,0,0,0,0,0,0,0a.08.08,0,0,0,0,0l0,0Zm.08-.95,0-.1,0-.09a.31.31,0,0,1-.05-.1.1.1,0,0,0-.08-.06.5.5,0,0,0,0,.16s0,.09,0,.14A.19.19,0,0,0,36.42,17.21Zm.19,1.15v-.12l0-.06a1.25,1.25,0,0,0-.25.09l.09.1h.2Zm-.19-2.45a.11.11,0,0,0,.06-.15Q36.35,15.81,36.42,15.91Zm0,.35s.06,0,.09,0l.08,0-.08,0A.32.32,0,0,0,36.4,16.26Zm.07-.73,0,0,0,0,0,0,0,0Zm0-3.39a0,0,0,0,1,0,0h0A0,0,0,0,0,36.46,12.14Zm.2,1.33h-.12l0,.06a.14.14,0,0,0,0,.06Zm0,3.75a0,0,0,0,1,0,0v0h0s0,0,0,0l0,.06,0,0Zm0,.48,0,0,0,0S36.62,17.73,36.66,17.7Z"/><path class="cls-1" d="M41.17,11.31s0,0,0,0l0,0,.26,0a1,1,0,0,1,.25,0l.34,0,.37,0,.29.11a2.73,2.73,0,0,1,.31.14l.2-.05a.28.28,0,0,0,.1.09l.1.08.11.05a.3.3,0,0,1,.11.06.94.94,0,0,1,.12.09l.15.12a.82.82,0,0,1,.42.26l.07,0,.09.06a.4.4,0,0,0,.35.3.73.73,0,0,1,.05.12,1,1,0,0,0,.07.17s0,0,.06.06l.1.08s0,.08,0,.13a.64.64,0,0,0,.06.16s0,0,0,0l.05,0c0,.1,0,.19.07.27s0,.18.08.28a1.19,1.19,0,0,1,.13.25.94.94,0,0,1,.07.31l0,.29a.69.69,0,0,1,0,.28c0,.15.05.28.07.38s0,.19,0,.27l0,.24c0,.11,0,.21,0,.31a1.18,1.18,0,0,1-.1.3,1.34,1.34,0,0,0-.07.18l-.06.19a2.37,2.37,0,0,1-.26.56,4.41,4.41,0,0,1-.36.49,1.33,1.33,0,0,0-.14.19,1.19,1.19,0,0,1-.15.18.74.74,0,0,1-.23.2l-.28.16-.14.08-.13.1a.38.38,0,0,1-.13.09l-.14.08-.2.09a1.56,1.56,0,0,1-.22.1l-.26,0-.29.09a.64.64,0,0,1-.2,0H42a1.76,1.76,0,0,1-.76,0l-.73-.18-.1,0a.56.56,0,0,0-.28-.16l-.29-.1-.36-.29-.35-.26a.39.39,0,0,1-.1-.08l-.07-.08-.33-.45a5.66,5.66,0,0,1-.34-.47,1.46,1.46,0,0,1-.13-.28c0-.1-.06-.19-.1-.29a1.55,1.55,0,0,0-.08-.23.3.3,0,0,1,0-.23,3.47,3.47,0,0,1-.11-1,.19.19,0,0,0,0-.08l0-.07,0-.11a1.09,1.09,0,0,0,0-.14.88.88,0,0,1,0-.16,1.1,1.1,0,0,0,0-.18l.12-.32c0-.1.07-.21.11-.32l0-.06a.11.11,0,0,1,0-.07,1.83,1.83,0,0,0,.18-.34c0-.12.09-.24.13-.37l.28-.31a3.82,3.82,0,0,1,.27-.32.36.36,0,0,0,.28-.16,2.08,2.08,0,0,0,.19-.29l.29-.15.3-.14a1,1,0,0,1,.18-.08l.17-.07a.93.93,0,0,1,.37-.16ZM38.67,15a.11.11,0,0,0,0,.07h0l.05-.05h0S38.68,15,38.67,15Zm0,.24v0h0v0S38.69,15.22,38.69,15.23Zm.09.45-.08.09a.53.53,0,0,0,.1.14l.06-.05,0-.08-.07,0Zm0-1s0,0,0,.06v0a.11.11,0,0,0,.18,0C38.92,14.7,38.87,14.66,38.77,14.63Zm.1,2a.32.32,0,0,0,.13-.08l.11-.11L39,16.36h-.1l-.09.11A.18.18,0,0,0,38.87,16.62Zm.27.35c.07,0,.1-.06.1-.07l-.08-.06A.39.39,0,0,0,39.14,17ZM42,12.71l-.38.08-.36.08a1.43,1.43,0,0,0-.57.23,3.14,3.14,0,0,0-.51.39,1.78,1.78,0,0,0-.36.48,3.25,3.25,0,0,0-.23.54.86.86,0,0,0-.09.3c0,.11,0,.21,0,.32a.28.28,0,0,1,0,.28c0,.13,0,.25.07.37s0,.24.07.34a.3.3,0,0,1,.11.23.36.36,0,0,0,.08.23c0,.08.11.15.16.22a1.25,1.25,0,0,1,.16.22.85.85,0,0,0,.26.24.83.83,0,0,1,.24.21h.12a4.1,4.1,0,0,0,.41.22,1.72,1.72,0,0,0,.46.11l.34,0a1.72,1.72,0,0,0,.32,0,1.23,1.23,0,0,0,.29-.08,1.74,1.74,0,0,0,.27-.14,2.5,2.5,0,0,0,.35-.21l.38-.23a1.05,1.05,0,0,1,.15-.3,2.83,2.83,0,0,1,.23-.28.66.66,0,0,0,.2-.48.71.71,0,0,1,.13-.39V15l-.09-.36c0-.11-.06-.23-.1-.35L44,14.27l-.06,0c0-.13-.11-.25-.16-.36a1.49,1.49,0,0,0-.2-.31l-.1-.05-.12-.06a.54.54,0,0,0-.05-.11.54.54,0,0,1-.06-.11,2.17,2.17,0,0,1-.35-.15.76.76,0,0,0-.36-.11l0,0h0l-.21-.11ZM39.64,13c-.06,0-.1,0-.13,0s.06,0,.08,0A.1.1,0,0,0,39.64,13Zm.2-.13a.17.17,0,0,0,0,.07l0,0,0,0,0-.07A.13.13,0,0,0,39.84,12.82Zm1,5.33a.09.09,0,0,0,0,.06h0a0,0,0,0,0,0,0Zm.45.73a0,0,0,0,1,0,0s0,0,0,0h0v0s0,0,0,0Zm.6-.33a0,0,0,0,0,0,0h0a.05.05,0,0,0,0,0ZM43,12.13s0,0,0,0v0h0Zm.18,5.61-.08,0,0,.07A.64.64,0,0,0,43.16,17.74Zm0,.4-.06.07a.12.12,0,0,0,.06.06s.05,0,.08-.06l0,0Zm.31-5.75v0h.06v0Zm0,5.37.09.1a.38.38,0,0,0,.09.09v-.18h-.18Zm.23-5.06h.16a.34.34,0,0,0,.15-.06c0-.09,0-.15-.1-.18a.31.31,0,0,1-.13.06.17.17,0,0,0-.12.1A.43.43,0,0,1,43.72,12.7Zm.3,4.81s-.06.06-.06.08a.29.29,0,0,0,.06.1v-.18s0,0,0,0v0S44,17.51,44,17.51Zm.37-4.14,0,.07,0,0,.07.1a.12.12,0,0,0,.11,0,.59.59,0,0,0,0-.08l-.05-.07Zm.2,2.89.07.09.06.07.15-.06c.05,0,.08-.05.1-.11l-.07-.06,0-.06ZM45,14a.37.37,0,0,0-.16-.07.32.32,0,0,1-.18-.06.24.24,0,0,0,.15.3l0,0,.06,0,0,0Zm-.07.93c-.06.06-.08.11,0,.16s.06,0,.12,0L45,15A.3.3,0,0,1,45,14.94Zm0-.11v0h0v0Zm.14-.45c-.1,0-.13,0-.11.1h.13a.11.11,0,0,1,0-.05Zm.1,1.31a.41.41,0,0,1-.06-.11h-.08l0,.07s0,.05,0,.09l.06,0Zm0-1v0l0,0Z"/><path class="cls-1" d="M50.61,17.65a.87.87,0,0,1-.21-.25.41.41,0,0,0-.29-.17A.69.69,0,0,1,50,17.1L49.88,17l-.09,0-.1,0a1,1,0,0,0-.25-.26.61.61,0,0,1-.15-.13l-.19-.17,0,0-.05,0,0,0-.07-.1L48.81,16h-.06l-.09,0-.13-.12-.12-.12h-.18l-.1,0-.08,0-.11.1a1.68,1.68,0,0,0-.07.43v.44c0,.31,0,.61,0,.91a8.85,8.85,0,0,1,0,.89,1.09,1.09,0,0,0,0,.18,1.48,1.48,0,0,0,0,.21l0,.09a.76.76,0,0,1,0,.11l0,0h0l-.28.05a1,1,0,0,1-.3,0,1.39,1.39,0,0,0-.35,0,2.35,2.35,0,0,0-.37,0h-.21a.11.11,0,0,1-.07,0l-.08,0a.53.53,0,0,1,0-.15l.09-.13.1-.14a.61.61,0,0,0,.07-.14c0-.15,0-.29,0-.43s0-.28,0-.42a2.44,2.44,0,0,1,0-.27,2.65,2.65,0,0,0,0-.27.16.16,0,0,1,0-.12.74.74,0,0,0,0-.12v-.57c0-.14,0-.27,0-.41a2,2,0,0,1,0-.42.07.07,0,0,0,0-.05.11.11,0,0,1,0,0c0-.13,0-.26,0-.4v-.41a.78.78,0,0,1,0-.26.58.58,0,0,0,0-.26.82.82,0,0,0,0-.38,1.7,1.7,0,0,1,0-.39c0-.12,0-.24,0-.36v-.47l0-.26a.82.82,0,0,1,0-.27.18.18,0,0,0,0-.1l0-.11a.53.53,0,0,0-.12-.14l-.15-.16a.53.53,0,0,0,0-.11l.09,0h.51a2,2,0,0,1,.42,0,.37.37,0,0,0,.18,0l.18,0a.41.41,0,0,1,.22,0,.59.59,0,0,1,.21.15,1.34,1.34,0,0,0,0,.2,1.55,1.55,0,0,1,0,.22,2.09,2.09,0,0,0,0,.66,3.61,3.61,0,0,0,.15.65,2.56,2.56,0,0,0,.11.24,2.39,2.39,0,0,1,.13.21c.19.18.38.34.57.5l.61.51a.85.85,0,0,0,.16.19,1.3,1.3,0,0,0,.26.17l.2.12a.46.46,0,0,1,.18.16.24.24,0,0,0,.09.08l.09,0h.26a.23.23,0,0,0,.13-.21l0-.89a.2.2,0,0,1,0-.07.13.13,0,0,0,0-.06,1,1,0,0,1,0-.42c0-.14,0-.28,0-.41l0-.26a.46.46,0,0,0,0-.26,1.54,1.54,0,0,0,0-.37,1,1,0,0,1,0-.35,1.27,1.27,0,0,0,0-.28,2.72,2.72,0,0,1,0-.28l.14-.25a.21.21,0,0,1,.12-.05h.13l.34,0,.35,0h.32l.17,0,.16.05a.13.13,0,0,1,0,.12.2.2,0,0,1,0,.09,1,1,0,0,0-.16.27,1.32,1.32,0,0,0-.08.3v.5s0,0,0,.07a.07.07,0,0,1,0,.05,1.6,1.6,0,0,0,0,.31,1.09,1.09,0,0,1,0,.31,1.53,1.53,0,0,0,0,.48v.18a1.11,1.11,0,0,1,0,.19.76.76,0,0,1,0,.15c0,.05,0,.1,0,.15V15s0,.05,0,.07a.17.17,0,0,1,0,.07,1.07,1.07,0,0,0,0,.4,2.94,2.94,0,0,1,0,.42.29.29,0,0,0,0,.13.77.77,0,0,1,0,.15v.08a.78.78,0,0,0,0,.34,1.45,1.45,0,0,1,0,.36.6.6,0,0,0,0,.19,1.46,1.46,0,0,1,0,.29l0,.28a1.61,1.61,0,0,0,0,.38,1.62,1.62,0,0,1,0,.38.55.55,0,0,0,.07.28.69.69,0,0,0,.19.23l0,.09a.25.25,0,0,1,0,.07.94.94,0,0,1-.41,0,.75.75,0,0,0-.41.06.52.52,0,0,0-.16-.06,1.08,1.08,0,0,0-.18,0H51.2a.47.47,0,0,1-.17,0,.27.27,0,0,1-.07-.08l-.08-.1c0-.11,0-.21,0-.31s0-.19,0-.29a1.12,1.12,0,0,0-.09-.44,1.3,1.3,0,0,1-.08-.17ZM47.27,14c-.05-.09-.11-.13-.17-.12s0,.12,0,.16l.05,0Zm-.09.94a.47.47,0,0,0,.19-.37c0-.06,0-.07-.07,0l-.06.18a.45.45,0,0,1-.11.17v0l0,0Zm.09-2a.12.12,0,0,0,0-.19c0,.06-.06.09-.05.11S47.22,12.91,47.27,13Zm0,2.29c.07,0,.1-.06.07-.13h-.07Zm0-2.05h0l0,0v0Zm.14.12-.07,0a.09.09,0,0,0-.06,0s0,.06,0,.08a.44.44,0,0,0,0,.1l.09-.05.05,0A.85.85,0,0,0,47.41,13.31Zm0,1.94,0,0v0Zm.27-.91v0c0-.06-.06-.08-.11-.06s0,0,0,0h.1Zm.06.41h.15a.17.17,0,0,0,.1-.07l-.06-.1-.07-.11a1.21,1.21,0,0,0,0,.14S47.81,14.7,47.78,14.75Zm3,1.61v0h0Zm.1.34a.36.36,0,0,0,0,.12s0,0,.06,0,0-.07,0-.11h-.09Zm.39,0-.12-.08a.34.34,0,0,0,0,.09v.08h.07l0,0A.18.18,0,0,1,51.28,16.67Zm0,.66-.09,0,.06.15h0Zm.22-.1.07-.09a.22.22,0,0,0,0-.08s0,0,0-.06a.09.09,0,0,0,0-.05h-.11l0-.1a.25.25,0,0,0-.07-.09l0,.06,0,.24c0,.08,0,.16,0,.25a.9.9,0,0,0,.05.09l0,.11h.05c0-.05.06-.1,0-.14S51.54,17.29,51.52,17.23Zm-.08-1.53,0,.12a.3.3,0,0,1,0,.1s0,0,0,.06.12.06.21,0l-.05-.05a.09.09,0,0,1,0-.06.09.09,0,0,1,0-.06S51.45,15.74,51.44,15.7Zm0-2.09a.29.29,0,0,0,.33,0s0,0,0-.05l0,0,0,0-.11,0Zm.18-.68a.24.24,0,0,1,0-.12.1.1,0,0,0-.08-.1C51.51,12.8,51.54,12.87,51.64,12.93Zm0,5.15V18C51.53,18,51.53,18.05,51.6,18.08Zm0-1.36h0v.08a.05.05,0,0,1,0,0Zm0-3.43s0,.06.07.06,0,0,0-.06Zm.17-.79c.07,0,.07-.06,0-.11S51.76,12.45,51.81,12.5Z"/><path class="cls-1" d="M53.22,18.5l0-.05,0-.06a4.79,4.79,0,0,1,.25-.45,1.26,1.26,0,0,1,.35-.38.17.17,0,0,0,.06-.06.23.23,0,0,1,.07-.07,1,1,0,0,1,.13-.16.86.86,0,0,1,.19-.11l.07,0,.08,0,.31.22.33.21a.53.53,0,0,0,.15.08l.17.05a.4.4,0,0,1,.15,0l.17.07h.41a1.33,1.33,0,0,1,.24-.1.53.53,0,0,0,.23-.2,1.76,1.76,0,0,1,0-.19,2,2,0,0,1,.05-.24.5.5,0,0,1-.08-.2c0-.07,0-.14-.08-.22l-.24-.13-.27-.15a1,1,0,0,1-.36-.12,1.23,1.23,0,0,0-.26-.12L55,16.1a3.9,3.9,0,0,1-.35-.19l-.37-.19-.07-.05-.09-.05,0,0-.06,0a1.49,1.49,0,0,0-.21-.22,1.59,1.59,0,0,1-.2-.24,2.26,2.26,0,0,1-.17-.35,1.19,1.19,0,0,0-.19-.35c0-.11,0-.2-.06-.29a1,1,0,0,1-.05-.29.61.61,0,0,1,0-.14,1,1,0,0,0,0-.16s0-.08,0-.12a.78.78,0,0,1,0-.14.53.53,0,0,1,.05-.15.84.84,0,0,0,.06-.14.14.14,0,0,0,0-.06.11.11,0,0,0,0-.05,3.47,3.47,0,0,0,.26-.45,1.74,1.74,0,0,1,.28-.41l.25-.23.23-.2a.82.82,0,0,1,.19-.09l.2-.07.24-.07.25-.06.13,0h.46l.33,0,.45.07a1.66,1.66,0,0,1,.45.17l.37.2.37.23a.65.65,0,0,0,.4.14.34.34,0,0,1,.15,0,.13.13,0,0,1,.06.12.22.22,0,0,1-.07.09.75.75,0,0,0-.1.2l-.09.19-.11.16a1.06,1.06,0,0,1-.15.15,1.19,1.19,0,0,0-.18.15,1.91,1.91,0,0,0-.15.21l-.1,0-.15.05-.41-.24a1.46,1.46,0,0,1-.38-.27l-.14,0-.12,0-.2,0h-.18l-.18,0a.47.47,0,0,0-.17,0l-.26.11-.23.14-.11.19a1.88,1.88,0,0,0-.12.18,1.08,1.08,0,0,0-.08.19.45.45,0,0,0,0,.23,2.78,2.78,0,0,0,.19.27l.16.19a.38.38,0,0,0,.23.11.5.5,0,0,1,.23.09l.23.12.26.11.28.11.16.06a.44.44,0,0,1,.15.1.17.17,0,0,0,.09,0l.11,0,.19.13a.18.18,0,0,0,.19,0l.15.15.09,0h.08a1.84,1.84,0,0,1,.46.51c.11.19.22.4.33.62a1.86,1.86,0,0,1,0,.34c0,.11,0,.23,0,.35v.12a.24.24,0,0,1,0,.12.34.34,0,0,1,0,.1l0,.09a.56.56,0,0,0,0,.12.5.5,0,0,1-.05.13l-.16.24a2.13,2.13,0,0,0-.16.25,1.87,1.87,0,0,1-.51.5l-.06,0a.22.22,0,0,1-.07.06.53.53,0,0,1-.15.08l-.19.07-.31,0-.31.05a1.82,1.82,0,0,1-.33,0,1.93,1.93,0,0,0-.34,0,2.52,2.52,0,0,1-.67-.09l-.32-.12L54.27,19,54,18.83a1.08,1.08,0,0,1-.24-.18.6.6,0,0,0-.36-.15Zm.63-4.93a.53.53,0,0,0,0,.15.16.16,0,0,0,.1.08l0,0h.05a.17.17,0,0,0-.08-.13Zm.24-.53L53.94,13l0,.1,0,.08s0,.05,0,.1a.09.09,0,0,1,.07,0l.07,0s0-.07,0-.1,0,0,0-.07h0ZM54,13.5s0,0,0,0h0l0,0,0,0h0Zm.13-.71c0,.05,0,.09.07.11l.16-.11s0,0,0-.07a.19.19,0,0,0-.13,0A.24.24,0,0,1,54.13,12.79Zm.42-.08h0s0-.06,0-.1h0A.28.28,0,0,0,54.55,12.71Zm.3,5.78h0l0,0v0Zm.3-.18a.56.56,0,0,1,.05.08l0,.07.15,0s0-.05,0-.11l-.14,0Zm.77.43s.07,0,.07-.07,0-.05-.1,0A.62.62,0,0,1,55.92,18.74Zm.49-.39a.33.33,0,0,0-.17.21h.12a.36.36,0,0,1,.07-.1S56.45,18.4,56.41,18.35Zm.44-6.09-.1-.06a.86.86,0,0,1-.07.1.37.37,0,0,0,0,.11.21.21,0,0,1,.1,0A.62.62,0,0,0,56.85,12.26Zm0,6c0,.05,0,.08,0,.08h0S56.87,18.27,56.82,18.25Zm.34-2a.46.46,0,0,0-.1-.07L57,16.1a.44.44,0,0,1,0,.1v.09l.09,0ZM57,18.3a.19.19,0,0,0-.05.1.59.59,0,0,0,0,.08s.06-.07.06-.09S57.07,18.35,57,18.3Zm.17-1.79,0,0s0,0,0,0l0,0S57.22,16.52,57.2,16.51Zm.06,1.31h0v0h0Zm.07-.7,0,0h0a0,0,0,0,0,0,0,.06.06,0,0,0,0,0,0,0,0,0,0,0,0Zm0,.38c.12,0,.19,0,.2,0s0-.06-.06-.06l-.08,0,0,0Zm.11.15s0,0,0,0h0s0,0,0,0h0Z"/></g></g></svg>