<svg xmlns="http://www.w3.org/2000/svg" viewBox="0 0 32.37 30.14"><defs><style>.cls-1,.cls-2{fill:#fff;}.cls-2{fill-rule:evenodd;}.cls-3{fill:#f38134;}</style></defs><g id="Layer_2" data-name="Layer 2"><g id="HEADER"><ellipse class="cls-1" cx="16.21" cy="15.05" rx="15.74" ry="14.61"/><path class="cls-2" d="M32.25,15h0v-.11s0,0,0,0,0,0,0,0h.12v0s0,0,0,0h-.13v-.93h.12v0h-.12a.06.06,0,0,1,0,0v-.1s0,0,0,0h.12s0,0,0,0v0h-.13s0,0,0,0v0a.06.06,0,0,1,0,0v-.07s0,0,0,0l.13,0s0,0,0,0,0,0,0,0l-.13,0s0,0,0,0a0,0,0,0,1,0,0v-.15a0,0,0,0,0,0,0v0a0,0,0,0,0,0,0L32,13v0l.13,0a0,0,0,0,1,0,0s0,0,0,0l-.12,0s0,0,0,0,0,0,0,0l.12,0v-.07s0,0,0,0-.12,0-.13,0,0,0,0,0v0l.12,0s0,0,0,0,0,0,0,0,0,0,0,0V12s0,0,0,0,0,0,0,0l-.13,0s0,0,0,0l.12,0s0,0,0,0v0s0,0,0,0v-.18l0-.07v0l0-.07v-.1s0,0,0,0l.12,0s0,0,0,0l-.12,0s0,0,0,0,0,0,0,0a0,0,0,0,1,0,0l0-.07v-.14s0,0,0,0l.12,0s0,0,0,0l-.12,0v-.21s0,0,0,0l.12,0s0,0,0,0l-.12,0s0,0,0,0a0,0,0,0,0,0,0s0,0,0,0l0-.06v-.07l0,0,.12,0s0,0,0,0,0,0,0,0l-.11,0s0,0,0,0l0,0v0s0,0,0,0,.1,0,.11-.05,0,0,0,0v0l-.12,0s0,0,0,0l.11,0v0l-.11.05s0,0,0,0l.12,0s0,0,0,0l-.11,0s0,0,0,0l0,0V9.8l0,0v0s0,0,0,0,0,0,0,0,.1,0,.11-.05,0,0,0,0,0,0,0,0l-.11,0s0,0,0,0l0,0,0-.07,0,0V9.36l.11,0s0,0,0,0,0,0,0,0-.11,0-.12.05,0,0,0,0v0l0,0,0,0v0l0,0,0,0L31,9l0,0-.11,0,0,0V9l0,0,0,0,0-.06,0,0,0-.07,0,0,0-.06v0l0,0,0,0,.11-.06s0,0,0,0,0,0,0,0-.09.06-.11.06,0,0,0,0v0l0-.07,0,0,0,0v0s0,0,0,0,.1,0,.11-.06,0,0,0,0,0,0,0,0,0,0,0,0l-.11.06,0,0,0-.07V8l0,0,0,0v0l0,0,0,0,0,0s0,0,0,0l0,0s0,0,0,0l.11-.07s0,0,0,0-.09.06-.11.07,0,0,0,0,0,0,0,0l0,0s0,0,0,0l.11-.07s0,0,0,0,0,0,0,0,0,0,0,0l-.1.07s0,0,0,0,0,0,0,0,.09-.06.1-.07,0,0,0,0,0,0,0,0l-.1.07s0,0,0,0l0,0s0,0,0,0l0,0,0-.06,0,0,0,0,0,0,0,0,0,0,0,0s0,0,0,0,0,0,0,0l.11-.07s0,0,0,0-.09.06-.1.07,0,0,0,0,0,0,0,0l.1-.07s0,0,0,0,0,0,0,0l-.1.07s0,0,0,0l0,0,0,0s0,0,0,0a.7.7,0,0,0,.1-.08s0,0,0,0,0,0,0,0-.09.06-.1.07,0,0,0,0,0,0,0,0,0,0,0,0l.1-.08s0,0,0,0l-.1.08s0,0,0,0l0,0,0,0,0,0s0,0,0,0l0,0,.1-.07,0,0s0,0,0,0l-.1.08s0,0,0,0l0,0,0,0,0,0,0,0,0,0,0,0,0,0L29,6l0,0,0,0L29,5.84s0,0,0,0,0,0,0,0l-.1.08s0,0,0,0l-.09.08,0,0,0,0a.87.87,0,0,1,.1-.08,0,0,0,0,0,0,0s0,0,0,0l0,0,0-.05,0,0,0,0,0,0,0,0-.05-.06,0,0,0,0,0,0,0,0,0,0,0,0,0,0s0,0,0,0l.09-.09s0,0,0,0l-.09.08s0,0,0,0l0,0,0,0s0,0,0,0l-.09.09s0,0,0,0l0,0s0,0,0,0l.09-.09,0,0,0,0s0,0,0,0,0,0,0,0L28,5.05l0,0s0,0,0,0,.08-.07.09-.09,0,0,0,0l0,0-.05-.05s.07-.07.09-.09l0,0a.76.76,0,0,1-.09.09s0,0,0,0l-.09.09s0,0,0,0l0,0,.09-.08s0,0,0,0l0,0,0,0,0,0,0,0,0,0,0,0-.08.09,0,0,.09-.09,0,0s0,0,0,0l0,0,0,0,0,0,0,0-.05-.05-.11-.09.08-.09a0,0,0,0,0,0,0l-.08.1-.08.09,0,0,0,0,.08-.09s0,0,0,0,0,0,0,0L27.2,4s0,0,0,0l-.08.1a0,0,0,0,1,0,0l0,0,0,0,0,0,0,0,0,0s0,0,0,0,0,0,0,0A.65.65,0,0,1,27,3.78l0,0s0,0,0,0a.7.7,0,0,1-.08.1s0,0,0,0l-.08.1,0,0,.08-.1-.05,0,0,0-.11-.09,0,0-.11-.09,0,0-.05,0,0,0-.06,0,0,0,0,0,0,0,0,0,0,0s0,0,0,0l.08-.11s0,0,0,0l0,0,0,0a.61.61,0,0,0-.07.1s0,0,0,0l0,0,0,0,0,0,0,0-.06,0,0,0-.06,0,0,0,0,0,0,0,0,0,0,0,0,0-.12-.09,0,0,0,0,0,0,0,0,0,0,0,0,0,0,0,0,0,0h0l0,0,.07-.11h0l0,0-.07.1s0,0,0,0l0,0,0,0,0,0h0l-.07,0,0,0,0,0h0l.06-.11s0,0,0,0l-.06.11s0,0,0,0l0,0h0l-.07,0,0,0,0,0h0l0,0,0,0,0,0s0,0,0,0l-.06.11s0,0,0,0,.06-.1.06-.11l0,0,0,0h0l0,0,0,0,0,0s0,0,0,0l.06-.11s0,0,0,0,0,.1-.05.11,0,0,0,0l0-.11,0,0L24,1.93h0l0,0,0,0-.13-.06h0l0,0h0l0,0h0l0,0h0l0,0s0,0,0,0,0,.1-.05.11,0,0,0,0,0,0,0,0a1.17,1.17,0,0,0,.05-.11s0,0,0,0l.05-.11s0,0,0,0l-.05.11s0,0,0,0h-.07l0,0h0l0,0h0l0,0h0l0,0-.06,0h0l-.07,0,0,0h0l0,0h-.06s0,0,0,0,0-.1,0-.12,0,0,0,0l-.05.12,0,0h0l0,0h0l0,0h-.1l-.07,0,0,0-.07,0h0l-.07,0s0,.1,0,.11,0,0,0,0a1,1,0,0,1,.05-.12s0,0,0,0,0-.09,0-.11l0,0h0s0,.1,0,.12h-.06l0,0s0,0,0,0a.84.84,0,0,0,0,.12h-.1l0,0h0s0,0,0,0,0-.11,0-.12h-.1l0,.12s0,0,0,0l0,0s0,0,0,0l0-.12h-.06s0,0,0,0,0,.1,0,.12,0,0,0,0l0,0s0,0,0,0,0,0,0,0,0-.1,0-.12,0,0,0,0h0s0,0,0,0,0,0,0,0,0,.1,0,.12,0,0,0,0h0s0,0,0,0,0,0,0,0,0-.1,0-.12,0,0,0,0h-.17l0,.12s0,0,0,0h0s0-.1,0-.12,0,0,0,0h0s0,0,0,0a.7.7,0,0,1,0,.12h0l0-.12s0,0,0,0a.42.42,0,0,1,0,.12s0,0,0,0,0-.1,0-.12,0,0,0,0h-.2s0,0,0,0a.7.7,0,0,1,0,.12s0,0,0,0l0-.13H20s0,0,0,0l0,.12h0s0,0,0,0,0-.12,0-.13,0,0,0,0,0,0,0,0,0-.1,0-.12l-.07,0s0,.1,0,.12,0,0,0,0h-.24s0,.12,0,.13,0,0,0,0h-.1s0-.1,0-.12,0,0,0,0,0,0,0,0,0,.12,0,.12,0,0,0,0l0-.13s0,0,0,0a.6.6,0,0,0,0,.12h0s0-.12,0-.13,0,0,0,0,0,0,0,0,0-.11,0-.12,0,0,0,0,0,0,0,0,0,.1,0,.12,0,0,0,0a.6.6,0,0,0,0,.12s0,0,0,0h0s0,0,0,0,0-.1,0-.13H18.8s0,0,0,0a.6.6,0,0,0,0,.12h0l0-.13h-.14s0-.1,0-.12h-.08a.49.49,0,0,1,0,.12s0,0,0,0,0,0,0,0h0a.49.49,0,0,0,0,.12h0s0,0,0,0a.45.45,0,0,1,0-.12h-.18L18,.15H18V.26s0,0,0,0l0-.13h-.07s0,0,0,0V.25s0,0,0,0a.62.62,0,0,0,0-.13h-.28V.23h0a.62.62,0,0,0,0-.13s0,0,0,0h-.18V.22s0,0,0,0,0-.12,0-.13H17s0,0,0,0V.2h-.07s0-.11,0-.12,0,0,0,0h0s0,0,0,0,0,0,0,0V.19h0s0,0,0,0a.57.57,0,0,1,0-.13h-.18V.18s0,0,0,0h0V.05s0,0,0,0,0,0,0,0h-.07s0,0,0,0V.17h-.07V0s0,0,0,0H16s0,0,0,0a.56.56,0,0,1,0,.13s0,0,0,0V.06h-1V.22s0,0,0,0h0V.1s0,0,0,0h-.21s0,0,0,0,0,0,0,0l0-.13s0,0,0,0,0,.1,0,.12,0,0,0,0h-.46s0,0,0,0l0-.12h0s0,.11,0,.12,0,0,0,0h-.11s0,0,0,0,0,.12,0,.13h-.07s0,0,0,0l0-.12h0s0,0,0,0,0,.12,0,.12h-.14l0-.12s0,0,0,0,0,0,0,0h0l0,.12s0,0,0,0,0,0,0,0l0-.12s0,0,0,0,0,.1,0,.12,0,0,0,0h-.24s0,0,0,0l0-.12s0,0,0,0,0,.11,0,.12,0,0,0,0h-.1s0,0,0,0,0,0,0,0,0-.11,0-.12,0,0,0,0h-.14s0,0,0,0,0,.11,0,.12,0,0,0,0h0s0,0,0,0,0-.1,0-.12,0,0,0,0,0,0,0,0,0,.11,0,.12,0,0,0,0h0l0-.12s0,0,0,0,0,.12,0,.13,0,0,0,0,0,0,0,0a.53.53,0,0,1,0-.12s0,0,0,0h0l0,.12s0,0,0,0h-.07s0,0,0,0,0,0,0,0l0-.12h-.2s0,0,0,0,0-.1,0-.12h-.07s0,0,0,0,0,.1,0,.12,0,0,0,0a.84.84,0,0,0,0,.12l-.07,0h0s0,0,0,0,0-.11,0-.12,0,0,0,0,0,0,0,0h-.07s0,0,0,0,0,.11,0,.12,0,0,0,0h0s0,0,0,0a.76.76,0,0,0,0-.11s0,0,0,0h0L11,1s0,0,0,0h-.07s0,0,0,0,0-.11,0-.12,0,0,0,0l0,0h0s0,0,0,0,0,.11,0,.12,0,0,0,0l0-.12h-.07s0,.11,0,.12h0l0-.12,0,0s0,0,0,0,0,.1,0,.11,0,0,0,0h-.07a.84.84,0,0,0,0-.12h0l0,.12h0s0,0,0,0,0-.1,0-.11,0,0,0,0h0s0,0,0,0h0a.61.61,0,0,0,.05.12s0,0,0,0h0s0,0,0,0,0,0,0,0l0-.11H9.91s0,0,0,0,0,.09,0,.11,0,0,0,0h0l0,0s0,0,0,0l0-.12s0,0,0,0a1.17,1.17,0,0,0,0,.11s0,0,0,0h0l0,0h0l0,0s0-.11,0-.12,0,0,0,0,0,0,0,0a1.17,1.17,0,0,0,0,.11s0,0,0,0h0l0,0h0l0,0s0,0,0,0l-.05-.11s0,0,0,0,.06.11.05.12,0,0,0,0,0,0,0,0l-.05-.11,0,0h0s.05.1.05.11,0,0,0,0h0l0,0L9,1.59s0,0,0,0H9l0,.11s0,0,0,0l-.05-.11s0,0,0,0l0,0s0,0,0,0,0,0,0,0,0,.1,0,.12,0,0,0,0l0,0s0,0,0,0,0-.1-.05-.11,0,0,0,0l0,0h0l0,0h0l0,0s0,0,0,0A1.34,1.34,0,0,0,8.53,2h0l0,0,0,0s0,0,0,0l-.06-.11,0,0,0,0s0,0,0,0,.06.1.06.11h0l0,0L8.19,2s0,0,0,0,0,0,0,0a.39.39,0,0,1,.06.11s0,0,0,0l-.06-.11,0,0,0,0,.06.11s0,0,0,0S8,2.11,8,2.11s0,0,0,0,0,0,0,0S7.89,2.05,7.88,2s0,0,0,0,.05.09.06.11,0,0,0,0l.07.1s0,0,0,0l-.06-.11s0,0,0,0l-.06,0,.06.1,0,0,0,0,0,0s0,0,0,0-.06-.09-.07-.1l-.06-.11,0,0s0,0,0,0,.06.1.06.11l0,0s0,0,0,0,0,0,0,0,.06.1.06.11,0,0,0,0l0,0h0l0,0s0,0,0,0a1.05,1.05,0,0,0-.07-.11l0,0,0,0h0l0,0s0,0,0,0L7,2.66l0,0,0,0,0,0,0,0,0,0,0,0s0,0,0,0,.07.1.07.11l0,0,0,0-.07-.11,0,0s0,0,0,0l.07.1,0,0s0,0,0,0,0,0,0,0L6.62,3s0,0,0,0l.08.1s0,0,0,0l0,0,0,0,0,0s0,0,0,0l-.07-.1s0,0,0,0,.07.09.07.1,0,0,0,0l0,0-.07-.1s0,0,0,0l0,0,0,0,.07.1s0,0,0,0-.06-.1-.07-.1l0,0,0,0,0,0s0,0,0,0,0,0,0,0l.08.1,0,0,0,0,0,0,0,0,0,0,0,0s0,0,0,0l-.07-.1s0,0,0,0l0,0,0,0,0,0,0,0s0,0,0,0l.08.09s0,0,0,0,0,0,0,0l0,0s0,0,0,0l-.08-.1s0,0,0,0,0,0,0,0,.08.08.08.09,0,0,0,0l0,0,0,0,0,0,0,0-.08-.1s0,0,0,0l.08.1s0,0,0,0,0,0,0,0l0,0s0,0,0,0A.65.65,0,0,0,5.28,4s0,0,0,0l.08.09,0,0,0,0,0,0s0,0,0,0l-.08-.1s0,0,0,0l.08.09,0,0,0,0,0,0,0,0s0,0,0,0L5,4.22l0,0,.09.1,0,0,0,0,0,0s0,0,0,0l-.09-.09s0,0,0,0l0,0,.08.09s0,0,0,0l0,0,0,0s0,0,0,0a.65.65,0,0,1-.08-.09,0,0,0,0,0,0,0l.09.09,0,.05,0,0,0,0s0,0,0,0,0,0,0,0,0,0,0,0l-.09-.09s0,0,0,0l0,0,.09.09,0,0,0,0,0,0s0,0,0,0l-.09-.09s0,0,0,0l0,0A.76.76,0,0,1,4.37,5l0,0s0,0,0,0l0,0L4.21,5l0,0s.08.07.09.09l0,0s0,0,0,0l-.09-.08s0,0,0,0l.09.09,0,0,0,0,0,0,0,0s0,0,0,0l0,0,0,0s0,0,0,0L3.9,5.28s0,0,0,0,0,0,0,0l0,0,.09.09,0,0s0,0,0,0L3.78,5.4l0,0s0,0,0,0l.09.08s0,0,0,0l0,0s0,0,0,0,0,0,0,0l-.1-.08,0,0a.81.81,0,0,0,.1.09s0,0,0,0l0,0,0,0,0,0s0,0,0,0L3.5,5.73s0,0,0,0l.09.08s0,0,0,0,0,0,0,0l0,0,0,0,0,0,0,0,0,0,0,0s0,0,0,0L3.27,6l0,0,.1.08,0,0,0,0,0,0,0,0,0,0s0,0,0,0-.08-.08-.1-.08,0,0,0,0,0,0,0,0l.1.07,0,0-.09-.08s0,0,0,0a.87.87,0,0,1,.1.08s0,0,0,0l0,0,0,0,0,0,0,0-.09.11,0,0,0,0-.1-.07s0,0,0,0,0,0,0,0l0,0,0,0s0,0,0,0l.1.07s0,0,0,0l0,0,0,0s0,0,0,0L2.6,6.9s0,0,0,0,0,0,0,0,.1.06.1.07l0,0,0,0,0,0,0,0,0,0,0,0,0,0,0,0s0,0,0,0l-.1-.07s0,0,0,0l-.11-.07,0,0a1.05,1.05,0,0,0,.11.07s0,0,0,0l.1.07s0,0,0,0l0,0s0,0,0,0l-.1-.07s0,0,0,0l.1.07s0,0,0,0l.11.06s0,0,0,0l-.1-.06s0,0,0,0l0,0,0,0,0,0,0,0s0,0,0,0,0,0,0,0,0,0,0,0,0,0,0,0l.1.06s0,0,0,0-.1-.06-.11-.06,0,0,0,0l0,0s0,0,0,0V8L2,8l0,.06S1.9,8,1.88,8s0,0,0,0L2,8.12s0,0,0,0,0,0,0,0,0,0,0,0L2,8.27s0,0,0,0L1.9,8.24s0,0,0,0,0,0,0,0l0,0s0,0,0,0l0,0s0,0,0,0l-.11-.06s0,0,0,0l.11.05s0,0,0,0l0,0v0l0,0,0,0v0l0,0v0l0,0s0,0,0,0l-.11,0s0,0,0,0l.12.05s0,0,0,0a.05.05,0,0,1,0,0v0l0,0,0,0V9l0,0-.07.13v0l0,0v0l0,0s0,0,0,0-.1,0-.11-.05,0,0,0,0l.12,0s0,0,0,0,0,0,0,0v0l0,0v.07l0,0-.05.13v0l0,0v0s0,0,0,0l0,0v0a.06.06,0,0,1,0,0s0,0,0,0,0,0,0,0L1,10s0,0,0,0a0,0,0,0,1,0,0l.11.05s0,0,0,0,0,0,0,0,0,0,0,0l-.12,0v0s0,0,0,0,0,0,0,0l.12,0s0,0,0,0v.07l-.06.13v.07a0,0,0,0,0,0,0v.1a.08.08,0,0,0,0,0s0,0,0,0l-.12,0a0,0,0,0,0,0,0l.12,0s0,0,0,0V11a0,0,0,0,1,0,0,0,0,0,0,0,0,0,.06.06,0,0,1,0,0L.59,11v0l.12,0v0a0,0,0,0,1,0,0,.06.06,0,0,1,0,0s0,0,0,0l-.12,0s0,0,0,0l.12,0s0,0,0,0v.14l0,.14v.07a0,0,0,0,0,0,0s0,0,0,0-.12,0-.12,0,0,0,0,0,0,0,0,0l.12,0a.06.06,0,0,0,0,0s0,0,0,0,0,0,0,0l-.12,0s0,0,0,0l.12,0s0,0,0,0,0,0,0,0L.33,12s0,0,0,0,0,0,0,0a.42.42,0,0,0,.12,0s0,0,0,0a0,0,0,0,0,0,0v.21s0,0,0,0,0,0,0,0l.13,0s0,0,0,0v.07l-.12,0s0,0,0,0l-.12,0s0,0,0,0v.11s0,0,0,0l.12,0s0,0,0,0a.51.51,0,0,1,.13,0s0,0,0,0l-.12,0,0,.14v.11s0,0,0,0a0,0,0,0,1,0,0v.07s0,0,0,0H.36s0,0,0,0,0,0,0,0v.11s0,0,0,0H.2s0,0,0,0,0,0,0,0H.31s0,0,0,0v.07s0,0,0,0,0,0,0,0H.18s0,0,0,0,0,0,0,0v.07s0,0,0,0a.53.53,0,0,0-.13,0v.07s0,0,0,0H.16s0,0,0,0,0,0,0,0H.28s0,0,0,0,0,0,0,0v0s0,0,0,0,0,0,0,0H.15a0,0,0,0,0,0,0s0,0,0,0H.27s0,0,0,0v0s0,0,0,0H.14s0,0,0,0H0v.18H.12s0,0,0,0,0,0,0,0,0,0,0,0H.24s0,0,0,0,0,0,0,0H.11s0,0,0,0v.07s0,0,0,0a.48.48,0,0,0,.12,0s0,0,0,0,0,0,0,0H.1s0,0,0,0,0,0,0,0H.23s0,0,0,0,0,0,0,0H.11s0,0,0,0V16s0,0,0,0,0,0,0,0H.27s0,0,0,0H.15s0,0,0,0,0,0,0,0v.07s0,0,0,0v0s0,0,0,0,0,0,0,0H0s0,0,0,0H.17s0,0,0,0,0,0,0,0,0,0,0,0v0a0,0,0,0,0,0,0s0,0,0,0l.12,0a.06.06,0,0,1,0,0H.18s0,0,0,0v.21s0,0,0,0a0,0,0,0,0,0,0v0a0,0,0,0,0,0,0s0,0,0,0l.12,0s0,0,0,0H.26s0,0,0,0,0,0,0,0,0,0,0,0l.12,0s0,0,0,0H.28s0,0,0,0v0s0,0,0,0v.07l-.12,0s0,0,0,0,0,0,0,0v0l.13,0s0,0,0,0,0,0,0,0,0,0,0,0,.1,0,.13,0,0,0,0,0l-.12,0s0,0,0,0l-.12,0s0,0,0,0l.12,0s0,0,0,0,0,0,0,0v.11s0,0,0,0,0,0,0,0L.28,18s0,0,0,0l.13,0s0,0,0,0,0,0,0,0,0,0,0,0,0,0,0,0,.09,0,.12,0,0,0,0,0l-.12,0s0,0,0,0,0,0,0,0v0s0,0,0,0,0,0,0,0l-.12,0s0,0,0,0,0,0,0,0a.06.06,0,0,0,0,0l.12,0s0,0,0,0v0l0,.07,0,.14a.06.06,0,0,0,0,0s0,0,0,0l-.12,0s0,0,0,0l.12,0s0,0,0,0l.12,0v0s0,0,0,0L.65,19s0,0,0,0,0,0,0,0l-.12,0s0,0,0,0l.12,0a.08.08,0,0,1,0,0s0,0,0,0l.12,0a0,0,0,0,1,0,0s0,0,0,0l-.12,0s0,0,0,0l0,.14v.1a.19.19,0,0,0,0,.07l.05.13v0l0,.06,0,.14v0L1,20l.05.13v0l.06.14v.1l.06.13v0s0,0,0,0l0,0v0a0,0,0,0,0,0,0l.12-.05v0l-.11,0s0,0,0,0,0,0,0,0l.12,0s0,0,0,0,0,0,0,0-.1,0-.11.06,0,0,0,0l0,0v0s0,0,0,0,.1-.05.11-.05,0,0,0,0l0,0-.12.05,0,0,0,0s0,0,0,0,.1-.05.11-.05,0,0,0,0l0,0v0l-.11.05s0,0,0,0,0,0,0,0,0,0,0,0l0,0v0l0,0,.11-.05s0,0,0,0,0,0,0,0l-.11.06s0,0,0,0,0,0,0,0l0,0s0,0,0,0l.11-.05s0,0,0,0,0,0,0,0l0,0s0,0,0,0l-.11.06,0,0,.07.13v0s0,0,0,0L2,21.93s0,0,0,0l0,0s0,0,0,0v0l0,0v0l0,0,0,0,0,0,0,0-.11.07s0,0,0,0,0,0,0,0l.11-.07s0,0,0,0l-.11.07s0,0,0,0l0,0,0,0s0,0,0,0l.1-.07s0,0,0,0,0,0,0,0l-.1.07s0,0,0,0,0,0,0,0l.1-.07s0,0,0,0,0,0,0,0l-.1.07s0,0,0,0,0,0,0,0l.11-.07s0,0,0,0,0,0,0,0l-.11.07s0,0,0,0,0,0,0,0l.11-.07,0,0s0,0,0,0l-.11.07s0,0,0,0,0,0,0,0l.1-.07s0,0,0,0l0,0s0,0,0,0-.1.06-.1.07,0,0,0,0l0,0s0,0,0,0,0,0,0,0,0,0,0,0l.1-.07s0,0,0,0,0,0,0,0-.1.06-.1.07,0,0,0,0l0,0v0s0,0,0,0,.09-.07.11-.07,0,0,0,0a0,0,0,0,1,0,0l-.11.07s0,0,0,0l.1-.08,0,0,0,0,0,0,0,0,0,0,0,0,0,0,0,0,0,.05,0,0,0,.06,0,0,0,0,0,0a0,0,0,0,1,0,0l-.1.07s0,0,0,0l.1-.08s0,0,0,0l0,0s0,0,0,0-.09.07-.09.08l0,0s0,0,0,0l.1-.08,0,0,0,0s0,0,0,0a.7.7,0,0,0-.1.08s0,0,0,0,0,0,0,0,.08-.07.1-.08,0,0,0,0,0,0,0,0l0,0,0,0,0,0,0,0-.09.08,0,0,.09-.08,0,0,0,0,0,0s0,0,0,0a.73.73,0,0,1-.09.08s0,0,0,0-.08.06-.09.08l0,0,.09-.09.09-.08s0,0,0,0l0,0,0,0s0,0,0,0l0,0-.1.08,0,0s0,0,0,0l.09-.08s0,0,0,0,0,0,0,0L4,24.89l0,0,.09-.08s0,0,0,0l0,0L4.09,25s0,0,0,0l.09-.09,0,0L4.14,25s0,0,0,0l0,0,0,0,0,0,0,0,0,0s0,0,0,0,0,0,0,0l.09-.09s0,0,0,0l0,0s0,0,0,0-.09.08-.09.09l0,0,0,0,0,0,0,0,0,0,0,0,.1.1,0,0,0,0,0,0,0,0s0,0,0,0l.08-.09,0,0-.09.09,0,0,0,0,0,0,0,0s0,0,0,0L5,25.73l.06.05,0,0,0,0s0,0,0,0a.73.73,0,0,0-.08.09s0,0,0,0,0,0,0,0l0,0,0,0,0,0,0,0,0,0,0,0,0,0s0,0,0,0a.73.73,0,0,0,.08-.09s0,0,0,0,0,0,0,0-.08.08-.08.1,0,0,0,0l0,0s0,0,0,0l.08-.1,0,0-.08.1s0,0,0,0,0,0,0,0l.08-.1s0,0,0,0l0,0,0,0s0,0,0,0l-.08.1s0,0,0,0,0,0,0,0,0,0,0,0a.87.87,0,0,1,.08-.1s0,0,0,0-.07.08-.07.09,0,0,0,0,0,0,0,0a.87.87,0,0,1,.08-.1l0,0-.08.1s0,0,0,0a0,0,0,0,1,0,0l0,0a.87.87,0,0,0,.08-.1l0,0,0,0-.08.1s0,0,0,0,0,0,0,0,0,0,0,0l.07-.1s0,0,0,0-.06.09-.07.1l0,0s0,0,0,0a.43.43,0,0,0,.07-.1,0,0,0,0,1,0,0l0,0s-.07.09-.07.1l0,0s0-.09.07-.1,0,0,0,0l0,0,0,0,0,0,0,0,0,0s0,0,0,0-.07.09-.07.1l0,0s0,0,0,0l.07-.1,0,0,0,0,0,0s0,0,0,0-.07.09-.07.1,0,0,0,0l0,0a0,0,0,0,0,0,0l.07-.11,0,0,0,0-.07.11s0,0,0,0l0,0a.41.41,0,0,0,.07-.11l0,0,0,0,0,0,0,0,0,0,0,0-.07.1,0,0,0,0,0,0,0,0,0,0,0,0s0,0,0,0l.07-.11,0,0a.67.67,0,0,0-.07.11h0l0,0,.07-.11,0,0,0,0,0,0,0,0h0l0,0,0,0,0,0h0l0,0s0,0,0,0l-.06.11s0,0,0,0l0,0,0,0,0,0s0,0,0,0l.06-.11h0s0,0,0,0,0,0,0,0L7.94,28l0,0A.39.39,0,0,1,8,27.88h0L8,28l0,0,0,0,0,0h0l.06-.1s0,0,0,0-.06.1-.06.11,0,0,0,0l0,0,0,0h0l0,0,.06-.11s0,0,0,0l0,0h0l0,0s0,0,0,0,0,0,0,0l-.05.11s0,0,0,0a.54.54,0,0,0,.05-.11s0,0,0,0h.06l0,0h0l0,0h0l0,0h0l0,0H9s0,0,0,0H9L9,28.49s0,0,0,0a.37.37,0,0,1,.05-.11s0,0,0,0l0,0h0l0,0h.06l-.05.12h0a.37.37,0,0,0,0-.11s0,0,0,0l0,0h0l0,0h0l0,0h0l.13.06h0l0,0h0s-.05.12-.05.12,0,0,0,0l0-.11h0l0,0h0l0,0h0s0,.12,0,.12h0l.05-.11h.16l0,0h.06s0,0,0,0,0,.12,0,.12,0,0,0,0l0-.12h0l0,0h.13s0,.11,0,.12,0,0,0,0h0l0,0a.56.56,0,0,0,0-.12s0,0,0,0h.1l0,0s0,0,0,0-.05.11,0,.12h0a.84.84,0,0,0,0-.12s0,0,0,0,0,0,0,0l0-.12s0,0,0,0,0,.09,0,.11,0,0,0,0h.17l0,.12s0,0,0,0,0,0,0,0l0-.12s0,0,0,0,0,.11,0,.12h.07s0,0,0,0a.42.42,0,0,0,0-.12s0,0,0,0l0,0h.31s0,0,0,0l0,.12h.11l0-.12s0,0,0,0,0,.11,0,.12h0s0,0,0,0a.53.53,0,0,0,0-.12s0,0,0,0h.07s0,0,0,0,0,.1,0,.12h0l0-.12s0,0,0,0h.07l0,.12s0,0,0,0,0,0,0,0l0-.12h.07l.14,0h.24l0,.12H13s0,0,0,0l0-.13s0,0,0,0,0,.1,0,.12,0,0,0,0l0-.13s0,0,0,0h.14s0,0,0,0,0,.11,0,.13h0s0,0,0,0a.51.51,0,0,0,0-.13s0,0,0,0,0,0,0,0h.45s0,0,0,0,0,.1,0,.12h0v-.13s0,0,0,0h.07s0,.1,0,.12h0v-.13s0,0,0,0h.42v.13h.07s0,0,0,0,0-.1,0-.12H15s0,0,0,0,0,.1,0,.12h0s0,0,0,0V30h.29s0,0,0,0v.12s0,0,0,0,0-.11,0-.12h.14v.13h0V30h.1s0,0,0,0v.13h0s0,0,0,0V30h.07v.12s0,0,0,0a.57.57,0,0,1,0-.13h0s0,0,0,0a.48.48,0,0,0,0,.12h.07s0,0,0,0,0-.13,0-.13,0,0,0,0h.07s0,0,0,0a.57.57,0,0,0,0,.13s0,0,0,0h.18V30s0,0,0,0a.57.57,0,0,0,0,.13h0V30h.39v.12H17A.57.57,0,0,0,17,30h.32s0,0,0,0,0,0,0,0v.12s0,0,0,0V30h0s0,0,0,0h.11v.12h.07s0,0,0,0a.57.57,0,0,1,0-.13s0,0,0,0h.07s0,0,0,0h0s0,.11,0,.12,0,0,0,0h0s0,0,0,0v-.12h.11s0,0,0,0a.45.45,0,0,1,0,.12s0,0,0,0,0,.1,0,.12h0a.45.45,0,0,1,0-.12h.07s0,0,0,0a.62.62,0,0,1,0-.13s0,0,0,0h.11V30h0l0-.12h.32s0,0,0,0a.43.43,0,0,0,0,.12h0l0-.13h0a.43.43,0,0,0,0,.12s0,0,0,0h0l0-.12s0,0,0,0h.14l.15,0h.07l0,.12s0,0,0,0,0,0,0,0h0s0,0,0,0,0-.11,0-.12h.1s0,0,0,0,0,0,0,0,0,.12,0,.12,0,0,0,0h.1s0,0,0,0l0-.12h.35l.14,0,.14,0h.28l0-.12h0l0,.12s0,0,0,0h.06l.14,0h.07l0,0h0l.13,0h0l0,0h.14l0,.12s0,0,0,0l0-.12s0,0,0,0l0,.12,0,0,0-.12s0,0,0,0,0,0,0,0l0,.12h0l0-.12s0,0,0,0a.56.56,0,0,1,0,.12s0,0,0,0,0,0,0,0,0-.1,0-.11,0,0,0,0,0-.1,0-.12,0,0,0,0,0,.09,0,.11h.17s0,0,0,0,0,.1,0,.11,0,0,0,0L22.11,29h.07l.05.12h.06l0-.12s0,0,0,0,0,.11,0,.11,0,0,0,0h0l0-.12s0,0,0,0h.1l0,0h0l0,0,.07,0,0,0h0l0,0h0l0,0h0s0,0,0,0l-.05-.11s0,0,0,0l.05.11h0l0,0h0l0,0s0,0,0,0,0,.1.05.11,0,0,0,0l-.05-.12s0,0,0,0h0l0,.11s0,0,0,0,0,0,0,0l0,0h.07l0,0-.05-.11s0,0,0,0,0,0,0,0l0,0h.06s0,0,0,0,0-.1,0-.11,0,0,0,0h0s0,0,0,0a1.17,1.17,0,0,1,.05.11s0,0,0,0,0,0,0,0l0,0h.06l0,0h0l.12-.07,0,0,0,0,0,0,.06,0,.06,0h0l0,0-.06-.11s0,0,0,0l.06.11s0,0,0,0,0,0,0,0l.06.11s0,0,0,0l-.06-.11.06,0h0l0,0,0,0a0,0,0,0,0,0,0s0,0,0,0-.06-.09-.06-.11,0,0,0,0l0,0s0,.1.06.11,0,0,0,0l.06.11s0,0,0,0-.05-.08-.06-.1,0,0,0,0-.06-.09-.06-.11h0l.06.1s0,0,0,0l0,0,0,0-.07-.11h0l.07.1s0,0,0,0h0l0,0,0,0h0l0,0,0,0,0,0s0,0,0,0,0,0,0,0l-.07-.1s0,0,0,0l.07.1s0,0,0,0a.86.86,0,0,1-.07-.1l0,0,.07.1s0,0,0,0,0,0,0,0l0,0,0,0,0,0s0,0,0,0l-.07-.1s0,0,0,0l.07.1s0,0,0,0l0,0a.61.61,0,0,0-.07-.1l0,0,0,0,0,0s0,0,0,0a.61.61,0,0,1,.07.1l0,0,0,0,0,0,0,0,0,0,0,0s0,0,0,0-.06-.09-.07-.1,0,0,0,0l0,0s0,0,0,0l.07.1a0,0,0,0,0,0,0s0,0,0,0,.06.08.08.1l0,0s0,0,0,0l-.07-.1s0,0,0,0,0,0,0,0l0,0,0,0,0,0,0,0,0,0,0,0,0,0s0,0,0,0,0,0,0,0-.07-.08-.07-.1,0,0,0,0,0,0,0,0,.06.08.08.09,0,0,0,0,0,0,0,0a.86.86,0,0,0-.07-.1s0,0,0,0l.08.1,0,0,0,0a.7.7,0,0,1-.08-.1l0,0a0,0,0,0,1,0,0s0,0,0,0l.08.1,0,0s0,0,0,0l-.08-.09,0,0,0,0s0,0,0,0l.07.1,0,0,0,0,0,0s0,0,0,0-.07-.08-.07-.09,0,0,0,0l0,0s0,0,0,0,.06.09.08.09,0,0,0,0,0,0,0,0A.73.73,0,0,0,27,26s0,0,0,0,0,0,0,0,0,0,0,0,.07.08.08.09,0,0,0,0,0,0,0,0,0,0,0,0a.65.65,0,0,0,.08.09s0,0,0,0l-.09-.09,0,0,0,0,0,0a0,0,0,0,1,0,0s0,0,0,0,0,0,0,0l-.09-.09s0,0,0,0,.07.08.09.09,0,0,0,0l-.08-.09s0,0,0,0l0,0,0,0,0,0,0,0a.65.65,0,0,0,.08.09s0,0,0,0l0,0s0,0,0,0l0,0,0,0,0,0,0,0,0,0,0,0,0,0,0,0,0,0-.09-.09s0,0,0,0l0,0s0,0,0,0l.09.09s0,0,0,0l0,0,0,0,0,0s0,0,0,0l.09.09s0,0,0,0l-.09-.08s0,0,0,0l0,0,0,0,0,0,0,0,0,0,0,0s0,0,0,0l0,0,0,0,0,0,0,0s0,0,0,0l-.09-.09,0,0s0,0,0,0l.09.09s0,0,0,0l0,0a0,0,0,0,0,0,0l0,0,0,0,0,0,0,0s0,0,0,0l0,0,0,0,.05-.05,0,0,.05-.06,0,0,0,0,0,0,0,0s0,0,0,0,0,0,0,0,0,0,0,0L29,24l0,0s0,0,0,0l.1.07s0,0,0,0,0,0,0,0l0,0a.87.87,0,0,1-.1-.08l0,0,0,0,0,0s0,0,0,0l.1.08s0,0,0,0,0,0,0,0l0,0,0,0,0,0s0,0,0,0,0,0,0,0,0,0,0,0l-.1-.08s0,0,0,0l.1.07s0,0,0,0l0,0,0,0,0,0,0,0s0,0,0,0,0,0,0,0l-.1-.07s0,0,0,0l0,0s0,0,0,0l.1.07s0,0,0,0l0,0-.1-.07s0,0,0,0,0,0,0,0l0,0s0,0,0,0l0,0,0,0,0,0v0l0,0s0,0,0,0l.11.07s0,0,0,0l0,0,0,0s0,0,0,0-.1,0-.11-.07,0,0,0,0,0,0,0,0l0,0,0,0,0,0s0,0,0,0l.1.07s0,0,0,0l0,0-.1-.06s0,0,0,0l.1.06s0,0,0,0l0,0-.1-.06s0,0,0,0l.1.06s0,0,0,0l0,0,0,0,0,0,0,0-.1-.06s0,0,0,0l0,0,.11.06s0,0,0,0,0,0,0,0,0,0,0,0l-.1-.07a0,0,0,0,1,0,0s0,0,0,0l.11.06s0,0,0,0l0,0,0,0-.11-.06s0,0,0,0,0,0,0,0,0,0,0,0l.11.06v0l0,0,0,0a.39.39,0,0,0-.11-.06s0,0,0,0l0,0,.11.06s0,0,0,0,0,0,0,0,0,0,0,0l-.11-.06,0,0v0l0,0,0,0v0s0,0,0,0l.11.06s0,0,0,0,0,0,0,0l-.11-.05,0,0s0,0,0,0l.11.06a0,0,0,0,0,0,0l0,0,0,0s0,0,0,0l-.11-.05s0,0,0,0v0s0,0,0,0l.11.06s0,0,0,0l0,0L30.9,21s0,0,0,0l0,0s0,0,0,0,0,0,0,0l.11.06s0,0,0,0L31,20.82s0,0,0,0,0,0,0,0,0,0,0,0l0,0v0s0,0,0,0l0,0v-.07a0,0,0,0,0,0,0l.12.05s0,0,0,0l-.11,0s0,0,0,0v0l0,0v-.07l0,0a0,0,0,0,1,0,0,.06.06,0,0,0,0,0l0,0s0,0,0,0,0,0,0,0l.12.05s0,0,0,0l-.11,0s0,0,0,0,0,0,0,0l0,0v0l.12,0v0l-.12-.05,0,0s0,0,0,0l.12,0s0,0,0,0l-.12-.05s0,0,0,0l0,0s0,0,0,0,0,0,0,0l.12,0s0,0,0,0l-.11,0s0,0,0,0v0l0,0v-.07l0-.13v-.14a.06.06,0,0,1,0,0l.12,0v0l-.12,0v0l0-.07v-.14s0,0,0,0,0,0,0,0l.12,0s0,0,0,0,0,0,0,0l-.12,0v0s0,0,0,0l.12,0v0s0,0,0,0-.11,0-.12,0,0,0,0,0,0,0,0,0,0,0,0,0l0-.07V18.3s0,0,0,0a0,0,0,0,1,0,0s0,0,0,0l.12,0s0,0,0,0l-.12,0s0,0,0,0v-.07l.13,0s0,0,0,0l-.12,0s0,0,0,0v0a.06.06,0,0,1,0,0l.12,0s0,0,0,0l-.13,0s0,0,0,0v-.49a0,0,0,0,0,0,0s0,0,0,0l.12,0s0,0,0,0l-.12,0s0,0,0,0,0,0,0,0l-.12,0s0,0,0,0l.12,0s0,0,0,0,0,0,0,0a.08.08,0,0,1,0,0s0,0,0,0,0,0,0,0,0,0,0,0l.12,0v-.11s0,0,0,0,0,0,0,0l-.13,0s0,0,0,0v-.14a.06.06,0,0,1,0,0h.12s0,0,0,0h-.12s0,0,0,0,0,0,0,0l.13,0s0,0,0,0v0s0,0,0,0h-.12s0,0,0,0v-.07a0,0,0,0,0,0,0s0,0,0,0,0,0,0,0h.12a0,0,0,0,0,0,0V16s0,0,0,0H32.2s0,0,0,0a0,0,0,0,1,0,0h.12s0,0,0,0,0,0,0,0v-.07s0,0,0,0,0,0,0,0h-.12s0,0,0,0v-.11h.12s0,0,0,0,0,0,0,0h-.12v0s0,0,0,0h.13s0,0,0,0v-.14s0,0,0,0h-.12s0,0,0,0,0,0,0,0h0v0h-.5v0h-.12v.31s0,0,0,0h-.13s0,0,0,0h.12s0,0,0,0v.1a0,0,0,0,1,0,0h-.12s0,0,0,0h.12s0,0,0,0v.07s0,0,0,0,0,0,0,0h-.12s0,0,0,0v0h.13s0,0,0,0a0,0,0,0,0,0,0s0,0,0,0v.51s0,0,0,0a.57.57,0,0,1-.13,0s0,0,0,0,0,0,0,0h.13s0,0,0,0v.27l0,.14v0a0,0,0,0,0,0,0v.07s0,0,0,0v0s0,0,0,0,0,0,0,0l.12,0s0,0,0,0l-.12,0s0,0,0,0,0,0,0,0a.43.43,0,0,1,.12,0s0,0,0,0v0l-.12,0s0,0,0,0l.13,0s0,0,0,0-.11,0-.12,0,0,0,0,0v.07s0,0,0,0,0,0,0,0,0,0,0,0l.12,0s0,0,0,0,0,0,0,0l-.12,0s0,0,0,0a.06.06,0,0,0,0,0V18s0,0,0,0l.12,0s0,0,0,0,0,0,0,0l-.12,0a0,0,0,0,0,0,0v0a0,0,0,0,1,0,0s0,0,0,0l-.12,0a.06.06,0,0,0,0,0s0,0,0,0l.12,0a0,0,0,0,1,0,0s0,0,0,0l-.12,0s0,0,0,0l.13,0v0a0,0,0,0,0,0,0s0,0,0,0,0,0,0,0l.12,0s0,0,0,0l-.12,0a0,0,0,0,0,0,0s0,0,0,0a0,0,0,0,1,0,0v0s0,0,0,0l.12,0s0,0,0,0a0,0,0,0,1,0,0v0s0,0,0,0l-.12,0s0,0,0,0,0,0,0,0,.12,0,.12,0,0,0,0,0l-.12,0a.06.06,0,0,0,0,0v0l0,.13v.1s0,0,0,0l.11,0s0,0,0,0,0,0,0,0l-.12,0s0,0,0,0l0,0s0,0,0,0v0l0,0v0s0,0,0,0l.12,0s0,0,0,0v0l-.12,0s0,0,0,0l.12.05v0s-.11-.05-.12,0,0,0,0,0l-.12-.05s0,0,0,0,0,0,0,0l-.11-.05-.05.13.11,0s0,0,0,0,0,0,0,0,.1,0,.11.05,0,0,0,0,0,0,0,0v0l0,0,0,.06s.1,0,.11.05,0,0,0,0,0,0,0,0l-.12-.05a.06.06,0,0,0,0,0,0,0,0,0,1,0,0s0,0,0,0,0,0,0,0l-.11,0v0s.09,0,.11.05v0l0,.07v.06a0,0,0,0,0,0,0l0,0v0s0,0,0,0,0,0,0,0l.11.05s0,0,0,0l-.12,0s0,0,0,0l0,0s0,0,0,0l0,0s0,0,0,0a.1.1,0,0,0,0,0l0,0a0,0,0,0,1,0,0l0,0s0,0,0,0a1.34,1.34,0,0,0-.12-.06s0,0,0,0l.11.06s0,0,0,0v0s0,0,0,0v0s0,0,0,0l0,0-.06.12v0l0,0,0,0,0,.06v0l0,0,0,0s0,0,0,0l0,0s0,0,0,0l-.11-.06s0,0,0,0-.08-.06-.1-.06,0,0,0,0l.11.06s0,0,0,0l.11.06s0,0,0,0l0,0,0,0s0,0,0,0,.09.05.1.06,0,0,0,0l-.1-.06s0,0,0,0,0,0,0,0,0,0,0,0l0,0s0,0,0,0l.11.07s0,0,0,0l-.11-.07s0,0,0,0l0,0s0,0,0,0l.1.06s0,0,0,0l-.1-.07s0,0,0,0l0,0,0,0,0,0-.07.11,0,0,0,0s0,0,0,0l.11.07s0,0,0,0l-.11-.06s0,0,0,0,0,0,0,0l.1.07,0,0s0,0,0,0l-.1-.07s0,0,0,0l0,0,0,0s0,0,0,0l0,0-.07.12,0,0,0,0,0,0a.76.76,0,0,1-.08.11l0,0,0,0s0,0,0,0l0,0,0,0,0,0s0,0,0,0,0,0,0,0l.1.08,0,0s0,0,0,0l-.1-.08s0,0,0,0l0,0,0,0,0,0,0,0,0,0s0,0,0,0l0,0,0,0,.1.08s0,0,0,0l0,0s0,0,0,0l-.1-.08s0,0,0,0l0,0,0,0s0,0,0,0l0,0-.08.11,0,0,0,0s0,0,0,0,0,0,0,0a.34.34,0,0,1,.09.08,0,0,0,0,1,0,0s0,0,0,0,0,0,0,0l-.09-.09,0,0,0,.05-.1.1-.09-.09,0,0s.09.07.09.08,0,0,0,0a.73.73,0,0,1,.09.08s0,0,0,0,0,0,0,0l-.09-.09s0,0,0,0,0,0,0,0l0,0,0,0,0,0,0,0,0,0,0,0,0,0,0,0,0,0a0,0,0,0,1,0,0s0,0,0,0,.09.07.09.09,0,0,0,0l0,0,0,0,0,0s0,0,0,0,0,0,0,0a.76.76,0,0,1-.09-.09s0,0,0,0l0,0a.65.65,0,0,1-.08-.09,0,0,0,0,0,0,0l.09.09s0,0,0,0l.09.09s0,0,0,0,0,0,0,0L27.25,25s0,0,0,0l.09.09s0,0,0,0,0,0,0,0l0,0,0,0,0,0,0,0,0,0,0,0-.1.09,0,0,0,0,0,0,0,0s0,0,0,0l-.08-.09,0,0s0,0,0,0,.07.08.08.1,0,0,0,0l0,0,0,0s0,0,0,0l-.09-.1s0,0,0,0l0,0s.08.09.08.1,0,0,0,0l-.08-.09s0,0,0,0l.08.09s0,0,0,0l0,0,0,0s0,0,0,0l-.07-.09,0,0,0,0,0,0,0,0,.08.1s0,0,0,0,0,0,0,0l-.08-.09,0,0s0,0,0,0,0,0,0,0l.08.1,0,0,0,0,0,0,0,0s0,0,0,0l-.08-.1,0,0,.08.1,0,0,0,0,0,0,0,0h0l0,0,0,0s0,0,0,0,0,0,0,0,0,0,0,0-.06-.09-.07-.1,0,0,0,0l0,0s0,0,0,0,0,0,0,0l.08.1,0,0,0,0,0,0,0,0,0,0,0,0,0,0,0,0h0s0,0,0,0,0,0,0,0l-.07-.1s0,0,0,0l.07.1s0,0,0,0l0,0,0,0,0,0,0,0s0,0,0,0l0,0,0,0-.11.08,0,0,0,0,0,0,0,0-.05,0-.12.07-.12.07-.06,0,0,0h0l-.07-.1h0l.07.11s0,0,0,0l0,0a1.05,1.05,0,0,0-.07-.11s0,0,0,0l0,0s0,0,0,0l.07.11s0,0,0,0,0,0,0,0l0,0h0l0,0,0,0h0l0,0,0,0h0s0,0,0,0l-.06-.11s0,0,0,0h0l0,0s0,0,0,0,0,0,0,0l.06.11,0,0s-.05-.11-.06-.11,0,0,0,0h0l0,0s0,0,0,0l.06.11h0s0,0,0,0-.05-.1-.06-.11,0,0,0,0h0s0,0,0,0a.58.58,0,0,1,.05.11s0,0,0,0l-.05-.11s0,0,0,0,0,0,0,0h0a1.17,1.17,0,0,0-.05-.11s0,0,0,0a1.17,1.17,0,0,0,0,.11s0,0,0,0l.06.11s0,0,0,0,0,0,0,0h0l0,0s0,0,0,0a1,1,0,0,1-.05-.11s0,0,0,0,0,0,0,0l.06.12h0l0,0H23l0,0h-.06l0,0s0,0,0,0l-.05-.11h0l0,0h-.06l0,0h0l-.07,0h0l0,0h0l.05.12s0,0,0,0h0l0,0s0,0,0,0l0-.11h0s0,0,0,0l.05.12s0,0,0,0,0-.1-.05-.11,0,0,0,0h-.06s0,0,0,0,0,.1,0,.11h-.07l0-.11s0,0,0,0H22s0,0,0,0l0,.12s0,0,0,0,0-.1,0-.12,0,0,0,0h-.1l0,.12h0s0,0,0,0l0-.11h-.22s0,0,0,0l0,.12h0l-.06,0h0l0,0h0l0-.12s0,0,0,0h0l0,.12h-.07l0-.12h-.06l0,.12s0,0,0,0H21l0,0h-.07s0,0,0,0,0-.11,0-.12,0,0,0,0l0,.12s0,0,0,0h0s0,0,0,0a.7.7,0,0,0,0-.12h-.07s0,.1,0,.12,0,0,0,0h-.13s0,0,0,0a.7.7,0,0,1,0-.12h-.1l0,.12s0,0,0,0h0l0-.13s0,0,0,0h-.14s0,0,0,0a1,1,0,0,0,0,.12,0,0,0,0,1,0,0h0l0,.12s0,0,0,0h0S20,29,20,29s0,0,0,0h0l0,.12s0,0,0,0h0s0,0,0,0l0-.12h-.14l0,.13s0,0,0,0l0-.12s0,0,0,0h0s0,0,0,0,0,.11,0,.12h-.07s0,0,0,0a.43.43,0,0,0,0-.12s0,0,0,0,0,0,0,0l0,.12h0a0,0,0,0,1,0,0,.5.5,0,0,1,0-.12s0,0,0,0H19s0,0,0,0h0s0,.11,0,.12h-.07l0-.12s0,0,0,0,0,0,0,0h-.07s0,0,0,0,0,0,0,0,0,.1,0,.12h0s0,0,0,0,0-.12,0-.12,0,0,0,0h-.07s0,0,0,0a.43.43,0,0,1,0-.12s0,0,0,0h0s0,.1,0,.12,0,0,0,0,0,.1,0,.12,0,0,0,0,0-.1,0-.13h0s0,0,0,0,0,.12,0,.12h0s0,0,0,0,0-.11,0-.12,0,0,0,0v.12h0s0-.11,0-.12,0,0,0,0h0s0,0,0,0,0,.11,0,.12,0,0,0,0h-.1s0,0,0,0,0-.12,0-.12h0s0,0,0,0,0,0,0,0,0,.11,0,.12h-.07a.53.53,0,0,0,0-.12s0,0,0,0,0,0,0,0a.49.49,0,0,0,0-.12h-.06s0,0,0,0,0,.11,0,.13,0,0,0,0,0,0,0,0,0,.11,0,.12,0,0,0,0h-.14s0-.12,0-.12,0,0,0,0H17s0,0,0,0v.12s0,0,0,0v-.12s0,0,0,0,0,0,0,0,0,.12,0,.12,0,0,0,0v-.13h0s0,0,0,0a.48.48,0,0,0,0,.12h-.1s0,0,0,0v-.13s0,0,0,0h0v.13s0,0,0,0v-.12s0,0,0,0a.48.48,0,0,1,0,.12s0,0,0,0,0,0,0,0h-.07v-.13s0,0,0,0H15.22s0,0,0,0,0,0,0,0a.57.57,0,0,1,0-.13h0v.13s0,0,0,0H15s0,0,0,0,0,0,0,0v.12h0s0-.11,0-.13,0,0,0,0H14.6s0,0,0,0a.53.53,0,0,0,0,.13s0,0,0,0v-.12h-.06a.62.62,0,0,1,0-.13h-.07v.13s0,0,0,0H14.3s0,0,0,0,0,0,0,0v-.12h-.06a.6.6,0,0,0,0,.12H14l-.13,0h-.37l-.14,0h-.24l-.13,0h-.37l0-.12s0,0,0,0,0,0,0,0l0,.12h-.07s0,0,0,0h0s0,0,0,0l0,.12h0s0,0,0,0l0-.12s0,0,0,0h-.17s0,0,0,0l0,.12h0l0-.12h0l-.13,0h-.1l-.13,0h-.1s0,0,0,0l0-.12h0s0,0,0,0,0,.11,0,.12,0,0,0,0l0-.12h-.06l0,.12h0s0,0,0,0,0,0,0,0,0,.1,0,.11,0,0,0,0l0-.12s0,0,0,0h-.1s0,0,0,0l0,.12s0,0,0,0,0-.09,0-.11,0,0,0,0l0,0H10.9s0,0,0,0a.84.84,0,0,1,0,.12s0,0,0,0,0,0,0,0,0-.09,0-.11,0,0,0,0h0s0,0,0,0l0,.12h-.1l0-.12s0,0,0,0a.84.84,0,0,1,0,.12s0,0,0,0l0-.11s0,0,0,0h0s0,0,0,0,0,.1,0,.11,0,0,0,0l0-.12s0,0,0,0h-.2l0,0h0l0,.11s0,0,0,0l.05-.12h0s0,0,0,0,0,.12,0,.12h0l0,0h0l0,0,0-.11,0,0,0,.12s0,0,0,0a1.17,1.17,0,0,0,.05-.11s0,0,0,0l-.05.11h0l0,0L9.75,28s0,0,0,0H9.65l0,0-.06,0H9.5l0,0h0l0,0h0s0,0,0,0,0,.11-.05.12l0,0h0l0-.11s0,0,0,0h0l0,0H9.12l0,0s0,0,0,0,0,.1-.05.11,0,0,0,0,0,0,0,0h0l0,0h0l.06-.11,0,0h0s0,0,0,0,0,.1-.05.11,0,0,0,0,0,0,0,0,.05-.09.05-.11,0,0,0,0l0,0-.06.11s0,0,0,0l0,0,0,0-.06,0,0,0,0,0h0l.06-.11,0,0,0,0s0,0,0,0a.6.6,0,0,0-.06.11l0,0,.06-.11,0,0h0l0,0-.06.11s0,0,0,0l0,0s0,0,0,0,.06-.09.06-.11,0,0,0,0l0,0L8,27.3H8l.06-.11s0,0,0,0L8,27.27s0,0,0,0l0,0h0l0,0,0,0,.06-.1s0,0,0,0l0,0s0,0,0,0l-.06.1s0,0,0,0l.06-.1,0,0s0,0,0,0l-.06.1,0,0h0l.06-.11s0,0,0,0L7.56,27s0,0,0,0l0,0s0,0,0,0l.07-.1s0,0,0,0l-.07.1s0,0,0,0h0l.06-.11s0,0,0,0l0,0,0,0-.11-.08,0,0,0,0,0,0h0s0,0,0,0,0,0,0,0,.06-.09.07-.11l0,0s0,0,0,0-.06.09-.08.11,0,0,0,0,0,0,0,0l0,0,0,0,0,0,0,0-.06,0-.11-.08,0,0-.06,0-.11-.08-.07.1s0,0,0,0l.07-.1s0,0,0,0l.07-.1s0,0,0,0l0,0-.08.1,0,0,0,0,0,0,0,0,0,0,0,0,0,0,0,0,.08-.1s0,0,0,0a.61.61,0,0,0-.07.1s0,0,0,0l0,0,.08-.1s0,0,0,0a.87.87,0,0,0-.08.1s0,0,0,0l0,0,0,0,0,0s0,0,0,0l0,0s0,0,0,0,0,0,0,0A.65.65,0,0,1,6,25.53s0,0,0,0l0,0s0,0,0,0l-.08.1s0,0,0,0,0,0,0,0l0,0,0,0,0,0,0,0,0,0-.1-.09,0,0,0,0a0,0,0,0,0,0,0l0,0,0,0-.11-.09,0,0,0,0s0,0,0,0l-.08.09,0,0L5.18,25s0,0,0,0l0,0,0,0,0,0,0,0,0,0s0,0,0,0,0,0,0,0l.09-.09,0,0,0,0a.76.76,0,0,0-.09.09s0,0,0,0l0,0,0,0-.09-.09,0,0,0,0,0,0-.09.09s0,0,0,0,0,0,0,0l.09-.09,0,0,0,0s0,0,0,0l-.1.08s0,0,0,0l.09-.08s0,0,0,0l0,0s0,0,0,0l0,0,0,0,0,0,0,0,0,0,0,0-.09-.11,0,0,0,0,0,0,0,0,0,0,0,0,0,0s0,0,0,0l0,0s0,0,0,0l-.1.08s0,0,0,0,.1-.08.09-.08,0,0,0,0l-.09.08s0,0,0,0A.55.55,0,0,1,4,23.71s0,0,0,0,0,0,0,0a0,0,0,0,0,0,0s0,0,0,0,0,0,0,0l-.1.08s0,0,0,0,.09-.06.09-.08,0,0,0,0l.1-.08s0,0,0,0l-.1.08-.1.08s0,0,0,0,0,0,0,0,0,0,0,0l.1-.08s0,0,0,0,0,0,0,0-.1.08-.1.07a0,0,0,0,1,0,0s0,0,0,0,.09-.06.09-.07,0,0,0,0,0,0,0,0l-.1.08s0,0,0,0,0,0,0,0l0,0,0,0,0,0,.1-.07s0,0,0,0,0,0,0,0,0,0,0,0,0,0,0,0l-.1.07s0,0,0,0l0,0,0,0s0,0,0,0,0,0,0,0,.09-.06.1-.07,0,0,0,0l0,0s0,0,0,0l-.1.07s0,0,0,0l0,0,0,0s0,0,0,0l.1-.07s0,0,0,0,0,0,0,0l0,0s0,0,0,0,0,0,0,0l-.1.06s0,0,0,0,0,0,0,0l.11-.07,0,0s0,0,0,0,0,0,0,0l.11-.06s0,0,0,0,0,0,0,0l-.1.07s0,0,0,0,0,0,0,0-.09.06-.11.06,0,0,0,0,0,0,0,0l0,0s0,0,0,0,0,0,0,0l.11-.06a0,0,0,0,0,0,0l0,0,0,0,0,0s0,0,0,0l-.1.07s0,0,0,0l0,0,0,0,0,0,0,0v0s0,0,0,0,0,0,0,0l.1-.06v0l0,0s0,0,0,0l-.11.06s0,0,0,0a0,0,0,0,0,0,0s0,0,0,0l.11-.06s0,0,0,0l-.1.06s0,0,0,0a0,0,0,0,1,0,0l0,0s0,0,0,0l.11,0s0,0,0,0,0,0,0,0v0a.05.05,0,0,1,0,0l-.11.06s0,0,0,0l.1-.06s0,0,0,0l0,0v0l0,0v0l0,0v0l0,0s0,0,0,0l-.12.06s0,0,0,0l0,0,.11-.06s0,0,0,0L2.08,21s0,0,0,0v0s0,0,0,0l0,0s0,0,0,0l.11-.05s0,0,0,0,0,0,0,0l-.11,0s0,0,0,0l.11-.05s0,0,0,0l-.11.05s0,0,0,0l.11,0s0,0,0,0,0,0,0,0l-.12.05s0,0,0,0v0L2,20.47s0,0,0,0l-.11,0v0l0-.07v-.06l0,0s0,0,0,0,0,0,0,0l.11,0s0,0,0,0v0l0,0v0s0,0,0,0l-.12,0v0l.12,0s0,0,0,0l0,0a0,0,0,0,0,0,0L1.65,20s0,0,0,0v-.09s0,0,0,0l.12-.05s0,0,0,0l0,0a0,0,0,0,0,0,0v0a.06.06,0,0,0,0,0s0,0,0,0l-.12,0s0,0,0,0l0,0v-.09s0,0,0,0a0,0,0,0,0,0,0v0s0,0,0,0,0,0,0,0l.12,0s0,0,0,0l-.12,0s0,0,0,0,0,0,0,0l.12,0s0,0,0,0a0,0,0,0,0,0,0s0,0,0,0l-.11,0s0,0,0,0a0,0,0,0,1,0,0v-.1s0,0,0,0,0,0,0,0l.12,0s0,0,0,0l-.12,0s0,0,0,0v0a0,0,0,0,1,0,0s0,0,0,0l.12,0s0,0,0,0v0s0,0,0,0,0,0,0,0l-.12,0s0,0,0,0,0,0,0,0,0,0,0,0l.12,0s0,0,0,0v-.06s0,0,0,0-.11,0-.12,0,0,0,0,0v-.07l.12,0s0,0,0,0a0,0,0,0,0,0,0s0,0,0,0-.1,0-.12,0,0,0,0,0,0,0,0,0l.12,0s0,0,0,0v0s0,0,0,0L1,18v-.1s0,0,0,0l.12,0s0,0,0,0,0,0,0,0l-.12,0s0,0,0,0v0a0,0,0,0,1,0,0s0,0,0,0v-.17s0,0,0,0l.12,0s0,0,0,0a0,0,0,0,0,0,0s0,0,0,0l-.12,0s0,0,0,0,0,0,0,0l.13,0v-.1l-.12,0s0,0,0,0,0,0,0,0l.12,0s0,0,0,0V17s0,0,0,0a.45.45,0,0,1-.12,0s0,0,0,0v0l.13,0s0,0,0,0v0s0,0,0,0,0,0,0,0H.83v-.07s0,0,0,0H.94s0,0,0,0v0h.12s0,0,0,0l-.13,0s0,0,0,0-.12,0-.12,0,0,0,0,0H.92v-.24s0,0,0,0H1s0,0,0,0H.9s0,0,0,0,0,0,0,0,0,0,0,0,0,0,0,0H.77v-.24H.89s0,0,0,0H.76s0,0,0,0v-.14s0,0,0,0H.87s0,0,0,0H.75s0,0,0,0v-.24H.86s0,0,0,0v0s0,0,0,0,0,0,0,0H.73s0,0,0,0a0,0,0,0,1,0,0s0,0,0,0H.85s0,0,0,0,0,0,0,0,0,0,0,0H.73v-.24H.87s0,0,0,0H.75s0,0,0,0v-.17s0,0,0,0,0,0,0,0H.89s0,0,0,0,0,0,0,0,0,0,0,0H.77s0,0,0,0v-.1H.9s0,0,0,0v0H.79s0,0,0,0,0,0,0,0v0s0,0,0,0a.57.57,0,0,1,.13,0s0,0,0,0v0s0,0,0,0H.8s0,0,0,0v-.07s0,0,0,0v0s0,0,0,0,.11,0,.12,0,0,0,0,0l-.12,0s0,0,0,0a0,0,0,0,1,0,0H1s0,0,0,0,0,0,0,0H.84a.08.08,0,0,1,0,0v-.06s0,0,0,0,0,0,0,0l-.13,0s0,0,0,0,0,0,0,0l.12,0s0,0,0,0v-.1a.06.06,0,0,0,0,0l0-.13v-.07l-.12,0v0l.13,0v-.1s0,0,0,0,0,0,0,0v0a0,0,0,0,1,0,0v0a.06.06,0,0,1,0,0l.12,0s0,0,0,0l-.13,0s0,0,0,0,0,0,0,0,0,0,0,0v-.1a.35.35,0,0,1,0-.14v-.16l0-.13v0l0-.13v-.13s0,0,0,0,0,0,0,0,.11,0,.12,0,0,0,0,0,0,0,0,0l-.12,0s0,0,0,0,0,0,0,0v-.13l0-.06,0-.14v0l0-.13a0,0,0,0,1,0,0v0l.12,0s0,0,0,0l0,0-.12,0s0,0,0,0v0l0,0s0,0,0,0l.11,0s0,0,0,0l-.12,0s0,0,0,0l0,0v-.06l0-.13v0l0,0v-.06s0,0,0,0l.11,0s0,0,0,0,0,0,0,0V10s0,0,0,0l-.11,0s0,0,0,0a0,0,0,0,0,0,0l0,0V9.8l0,0v-.1l0,0a0,0,0,0,1,0,0,0,0,0,0,0,0,0s0,0,0,0l.12,0s0,0,0,0v0a.37.37,0,0,1,.11.05s0,0,0,0l-.11-.05s0,0,0,0L2,9.42l0,0v0l0,0v0l0,0,0,0a0,0,0,0,1,0,0l0,0s0,0,0,0l.11,0s0,0,0,0,0,0,0,0l-.11-.05s0,0,0,0l0,0V9l.11.05s0,0,0,0L2.23,9s0,0,0,0l0,0,0,0s0,0,0,0l.11.05s0,0,0,0v0l0,0-.11-.05s0,0,0,0a0,0,0,0,1,0,0l0,0v0l0,0,0-.07,0,0v0l0,0,.11.06s0,0,0,0,0,0,0,0-.1,0-.11-.06,0,0,0,0v0l0-.06,0,0,0,0,0,0,0,0v0l0,0,0-.06,0,0,0,0,0,0,0,0v0s0,0,0,0L3,7.91s0,0,0,0,0,0,0,0l-.11-.07a0,0,0,0,1,0,0l0,0s0,0,0,0l0,0s0,0,0,0l-.1-.07s0,0,0,0l.1.07s0,0,0,0l0,0,0,0,0,0,0,0,0,0s0,0,0,0-.1,0-.11-.07,0,0,0,0l0,0s0,0,0,0,0,0,0,0l.1.07s0,0,0,0l0,0-.1-.07s0,0,0,0,0,0,0,0l.1.07v0l0,0s0,0,0,0L3.26,7s0,0,0,0,0,0,0,0,.08.07.1.07,0,0,0,0,0,0,0,0l0,0,0,0,0,0,0,0,0,0,0,0,0,0-.1-.07s0,0,0,0l0,0,.1.08s0,0,0,0l0,0,0,0,0,0,0,0,0,0s0,0,0,0,0,0,0,0a.7.7,0,0,0-.1-.08l0,0,0,0s0,0,0,0l.1.08,0,0,0,0-.1-.08,0,0,.1.08s0,0,0,0l0,0,0,0s0,0,0,0a.7.7,0,0,1-.1-.08s0,0,0,0l0,0,0,0,0,0,0,0,0,0s0,0,0,0l.1.09s0,0,0,0l0,0s0,0,0,0l-.09-.09s0,0,0,0L4.26,6l0,0a.7.7,0,0,1-.1-.08l0,0s0,0,0,0l.09.09s0,0,0,0l0,0,0,0,0,0,0,0,0,0,0,0,0,0,0,0,0,0s0,0,0,0l-.09-.09s0,0,0,0,.08.07.09.08,0,0,0,0l0,0,0,0,0,0,0,0,0,0,0,0,0,0-.09-.09s0,0,0,0l0,0,.09.09s0,0,0,0l0,0,0,0,0,0s0,0,0,0-.08-.08-.08-.09,0,0,0,0l0,0,0,0,.09.09,0,0,0,0,0,0,0,0,0,0L5.09,5l0,0L5.2,5l0,0,0,0,0,0,0,0,0,0,0,0,0,0,0,0,0,0s0,0,0,0l-.08-.09s0,0,0,0l0,0,0,0,.08.09s0,0,0,0l0,0L5.5,4.6l0,0a0,0,0,0,1,0,0,.7.7,0,0,0,.08.1s0,0,0,0,0,0,0,0l-.08-.09s0,0,0,0l.08.09s0,0,0,0l0,0-.08-.1s0,0,0,0l.09.09,0,0,0,0a0,0,0,0,0,0,0l0,0,0,0,0,0,0,0s0,0,0,0,0,0,0,0l.08.09s0,0,0,0-.08-.08-.08-.1,0,0,0,0l0,0,.1-.09,0,0,0,0,0,0,0,0,0,0,0,0,0,0s0,0,0,0l.07.1,0,0,0,0L6.48,4s0,0,0,0l0,0,0,0,.06,0,0,0,0,0,0,0,0,0,0,0,0,0,.06,0,0,0,.06,0,0,0,0,0,0,0,0,0s0,0,0,0,0,0,0,0,.06.09.07.1,0,0,0,0l-.07-.1,0,0,0,0,0,0,0,0,0,0,.07.1s0,0,0,0l-.07-.1s0,0,0,0l0,0,0,0,.05,0,0,0,0,0,0,0,0,0h0l0,0,0,0h0l0,0s0,0,0,0L7.67,3s0,0,0,0l.06.11,0,0,0,0h0l0,0,.06,0L8,3,8,3l0,0,0,0h0l0,0,0,0h0l0,0,0,0h0l0,0,0,0s0,0,0,0,0,.09.06.1,0,0,0,0,0,0,0,0-.06-.1-.06-.11h0l0,0,0,0,.06.11h0l-.06-.11s0,0,0,0,0,0,0,0-.05-.08-.06-.11,0,0,0,0l.06.11,0,0,0,0s0,0,0,0,0,0,0,0l.06.11s0,0,0,0a1,1,0,0,0,0-.11h0l0,0h0s0,0,0,0a1.17,1.17,0,0,0,0-.11s0,0,0,0L9,2.44H9l0,0,.12-.05,0,0h0l0,0,.12-.05h0l0,0h0l0,0h.06l0,0s0,0,0,0,0,0,0,0L9.6,2s0,0,0,0,0,.1,0,.11,0,0,0,0a.05.05,0,0,0,0,0h.06l0,0-.05-.11s0,0,0,0h0l0,0,0,.12s0,0,0,0,0-.11,0-.12h0L10,2s0,0,0,0l0,0h0s0,0,0,0,0-.12,0-.12,0,0,0,0l0,.11h.1s0,0,0,0l0,0s0,0,0,0a.56.56,0,0,0,0,.12s0,0,0,0,0-.1,0-.12,0,0,0,0h.16s0,0,0,0,0-.1,0-.12,0,0,0,0h0s0,0,0,0,0,.1,0,.11h0l0-.11,0,0H11s0,0,0,0l0,.11h0l.13,0h.1l.13-.05h.06l0-.12s0,0,0,0h.17s0,0,0,0,0,.1,0,.12,0,0,0,0l0-.12s0,0,0,0,0,0,0,0h.07s0,0,0,0a.53.53,0,0,1,0,.12s0,0,0,0,0,0,0,0,0-.11,0-.12,0,0,0,0h0l0,.12s0,0,0,0h0l0-.12s0,0,0,0a.61.61,0,0,0,0,.13s0,0,0,0l0-.12s0,0,0,0h0s0,0,0,0l0,.12s0,0,0,0l0-.12h0l.13,0h.14s0,0,0,0l0,.12s0,0,0,0,0-.11,0-.12h.07l0,.13h.06l0-.12s0,0,0,0,0,0,0,0l0,.12s0,0,0,0,0-.11,0-.13,0,0,0,0l0,.12s0,0,0,0,0,0,0,0h0s0,0,0,0,0-.11,0-.12,0,0,0,0l0,.12s0,0,0,0,0,0,0,0l0-.12h0s0,0,0,0,0,0,0,0,0,.12,0,.12,0,0,0,0h.1s0,0,0,0,0-.11,0-.13,0,0,0,0l0,.12s0,0,0,0,0,0,0,0l0-.12h.28s0,0,0,0l0,.12s0,0,0,0h0s0-.11,0-.12,0,0,0,0H14s0,0,0,0V.93h0a.53.53,0,0,0,0-.13s0,0,0,0h0s0,0,0,0,0,.11,0,.12,0,0,0,0h0s0,0,0,0,0-.11,0-.12,0,0,0,0h.14s0,0,0,0,0,0,0,0l0,.13h.1s0,0,0,0,0-.12,0-.13,0,0,0,0h0s0,0,0,0a.49.49,0,0,1,0,.12s0,0,0,0h.07s0,0,0,0,0-.11,0-.13,0,0,0,0V.84h0V.72s0,0,0,0h.11V.84s0,0,0,0h0V.71s0,0,0,0,0,0,0,0h.17s0,0,0,0,0,.11,0,.12,0,0,0,0h0s0,0,0,0,0,0,0,0V.69h.07s0,0,0,0V.81h.1s0,0,0,0h0s0,0,0,0V.68h0s0,0,0,0V.8s0,0,0,0h.11V.67s0,0,0,0,0,0,0,0V.79s0,0,0,0,0,0,0,0h0s0,0,0,0a.56.56,0,0,0,0-.13s0,0,0,0h0V.8s0,0,0,0,0,0,0,0V.68h.17a.48.48,0,0,1,0,.12s0,0,0,0,0,0,0,0V.69h.07s0,0,0,0a.48.48,0,0,1,0,.12s0,0,0,0h0s0,0,0,0,0-.11,0-.13,0,0,0,0h0s0,0,0,0,0,0,0,0V.83h.1s0,0,0,0V1s0,0,0,0,0,0,0,0h0s0,0,0,0a.49.49,0,0,0,0-.12s0,0,0,0,0,0,0,0,0,0,0,0,0,0,0,0a.57.57,0,0,1,0-.13s0,0,0,0V.86s0,0,0,0,0,0,0,0h0s0,0,0,0a.49.49,0,0,1,0-.12s0,0,0,0h.11s0,0,0,0,0,0,0,0,0,.1,0,.12h.1s0,0,0,0,0,0,0,0l0-.13h0s0,0,0,0,0,0,0,0,0,.1,0,.12,0,0,0,0,0,0,0,0,0-.12,0-.12,0,0,0,0h.1s0,0,0,0,0,.11,0,.12h0l0-.12s0,0,0,0,0,.12,0,.12,0,0,0,0h.07l0-.12s0,0,0,0,0,0,0,0h.23s0,0,0,0,0,.11,0,.12,0,0,0,0,0-.1,0-.12,0,0,0,0,0,0,0,0h.24l.13,0h0l.13,0h0l.14,0h.37s0,0,0,0,0,.1,0,.12,0,0,0,0,0,0,0,0a.53.53,0,0,1,0-.12s0,0,0,0h.07s0,0,0,0,0,.12,0,.12,0,0,0,0,0-.1,0-.12,0,0,0,0h.1l.13,0h.2l.13,0h.16l0,0s0,0,0,0l0,.12h.1a.84.84,0,0,1,0-.12s0,0,0,0h.06l0,0h0s0,0,0,0l0,.12h.16l0-.12s0,0,0,0l0,0h.23l0,0H22l.13,0h.07l0,0h.07l0,0h0l0,0s0,0,0,0a.54.54,0,0,1-.05.11s0,0,0,0h0l0,0h.06l0,0s0,0,0,0A.54.54,0,0,0,22.63,2h0l0,0h0l0,0h.06s0,0,0,0l-.05.11,0,0s0-.11.05-.12,0,0,0,0H23l0,0L23,2.28s0,0,0,0h0s0,0,0,0,0-.11.05-.11,0,0,0,0h0l-.05.11,0,0,.05-.12s0,0,0,0h0l0,0h.06l0,0h0s0,0,0,0h0l-.06.11,0,0s0,0,0,0,.05-.1.06-.11,0,0,0,0l-.06.11s0,0,0,0,.05-.11.06-.11,0,0,0,0l0,0s0,0,0,0l-.06.11s0,0,0,0h0l0,0,0,0h0l0,0,.06-.11s0,0,0,0,0,0,0,0h0l-.06.11,0,0L24,2.66s0,0,0,0h0l0,0s0,0,0,0-.06.09-.06.11,0,0,0,0l0,0a0,0,0,0,0,0,0,.6.6,0,0,1,.06-.11s0,0,0,0l0,0,0,0,0,0h0L24.28,3l0,0h0l.07-.1h0l0,0s0,0,0,0l-.07.1s0,0,0,0L24.53,3l0,0-.07.11s0,0,0,0,0,0,0,0l.06-.1a0,0,0,0,1,0,0l0,0s0,0,0,0h0l0,0s0,0,0,0l-.06.1,0,0,.06-.11,0,0,0,0,0,0,0,0,.11.08,0,0,0,0s0,0,0,0a.61.61,0,0,0-.07.1s0,0,0,0l0,0,.07-.1s0,0,0,0l0,0s0,0,0,0l-.07.1s0,0,0,0l.07-.1s0,0,0,0l0,0s0,0,0,0l-.07.1s0,0,0,0l0,0,.07-.11s0,0,0,0,0,0,0,0l0,0,0,0s0,0,0,0l-.07.1s0,0,0,0l-.07.1.05,0,.08-.1,0,0,0,0s0,0,0,0l0,0s0,0,0,0l.07-.1,0,0,0,0s0,0,0,0,0,0,0,0-.07.09-.07.1l0,0,0,0,0,0,0,0,0,0,0,0,0,0s0,0,0,0l.08-.1,0,0,0,0,0,0,0,0s0,0,0,0,0,0,0,0l-.08.1a0,0,0,0,0,0,0l.07-.1s0,0,0,0l0,0a0,0,0,0,1,0,0s0,0,0,0l-.08.1s0,0,0,0a.7.7,0,0,0,.08-.1s0,0,0,0l0,0a0,0,0,0,1,0,0s0,0,0,0l-.08.1,0,0s0,0,0,0l.08-.1s0,0,0,0l0,0,0,0s0,0,0,0l0,0,0,0,.1.09,0,0s0,0,0,0l0,0,0,0,0,0,0,0,0,0a.38.38,0,0,1-.09.09s0,0,0,0,0,0,0,0l0,0,0,0,0,0s0,0,0,0L27.21,5s0,0,0,0l-.09.09s0,0,0,0,0,0,0,0,.07-.09.09-.09,0,0,0,0l0,0-.09.09,0,0,.09-.09s0,0,0,0l0,0,0,0,0,0,0,0,0,0,0,0,0,0a0,0,0,0,1,0,0l0,0s0,0,0,0l-.09.09,0,0,.09-.09,0,0,0,0,0,0,0,0,0,0,0,0,0,0s0,0,0,0l.09-.08s0,0,0,0a.76.76,0,0,0-.09.09l0,0,0,0,0,0-.09.08s0,0,0,0,0,0,0,0L28,5.77s0,0,0,0l0,0,0,0,0,0,.09.1,0,0,0,0,0,0,0,0,0,0a.87.87,0,0,1-.1.08l0,0,.1-.08,0,0,0,0,0,0s0,0,0,0l-.09.08s0,0,0,0l.09-.08s0,0,0,0l0,0,0,0-.1.08s0,0,0,0,0,0,0,0,.09-.07.1-.07,0,0,0,0l0,0,0,0,0,0,0,0,0,0-.1.07s0,0,0,0,0,0,0,0l.1-.08s0,0,0,0l0,0,0,0,0,0,.08.1,0,0,0,0,0,0,0,0,0,0,0,0a.76.76,0,0,1,.08.11l0,0,0,0,0,0s0,0,0,0l0,0v0l0,0s0,0,0,0l0,0s0,0,0,0l-.1.07s0,0,0,0l0,0,0,0,0,0,0,0s0,0,0,0l.1-.07s0,0,0,0l0,0,0,0s-.1.05-.11.07,0,0,0,0,0,0,0,0l.1-.06s0,0,0,0l0,0,0,0s0,0,0,0l-.11.07,0,0s0,0,0,0l.1-.06s0,0,0,0l0,0,.08.11,0,0v0l-.1.06s0,0,0,0a0,0,0,0,0,0,0l.11-.06s0,0,0,0l0,0,0,0-.11.06v0l.11-.07s0,0,0,0l-.11.07s0,0,0,0l.1-.07,0,0v0l0,0-.11.07,0,0,.11-.07s0,0,0,0l0,0,.06.12,0,0v0l0,0v0l0,0s0,0,0,0,0,0,0,0L30,8.91s0,0,0,0,.1-.06.11-.06,0,0,0,0l0,0V9l0,0V9l0,0,0,.06.06.13,0,0,.06.12,0,0v0l0,0,0,.13v.06s0,0,0,0l0,0s0,0,0,0,0,0,0,0l-.11,0s0,0,0,0v0s0,0,0,0l.12,0s0,0,0,0a.06.06,0,0,1,0,0l0,0v.09s0,0,0,0l-.11,0v0s0,0,0,0,.11,0,.12,0,0,0,0,0a0,0,0,0,1,0,0s0,0,0,0l-.12.05v0l0,0v0l.11,0s0,0,0,0,0,0,0,0,0,0,0,0v0l0,0v.09a.05.05,0,0,1,0,0,0,0,0,0,0,0,0s0,0,0,0l-.12,0s0,0,0,0,0,0,0,0l.12,0s0,0,0,0,0,0,0,0V11l0,.07,0,.13v0l0,.13v.1l0,.13v.07l.12,0v0l-.12,0a.08.08,0,0,0,0,0v.13l0,.06v0l0,.06v0l0,.14v.06a.06.06,0,0,1,0,0l0,.13v.07s0,0,0,0,0,0,0,0l.12,0s0,0,0,0l-.12,0s0,0,0,0l.13,0v0s0,0,0,0l-.13,0v.1s0,0,0,0v.06s0,0,0,0,0,0,0,0l.12,0v0h-.13v0l0,.13v0a0,0,0,0,1,0,0l.12,0s0,0,0,0H31.5s0,0,0,0h-.12s0,0,0,0l.13,0v.24s0,.09,0,.13v.17s0,0,0,0h.12s0,0,0,0h-.12v.72s0,0,0,0h-.13s0,0,0,0h.13s0,0,0,0,0,0,0,0v0s0,0,0,0v0s0,0,0,0v0s0,0,0,0h.13s0,0,0,0v0h.5Z"/><path class="cls-3" d="M13.36,16.67c0,.1.05.17.17.16s.07,0,0,.09,0,0,0,.07h0l0-.05a.18.18,0,0,1,.1,0,.06.06,0,0,1,0,.05s0,.05,0,.07-.05,0-.05.07,0,.06.06.1c.1-.17.11-.17.24,0l.26.24a1,1,0,0,1,.09.13c.22.27.45.54.67.82a.53.53,0,0,1,.06.1l.13.18.1.14.28.41a.14.14,0,0,1,0,.12.12.12,0,0,0,.07.16.11.11,0,0,1,.08.07q.16.25.3.51a.66.66,0,0,1,.05.15c0,.08,0,.16,0,.24a.14.14,0,0,1,0,.11s-.06,0-.09,0l-.1,0a.3.3,0,0,1-.08-.08l-.11-.16h-.05a.13.13,0,0,0,0,.06l.15.44a.42.42,0,0,0,.09.16c.05.05.12.07.17,0a1.79,1.79,0,0,1,.2-.28s0,0,.08,0,0,0,.06,0l.12,0a.25.25,0,0,0,0-.12c0-.08,0-.16.05-.21a.16.16,0,0,0,.08-.19c0-.07,0-.18.05-.19s.11.1.12.18,0,.1,0,.14.08.09.11.09.07-.05.06-.11-.06-.32-.1-.48,0-.06,0-.12l-.17.22a.31.31,0,0,1-.05-.12.27.27,0,0,1,0-.12c.07-.14.07-.14.22-.07a.49.49,0,0,0,.07-.33.68.68,0,0,0,0-.15s-.05-.05-.07-.08a.47.47,0,0,0,0,.09.22.22,0,0,1-.1.26.65.65,0,0,1,0-.18c0-.13,0-.26,0-.38a.38.38,0,0,0-.07-.28l-.08-.05s0,.05,0,.08,0,.08,0,.12,0,.05,0,.08-.07,0-.08,0-.1-.18,0-.28l-.06-.18s0-.05-.05-.05-.1-.1-.13-.16c-.12-.22-.15-.51-.42-.63-.08,0-.13-.1-.23-.08s-.16,0-.15-.16l.18.05a.22.22,0,0,0,.11,0,.27.27,0,0,1,.32.1,1.44,1.44,0,0,1,.24.46.84.84,0,0,0,.22.31c.1.11.21.2.31.3a.62.62,0,0,1,.07.19,1,1,0,0,0,0,.14h0a.34.34,0,0,1,0-.14s.06,0,.09-.07a.54.54,0,0,1,0,.1s0,.1,0,.15a.18.18,0,0,0,0,.09s.06,0,.07-.05,0-.13,0-.18a.69.69,0,0,1,.11-.13c0,.05.07.1.07.14a1.85,1.85,0,0,1,0,.23s0,.06,0,.07h.07l.09-.05c.05,0,.11-.06.15,0s.06.12,0,.16-.1.2-.07.33a.18.18,0,0,1,.05-.07.36.36,0,0,1,.07-.1s.1,0,.14,0a.3.3,0,0,1,0,.13,2.28,2.28,0,0,1-.3.44c-.14.13-.11.26-.08.41s.06.11.12,0a.85.85,0,0,1,.54-.14l.56,0h.05s0,0,0,.05,0,.29.08.42.1.06.15.07l.2,0s.08,0,.08.07a.11.11,0,0,1-.07.08.65.65,0,0,1-.14,0c-.08,0-.12.05-.08.12s.17.23.25.34a.86.86,0,0,0,.48.29l.1.05-.08.07-.1.19a1.31,1.31,0,0,0-.09.17c0,.06,0,.12-.08.14s0,0-.05.06-.06.1-.1.11-.06.09,0,.13a2,2,0,0,0,.28.19.12.12,0,0,0,.1,0,.19.19,0,0,0,.08,0l.14-.05a1.29,1.29,0,0,0-.07-.21,1.49,1.49,0,0,0-.12-.14l0,0s.09,0,.11,0,.1.16.15.24v.05c0,.13.09.27.12.4s0,.08,0,.1-.18.19-.05.36a.39.39,0,0,1,.06.15l-.06,0a1.14,1.14,0,0,1-.11-.11l-.14-.12,0,.05a.91.91,0,0,0,.11.16l.14.11a.11.11,0,0,0,.08,0c.09,0,.14,0,.16.11s0,.22.05.33,0,.07-.07.09a.56.56,0,0,0-.21.22.08.08,0,0,0,0,.05c.1.05.1.14.09.23A1.74,1.74,0,0,1,20,25c0,.1-.1.12-.19.12s-.17,0-.17.18v0a.29.29,0,0,0,0,.35s0,.05,0,.07,0,0-.06,0-.18-.06-.2.08a.75.75,0,0,1-.23.47.67.67,0,0,1-.45.2,2,2,0,0,0-.35,0c-.13,0-.26.07-.4.1a.86.86,0,0,1-.17,0,.79.79,0,0,1-.43-.05.17.17,0,0,0-.22.08s-.07,0-.1,0-.13-.11-.22,0-.09,0-.13-.06a.81.81,0,0,1-.09-.1.19.19,0,0,0-.31,0c-.07.1-.11.1-.18,0l-.15-.15a.87.87,0,0,1-.3-.38.29.29,0,0,0-.26-.15c-.1,0-.08.11-.1.17l0,0-.11-.16s0-.08-.06-.1a1,1,0,0,1-.4-.82c0-.11-.07-.16-.17-.13a.13.13,0,0,0-.07.09s0,.07,0,.1,0,0-.06,0a.06.06,0,0,1-.05-.05.21.21,0,0,1,0-.14c.07-.08,0-.14,0-.21a1.24,1.24,0,0,1-.32-.8.52.52,0,0,1,0-.17v-.13l-.08,0h-.07s0-.06,0-.07.06-.15,0-.22a1.5,1.5,0,0,1-.15-.23.14.14,0,0,1,0-.06c0-.12.06-.23.08-.35a.27.27,0,0,0,0-.09s-.09,0-.1.07,0,.15-.12.17a.36.36,0,0,1,0-.27s0-.07,0-.1l-.07,0c-.05.07-.09.14-.14.2h0s0,.06-.06.07a.76.76,0,0,1-.16,0,.78.78,0,0,1,0-.16,2.52,2.52,0,0,1,.21-.25.23.23,0,0,0-.3,0,.23.23,0,0,1-.12,0,.4.4,0,0,1,0-.11A.83.83,0,0,1,13,22.1a.29.29,0,0,1,.32-.15h.29v0a1.48,1.48,0,0,1-.21-.13s0-.07-.08-.11a.26.26,0,0,1,.15,0,1.35,1.35,0,0,1,.3.14c.09.05.16,0,.24,0h.09l.35.12a.52.52,0,0,0,.17,0c.06,0,.12,0,.13.05a.27.27,0,0,1-.07.14s-.05,0-.07,0-.1,0-.11.11a.74.74,0,0,1,0,.14c0,.08-.07.16,0,.24s0,.14,0,.19,0,.1,0,.15a.21.21,0,0,1,0,.1s0,.07,0,.08a.11.11,0,0,1-.08,0,1,1,0,0,1-.12-.17s0-.07,0-.08-.08,0-.12-.05a.41.41,0,0,1,0,.11h0c.11.1.16.21,0,.34s0,0,0,.08c.09-.21.25-.08.38-.09s.09.08.12.13.16,0,.16-.14a.69.69,0,0,0,0-.2s0-.08,0-.1a.12.12,0,0,1,.1,0s0,.06,0,.1,0,.12.13.1l.12,0a.11.11,0,0,0,.09-.17c-.07-.18-.13-.36-.21-.54a.27.27,0,0,0-.1-.08l-.12,0,.1-.09s0,0,.08,0c-.15-.06-.3-.11-.2-.31a.88.88,0,0,1-.23,0,3.36,3.36,0,0,1-.81-.39,1.33,1.33,0,0,1-.16-.17l-.11.1.16.19h-.16a1.31,1.31,0,0,1-.27-.06.42.42,0,0,1-.12-.08l.12-.07h0c.08,0,.15,0,.15-.11a.21.21,0,0,0-.15-.22c-.16-.06-.3,0-.46,0a.48.48,0,0,1-.17-.05,2.27,2.27,0,0,1-.66-.53,2.68,2.68,0,0,1-.18-.33.35.35,0,0,0-.11-.1h0a1.39,1.39,0,0,0-.19-.15c-.13-.09-.28-.17-.42-.25s-.05-.05-.08-.05a.84.84,0,0,1-.37-.14,1.09,1.09,0,0,1-.18-.15.7.7,0,0,1,.46.07,7.91,7.91,0,0,1,.84.37,1.79,1.79,0,0,1,.34.22.05.05,0,0,1,0,.05c.05.23.26.25.43.31a1.2,1.2,0,0,0,.38,0,.47.47,0,0,0,.17,0c.06,0,.12,0,.17,0s.29.07.4.2a1,1,0,0,0,.29.2h.06s0-.09,0-.1a1.37,1.37,0,0,0-.18-.16h0l-.23-.23s0,0,0-.08l.25.05a1.67,1.67,0,0,0-.15-.24,1.6,1.6,0,0,0-.27-.25.66.66,0,0,1-.21-.31.11.11,0,0,0,0-.06c-.14-.11-.13-.28-.14-.43s0-.07,0-.1a.23.23,0,0,1,.09.08.13.13,0,0,1,0,.09c0,.13.05.22.12.32.09-.07.16,0,.22.05s0,0,0,.08l-.16-.09,0,0a1.75,1.75,0,0,0,.23.24,1.35,1.35,0,0,1,.42.47c0,.07.11.13.16.2a.61.61,0,0,1,.07.1h-.13a.11.11,0,0,0-.06,0c.06.1.11.21.16.31s.08.12,0,.19-.11,0-.18,0a.67.67,0,0,1-.34-.07h-.09l-.14.1a.75.75,0,0,0,.12.07.36.36,0,0,1,.22.2.27.27,0,0,0,.07.08l.21.12.18.08.11.06.18.1c0-.14,0-.18-.15-.18l.12-.09-.29-.23c-.05,0-.09-.11,0-.15s.09,0,.14,0l.16.08s.07,0,.09,0a.21.21,0,0,0,.23.05.16.16,0,0,1,.19.08c0,.08.1.16.2.08a.27.27,0,0,0,.07-.08l.07-.18s-.06,0-.07,0-.11.05-.15,0a.15.15,0,0,1,0-.13s0-.06.06-.11l-.19-.13c-.14-.1-.3-.17-.38-.34a.15.15,0,0,0-.06-.05,1,1,0,0,1-.58-.54l-.18-.31h0l-.32-.39-.29-.35a.11.11,0,0,1,0-.06c.09-.12,0-.23,0-.32s-.09-.45-.31-.58a.17.17,0,0,1,0-.17.49.49,0,0,0,0-.44c-.08-.18-.07-.2.1-.28,0,0,0-.07,0-.09a.67.67,0,0,0-.14-.19L12,15.94c-.11-.09-.23-.17-.36-.26s-.21-.13-.31-.21a.73.73,0,0,1,0-.09c0-.06-.06-.08-.1,0a.35.35,0,0,0-.12.15,2.7,2.7,0,0,0-.07.41,1,1,0,0,0,.07.53s0,.08,0,.12a.1.1,0,0,1-.09,0,.1.1,0,0,1-.06-.08c0-.18,0-.36-.05-.54s-.05-.24-.06-.36,0-.29,0-.44S10.7,15,10.54,15a2,2,0,0,1-.35,0,1,1,0,0,1-.23-.06.94.94,0,0,1-.12-.09l-.08,0c-.11,0-.15,0-.12-.14a.74.74,0,0,0,0-.21s0-.06,0-.09l0-.14c.06,0,.14,0,.17.08a1.41,1.41,0,0,1,.1.31l0-.05c0-.09.08-.08.15-.06l.46.12a.57.57,0,0,1,.19.1c.05.05.1.08.17,0s.07,0,.09,0c.21.08.45,0,.66.15a1.17,1.17,0,0,0,.38.07l.76.18s.05,0,.07.05l.11,0,.18,0,.22,0,.21.06,0,.1c.15,0,.28-.09.44,0a.46.46,0,0,0,.45-.15s0-.09,0-.13-.08,0-.11,0,0,.07-.08.09a.29.29,0,0,1-.13,0c-.05,0-.07-.06,0-.12s-.07-.13-.19-.14l0,0a.36.36,0,0,1,0,.1s-.09,0-.11,0-.2-.07-.31,0a.41.41,0,0,1-.22,0l-.53-.11-.4-.08-.28,0a.24.24,0,0,1-.22-.15.6.6,0,0,1,.22,0,1.12,1.12,0,0,0,.35.06,4.54,4.54,0,0,1,.51.09l.3.09h.08a.72.72,0,0,0,.2-.09.42.42,0,0,1,.33-.07.2.2,0,0,0,.19-.14c.15-.42.31-.84.47-1.25.08-.21.19-.41.27-.62s.13-.37.2-.55.16-.4.23-.6a2.56,2.56,0,0,0,.23-1.16,1,1,0,0,0-.42-.78,2.52,2.52,0,0,0-.66-.26L14,9.19l-.57-.28-.61-.32a1.53,1.53,0,0,0-.7-.07,1.28,1.28,0,0,1-.33-.06s0-.08,0-.12,0-.11-.1-.13-.2-.05-.3-.07L11.07,8c-.25-.13-.51-.27-.75-.42s-.22-.15-.13-.32,0-.08-.07-.09A2.57,2.57,0,0,1,9.41,7l-.34-.14a1.09,1.09,0,0,1-.39-.27.12.12,0,0,1,0-.2c.1-.09.09-.16,0-.22a.86.86,0,0,1-.33-.35c-.06-.12-.13-.23-.3-.21,0,0-.06,0-.09-.08S8,5.44,8,5.44s.2,0,.3,0h.36a.61.61,0,0,1,.18,0v0l-.21.11a1.72,1.72,0,0,1,.65.5l0,0L9,6.07l-.23-.13-.14-.13c-.05,0-.1-.09-.06-.17s0-.06,0-.1H8.5a.51.51,0,0,0,0,.17.29.29,0,0,0,.31.23A.36.36,0,0,0,9,6.16a.12.12,0,0,1,0,.22c-.12.09-.11.15,0,.21l.72.31c.08,0,.11,0,.12-.07s.06-.12.15-.08l.18,0c.12,0,.15.08.09.18s-.07.09.05.13a.54.54,0,0,1,.18.11l.18.17s0,.06,0,.08l0,0a.57.57,0,0,0-.13-.08l-.13,0,0,.06a.9.9,0,0,0,.19.15l.63.26.14.08a.28.28,0,0,0,.12,0c.07,0,.09,0,.06-.08s-.11-.22-.26-.22l-.29,0-.06,0c0-.16-.21-.28-.16-.47s0-.11-.06-.09h0c-.1.07-.19,0-.27,0s0-.07,0-.09a.13.13,0,0,1,.07-.09s.07,0,.09,0,0,0,.07.06,0-.05,0-.07a.13.13,0,0,1,0-.18.22.22,0,0,0,0-.16c-.08-.14-.19-.26-.26-.4s0-.14,0-.21h0s-.06,0-.07,0a.34.34,0,0,1,0-.14.17.17,0,0,1,.11,0,.65.65,0,0,1,.16.13c.08.08.07.13,0,.19a.05.05,0,0,0,0,.1c.07,0,.08.06.11.12s.18.31.27.46,0,.07.05.1l.09.09,0,0a.34.34,0,0,1,0-.1.17.17,0,0,1,0-.08.15.15,0,0,1,.09,0l.23.13c.07,0,.1.09,0,.16l.55.21a.19.19,0,0,0-.11-.2.29.29,0,0,1-.15-.3.74.74,0,0,1,.09-.21l-.16,0a.66.66,0,0,0,0-.14s0-.09,0-.13v-.1s.08,0,.1,0a.51.51,0,0,1,.1.21c0,.13.08.16.19.09a.61.61,0,0,1,.13,0,.49.49,0,0,0,0,.12s0,.09,0,.11.08.14,0,.23a.31.31,0,0,0,.09.32h0a.32.32,0,0,0,.34.16.11.11,0,0,1,.09,0l.39.24a.08.08,0,0,0,.11-.11l-.16-.29-.05,0a.89.89,0,0,1-.45-.55.4.4,0,0,1,0-.11l.1,0c.14,0,.16.17.21.27a.73.73,0,0,0,.05.09s.08.07.11,0,.05-.05.07-.07l.06.09s0,0,0,0,.13.29.19.43.06.18.09.26,0,0,0,.06a1,1,0,0,0,.29.22,2.94,2.94,0,0,1,.64.42l.12,0,0,0c0-.06-.07-.11-.1-.16a1.4,1.4,0,0,1-.1-.16c-.06-.14-.08-.29-.21-.39s0-.14.11-.16a1.19,1.19,0,0,1-.09-.15,1.11,1.11,0,0,1-.07-.16h0c-.12-.14-.09-.33-.16-.48s-.11-.14-.16-.22,0-.06,0-.1a.38.38,0,0,1,.1,0c.1.06.19.16.33.12s.09,0,.11.08a1.92,1.92,0,0,0,.36.39.13.13,0,0,0,.07,0c.27,0,.36.21.46.4a3.87,3.87,0,0,1,.25.55c.05.12.07.25.11.37s.11.4.16.6a.3.3,0,0,0,0,.08.32.32,0,0,0,.14-.29A2.48,2.48,0,0,1,16,8.18c0-.18.1-.34.14-.51s0-.06,0-.09,0-.22,0-.33l0-.36s0-.1,0-.15,0-.1.11,0a.33.33,0,0,0,.13.07.24.24,0,0,0-.21-.2s-.07,0-.07-.06A2,2,0,0,0,16,5.92a2.47,2.47,0,0,0-.23-.46,1.77,1.77,0,0,0-.27-.28,1.22,1.22,0,0,1-.34-.72c0-.1,0-.19-.07-.29A.86.86,0,0,1,15,3.94a.83.83,0,0,0-.13-.43.18.18,0,0,1,0-.09.89.89,0,0,1,0-.14l.11.05a.6.6,0,0,1,.13.09c0-.06,0-.11,0-.16l.06-.55c0-.11.12-.16.2-.09s.13,0,.17,0,.17-.35.27-.53A.54.54,0,0,1,16,1.93a.63.63,0,0,1,.11.12c0,.06.06.13.1.2l0,0a.6.6,0,0,1,.06-.11A.53.53,0,0,1,16.4,2c.09-.08.18-.06.22.05a2.34,2.34,0,0,0,.48.64,3.87,3.87,0,0,1,.34.55,2.63,2.63,0,0,1,.15.35.11.11,0,0,0,.1,0,1,1,0,0,1,.59-.1,1.35,1.35,0,0,0,.49,0,1.18,1.18,0,0,0,.55-.24,1.07,1.07,0,0,1,.28-.19s.1,0,.14,0a.16.16,0,0,0,.21,0,.27.27,0,0,1,.18,0s.05.1,0,.15,0,.12.11.12.11,0,.13,0a.94.94,0,0,1,.12.22s0,.07,0,.08a.27.27,0,0,0,.12.06s0,0,.05,0a.86.86,0,0,1,.17,0,.17.17,0,0,1,0,.13.45.45,0,0,1-.11.13l0,0c.09.11,0,.22,0,.34a.88.88,0,0,1-.05.15.45.45,0,0,1-.25.35,3.68,3.68,0,0,0-.38.31l-.46.37s-.07.06-.07.09c0,.21-.17.23-.3.28a5.15,5.15,0,0,1-.56.16,3.1,3.1,0,0,1-.42.08,1.31,1.31,0,0,0-.5.18l-.56.38-.55.39c-.08.06-.12.17-.24.16s0,.13,0,.19.05.12.06.19,0,.14-.14.11c-.1.34-.2.68-.31,1a2.26,2.26,0,0,1-.17.43.82.82,0,0,0-.08.48s0,.06-.05.09-.09-.05-.09-.09a2.32,2.32,0,0,0-.05-.38,4.65,4.65,0,0,0-.2-.52.69.69,0,0,0-.05-.13,1.86,1.86,0,0,0-.1-.31c0-.07-.09-.13,0-.23a.34.34,0,0,0,0-.14,1.77,1.77,0,0,0-.32-.59l-.05,0-.08,0a.09.09,0,0,1-.13,0L14.35,7s-.06-.11-.1-.16-.06,0-.09-.06a.28.28,0,0,0,0,.12s0,.06,0,.07.16.22.22.35.05.15.09.22l.11.19s0,.08,0,.12l-.1,0s0,0-.06-.07l0,0,0,.06.08.1c.08.14.15.29.23.42s.06,0,.09.06,0-.1,0-.12-.16-.18-.15-.31,0,0,0,0l.12-.38a.2.2,0,0,1,.14.19c0,.06,0,.13.05.21s-.07.12,0,.21a1.36,1.36,0,0,1,0,.21.29.29,0,0,0,0,.09l.07.11a.1.1,0,0,1,0,.08s-.06,0-.08,0a.57.57,0,0,1-.13-.08l0,0a.2.2,0,0,0,.05.09c.07.08.16.15.23.24a2,2,0,0,1,.37.51,2.19,2.19,0,0,1,.15.43c0,.15,0,.16.15.08l.08,0a.23.23,0,0,0,.05-.1c0-.06,0-.13,0-.2a.58.58,0,0,1,0-.14A1.21,1.21,0,0,1,16,9.27l0,0c0-.12,0-.25.06-.37a2.58,2.58,0,0,1,.08-.26l0-.08a1,1,0,0,1,.19-.47l.44-.63.07-.08c.09-.08.17,0,.2.06a.25.25,0,0,0,.1.21s0,.09,0,.13a.49.49,0,0,1-.1.15L17,7.8s0-.06,0-.08l-.09-.1a.28.28,0,0,0-.07.09.72.72,0,0,1-.23.36.47.47,0,0,0-.19.4.62.62,0,0,1-.07.23c-.05.13-.11.25-.17.37l-.09.22,0,0a.36.36,0,0,0,.1-.07A1.07,1.07,0,0,1,16.59,9c.08-.05.17,0,.23.08a.34.34,0,0,0,.12.12s.07,0,.08,0,0-.06,0-.09A1.25,1.25,0,0,1,16.94,9a2.5,2.5,0,0,1-.09-.25l0-.09c-.06-.08-.05-.14,0-.19s.12-.09,0-.17a.36.36,0,0,1,0-.36c.05,0,.12,0,.14,0a.85.85,0,0,1,0,.23c0,.07,0,.09.1.08s.1.05.08.12a.75.75,0,0,1-.06.13.21.21,0,0,0,0,.07.83.83,0,0,1,0,.44v0c.16,0,.23-.13.33-.21a.61.61,0,0,1,.16-.12.16.16,0,0,0,.1-.18.28.28,0,0,1,.07-.19c.06-.11.15-.23.08-.38s0-.16.07-.21.12,0,.14,0,0,.14,0,.21l.51-.46c.16-.14.32-.26.49-.39,0,0,.08,0,.12,0a.23.23,0,0,1,0,.1c0,.06-.11.1-.16.16s0,.09-.08.14a.23.23,0,0,0-.2.08c-.08.09-.14.21-.27.25a.07.07,0,0,0-.05,0v.09a.12.12,0,0,0,.08,0l.26-.16a.1.1,0,0,0,0,0l.14-.23c.07,0,.08,0,.07.13,0,.26-.22.34-.44.41a.13.13,0,0,0-.07,0,.11.11,0,0,1-.16.06.11.11,0,0,0-.08,0c-.15,0-.27.12-.29.29s-.05.07-.08.11a.28.28,0,0,0,.35,0c.06,0,.1,0,.14,0a.14.14,0,0,0,.17,0c.06,0,.06-.05,0-.1a.26.26,0,0,1,0-.1,1.17,1.17,0,0,0,.25-.11c.06,0,.08-.13.12-.19s0-.07.06-.07.23-.13.33-.25.19-.11.3-.16a.58.58,0,0,0,.4-.32A1.23,1.23,0,0,1,20.25,7s.1,0,.1,0a.46.46,0,0,1,0,.2s0,.05-.08.06-.08,0-.07.08l-.08.07.07.08V7.32a.62.62,0,0,0,.36,0l.3-.16a.65.65,0,0,1,.19,0,.11.11,0,0,1,.08.07s0,.07-.05.08c-.25.12-.51.22-.77.33a.91.91,0,0,0-.17.09c-.07,0,0,.11,0,.16a.23.23,0,0,1,0,.28s-.06,0-.09.06a.54.54,0,0,1,0-.1.09.09,0,0,1,0-.06c0-.06,0-.11-.05-.12s-.15,0-.12-.16l0,0-.4.24a.39.39,0,0,1-.14.08c-.08,0-.12.06-.08.14a.43.43,0,0,0,0,.05h0c-.13,0-.16,0-.26.09a.45.45,0,0,1-.13.11l-.15.15,0,0,.13-.07a1.7,1.7,0,0,0,.22-.15c.11-.13.24-.1.38-.09a4.73,4.73,0,0,0,.53,0,.27.27,0,0,0,.25-.11.21.21,0,0,1,.12,0,.47.47,0,0,0,.44-.1c.09-.08.17-.17.26-.26s0,0,0,0l.23-.08a.35.35,0,0,0,.19-.13.36.36,0,0,1,.24,0,.2.2,0,0,1,.13.1c0,.07,0,.14-.12.13a.39.39,0,0,0-.4.14s-.1.06-.15.09l-.26.1,0,0,.4.06H22A1.91,1.91,0,0,1,22.11,8s.1,0,.15,0l.34,0,.14,0s0,0,.05-.06l-.07,0h-.08c-.12,0-.17,0-.17-.16s0-.14-.12-.12-.27,0-.4-.07a1.1,1.1,0,0,0-.26-.06c-.13,0-.17-.11-.1-.24a.42.42,0,0,0,0-.12l-.14,0c-.06,0-.13,0-.18,0a.59.59,0,0,0-.6.11s0,.06-.06.08l-.06.06s-.05,0-.05,0a.17.17,0,0,1,0-.1s.08-.08.07-.11a.76.76,0,0,0-.12-.19s0,0-.08,0l-.36.12h0c-.06.12-.19.13-.29.2s-.07,0-.11,0h-.1l0,0,.28.28c-.15-.06-.19,0-.23.13l-.16-.17,0-.08V7.23a.48.48,0,0,1,.13-.37l.05-.08c-.12,0-.21,0-.28.08a.16.16,0,0,1-.21,0c-.07,0-.12,0-.16,0V7l-.54.41c-.08.06-.19.09-.16.23s0,.06-.07.08-.06,0-.06-.07a.59.59,0,0,1,0-.13.36.36,0,0,0,0-.14.21.21,0,0,0-.08-.11s-.06,0-.09,0l-.42.18a.38.38,0,0,0-.12.09c-.07.06-.09.07-.19,0s.14-.26.23-.38.1,0,.15,0a.29.29,0,0,0,.27,0l0,0c.24-.14.24-.14.41.06l0,0,.36-.35h0c.14-.05.25-.19.42-.16a.32.32,0,0,0,.16,0l.37-.16a.15.15,0,0,1,.12,0,.17.17,0,0,1,0,.1,1.74,1.74,0,0,1-.11.15h.1a1.21,1.21,0,0,1,.57-.19l.15,0c.13-.06.2,0,.2.12s.05.18.17.12a.59.59,0,0,1,.45,0,1.7,1.7,0,0,0,.39,0c.1,0,.14,0,.13.12a.89.89,0,0,1,0,.14c0,.1,0,.15.1.17l.69.18a.14.14,0,0,1,.09.11c0,.1,0,.14.12.12a.56.56,0,0,1,.4.1.29.29,0,0,1,.13.16c0,.09.07.13.16.12a.14.14,0,0,1,.16.12s.06.08.09.08a.34.34,0,0,1,.28.14l.19.16a.6.6,0,0,1,.11.12.11.11,0,0,1,0,.1.12.12,0,0,1-.1,0,.68.68,0,0,0-.48-.08s0,0,0,0a.29.29,0,0,1-.33,0,.12.12,0,0,0-.1,0,.17.17,0,0,1-.21,0,.59.59,0,0,0-.23,0l-.49,0a.72.72,0,0,0-.44.12c-.05,0-.12,0-.17.06l-.3.13a2.48,2.48,0,0,1-.93.3,1.52,1.52,0,0,0-.62.12,1.52,1.52,0,0,1-.43.12c-.19,0-.38.1-.57.13a4.46,4.46,0,0,1-.51.07c-.25,0-.5,0-.75,0s-.47,0-.7,0a1.34,1.34,0,0,0-.86.43l-.18.25c-.05,0-.1.06-.14,0l-.06-.11s0,.06,0,.07a1.34,1.34,0,0,1-.09.88c0,.15-.08.3-.13.44a2.59,2.59,0,0,1-.14.29c0,.07-.08.13-.11.21a5.26,5.26,0,0,1-.15.53,2.5,2.5,0,0,1-.32.75.37.37,0,0,0-.07.14,2.22,2.22,0,0,1-.24.65c-.06.1-.09.22-.14.32s0,.32.2.33h.07c.05,0,.14,0,.16.08s-.09.2-.17.23l-.16.08c.06.11.12.14.21.07l.28-.21a.13.13,0,0,0-.06-.22c-.08,0-.08-.07-.06-.14l.16-.37a.07.07,0,0,0,0-.06c-.06-.24.16-.31.28-.44s.08,0,.12,0,0,.1,0,.12a.56.56,0,0,0-.24.42.39.39,0,0,1-.06.21.23.23,0,0,0,.09.3h.08c.11-.14.29-.16.44-.24a1.53,1.53,0,0,1,.38-.12s0,0,.07,0,0,0,0,.06l-.31.17-.49.23a.91.91,0,0,0-.17.09s-.05.06-.08.09l.08.05.36.16.3.11s0,0,.07,0,.37.16.56.26a4.87,4.87,0,0,0,.57.24l.67.26.18.05.24.09.07,0a2.78,2.78,0,0,0,.81.11h.44l.49-.05H20c.14,0,.28-.11.42,0l.35-.13.38-.15a.3.3,0,0,0,.21-.25,1.07,1.07,0,0,1,.09-.19l0,0c-.19,0-.29-.09-.41-.21a5.5,5.5,0,0,0-.53-.45.73.73,0,0,1-.28-.48,1.33,1.33,0,0,0-.22-.63,3.3,3.3,0,0,0-.22-.3,3.34,3.34,0,0,0-.4-.35.1.1,0,0,0-.09,0c-.07,0-.12,0-.13-.05a.17.17,0,0,1,0-.14.79.79,0,0,1,.29-.11,1,1,0,0,0,.36-.15A.5.5,0,0,1,20,13a.75.75,0,0,0,.38-.13l.16-.07a.68.68,0,0,0,.17-.09,1.5,1.5,0,0,0,.2-.24.22.22,0,0,1,.28-.07h.08c.05,0,.1,0,.14,0s.19,0,.23-.1l.05,0,.14.1c0-.07,0-.11,0-.13s-.08-.18,0-.27a1.56,1.56,0,0,0,.33-.83l0-.12h0a.7.7,0,0,1,.06.17,1.12,1.12,0,0,1-.28.78.2.2,0,0,0,0,.08h0l0,.08,0,0L22,12l.21-.26a.87.87,0,0,0,.26-.59.54.54,0,0,0-.11-.39c0-.05,0-.1,0-.12a.38.38,0,0,0,.1,0s.12-.06.12-.1a.72.72,0,0,1,.14-.35.51.51,0,0,1,.36-.22l.26,0s.05,0,.08,0,0,.07,0,.09-.11.12-.06.21a0,0,0,0,1,0,.05c-.06.1,0,.17.06.26l.05-.06.11.17-.39,0h-.12l-.24.11c-.07,0-.1.16-.14.25s0,.11,0,.17a.2.2,0,0,0,.09.23.36.36,0,0,1,.21.33c0,.07.05.13.06.2A.32.32,0,0,1,23,12s-.06-.05-.06-.07a.24.24,0,0,0-.11-.21,1.68,1.68,0,0,1-.18-.23l-.19.27,0,.09c-.1.11-.2.22-.11.39,0,0,0,.08,0,.08s-.08.08-.09.14a.13.13,0,0,1,0,.09.14.14,0,0,0,0,.17.12.12,0,0,1-.06.18c-.1,0-.11.12-.13.19s0,.07.07.1.1.1.14.16.15.3.24.44a.4.4,0,0,0,.18.13.27.27,0,0,1,.19.21c0,.14.07.17.23.11l-.1-.09a.3.3,0,0,1-.14-.27c0-.11,0-.2-.15-.2l-.06,0-.2-.35-.07-.09L22.23,13a1.18,1.18,0,0,1,.19-.1s.08,0,.08.07a.15.15,0,0,0,.11.12.17.17,0,0,1,.08.09.51.51,0,0,0,.3.26s.05,0,.08,0h.06l.26-.2.1,0c.06,0,.14,0,.17-.07s0-.15-.06-.19-.12-.13-.12-.24a.77.77,0,0,0-.11-.27c-.05-.1-.07-.18,0-.27s.12-.07.17,0a3.65,3.65,0,0,0,.18.34s.07.05.11.07.08,0,.1,0,.17,0,.21-.07,0-.12,0-.18-.06-.1-.07-.15a.14.14,0,0,1,0-.09s.08,0,.09,0,0,.13.08.19h0a1.52,1.52,0,0,0,0,.21.82.82,0,0,0,.12.2c0,.05.13.08.08.16s-.12.05-.18,0h0c0,.07.09.13.07.18s-.08.1-.14.16a.28.28,0,0,0,.13.07s.07-.06.09-.11a.77.77,0,0,1,.28-.34.84.84,0,0,0,.38-.72,1.25,1.25,0,0,0-.35-.81.53.53,0,0,0-.13-.13c-.14-.09-.22-.25-.39-.3s-.07,0-.11,0a.21.21,0,0,1-.17-.1s-.09-.06-.13-.09l0,0a.13.13,0,0,0,0,.09s.1.07.14.12.11,0,.16,0a.14.14,0,0,1,.11.05c.1.13.18.27.27.41s.05,0,.08,0a.48.48,0,0,1,.35.52,2.17,2.17,0,0,0,0,.26s0,.12,0,.12a.17.17,0,0,1-.12-.1c0-.09,0-.18-.07-.29l-.11.2a.35.35,0,0,1,.05-.41c-.07-.12-.18-.07-.27-.1l0,.38c-.1-.06-.2-.07-.18-.23s-.07-.18-.14-.23a.28.28,0,0,1-.14-.31s0-.06,0-.08,0-.13-.09-.13a.23.23,0,0,1-.21-.15.12.12,0,0,1,0-.15.31.31,0,0,0,.07-.14c0-.07,0-.08.09-.07a.22.22,0,0,1,.12.05c.12.07.22.16.34.23s.24.1.35.17a1.22,1.22,0,0,1,.53.59l.12.26a.11.11,0,0,0,.08,0,1,1,0,0,1,.87-.08c.34.08.66.21,1,.26a7,7,0,0,1,.9.24.14.14,0,0,1,.07.06c0,.14.15.26.08.42s0,.07,0,.1a.53.53,0,0,1,0,.12s-.08-.06-.09-.1,0-.14,0-.21,0,0,0-.06h0a.83.83,0,0,1,0,.15s0,.09-.06.1-.08,0-.1-.05a.19.19,0,0,1,0-.28c.06-.09.05-.12-.06-.14h0a2.91,2.91,0,0,0-.77-.2c-.07,0-.13-.08-.19-.08a1.88,1.88,0,0,0-.34,0l-.18,0c0-.18,0-.18-.11-.24l-.07,0h-.42a.29.29,0,0,0-.34.31,4.37,4.37,0,0,1-.12.52c0,.05-.06.08-.09.12s0,.08,0,.1a.23.23,0,0,0,.12.08s.09,0,.09-.06c0-.3.27-.47.42-.69a.41.41,0,0,1,.05-.09c.05-.1.1-.12.21-.07h.11l.11,0a1.05,1.05,0,0,1-.07.11H26c-.13,0-.17.07-.15.2a.32.32,0,0,1-.15.27l-.26.23a.6.6,0,0,0-.06.11l-.1.14s-.06.05-.07.09a.1.1,0,0,1-.12.07c-.06,0-.19.09-.19.16s0,.05,0,.08l.06,0,.17-.07a1.37,1.37,0,0,0,.2-.13l.42-.3a.32.32,0,0,1,.43,0s0,.08,0,.12-.09,0-.1,0,0-.08,0-.1-.24.07-.28.15-.19.14-.3.19a.41.41,0,0,0-.13.1s0,.07,0,.09a.09.09,0,0,0,.09,0,1.23,1.23,0,0,1,.6,0,1.11,1.11,0,0,0,.29-.07s0,0,0,0,.22,0,.33,0,.12.05.12.13-.05.09-.12.1a1.88,1.88,0,0,0-.33,0,.86.86,0,0,1-.45,0h-.11l-.21,0a.32.32,0,0,0-.27.15.2.2,0,0,1-.15.06c-.08,0-.08,0-.07.09l0,0c0,.18.14.22.31.18l.41-.07h.33l.15,0,.13,0a.26.26,0,0,1-.07.1l-.18.06a.15.15,0,0,0-.09.22l.23.23s.07,0,.09,0l.39-.18a3.47,3.47,0,0,0,.33-.18,1.91,1.91,0,0,0,.35-.27,1,1,0,0,0,.19-.52.54.54,0,0,1,.16-.34c.07-.06.08-.17.13-.26a.61.61,0,0,1,.07-.1s.07.06.08.1-.06.22-.12.3a2.45,2.45,0,0,0-.17.45,3.59,3.59,0,0,1-.24.53c0,.06-.13.09-.21.14l-.11.08c-.06,0-.06.08,0,.12a3.2,3.2,0,0,0,.57.53c.05,0,.08.14.09.22a.22.22,0,0,0,.07.19.3.3,0,0,1,.09.13.61.61,0,0,0,.27.36.13.13,0,0,1,0,.1,1.46,1.46,0,0,0,.16.5.73.73,0,0,1,0,.36s-.08.06-.12.06a.62.62,0,0,0-.33.07s-.11,0-.16,0a.9.9,0,0,1-.49,0,.74.74,0,0,0-.43.06,1.33,1.33,0,0,1-.49,0,1.48,1.48,0,0,0-.75.08c-.18.1-.33,0-.47-.11L25,17.22l-.08,0a1.24,1.24,0,0,1-.38.54l-.2.15h0l-.18.14-.3.24a1,1,0,0,0-.17.14,1,1,0,0,1-.6.37.94.94,0,0,0-.22.12l-.32.17a.16.16,0,0,1-.15,0,.26.26,0,0,1-.12-.29c.05-.19-.09-.34-.14-.51s-.09-.15-.12-.24a.44.44,0,0,1,0-.2c0-.2,0-.4.06-.6A.25.25,0,0,0,22,17c-.08-.1-.18-.19-.26-.29a.12.12,0,0,0-.15,0,.2.2,0,0,1-.15,0,1,1,0,0,0-.51,0c-.08,0-.16.08-.24.1l-.51.07-.84.06a2.11,2.11,0,0,1-.25,0,2.14,2.14,0,0,1-.9-.12,1.32,1.32,0,0,0-.39-.1,3.6,3.6,0,0,1-.78-.27l-.1,0-.5-.14c-.16-.06-.33-.11-.49-.18l-.34-.14-.68-.23-.29-.12q-.06.11.06.15l.11.07c.08,0,.13.09.25.06a.4.4,0,0,1,.37.15,2.2,2.2,0,0,1,.2.23.22.22,0,0,0,.18.12s.07.05.11.08,0,.07,0,.07a.25.25,0,0,1-.12,0l-.22-.08a.3.3,0,0,1-.13-.12A.58.58,0,0,0,15,15.9h-.06c-.12.07-.22,0-.32-.06a.31.31,0,0,1-.2-.26s0,0-.05,0,0,0-.06,0a1.13,1.13,0,0,0-.1.13.2.2,0,0,1-.2,0c-.18-.07-.37-.12-.56-.18l-.41-.1-.81-.24-.07,0c-.21.07-.36-.11-.54-.15h-.11a1.14,1.14,0,0,0,.17.15c.15.11.31.21.46.33s.24.22.36.33.08.1.13.14l.22.21s.07.06.08.1.11.13.19.07a.75.75,0,0,0,.16-.15l.22-.33s.07-.05.11-.07.05.12,0,.15-.2.3-.29.45a.71.71,0,0,0-.11.21c0,.09.07.05.12.05Zm.17,4h0l0,0h0Zm-1.59-5.09v0h0l-.09-.12,0,0Zm6.39,5.67h0l.09,0h.09a1.7,1.7,0,0,1,0,.22c0,.05,0,.11,0,.15s0,.13.05.17.08-.09.09-.08a.18.18,0,0,1,.1.09s0,.07,0,.1,0,.09,0,.1.09.06.12,0a3.47,3.47,0,0,0,.37-.21.41.41,0,0,0,0-.09h-.09s0,0-.05,0-.1.05-.12,0a.17.17,0,0,1-.05-.13.2.2,0,0,1,.29-.13c.06,0,.12.06.18,0a1.74,1.74,0,0,0-.32-.34c-.11-.09-.21-.25-.4-.18.09.13.07.17-.08.22h0c0-.08,0-.15-.11-.14S18.31,21.23,18.33,21.3Zm7.82-5.36h0l-.09,0,0,0,.13.18s.07,0,.09,0,0-.07,0-.09A.45.45,0,0,0,26.15,15.94ZM19.93,3.68s0-.08,0-.08-.08,0-.09,0-.09.19-.14.29l0,0c.05,0,.12,0,.14-.06a.56.56,0,0,0,.09-.21Zm0,19c.08-.05,0-.07,0-.08a3.33,3.33,0,0,1-.32.24c-.1.07-.11.1,0,.24a.94.94,0,0,0,.34-.4Zm-5.64-.54h0v.08l-.55,0v.06a.58.58,0,0,0,.18,0c.09,0,.17,0,.26,0s.22-.1.22-.19-.1-.15-.21-.08Zm9.22-7.06c-.09.11-.17.23-.25.34a.75.75,0,0,0-.1.17.07.07,0,0,0,0,.09c0,.05.08.09.11.14s.08.07.12,0,.05-.1,0-.12,0-.14,0-.21l.3-.65,0,0s-.07,0-.08.06a1.14,1.14,0,0,0-.1.19Zm2,0h0s0-.09,0-.12.06-.11,0-.13a.22.22,0,0,0-.16,0s-.06.07-.09.11a.17.17,0,0,0,.1.27s.06,0,.09.07.09.07.14.06a1.86,1.86,0,0,0,.34,0,.47.47,0,0,0,.33-.19c.07-.09.06-.11,0-.15s-.2-.1-.19-.24a.19.19,0,0,0,0-.08c-.16,0-.16,0-.29-.12-.09.07-.09.1,0,.18a.27.27,0,0,1,.07.14c0,.07,0,.14.08.16l.19.05.1,0s0,.08-.06.09a.29.29,0,0,1-.35-.1c0-.05-.07-.07-.14,0l.05,0a.44.44,0,0,1,0,.1.13.13,0,0,1-.09,0Zm-6.07,8,.06.05,0,0-.08,0s0-.06,0-.08c.06-.2-.08-.29-.21-.39a.49.49,0,0,1-.14-.11c-.14-.15-.14-.15-.31,0s-.08.11,0,.18,0,0,.05.07a.16.16,0,0,1,0,.1s-.06,0-.09,0,0,0-.07,0,0,.08,0,.1a1.37,1.37,0,0,0,.19.3c.11.13.22.27.43.2l.08-.05,0-.07c0-.05-.05-.11-.08-.16l.17,0Zm-2.31-.8s0,.07,0,.08a.75.75,0,0,1-.17.1,1.23,1.23,0,0,1-.19,0c-.07,0-.06.05,0,.09l.09.14c0,.06,0,.12-.05.14s0,.05,0,.07,0,.09.05.09.11.09.05.16a.47.47,0,0,0,.38.14c.07,0,.07-.06,0-.11s-.08-.14,0-.18.17,0,.25,0a.32.32,0,0,0,.16-.09.11.11,0,0,0,0-.16l0,0a.78.78,0,0,0-.39-.48c-.05,0-.09,0-.1,0Zm.36,2.2h0l.14.34h0l.07-.19c-.09,0-.18,0-.17-.12s.09-.11.17-.11h.06a.16.16,0,0,0,.12-.17.34.34,0,0,0-.08-.17,3.44,3.44,0,0,0-.27-.27h-.07c-.09,0-.13,0-.14-.09a1.38,1.38,0,0,1,0-.2.19.19,0,0,0,0-.08s0,0-.05,0a.11.11,0,0,0,0,.06.39.39,0,0,1-.21.28c-.15.09-.39.12-.3.4,0,0,0,0,0,0a.4.4,0,0,0,.15.31l.33.15a.75.75,0,0,0-.09-.15s0-.06,0-.09h.09a.47.47,0,0,0,.09.06Zm.42-19.67h0l0-.12.05,0c.1.11.14.11.25,0a.13.13,0,0,1,.07,0c.08,0,.12,0,.16-.07s.06-.07.09-.06.19-.06.26-.15a.1.1,0,0,1,.05,0L19,4.3c.19.07.19.07.35-.13a1.82,1.82,0,0,0,.15-.23.75.75,0,0,0,.07-.12c.06-.1.05-.24.19-.29s0-.08,0-.12-.21-.1-.27-.05a1.65,1.65,0,0,1-.24.22,3,3,0,0,0-.65.41,1.18,1.18,0,0,1-.64.34s-.05,0-.06,0-.05.13-.13.11-.08-.07-.13-.11-.22.08-.25.26-.11.16-.17.24-.07.06-.07.08a.18.18,0,0,0,.09.08h.11a1,1,0,0,1,.46-.11l.05,0Zm7,10.14-.25-.05c-.09,0-.1-.08-.05-.16a.62.62,0,0,0,.14-.19c0-.12.07-.14.17-.12s.11-.05.08-.1,0-.35-.24-.42l0,0-.15-.19c-.06-.06-.11-.08-.16,0s-.05,0-.09.09,0-.06,0-.08,0-.09,0-.13l-.13.06-.11,0-.28-.06s-.06,0-.09,0a.24.24,0,0,0,.06.08l.12.11c.07.09.14.2.22.29a.11.11,0,0,0,.09,0s0,0,0-.07,0-.08,0-.13l.09,0c.07.06.12.15.24.15s0,.06.06.09a.13.13,0,0,1-.06.09.15.15,0,0,1-.22-.06c-.13.07-.26.14-.28.31a.29.29,0,0,0,.34-.09.16.16,0,0,1,.2,0,.12.12,0,0,1,.05.08s0,.05-.06.07l-.1,0-.17,0-.11,0c.16.07.22.13.2.26s-.08.1-.12.15a.5.5,0,0,1-.1-.11c0-.05,0-.1,0-.16l0-.07c-.09,0-.11-.07-.14-.14a.1.1,0,0,0-.07,0s0,0-.05.06a.55.55,0,0,0,0,.38s-.09.05-.11.1a2.5,2.5,0,0,0-.15.38s0,.1,0,.1.12.07.17.13a.52.52,0,0,0,0-.17.75.75,0,0,1,0-.15c0-.13,0-.26.05-.4l.17,0a1.34,1.34,0,0,1,0,.2c0,.15,0,.31,0,.46s0,0,0,0a.41.41,0,0,0,.11.07.38.38,0,0,0,0-.1s0-.06,0-.1a.18.18,0,0,1,0-.09s.07,0,.08,0a3.09,3.09,0,0,1,.14.32c0,.06.05.13.08.2.06-.09.13-.16.12-.23s-.07-.14-.11-.21l0,0c-.11-.15,0-.32,0-.48a.08.08,0,0,1,0,0s.05,0,.05,0,.06.25.1.37,0,.12,0,.18a1,1,0,0,0,.13-.09c.08-.07.08-.14,0-.21a.45.45,0,0,1-.1-.14s0-.07,0-.07a.13.13,0,0,1,.09,0s0,.05.05.07a.67.67,0,0,0,.12.06.61.61,0,0,0,0-.13c0-.07,0-.14-.08-.22s.05,0,.05-.05a.3.3,0,0,0,0-.16s-.09,0-.15,0ZM14.8,19.67h0l0-.11,0,0a.86.86,0,0,0,.13.14.14.14,0,0,0,.09,0l.25,0-.06-.09c-.14-.18-.28-.37-.43-.55s-.24-.44-.48-.56l0,0c-.14-.21-.29-.41-.43-.61l0,0a1.24,1.24,0,0,1-.19-.21,1.87,1.87,0,0,0-.48-.57.44.44,0,0,0,0,.1c0,.15,0,.3,0,.46l0,.09.06.15c.05.14.09.3.28.35,0,0,0,0,.06.06l.15.22c.06.09.05.15,0,.2-.09-.12-.07-.32-.23-.37l.1.45c.07,0,.15,0,.18.05s.25.36.37.55.1.22.16.33a.24.24,0,0,0,.22.12.21.21,0,0,1,0-.28l.11.09.11.13s.05.05.05.08,0,0-.06.05-.07,0-.06.06a.39.39,0,0,1,0,.3h0c.08-.1.09-.1.18,0l.36.27a.39.39,0,0,0,0-.11l-.23-.25c-.06-.06-.13-.11-.13-.22l.07,0,.29.21s0,0,0,0a.72.72,0,0,0,.29.35l.11.06a.66.66,0,0,0,0-.14s0,0,0,0h0l0-.18a.16.16,0,0,0,0-.1,1.88,1.88,0,0,0-.26-.22.14.14,0,0,0-.13,0,.2.2,0,0,1-.2-.09S14.83,19.7,14.8,19.67ZM16.38,3.14l.18,0,.12.2.09.11-.1.08.56.81s.07-.07.08-.11A1.5,1.5,0,0,0,17.37,4c0-.11,0-.14-.13-.15a.11.11,0,0,1-.08-.05s0,0,0-.08l.09,0,0,0c.08-.09.08-.1.05-.18s-.12-.29-.19-.43a1.37,1.37,0,0,0-.2-.29c-.15-.19-.31-.37-.46-.55a.25.25,0,0,0-.09,0s0,.09,0,.11.11.12.16.19a.59.59,0,0,1,.13.23.75.75,0,0,1-.06.29.33.33,0,0,1-.06.1l-.21-.35a.12.12,0,0,0-.17-.06.1.1,0,0,1-.08,0A1.11,1.11,0,0,1,16,2.59h.07l.09,0-.06-.08L16,2.37,16,2.3a.42.42,0,0,0-.06.08l-.17.3-.1.15s0,.11-.08.13-.1,0-.18,0a1.66,1.66,0,0,0,0,.33c0,.15,0,.18-.1.25s-.08.07,0,.13a.18.18,0,0,1,0,.23.37.37,0,0,0,.06.34s0-.06.06-.07a.2.2,0,0,1,.13,0s.06,0,.05,0a.16.16,0,0,1-.07.09.35.35,0,0,0-.1.43,1.53,1.53,0,0,0,.45.59.14.14,0,0,0,.11,0l.1,0c.08,0,.13,0,.15.08s0,0,0,.07,0,.09,0,.1a.15.15,0,0,1-.09,0L16,5.39l0,0,.06.13c.08.2.37.26.36.52,0,0,0,0,0,0s.18.21.14.37L16.78,6l0,0-.05,0h-.13s0-.09,0-.13l.06-.07V5.8h0c-.09,0-.13,0-.15-.08s-.06,0-.09-.08l0-.06.07,0,.07,0-.09-.21L16.17,5s0,0,0,0-.09-.26-.15-.38-.12-.2-.17-.31-.09-.29-.13-.44-.06-.14-.16-.15-.14-.1-.08-.19a.31.31,0,0,0,0-.12l.09-.3s0,0,.06-.06.06,0,.06.06a.94.94,0,0,1,.08.36c0,.2.12.35.16.53s0,.14.08.22L16.21,4c.1-.05.15,0,.16.1a.53.53,0,0,0,0,.22.13.13,0,0,1,0,.18c-.05,0-.1.1,0,.16a.19.19,0,0,1,.06.19.11.11,0,0,0,0,.06l.23.18a2.08,2.08,0,0,1,.21.21s0,.09,0,.14-.06,0-.06,0a.32.32,0,0,0,0,.14.53.53,0,0,0,.1-.06A.81.81,0,0,0,17,5.1c0-.11.09-.24,0-.34s0,0,0-.07a.81.81,0,0,0-.06-.31,1.85,1.85,0,0,0-.24-.33.11.11,0,0,1,0,0c0-.15-.09-.25-.15-.36s-.12-.16-.1-.19a.2.2,0,0,0,0-.26s0,0,0,0Zm5.84,14.4h0c0,.07,0,.15,0,.21a.41.41,0,0,0,.07.41.33.33,0,0,1,.13.35.13.13,0,0,0,0,.06s0,.06,0,.09a.47.47,0,0,0,.06-.09c0-.25-.16-.43-.2-.66h0c-.07-.08-.07-.15,0-.21s.12-.05.2,0l-.07.09c-.06.09-.05.11.05.13s.07.05.08.11a.91.91,0,0,0,.16.55c.07.07.12.09.19,0a.66.66,0,0,0,.15-.14l.08-.05.24-.07c.18,0,.24-.19.3-.34-.13-.08-.13-.11,0-.19l.18-.11s0,0-.06,0-.14-.08-.06-.2,0-.05,0-.08l0-.08a.31.31,0,0,1,.09.07.34.34,0,0,1,0,.1c0,.09,0,.17.11.19s0,0,0,0L23.8,18l0,0a.22.22,0,0,0,.21-.13.63.63,0,0,1,.12-.11l.39-.32.18-.22c0-.07.13-.13.08-.22s-.08-.12,0-.18,0,0,0-.05a1.22,1.22,0,0,0-.07-.17,1.3,1.3,0,0,0-.15-.23,1.27,1.27,0,0,0-.29-.18.3.3,0,0,0-.16,0l-.53.1a.1.1,0,0,0-.08.06c-.05.09,0,.18.11.21a.23.23,0,0,1,.12.06c.06.09.11.2.17.3a1.66,1.66,0,0,1,.16.21.49.49,0,0,1,.08.21.15.15,0,0,0,0,.13s0,.11,0,.15-.09,0-.13.06,0-.11,0-.15a.1.1,0,0,0,0-.15.68.68,0,0,1-.29-.41c-.07-.23-.35-.22-.45-.45-.05.12-.11.18-.22.11L23,16.9S23,17,23,17s-.11,0-.12-.06a.22.22,0,0,1,0-.18,2.37,2.37,0,0,1,.25-.29.18.18,0,0,0,0-.09c0-.09,0-.13.14-.09s.12,0,.12-.07a.19.19,0,0,0-.22-.19l0,.18-.05-.08a2.44,2.44,0,0,0-.14-.28,2.7,2.7,0,0,0-.28-.31.19.19,0,0,0-.14,0c-.07,0-.13.05-.19,0h-.08a.57.57,0,0,0-.31.28.27.27,0,0,1-.11.1.33.33,0,0,0-.12.37l.05,0c.09,0,.1.05.11.12s0,.21.08.25a.82.82,0,0,1,.32.43.31.31,0,0,1,0,.25A1.17,1.17,0,0,0,22.22,17.54ZM22.29,14h0a.64.64,0,0,0-.1-.13.51.51,0,0,1-.22-.24.26.26,0,0,0-.1-.07l-.11,0a.26.26,0,0,1,.07-.1c.05,0,.06-.06,0-.12a1.83,1.83,0,0,1-.14-.32.26.26,0,0,0-.23-.22l-.25-.07c-.12,0-.13-.1-.05-.18l.05-.06,0,0c-.06,0-.13.07-.16.13a.92.92,0,0,0-.06.25c0,.08,0,.13.09.12a.42.42,0,0,1,.37.18s.05.11,0,.12-.1,0-.13,0-.1-.11-.17-.07-.17,0-.22-.07L20.91,13l-.06,0c-.05.11-.12.09-.2,0a.17.17,0,0,0-.11,0c-.08.09-.18.08-.29.08s-.05,0-.07,0l-.16.1a.11.11,0,0,1-.08,0s0-.06,0-.09l0,0s0-.05,0-.08-.07,0-.09,0l-.09.09a.18.18,0,0,1-.07,0l.07.06.06.07-.08,0-.07,0v0s.07,0,.11,0l.16,0h.1a.19.19,0,0,1,0,.13s-.06.09-.08.15a.15.15,0,0,0,0,.13.61.61,0,0,1,.18.27h0c.1-.14.09-.17,0-.27a.17.17,0,0,1-.05-.12.26.26,0,0,1,.08-.13.28.28,0,0,1,.1.06c.05.07.09.06.14,0s.06,0,.09,0a.44.44,0,0,1,0,.1.24.24,0,0,1-.06.08.16.16,0,0,0-.09.19.27.27,0,0,1-.07.24.1.1,0,0,0,0,.09,1.37,1.37,0,0,0,.13.2c0,.05.09.09,0,.14s-.08,0-.13,0v0a3.86,3.86,0,0,0,.3.38.26.26,0,0,0,.3.09s.12,0,.18.06,0,.07,0,.1-.05,0-.05.07a.33.33,0,0,0,.27.23h.12a.34.34,0,0,0,.32-.09.8.8,0,0,1,.39-.25l.19-.06.19-.06A.63.63,0,0,0,22.5,15c-.05-.07-.1-.11,0-.16s0-.05,0-.07,0-.07.06-.07a.09.09,0,0,1,.07,0,1,1,0,0,1,.06.18l.09.41s0,.06.06.06a.13.13,0,0,0,.07-.06s0-.06,0-.08.05-.07.07-.07.21-.14.3-.24.06-.15.16-.16,0,0,0-.05,0,0,0,0a.61.61,0,0,0-.24,0c-.08.08-.13.19-.21.28s-.1.11-.12.1a.25.25,0,0,1-.16-.14.27.27,0,0,1,0-.2.54.54,0,0,1,.44-.22l.45,0v0l-.12-.07-.28-.08a.33.33,0,0,0-.2,0,.34.34,0,0,1-.26.06s-.06,0-.09,0a.16.16,0,0,1,0,.07l.05.06-.14.06a.43.43,0,0,1,0-.14c0-.08,0-.15-.1-.18s0-.05-.05-.08a.17.17,0,0,1,.1,0s.05.05.08.08.1-.09,0-.14l-.07-.06c-.07-.11-.12-.11-.18,0l0,.1c-.05.07-.1.1-.17,0s-.13,0-.19,0l-.09.06,0,0c.05-.07.12-.13.17-.21S22.21,14,22.29,14Zm3.76,1.62c.07.06.11.14.16.14a1.72,1.72,0,0,1,.63.24l.34.18a1.31,1.31,0,0,1,.11.12l.11.1a3.78,3.78,0,0,1,.33.22s0,.09,0,.14-.08,0-.11,0a.74.74,0,0,0-.28-.14.42.42,0,0,1-.18-.08s-.06-.08-.05-.1,0-.12-.08-.18,0,.07,0,.1,0,.1,0,.12a.22.22,0,0,1-.14,0l-.3-.09-.27-.07c-.11.06-.12.06-.23-.06a.25.25,0,0,0-.25-.06.22.22,0,0,1-.14,0s-.05,0-.07-.08a.24.24,0,0,1,.08-.06h.11c.08,0,.08-.07.06-.12a.19.19,0,0,0-.1-.1,2.17,2.17,0,0,0-.36,0h-.06c-.06.06-.1.13-.16.19s-.09.05-.12,0S25,16,24.94,16l.09-.11h0l0-.11s-.09,0-.11,0a.73.73,0,0,0-.14.16s0,0,0,.08.07.16-.12.2c.07.19.3.29.27.49.08,0,.13,0,.16,0a.43.43,0,0,0,.3.14s.07,0,.1,0l.19.15,0,0A.2.2,0,0,1,26,17l.2.1s.05,0,.06.05a.15.15,0,0,1,0,.06.24.24,0,0,1-.27,0c-.07,0-.11,0-.15,0s-.07.08-.08.07a.32.32,0,0,1-.1-.1s0-.06,0-.08l-.41-.21L25,16.8h0A.83.83,0,0,0,25,17c.06.13.14,0,.21,0a.84.84,0,0,0,.34.38c.05,0,.14,0,.17,0a.21.21,0,0,1,.22-.05.32.32,0,0,0,.35-.12c.11-.14.27-.09.41-.08a.07.07,0,0,1,.06.06s0,0-.06.07l-.13,0v0a.09.09,0,0,0,.07,0,.36.36,0,0,1,.27,0s.07,0,.08,0,.26-.11.41-.09a1,1,0,0,0,.3,0c.22,0,.44-.08.65-.13l.13-.05v0A.52.52,0,0,0,28.4,17l-.48-.11a.08.08,0,0,1-.06,0,.17.17,0,0,1,0-.1s.06,0,.09,0l.22,0a.16.16,0,0,0,.07,0c0-.11,0-.21,0-.31a.09.09,0,0,0,0-.05l-.11-.14L28,16.12,27.86,16l-.08-.1a2.07,2.07,0,0,1-.24-.17s0-.1,0-.15.06,0,.07,0l.09.1a.09.09,0,0,1,0,.05h0a.26.26,0,0,0,0-.08.38.38,0,0,0-.37-.26c-.05,0-.11,0-.08-.06a.13.13,0,0,0,0-.17.88.88,0,0,0-.12-.15s-.06,0-.09,0,0,.07,0,.09.05.08.08.12l0,0c-.06,0-.15,0-.19-.06s-.12,0-.18,0-.16.1-.16.22-.06,0-.12.08a.46.46,0,0,0,0-.1v-.08H26.4a2.12,2.12,0,0,0-.11.21.75.75,0,0,0,0,.15c-.08-.11-.13-.17-.25-.11a.52.52,0,0,1-.41.05.47.47,0,0,0-.16,0c.07.08.13.13.2.08a.12.12,0,0,1,.17,0,.14.14,0,0,0,.22,0ZM17.18,6.16c-.06-.09-.1-.18-.18-.09s-.12.17-.06.27,0,.1-.05.12-.07,0-.05.11l.33-.18s.07,0,.09-.06c.09-.19.3-.23.46-.29a2.86,2.86,0,0,1,.65-.19A1.37,1.37,0,0,0,19,5.72h0c.11,0,.18,0,.25-.12s.2-.21.32-.31.14-.08.2-.13.32-.27.47-.42a2.66,2.66,0,0,0,.28-.38c.06-.12.09-.26.15-.4h-.14c-.17,0-.21-.07-.22-.24V3.67s0-.08-.06-.08a.18.18,0,0,0-.08.05.69.69,0,0,0-.11.13c-.06.06-.11.13-.17.2l.11.09s0,0,0,.05l-.39,0c0,.05,0,.11,0,.14s-.08,0-.12,0-.11,0-.13.08a1.94,1.94,0,0,1-.15.24.08.08,0,0,1-.08,0c-.17,0-.28.09-.39.16a.71.71,0,0,1-.26.13,1.12,1.12,0,0,0-.25.11.61.61,0,0,1-.36.17,1,1,0,0,0-.35,0,.71.71,0,0,0-.57.67s.08,0,.11,0l.34-.17c.13-.06.23-.21.39-.1.05,0,.09-.11.12-.1s.25,0,.34-.13a.53.53,0,0,1,.58-.14,1.51,1.51,0,0,1,.28.15s.09.08.08.11-.07.1-.11.09a2.41,2.41,0,0,1-.25-.08c-.07,0-.16-.07-.22-.05a1.17,1.17,0,0,0-.46.23.9.9,0,0,1-.34.1l-.11,0A2.63,2.63,0,0,1,17.4,6c-.08,0-.18,0-.18.13S17.2,6.12,17.18,6.16ZM16,9.91c.11.05.16,0,.22-.08s.23-.29.44-.26l.05,0,.22-.08c.08,0,.17,0,.23-.07s.06,0,.07,0a.36.36,0,0,0,.46,0s.09,0,.12,0a.12.12,0,0,0,.2.06s.07,0,.09,0,.24,0,.36,0,.28-.1.42,0h0l.51-.14.45-.17L20,9.05s.06,0,.07,0a.32.32,0,0,1,.21-.2s0,0,0-.05l0,0c-.1,0-.18,0-.29.11a.21.21,0,0,0-.33,0s-.08,0-.1,0a.64.64,0,0,1-.08-.19.66.66,0,0,0-.15,0,.67.67,0,0,0-.22.13c-.1.11-.15.12-.29,0a.28.28,0,0,0-.18,0,.94.94,0,0,0-.4.28c-.13.13-.17.12-.25,0s-.2-.14-.25-.1a.23.23,0,0,1-.22.08s-.07,0-.1.06a.47.47,0,0,1-.09.06.19.19,0,0,0-.17.13s-.06.07-.12,0-.08,0-.1,0a.19.19,0,0,1-.22-.05.24.24,0,0,0-.12,0s-.06,0-.09,0-.17.06-.21.15a.89.89,0,0,1-.31.43S16,9.88,16,9.91Zm3.72-1.5a.38.38,0,0,0,.39.15.59.59,0,0,1,.35,0,.43.43,0,0,0,.16.05,1,1,0,0,1,.57.16h0c.13-.05.31-.07.39-.16a.5.5,0,0,1,.33-.15,2.05,2.05,0,0,1,.34-.07l.64,0a.33.33,0,0,1,.17,0,.19.19,0,0,0,.18,0,.5.5,0,0,1,.21,0c.14.07.24,0,.37,0,0,0-.07-.08-.11-.08h-.17s-.07,0-.07,0-.1-.18-.22-.19A.12.12,0,0,1,23.16,8a.15.15,0,0,0-.1-.15c-.06,0-.1-.11-.16,0s0,.09.06.14A.11.11,0,0,1,23,8s-.05,0-.08,0-.28,0-.43-.06a.21.21,0,0,0-.15.07s0,.09,0,.14a.29.29,0,0,1,0,.16c0,.06-.1,0-.16,0a.15.15,0,0,0-.11,0,1.31,1.31,0,0,1-.68,0c-.05,0-.13,0-.16,0s-.35,0-.51,0a.94.94,0,0,0-.47.12.32.32,0,0,1-.27,0A2,2,0,0,0,19.7,8.41ZM16.75,26.09l.29-.16s0,0,0-.06.1-.14.24-.08.09,0,.11,0a.16.16,0,0,0,0-.12.14.14,0,0,0-.08-.07c-.06,0-.15,0-.14-.09s.1-.07.16-.09.05,0,.08,0,.1,0,.13,0,.13,0,.18.05l-.23.09.15.13.11-.14a.21.21,0,0,1,.1-.09.12.12,0,0,0,.11-.14c0-.14,0-.18.18-.23a1.3,1.3,0,0,0,.2-.15.47.47,0,0,1,.09-.06,2.21,2.21,0,0,0,.25-.05.29.29,0,0,0,.15-.14s0-.1-.07-.14a.1.1,0,0,0,0-.05l-.19-.18c-.11-.1-.14.05-.22.07l-.07,0c-.09,0-.14.07-.09.17s.08.2,0,.27,0,0,0,.05-.09.17-.17.22-.1,0-.14,0-.12-.13-.19-.21a.78.78,0,0,1,0,.14s0,.08,0,.08-.06,0-.1,0,0,0,0,0a.31.31,0,0,0-.33-.06.31.31,0,0,0-.05.27c0,.05,0,.14,0,.16s-.08.13,0,.2,0,.09,0,.14-.08,0-.11,0a.09.09,0,0,0-.12.05l-.08.1C16.71,25.94,16.71,26,16.75,26.09Zm0-5.19h-.21s-.09,0-.11.05a.8.8,0,0,0-.11.25c0,.1,0,.16.13.15a.3.3,0,0,1,.13,0s0,.1,0,.13a.23.23,0,0,0,0,.25c0,.05.07.1.06.14,0,.21.13.23.28.23l.12,0s0-.1-.07-.11-.11-.09-.08-.18.08-.14.18-.1h.08c.17,0,.17,0,.11.2,0,0,0,.06,0,.09l.08,0,.09-.12a1.86,1.86,0,0,1,.1-.2c.08-.1,0-.14,0-.21A3.57,3.57,0,0,1,17,21a.22.22,0,0,0-.18-.1ZM15.2,22l0,.05a.37.37,0,0,1,.12-.07.43.43,0,0,1,.16,0s.05.06,0,.07a.23.23,0,0,1-.1.07c-.09,0-.1.08-.06.19a.9.9,0,0,1,.08.23.39.39,0,0,0,.31.33c.08,0,.11,0,.09-.1s-.1-.11-.18-.13a.35.35,0,0,1-.13-.08l.11-.11a1,1,0,0,1,.17-.12.35.35,0,0,1,.11,0,.11.11,0,0,1,0,.1.17.17,0,0,0,.05.18.25.25,0,0,1,0,.09c0,.07.08.1.14.05l.14-.16a.09.09,0,0,0,0-.07,1.6,1.6,0,0,0-.13-.3c-.08-.1-.18-.19-.26-.3a.27.27,0,0,1,0-.19c0-.06.11,0,.16,0h0a.65.65,0,0,0,0-.13s-.07-.05-.08,0-.18,0-.28,0a.67.67,0,0,0-.24.07c-.05,0-.05.11-.08.16a.39.39,0,0,1-.08.1ZM11.73,7.72l-.09,0-.09,0a.3.3,0,0,0,0,.1l.12.11c.12.05.22.16.37.14h.25c.1-.12.21-.09.33,0s.12,0,.13-.07.06-.07.09-.06.24,0,.3.18.05,0,.08,0l.2.07.09,0s0-.06-.05-.07a3.83,3.83,0,0,0-.44-.25c-.11,0-.23-.08-.34-.12-.06.12-.12.13-.22.06a.91.91,0,0,0-.3-.14c-.12,0-.21-.13-.34-.07s-.06,0-.07,0a.43.43,0,0,0-.33-.23,5.52,5.52,0,0,1-.54-.16.19.19,0,0,0-.12.1c0,.06.2.18.26.18l.18,0a1.05,1.05,0,0,0,.24.06.17.17,0,0,1,.18.1A.52.52,0,0,0,11.73,7.72Zm6.86,16.22c.15-.14.15-.26,0-.39s-.05,0,0-.06,0-.15-.11-.18,0,0-.06-.08-.11-.16-.17-.23a.14.14,0,0,0-.25.07c0,.19-.11.23-.26.18s-.08.12,0,.16a.41.41,0,0,1,.14.3.12.12,0,0,0,.12.13l.13,0v0L18,24l.15.18a.14.14,0,0,0,.11,0c.08,0,.14-.08.11-.18a.12.12,0,0,1,.09-.16.11.11,0,0,1,.14.07S18.58,23.91,18.59,23.94ZM16.9,20.76c.06,0,.12,0,.14-.07s.12-.08.17,0,0,0,.05.05a.5.5,0,0,1,.17.31s0,.09.06.09.18.17.21.3a.1.1,0,0,0,.06.08s.2-.14.21-.21l-.08,0a.18.18,0,0,1-.17-.16c0-.1.06-.1.13-.11s.16,0,.22.09a.37.37,0,0,0-.11-.43l-.09-.08a.38.38,0,0,0-.31-.16,1.42,1.42,0,0,1-.29,0A.34.34,0,0,0,16.9,20.76Zm-.77,3.12,0,0-.1-.15a.2.2,0,0,1,0-.08l.09,0,.25,0,.14,0-.06.12a.35.35,0,0,1-.05.08s0,0,.05,0a.16.16,0,0,0,.08-.05c0-.11.11-.16.18-.23s.05-.11,0-.14l-.08-.05a4.15,4.15,0,0,0-.27-.32.53.53,0,0,0-.23-.13S16,23,15.94,23l0,0c-.07.07-.19.12-.17.23A.71.71,0,0,0,16.13,23.88ZM14.4,8.65V8.59l-.29-.17a.45.45,0,0,0-.24-.05.2.2,0,0,1-.27-.07s-.06,0-.09,0a.32.32,0,0,1-.3,0,.2.2,0,0,0-.25,0,.22.22,0,0,1-.23,0,1.54,1.54,0,0,0-.64,0s0,0-.07.07l.09,0h.18a.3.3,0,0,0,.13,0,.94.94,0,0,1,.5.07c.17.08.36.13.54.2h.06l.35,0a.2.2,0,0,0,.11,0,.09.09,0,0,0,0,0Zm1,15.71a.23.23,0,0,0,.1,0l.29-.3s0-.08,0-.1-.09-.16-.2-.16,0,0-.06,0a2.14,2.14,0,0,0-.28-.32s-.14,0-.21,0a.55.55,0,0,0,0,.17c0,.09,0,.17-.07.22a.1.1,0,0,0,0,.08.69.69,0,0,0,0,.2.47.47,0,0,0,.06.15,1.25,1.25,0,0,0,.09.12.41.41,0,0,0,.1.09s.07,0,.06,0a.53.53,0,0,0-.06-.1s-.08-.09-.07-.12a.24.24,0,0,1,.12-.1l.19-.1s.11-.07.12-.06a1.1,1.1,0,0,1,.09.14h0c-.05,0-.13.06-.15.11A.83.83,0,0,0,15.44,24.36Zm-.49.46a.23.23,0,0,1,.05.07l.27.22c.05.05.08.13.17.1l.05,0-.05,0L15,25.22c0,.05,0,.13.13.13s.1,0,.16.07a.28.28,0,0,0,.12,0c.07,0,.13,0,.19,0s.24-.09.32-.2,0-.06,0-.08-.09-.2-.23-.14a.84.84,0,0,0,0-.18s-.09-.08-.1-.13a.26.26,0,0,1,0-.15h0a.52.52,0,0,0-.06.13c0,.06,0,.13,0,.2a.61.61,0,0,1-.05.12h0l0-.16a1.22,1.22,0,0,0,0-.17.06.06,0,0,0-.05,0,.13.13,0,0,0-.07,0,.19.19,0,0,0,0,.08c0,.08,0,.14-.13.09S15,24.82,15,24.82Zm3.42-2.57c0-.08-.17-.34-.23-.34s0,0,0,0L17.7,22a.11.11,0,0,0-.07.06c-.06.14.07.47.22.5a.27.27,0,0,1,.21.15s.09,0,.13,0a.48.48,0,0,0,0-.12s0-.07,0-.11,0-.12.11-.09l.13.06s.07,0,.11,0l-.05-.09Zm-2.6,2.44.05,0s.1,0,.11,0,.05.1,0,.12,0,.21,0,.3a.15.15,0,0,0,.09,0s0-.06,0-.08a.84.84,0,0,0-.06-.14.53.53,0,0,1,0-.12s.08,0,.1,0,.14,0,.2-.05.1,0,.16,0,.06.05.05.06a.94.94,0,0,1-.09.12s0,0,0,0,0,.07-.05.1.07,0,.1,0l.27-.11c.08,0,.09-.1.05-.13a1.24,1.24,0,0,1-.29-.27c0-.05-.12-.07-.12-.16s0-.05-.06-.06l-.16-.07H16a.26.26,0,0,0-.17.17Zm2.6.67-.19.06c-.06,0-.1,0-.06.12a.12.12,0,0,1,0,.16c-.06.07,0,.09.05.11s.16.06.07.21a.13.13,0,0,0,0,.1.09.09,0,0,0,.09,0,.25.25,0,0,0,.11,0c.1,0,.16-.22.31-.09a0,0,0,0,0,.05,0c.17-.06.21-.17.09-.32a.58.58,0,0,0-.12-.1s-.08,0-.08-.07S18.45,25.43,18.37,25.36Zm1.37-1.25a.48.48,0,0,0,0-.18,3,3,0,0,0-.28-.33.1.1,0,0,0-.07,0,1.55,1.55,0,0,0-.22.12.25.25,0,0,0-.07.27,1.52,1.52,0,0,1,0,.21c0,.08,0,.17.05.22a.26.26,0,0,0,.41,0,.36.36,0,0,0,0-.11.4.4,0,0,0-.11,0s-.05.05-.07,0a.34.34,0,0,1-.14-.05l.15-.28a.11.11,0,0,1,.08,0ZM18.5,20.76a.08.08,0,0,1,0,0s0,.06.09.07.08,0,.08,0a.61.61,0,0,0,0-.11.33.33,0,0,1,0-.17c.05-.16,0-.22-.12-.28s-.23-.09-.35-.12a.15.15,0,0,0-.13.05.13.13,0,0,0,0,.13c.07.14.16.26.24.39s.11.12.19.05Zm-2.3,4.87c.17.09.16.09.06.25a.09.09,0,0,0,0,.1.38.38,0,0,0,.11.11.2.2,0,0,0,.11,0,.57.57,0,0,0,0-.13s0,0-.05,0a.59.59,0,0,0,0-.08s.08,0,.11,0,0,0,.06.05.07,0,.1,0a.42.42,0,0,1,.09-.14c.12-.1.13-.17,0-.29a.48.48,0,0,0-.12-.16.39.39,0,0,0-.19-.06c-.07,0-.1.07-.1.15s0,.15-.11.17ZM17.75,4.12c.15,0,.3,0,.45,0s.3-.16.46-.2.05,0,0-.07a.09.09,0,0,0-.06-.06c-.21,0-.42,0-.63,0a.43.43,0,0,0-.34.15C17.74,4,17.81,4,17.75,4.12ZM14.54,24.2l.15.11.09.09-.09.08-.06.07.07.05a.09.09,0,0,0,.07,0,.88.88,0,0,0,.21-.12s0-.1-.08-.15a1.48,1.48,0,0,1-.29-.54c0-.06,0-.08-.11-.07h-.1c-.08,0-.12.05-.1.13s.06.24.1.36,0,0,0,.07l.06-.06Zm8.53-10.32a.67.67,0,0,0,.13.15l.39.26a.27.27,0,0,0,.27,0,.11.11,0,0,0,.06-.09c0-.05,0-.1-.1-.08s-.12,0-.11-.09a.4.4,0,0,0-.23-.34H23.4a.27.27,0,0,0,0,.09l.07.15C23.32,14,23.24,13.8,23.07,13.88Zm-4,11.2a.25.25,0,0,0,.07.12.17.17,0,0,0,.15,0c.07-.05.11,0,.14,0s.05.05.08.05.05,0,.06-.07,0-.13,0-.18a3,3,0,0,0-.16-.31s0,0,0,0A.33.33,0,0,0,19,25.08Zm-4.09-16,0,0L14.91,9l-.23-.2a.08.08,0,0,0-.08,0,.69.69,0,0,1-.35,0c-.07,0-.13,0-.19,0l.31.25.08-.12a.15.15,0,0,1,.09,0s0,.07,0,.08,0,.14.06.16.19.06.28.09a.18.18,0,0,1,.07.05l.25.15c-.09-.22-.14-.26-.32-.26h-.08a.17.17,0,0,1-.1-.06s0-.07,0-.08a.2.2,0,0,1,.11,0Zm3.17,17.11-.05,0L18,26.07a.66.66,0,0,0-.14-.15.15.15,0,0,0-.23,0,.12.12,0,0,1-.16.05l-.11,0a.11.11,0,0,0-.09,0s0,.05,0,.08a.17.17,0,0,0,.06.1.18.18,0,0,0,.13,0,.13.13,0,0,1,.16,0,0,0,0,0,0,.05,0,.27.27,0,0,1,.33,0C18.07,26.32,18.1,26.27,18.11,26.19ZM17.25,19h0a.23.23,0,0,0-.12.28c0,.15,0,.3.05.45a.11.11,0,0,1,0,.07c-.07.08,0,.11,0,.16a1.07,1.07,0,0,0,.09-.19.41.41,0,0,0,0-.16.88.88,0,0,0,0-.16Zm1.82,6.76s.05,0,.07,0l.16-.18a.09.09,0,0,0,0-.14c-.09,0-.15-.13-.26-.08l-.06,0-.06,0v.07l0,.12a1.55,1.55,0,0,0,.07.23S19.05,25.7,19.07,25.72ZM23.9,13.07l-.07,0c0,.1.07.12.2.13s.15,0,.11-.13-.09-.18,0-.29a.3.3,0,0,1-.36,0l0,0Zm-8.65,7.44a1.16,1.16,0,0,0,.42.48s.08,0,.07,0-.05-.16-.11-.2a1.65,1.65,0,0,0-.31-.2Zm-.79-2.44,0,0a.11.11,0,0,1,0-.05l-.26-.34L14,17.28l-.09-.05a.08.08,0,0,0,0,0,.41.41,0,0,0,0,.09l.13.15ZM25,13l-.11.06-.11.1a.2.2,0,0,0-.12.21.21.21,0,0,0,0,.11s.09,0,.11-.05a3.9,3.9,0,0,0,.19-.35S25,13,25,13ZM20.87,8.88H20.4s-.06.07-.09.11A.54.54,0,0,0,20.87,8.88ZM16.13,26.17l0,0c-.05-.07-.1-.14-.14-.21a2.67,2.67,0,0,1-.09-.26s-.06,0-.09-.06-.07.09-.05.11a1.68,1.68,0,0,0,.2.34A.85.85,0,0,0,16.13,26.17Zm-1.27-4.48c.22-.14.22-.14.18-.2s-.15-.14-.25-.08Zm-4-6.2A.39.39,0,0,0,11,15,.54.54,0,0,0,10.87,15.49Zm8.82,9s0,.05,0,.07,0,.18.09.25.09,0,.1,0,0-.08,0-.11a.39.39,0,0,0-.08-.14Zm-.78,0a.36.36,0,0,0-.23-.32A.42.42,0,0,0,18.91,24.41Zm7.85-8.13a.39.39,0,0,0-.3-.18C26.58,16.29,26.65,16.33,26.76,16.28Zm-9.87,10c.09.08.18.07.22,0s0-.08,0-.11l-.08,0Zm6.34-16a.57.57,0,0,0,0-.15s-.05-.05-.08-.06l-.06,0a.3.3,0,0,0,0,.08.93.93,0,0,0,0,.1.43.43,0,0,1,0,.07ZM18.4,25c-.09.07,0,.13,0,.17s.1,0,.15,0Zm-2.19.4-.1-.1s-.07.05-.07.08a.13.13,0,0,0,.06.09S16.16,25.45,16.21,25.42Zm1.56-.77c.06.07.12.08.17,0s0-.08,0-.09S17.82,24.6,17.77,24.65ZM20.7,12.92h.07l0-.17-.14,0ZM14.47,23.39l-.11.11.06.06.12-.11ZM14,22.88a.13.13,0,0,0,0,.18s.06,0,.07,0S14,22.93,14,22.88ZM11.38,15.2,11.24,15A.16.16,0,0,0,11.38,15.2Zm6.8,6.21c-.05.15,0,.21.13.22Zm1.41-13h-.22C19.48,8.55,19.5,8.55,19.59,8.42ZM14,22.75h.06l0-.18H14A1,1,0,0,1,14,22.75Zm.59-4.6,0,0a.16.16,0,0,0,.2.13Zm2,2.32.07.08s.06-.05.06-.07,0-.06-.05-.08Zm.95,2.71-.08-.07a.3.3,0,0,0-.08.08.15.15,0,0,0,.05.06Zm.52,1.69c-.05,0-.08-.05-.11-.05s0,0-.06.06,0,.05.08.06S18,24.91,18.09,24.87Zm7-9.38,0,0a.48.48,0,0,0,.09.11h.07s0-.06,0-.07Zm-9.59,5.67,0,0s.05.06.08.06.05,0,.08-.06v0Zm2.35.64v-.09a.32.32,0,0,0-.09,0,.11.11,0,0,0-.05.08s0,.06.05.06S17.84,21.81,17.87,21.8Zm.73.33-.06,0,0,.1.06.05Zm-3.73,1.59.05,0-.06-.11s0,0,0,.05S14.85,23.68,14.87,23.72ZM13.71,8.79v.05h.15V8.79ZM24,11.32l0,0,.11.18,0,0Zm-4.35,2v0l-.19,0C19.55,13.37,19.61,13.4,19.67,13.37ZM23,10.26l0,0-.1.06,0,.05ZM12.9,8.12l0,0L12.86,8l0,0Zm8.65,7.82v0h.11v0ZM16.87,25h0l0,.09h0A.29.29,0,0,0,16.87,25ZM20.06,3.38h0l0,.14h0ZM17.56,4c0,.13,0,.13.09.11ZM25,13.75l0,0,.07.07,0,0Zm-5.18,9.94,0,0-.07-.06,0,0ZM14,22.07v0H14a.1.1,0,0,0,0,0Zm11.14-7.39,0,0,.08-.07,0,0Zm-8,5.35h0v.07h0ZM16.56,2.79h0l0-.06h0A.13.13,0,0,0,16.56,2.79Zm-.28,21.3,0,0,0-.05,0,0Zm12.13-7.31s0,0,0,0,0,0,0,0,0,0,0,0S28.43,16.8,28.41,16.78ZM17,8.58h0l0-.05,0,0ZM10.05,7l0,0-.07,0V7Zm7.88,16.08s0,0,0,0l0,0,0,0Zm5.66-7.22v0h.08v0Zm-8.35,5.89s0,0,0,0l0,0,0,0ZM20,23.86h0v.07h0ZM12,6.74h0v0h0Zm10,5.7v0ZM18.9,24h0Zm4.77-7.85a0,0,0,0,0,0,0h0v0ZM16.36,2.58h0v0h0Zm-.85,23h0Zm1.93-6.06h0Zm-5.13.91h0Zm1,.2h0Zm9.56-10.13h0Z"/><path class="cls-3" d="M8.81,14.68a.45.45,0,0,1,0-.12c0-.12,0-.25,0-.37a.13.13,0,0,0-.12-.14l-.62-.13a.36.36,0,0,0-.14,0s-.07,0-.06.07.23.17.28.14.21,0,.29.05.11.16,0,.27l-.11,0a.29.29,0,0,1,0-.1.22.22,0,0,0-.19-.17c-.16,0-.33.09-.48,0H7.54s-.11,0-.14-.07S7.13,14,7,14s0,0,0,0a.21.21,0,0,1-.26,0L6.44,14a1.5,1.5,0,0,1-.32-.09,1.27,1.27,0,0,0-.41-.15c-.07,0-.12,0-.14.07a.11.11,0,0,1-.09.06s-.05,0-.07-.06l-.09-.06-.23-.06a1.37,1.37,0,0,0-.29,0c-.07,0-.13.06-.21.07l-.36.07a1.32,1.32,0,0,1,.2.32h.83c.07,0,.1,0,.09.07a.36.36,0,0,1,0,.11,1.55,1.55,0,0,0-.12.22s0,.08,0,.12.07,0,.09-.07a1.63,1.63,0,0,0,.11-.23,1,1,0,0,0,.07-.15s0-.09.07-.09a.13.13,0,0,1,.09.06c.09.12.16.24.24.35a.17.17,0,0,0,.29,0,.14.14,0,0,1,.11,0,.6.6,0,0,1,.42.16.26.26,0,0,0,.12.05l.54.18.1,0s0-.07,0-.08l-.37-.17a2,2,0,0,0-.21-.1,2.64,2.64,0,0,0-.47-.17c-.12,0-.14,0-.13-.14l.24.07.17,0a.65.65,0,0,0,.19,0c.11,0,.23,0,.34,0a6.33,6.33,0,0,1,1.19.45.39.39,0,0,0,.15,0H8.7C8.81,14.82,8.84,14.78,8.81,14.68Z"/><path class="cls-3" d="M5.08,13.79v0l0,0h0Z"/><path class="cls-3" d="M9.45,5.43l-.13,0,0,0,.46.38A.58.58,0,0,1,9.93,6c.09.13.17.27.25.4a.94.94,0,0,1,.09.12,1.09,1.09,0,0,1,.1.17l-.14,0-.3-.17a.11.11,0,0,0-.16.06c0,.09-.1.09-.16,0a2.09,2.09,0,0,1-.2-.22s-.07-.09-.06-.12,0-.15-.06-.22a2.06,2.06,0,0,1-.12-.26l.05,0A2.35,2.35,0,0,1,9.51,6a.25.25,0,0,1,0,.17.15.15,0,0,0,.16.16c.06,0,.11-.06.16-.09s0,0,0,0l-.3-.34a3.31,3.31,0,0,0-.27-.26.21.21,0,0,0-.14,0C9,5.61,9,5.57,9,5.42s0-.07,0-.11,0-.1,0-.15a.4.4,0,0,1,.15,0c.16,0,.32.13.49.18s.24.12.36,0,.07,0,.1,0a1,1,0,0,1,.18.13,0,0,0,0,0,0,0c.15-.16.14-.15.33,0a4.66,4.66,0,0,0,.53.32l.07,0c.08.09.14.08.2,0s.16-.07.26,0l.5.36.21.12a.06.06,0,0,0,.07,0s0,0,0-.07V6a.75.75,0,0,1,.16,0c.16.07.3.16.46.22a3.61,3.61,0,0,1,.53.33.28.28,0,0,0,.15.06c.06,0,.1,0,.1.08s0,.15-.1.15a.21.21,0,0,1-.13,0,3.55,3.55,0,0,0-.76-.47h0a.41.41,0,0,0-.17-.07c-.1,0,0,.1-.07.15s-.1.08-.17,0l-.44-.31-.37-.23c-.07,0-.09,0-.11.07s-.09.14-.19,0A.91.91,0,0,0,11.05,6l-.1,0-.48-.33c-.07,0-.12-.06-.16,0s-.09.09-.15,0l-.1-.09c-.05,0-.1,0-.14,0s-.12.07-.19,0a2.49,2.49,0,0,1-.28-.15Z"/><path class="cls-3" d="M16,19.47c0-.07,0-.13-.08-.19s0,0,0-.05l-.16-.58s0,0,0,0c.07-.2-.07-.35-.14-.51a2.34,2.34,0,0,0-.09-.24,2,2,0,0,0-.81-.78L14.48,17a1,1,0,0,0-.45-.09.33.33,0,0,1-.27-.17,1.17,1.17,0,0,0-.16-.15s0,0,0,0a.42.42,0,0,1,0-.16s.1,0,.12.05a.48.48,0,0,0,.3.26h.48s0,0,0,0a1.53,1.53,0,0,1,.3,0,1.41,1.41,0,0,1,.24.13l.12,0c.06,0,.11,0,.09.13s.05.14.09.21a3.28,3.28,0,0,0,.27.38c.13.19.28.37.42.55a.56.56,0,0,1,.05.08c.06.14.11.29.17.43a.18.18,0,0,0,.07.08c.09.07.17.15.11.29s0,0,0,0a1.26,1.26,0,0,1,0,.72.62.62,0,0,1-.14.23c0,.05-.14,0-.15-.09a.57.57,0,0,0-.18-.36c-.05,0-.05-.12-.07-.18Zm.09-.06c.18-.08.19-.08.16-.24a.68.68,0,0,0-.07-.2c-.05-.11-.1-.22-.16-.33s-.06,0-.08-.06a.18.18,0,0,0,0,.09s0,.06,0,.09a.94.94,0,0,1,.06.15Zm.28.43,0,0-.09.08.06,0S16.29,19.87,16.32,19.84Z"/><path class="cls-3" d="M7.71,13.87a.81.81,0,0,0-.43-.14.32.32,0,0,1-.14,0l-.46-.15a1.31,1.31,0,0,0-.55-.1l-.07,0a.92.92,0,0,0-.51-.15.4.4,0,0,1-.41-.18s0,0-.08-.05l-.17,0a.88.88,0,0,0-.27,0l-.54.11a.39.39,0,0,0-.29.24h.06a.94.94,0,0,1,.22-.12l.35,0s.1,0,.1,0,.18.15.28.22a.26.26,0,0,0,.27,0,.19.19,0,0,1,.1,0l.54.13c.22.05.45.08.68.14a3.3,3.3,0,0,1,.62.15,4,4,0,0,0,.52.17l.16,0s0,0,.08,0S7.74,13.88,7.71,13.87Z"/><path class="cls-3" d="M9.16,14.54l0,.15c0,.09-.06.11-.14.1s-.1,0-.08-.12a.89.89,0,0,0,0-.51S9,14.1,9,14.1a.29.29,0,0,1,.27.15,3.65,3.65,0,0,1,.24.31.15.15,0,0,1,0,.13s-.06.09-.09.09-.08,0-.12-.07Z"/><path class="cls-3" d="M5.66,14.33a.28.28,0,0,1-.07.3.83.83,0,0,1-.13.14.4.4,0,0,0-.12.35c0,.14,0,.28,0,.42s0,.08-.06.12-.08-.07-.09-.12,0-.26-.07-.4,0-.07,0-.1c0-.25.15-.36.29-.49Z"/><path class="cls-3" d="M14.67,21a.43.43,0,0,1-.16-.05s0-.08,0-.13a.8.8,0,0,0,0-.15.47.47,0,0,0-.06-.09s-.08-.11,0-.15a.33.33,0,0,1,.19,0c.06,0,.1.1.16.14s.24.18.35.28,0,.08,0,.13,0,0-.05,0A.33.33,0,0,1,15,21a1.14,1.14,0,0,0-.23-.15Q14.63,20.74,14.67,21Z"/><path class="cls-3" d="M16.37,14.43l.1-.06a.93.93,0,0,1,.2-.1c.16,0,.25-.17.37-.26s0-.06.06-.09a1.7,1.7,0,0,1,.22-.15s.08,0,.08,0,0,.12,0,.14a1,1,0,0,1-.2.16l-.12.08-.31.18a1.76,1.76,0,0,0-.2.09A.17.17,0,0,1,16.37,14.43Z"/><path class="cls-3" d="M23,12.57c-.09,0-.12,0-.15-.11s-.06-.18-.16-.21l0,0c0-.15,0-.29,0-.45A1.42,1.42,0,0,1,23,12.57Z"/><path class="cls-3" d="M17.28,7.91l.13-.12.1-.1.11-.08s.06,0,.06.07a.35.35,0,0,1-.06.14c-.05,0-.13.08-.17.13a.68.68,0,0,0-.09.17l-.08.09a.34.34,0,0,1-.08-.09.07.07,0,0,1,0,0c0-.09,0-.15.11-.13Z"/><path class="cls-3" d="M24.73,12.47l.09,0a.76.76,0,0,1,.09.09.33.33,0,0,1-.1.06l-.28.07h-.09a.34.34,0,0,1,0-.1c0-.08.09-.15.13-.22s.08-.05.11,0l.05.06Z"/><path class="cls-3" d="M22.37,12.28l.1.09c.09-.06.14,0,.17.06a.59.59,0,0,1,0,.14c0,.06,0,.1-.09,0s-.15,0-.17.08l0,0A.49.49,0,0,1,22.37,12.28Z"/><path class="cls-3" d="M15.16,18.08a1.29,1.29,0,0,1-.45-.45C15,17.69,15.17,17.9,15.16,18.08Z"/><path class="cls-3" d="M23.47,13.13s0,.09-.06.1a.08.08,0,0,1-.08,0,.77.77,0,0,1-.1-.18l-.06-.14s0-.05,0-.06h0A3.88,3.88,0,0,1,23.47,13.13Z"/><path class="cls-3" d="M14.37,21.36s0,0-.08,0a.41.41,0,0,1-.26-.22s.06-.07.06-.07l.26.21S14.36,21.33,14.37,21.36Z"/><path class="cls-3" d="M27.71,12.84c-.05,0-.08.1-.12.1s-.12,0-.12-.07.08-.17.13-.16S27.66,12.78,27.71,12.84Z"/><path class="cls-3" d="M22.81,13c-.14,0-.2-.06-.18-.16a.13.13,0,0,1,.08-.07C22.8,12.74,22.84,12.85,22.81,13Z"/><path class="cls-3" d="M4.51,13.59l-.11-.13.16-.12.07.08A1.1,1.1,0,0,1,4.51,13.59Z"/><path class="cls-3" d="M13.43,20.06l.14.1a.35.35,0,0,1-.14.06c-.06,0-.11,0-.17-.07Z"/><path class="cls-3" d="M12.29,20a.24.24,0,0,1,.3,0c-.06.11-.2.1-.3,0Z"/><path class="cls-3" d="M12.79,20.13l.33,0a.09.09,0,0,1,.06,0s0,0,0,0A.35.35,0,0,1,12.79,20.13Z"/><path class="cls-3" d="M26.28,12.37l.11.12a.46.46,0,0,1-.14.07s-.05,0-.08-.06Z"/><path class="cls-3" d="M4.24,13.62l-.1-.1s.08-.06.13-.06.06,0,.1.07Z"/><path class="cls-3" d="M20.72,7.79c0,.07.08.1.08.14s-.05.05-.07.08-.08-.06-.09-.1S20.68,7.85,20.72,7.79Z"/><path class="cls-3" d="M9.18,6.4c.05,0,.09.06.08.07a1,1,0,0,1-.09.13s-.07-.06-.07-.08S9.15,6.45,9.18,6.4Z"/><path class="cls-3" d="M6.58,13.88l-.15-.05s0-.08,0-.08.13,0,.14.08Z"/><path class="cls-3" d="M13.12,18.7c-.07-.07-.08-.13,0-.19s.05,0,.06,0S13.17,18.64,13.12,18.7Z"/><path class="cls-3" d="M10.81,6.25l-.12-.15,0,0a.21.21,0,0,1,.11,0s0,.07,0,.11Z"/><path class="cls-3" d="M6.7,13.8l.08.11s0,.06,0,.05l-.1-.07Z"/><path class="cls-3" d="M26.94,14.27l-.07-.14,0,0s.08,0,.09.06,0,.07,0,.1Z"/><path class="cls-3" d="M11.67,14.66l-.16-.05,0-.06.16,0Z"/><path class="cls-3" d="M26.18,14.17l-.06.05L26,14.14l0,0Z"/><ellipse class="cls-3" cx="12.59" cy="7.22" rx="0.03" ry="0.1"/><path class="cls-3" d="M16.68,8.34l0-.11h.05a.5.5,0,0,1,0,.12Z"/><path class="cls-3" d="M25.93,12.91s-.06.05-.08,0a0,0,0,0,1,0-.1S25.89,12.88,25.93,12.91Z"/><path class="cls-3" d="M16.15,14.59l.12-.07,0,0-.12.08Z"/><path class="cls-3" d="M13.5,7.22l.1,0,0,.07-.08-.06Z"/><path class="cls-3" d="M11.06,6.26v.12C11,6.34,11,6.33,11.06,6.26Z"/><path class="cls-3" d="M12.87,6.63l0,0,0,0a.08.08,0,0,1,0,0S12.89,6.61,12.87,6.63Z"/><path class="cls-3" d="M17.81,7.58h.11s-.05.07-.07.07,0,0-.06,0Z"/><path class="cls-3" d="M11.9,14.69h-.09v0h.08Z"/><path class="cls-3" d="M16.49,20.17l0,0-.05,0,0,0S16.46,20.16,16.49,20.17Z"/><path class="cls-3" d="M14.49,17.52s0,0,0,0a0,0,0,0,1,0,0s0,0,0,0Z"/><path class="cls-3" d="M22.17,10.89v-.06h0v.06Z"/><path class="cls-3" d="M16.34,26.71l0,0s0,0,0,0,0,0,0,0Z"/><path class="cls-3" d="M14,7.7l0,0h0l0,0Z"/><path class="cls-3" d="M24,12.09A.43.43,0,0,1,24,12h0v.05Z"/><path class="cls-3" d="M10.84,16.64l0,0v0l0,0Z"/><path class="cls-3" d="M15.4,18.32h0Z"/><path class="cls-3" d="M15.05,22.88h0Z"/><path class="cls-3" d="M12.46,7h0Z"/><path class="cls-3" d="M14.07,15h0Z"/><path class="cls-3" d="M26.66,13.51h0Z"/><path class="cls-3" d="M24.27,12.43Z"/><polygon class="cls-3" points="14.44 20.72 14.43 20.73 14.43 20.72 14.44 20.72"/><polygon class="cls-3" points="14.18 6.86 14.18 6.87 14.18 6.86 14.18 6.86"/><polygon class="cls-3" points="17.22 2.79 17.23 2.8 17.22 2.8 17.22 2.79"/><path class="cls-3" d="M11.76,7.05h0Z"/><polygon class="cls-3" points="13.01 18.16 13.02 18.17 13.01 18.16 13.01 18.16"/><polygon class="cls-3" points="11.76 20.01 11.76 20.01 11.76 20.01 11.76 20.01"/><path class="cls-3" d="M11.76,7.05Z"/><path class="cls-3" d="M16,19.85Z"/><polygon class="cls-3" points="16.02 19.85 16.03 19.85 16.02 19.85 16.02 19.85"/><path class="cls-3" d="M13.91,19.49h0Z"/><path class="cls-3" d="M13.91,20.43Z"/><polygon class="cls-3" points="10.69 7.05 10.69 7.05 10.69 7.05 10.69 7.05"/><path class="cls-3" d="M12.29,20Z"/><path class="cls-3" d="M9.45,5.43Z"/><polygon class="cls-3" points="13.34 22.67 13.34 22.68 13.34 22.67 13.34 22.67"/><path class="cls-3" d="M21.93,12Z"/><path class="cls-3" d="M24.73,12.48h0Z"/><path class="cls-3" d="M24.35,17.87h0Z"/><path class="cls-3" d="M13.36,16.67Z"/><path class="cls-3" d="M25.6,16.42s0,.09-.05.1-.06,0-.09,0-.11-.17-.12-.28.08-.05.08,0S25.54,16.34,25.6,16.42Z"/><path class="cls-3" d="M26.88,15.44c.1,0,.23.12.22.19s0,.07-.05.06a.73.73,0,0,1-.22-.09.09.09,0,0,1,0-.1S26.87,15.45,26.88,15.44Z"/><path class="cls-3" d="M25.76,16.66c0-.06,0-.13,0-.15s.1,0,.15,0l-.05.19,0,.13c-.05,0-.11,0-.13,0S25.77,16.7,25.76,16.66Z"/><path class="cls-3" d="M25.48,16.68c-.06,0-.09.06-.13.06s-.06,0-.05-.07a.08.08,0,0,1,.07-.07S25.43,16.64,25.48,16.68Z"/><path class="cls-3" d="M27,17.18h-.06l0,0,0,.05Z"/><path class="cls-3" d="M25,16.33l0,0h0v0Z"/><path class="cls-3" d="M27,17.19h0l0,0Z"/><path class="cls-3" d="M22.48,14.39c0,.08.13.13.07.25s-.06.08-.13,0a.67.67,0,0,0-.15-.06l0,0,.1.11-.23.25c-.06.05-.11,0-.14,0s-.06-.08-.09-.11a.44.44,0,0,0-.56-.19s-.12-.05-.12-.08a.18.18,0,0,1,.08-.13.52.52,0,0,1,.18,0h.15v0l-.22-.14-.3-.11c-.09,0-.17-.08-.25,0s-.27,0-.3,0a.2.2,0,0,1,0-.13s.05-.07.07-.07a.2.2,0,0,1,.08.08.11.11,0,0,0,.19,0,.28.28,0,0,1,.4,0,.39.39,0,0,0,.11.06c.17,0,.25.18.38.27l.29.17s.06,0,.08,0a.13.13,0,0,1,.17,0S22.42,14.39,22.48,14.39Zm-.28.36s0-.05-.06-.06a1.84,1.84,0,0,0-.25-.09s-.06,0-.06,0,0,.07,0,.08l.23.15C22.15,14.9,22.2,14.86,22.2,14.75Z"/><path class="cls-3" d="M21.66,15l.22,0c.06,0,.08,0,.06.09a.27.27,0,0,0,0,.15.1.1,0,0,1-.07.15,3.68,3.68,0,0,1-.47.15.31.31,0,0,1-.19,0,.17.17,0,0,1-.05-.13l.08-.05a1.17,1.17,0,0,1,.2-.06h.2l.14,0a.09.09,0,0,0,0-.09s-.05,0-.07,0h-.12l0-.13Z"/><path class="cls-3" d="M20.82,15.1s-.09,0-.1,0a.85.85,0,0,1-.06-.17s.11,0,.12,0a.58.58,0,0,1,0,.19Z"/><path class="cls-3" d="M20.87,13.8l-.12.06a.77.77,0,0,1-.07-.16s0,0,.05-.07Z"/><path class="cls-3" d="M21,14.32l.16,0s0,.06,0,.07a.09.09,0,0,1-.09,0s-.07-.07-.11-.1Z"/><path class="cls-3" d="M21.09,13.42a.12.12,0,0,1,.17,0s0,.05,0,.07l-.16,0Z"/><path class="cls-3" d="M20.75,14.45l.11.11s0,0,0,.08-.06,0-.07,0l-.05-.12Z"/><path class="cls-3" d="M21.35,15.27l-.08-.1.09-.05s.06,0,.06,0S21.38,15.22,21.35,15.27Z"/><path class="cls-3" d="M21,13.63l.1,0,0,.05-.09,0Z"/><path class="cls-3" d="M21,13.49l-.09.09,0,0,.1-.09Z"/><path class="cls-3" d="M20.64,14.55l-.07,0,0-.06.07,0Z"/><path class="cls-3" d="M21,15.05h-.09v0H21Z"/><path class="cls-3" d="M21.67,14l0,0s0,0,0,0,0,0,0,0Z"/><path class="cls-3" d="M21.61,13.4s0,0,0,0l0,0,0,0S21.62,13.39,21.61,13.4Z"/><polygon class="cls-3" points="21.95 14.18 21.95 14.17 21.96 14.17 21.96 14.18 21.95 14.18"/><path class="cls-3" d="M20.82,15.1Z"/><path class="cls-3" d="M22.29,16.48c-.05-.08-.09-.18-.22-.13v0l.14-.1.05-.07a.18.18,0,0,0-.07,0s-.1,0-.14,0a.19.19,0,0,1-.1-.1s0-.08.07-.12a.1.1,0,0,1,0,0s.05,0,.07,0,0,0,0,.06.05.16.1.18a.25.25,0,0,0,.2-.05c.07-.06.17-.1.15-.23s0,0,0,0,0,0,0,0a.31.31,0,0,1,0,.09h0l.15.05-.12.08a.18.18,0,0,1-.07.05,1.43,1.43,0,0,1-.24.19c-.16.09-.16.08-.09.25h-.07Z"/><path class="cls-3" d="M23.16,16.81l.12,0s0,.09,0,.13,0,.21-.08.32a.81.81,0,0,1,0,.11l.15.11-.16.07c0,.06.1.15,0,.21a.16.16,0,0,1-.13,0c-.06-.1,0-.15.09-.2s-.07,0-.08-.06-.07-.09-.06-.13.11-.31.17-.47Z"/><path class="cls-3" d="M23.21,18.24c-.13,0-.19-.1-.17-.22S23,18,23,17.94s0,0,0,.08l0,.46c-.1,0-.15-.1-.11-.17a.31.31,0,0,0,0-.32c0-.11,0-.16.1-.19l.07,0c.07-.05.1,0,.14,0s.06.06.09.1.07,0,.07.06A2.6,2.6,0,0,1,23.21,18.24Z"/><path class="cls-3" d="M22.67,17.46c0,.05-.05.1-.08.14s-.08,0-.13,0h-.09a.1.1,0,0,1-.08-.15.52.52,0,0,1,.06-.13c0-.08.1-.08.16,0l.08.06Z"/><path class="cls-3" d="M22.27,16.65s-.05,0-.06,0l-.08-.1.12,0,0,0h0c.07.12.09.27.25.31s.09.1,0,.21-.09,0-.11-.09-.12-.11-.2,0v-.21Z"/><path class="cls-3" d="M23.91,16.44c.1,0,.14.06.18.13a.15.15,0,0,1,0,.21s-.07,0-.08,0a.33.33,0,0,1-.07-.13A.75.75,0,0,1,23.91,16.44Z"/><path class="cls-3" d="M24,16.92c.05-.05.07-.09.1-.09a.13.13,0,0,1,.1.06c0,.08.06.15.16.16a.08.08,0,0,1,0,0s0,.05-.05.05a.11.11,0,0,1-.08,0c0-.06-.08-.06-.14-.08A.79.79,0,0,1,24,16.92Z"/><path class="cls-3" d="M24.56,16.64c0,.08.16.13.06.22s-.19,0-.21,0S24.53,16.73,24.56,16.64Z"/><path class="cls-3" d="M22.6,17.14l-.12.09a.71.71,0,0,1-.1-.14s.05-.05.06,0A.68.68,0,0,1,22.6,17.14Z"/><path class="cls-3" d="M22.53,16.44l.11.11s-.06.06-.09.05-.07,0-.1-.06Z"/><path class="cls-3" d="M23.47,18.16l-.11.08s-.05,0,0-.07a.43.43,0,0,1,.09-.1Z"/><path class="cls-3" d="M23.46,17.81l-.08.1s-.06-.06-.06-.09,0-.07.06-.1Z"/><path class="cls-3" d="M22.52,15.66l-.17.1-.05,0,.16-.11Z"/><path class="cls-3" d="M22.77,17.22a1.18,1.18,0,0,1-.08-.16l.06,0,.07.11A.45.45,0,0,1,22.77,17.22Z"/><path class="cls-3" d="M23.47,17.22l-.07.07a.53.53,0,0,1-.06-.1s0-.05.05-.08Z"/><path class="cls-3" d="M24.5,17.11l.13,0v.07H24.5Z"/><path class="cls-3" d="M22.81,17.29a.17.17,0,0,1,0,.07h0s0,0,0-.06Z"/><path class="cls-3" d="M24.36,16.64s0,0,0,0,0,0,0,0l0,0Z"/><path class="cls-3" d="M22.36,16.47h0Z"/><path class="cls-3" d="M22.22,17.54Z"/><path class="cls-3" d="M23.16,16.81Z"/><path class="cls-3" d="M22.27,16.65Z"/><path class="cls-3" d="M19.51,4.76h.41a.09.09,0,0,1,.07.06.1.1,0,0,1,0,.07c-.11,0-.21.11-.33.05s-.16,0-.23.07a3.54,3.54,0,0,1-.33.19s-.06,0-.06,0a.16.16,0,0,1,0-.12,3.79,3.79,0,0,1,.4-.3s.07,0,.1,0Z"/><path class="cls-3" d="M20.15,4.08s0-.08.07-.09a.22.22,0,0,1,.11,0,.36.36,0,0,1,.07.1.5.5,0,0,1,0,.13h-.18c-.09.09-.16.18-.24.27s-.06,0-.09,0,0-.07,0-.09l.22-.29a.25.25,0,0,0,0-.07Z"/><path class="cls-3" d="M19.88,4.57a.42.42,0,0,1-.12.08s-.09-.05-.09-.08,0-.09.08-.09.08,0,.13,0Z"/><path class="cls-3" d="M20.25,4.47h0Z"/><path class="cls-3" d="M15.91,4.62a1.59,1.59,0,0,1-.08.18.07.07,0,0,1-.13,0,.35.35,0,0,0-.17-.19.2.2,0,0,1-.1-.12s0-.08,0-.13.12,0,.14,0,.11.16.23.15S15.88,4.59,15.91,4.62Z"/><path class="cls-3" d="M16.38,3.14a1.55,1.55,0,0,1-.23-.06s0-.07-.06-.11a.4.4,0,0,1,.15,0,.18.18,0,0,1,.14.2Z"/><path class="cls-3" d="M15.94,3.34c.05,0,.07-.1.1-.1s.12,0,.12.1,0,.12-.1.11S16,3.39,15.94,3.34Z"/><path class="cls-3" d="M16.11,5c-.05,0-.08.07-.1.07s-.08-.11-.11-.17,0,0,0,0Z"/><path class="cls-3" d="M16.37,3.87a.18.18,0,0,1,.22.07V4s-.05,0-.06,0A1.31,1.31,0,0,1,16.37,3.87Z"/><path class="cls-3" d="M16,2.91l-.06-.11.06,0a.33.33,0,0,1,.06.1Z"/><path class="cls-3" d="M16.69,4.94s0,0,0,.07,0,0-.05,0l0,0S16.66,5,16.69,4.94Z"/><path class="cls-3" d="M14.83,19.34l-.16,0a.38.38,0,0,0-.15,0c-.12,0-.14-.07-.17-.15s0-.14.08-.2a.28.28,0,0,1,0,.08c0,.11.06.14.18.13S14.81,19.19,14.83,19.34Z"/><path class="cls-3" d="M14.4,18.78s0,.07-.06.08-.07,0-.07,0a.55.55,0,0,1,0-.18h.05l.07.16Z"/><polygon class="cls-3" points="14.8 19.67 14.8 19.68 14.8 19.67 14.8 19.67"/><path class="cls-3" d="M15.56,20.38Z"/><polygon class="cls-3" points="14.4 18.79 14.4 18.78 14.4 18.78 14.4 18.79"/><path class="cls-3" d="M19.3,9.11s0,.05,0,.06L19,9.23a.07.07,0,0,1-.05,0,.07.07,0,0,1,0-.07.56.56,0,0,1,.18-.07S19.26,9.09,19.3,9.11Z"/><path class="cls-3" d="M19.44,8.89l.08.13-.08,0-.06-.14Z"/><path class="cls-3" d="M18.91,9.25s-.06.06-.09.06l-.06,0,.07-.06S18.87,9.23,18.91,9.25Z"/><path class="cls-3" d="M18.72,9l-.08.07,0,0L18.68,9Z"/><path class="cls-3" d="M18.51,9.31l-.08-.07.06,0,.07.08Z"/><path class="cls-3" d="M17.9,9.3l-.07,0,0,0,.07,0Z"/><path class="cls-3" d="M24.91,15.23Z"/><path class="cls-3" d="M24.91,15.23Z"/><path class="cls-3" d="M19.32,4c-.06,0-.11.09-.12.08a.52.52,0,0,1-.1-.11s0-.06.07-.06Z"/><path class="cls-3" d="M19.4,3.84v0h0v0Z"/><path class="cls-3" d="M17.87,4.85Z"/><path class="cls-3" d="M23.14,8.38s-.06-.06-.06-.09,0,0,.05-.07a.6.6,0,0,1,.08.08Z"/><path class="cls-3" d="M21.23,8.46l.09,0,0,.06-.09,0Z"/><path class="cls-3" d="M16.66,21.3h0v0h0Z"/><path class="cls-3" d="M17.27,24.33a1.76,1.76,0,0,1,.2-.09s.08.05.11.08-.06.08-.1.09a.84.84,0,0,1-.2-.05Z"/><polygon class="cls-3" points="17.45 24.52 17.45 24.51 17.45 24.52 17.45 24.52"/><path class="cls-3" d="M12,7.78a.44.44,0,0,1,.09.11s-.05.05-.05,0l-.09-.08S12,7.82,12,7.78Z"/><path class="cls-3" d="M18.44,23.64c-.05.09-.1.11-.17.08s0,0,0-.06A.15.15,0,0,1,18.44,23.64Z"/><path class="cls-3" d="M17.52,22.86s-.07.05-.1.05a.48.48,0,0,0-.3.11s-.26,0-.28-.09l.06-.06c.11.05.19,0,.27-.08a.22.22,0,0,1,.3,0Z"/><polygon class="cls-3" points="17.09 22.32 17.09 22.32 17.09 22.32 17.09 22.32"/><polygon class="cls-3" points="19.09 21.81 19.1 21.81 19.09 21.81 19.09 21.81"/><path class="cls-3" d="M25.47,15.1Z"/><path class="cls-3" d="M14.8,24.54h0Z"/><path class="cls-3" d="M23.47,15.1Z"/><path class="cls-3" d="M19.18,25.49s-.06.06-.07.05,0,0-.06-.06,0,0,.06,0S19.15,25.47,19.18,25.49Z"/><polygon class="cls-3" points="14.25 22.16 14.25 22.16 14.25 22.16 14.25 22.16"/><path class="cls-3" d="M20.42,9h0Z"/><path class="cls-3" d="M20.42,9h0Z"/><path class="cls-3" d="M19.89,22.7Z"/><path class="cls-3" d="M19.93,3.68Z"/><polygon class="cls-3" points="19.76 24.65 19.75 24.65 19.76 24.65 19.76 24.65"/><polygon class="cls-3" points="19.76 24.65 19.76 24.65 19.76 24.65 19.76 24.65"/><polygon class="cls-3" points="26.16 15.94 26.15 15.94 26.16 15.94 26.16 15.94"/><path class="cls-3" d="M18.33,21.3Z"/></g></g></svg>