<svg xmlns="http://www.w3.org/2000/svg" viewBox="0 0 16.88 19.71"><defs><style>.cls-1{fill:#4e81c2;}</style></defs><g id="Layer_2" data-name="Layer 2"><g id="HEADER"><path class="cls-1" d="M16.81,19.61l-.14.1H.22l-.07-.05C0,19.59,0,19.52,0,19.39s0-.06,0-.09a.08.08,0,0,0,0-.07c0-.14,0-.28,0-.43a.88.88,0,0,0,0-.28.59.59,0,0,1,0-.14c0-.05,0-.1,0-.15s0-.05,0-.07,0-.31,0-.46a.74.74,0,0,0,0-.21c0-.06,0-.11,0-.17a.33.33,0,0,1,0-.17c0-.07,0-.14,0-.21a1.67,1.67,0,0,0,0-.32s0-.08,0-.13,0-.09,0-.13,0-.06,0-.09a.82.82,0,0,1,0-.22c0-.07,0-.14,0-.22a.72.72,0,0,0,0-.21.41.41,0,0,1,0-.16s0-.1,0-.14,0,0,0,0a.75.75,0,0,1,0-.26c0-.08,0-.16,0-.24s0-.06,0-.09a.9.9,0,0,1,0-.23c0-.07,0-.14,0-.21s0-.06,0-.09a2.61,2.61,0,0,1,0-.4,2.29,2.29,0,0,0,0-.25.77.77,0,0,0,0-.15s0-.11,0-.15a.74.74,0,0,0,0-.21,1.1,1.1,0,0,0,0-.18c0-.05,0-.12,0-.17s0-.14,0-.21a1.67,1.67,0,0,0,0-.32.69.69,0,0,1,0-.13s0-.09,0-.13a.59.59,0,0,0,0-.23.59.59,0,0,1,0-.14c0-.05,0-.1,0-.15s0-.05,0-.07a1.88,1.88,0,0,1,0-.41,1.5,1.5,0,0,0,0-.22,1.53,1.53,0,0,1,0-.3,1.07,1.07,0,0,0,0-.25,1.51,1.51,0,0,0,0-.3.34.34,0,0,0,0-.2c0-.11,0-.22,0-.34s0-.17,0-.26a.77.77,0,0,0,0-.15.75.75,0,0,1,0-.15c0-.07,0-.15,0-.21s0-.22,0-.33a1.64,1.64,0,0,1,0-.22,1.51,1.51,0,0,0,0-.3.78.78,0,0,1,0-.14s0-.09,0-.13,0,0,0-.05a.7.7,0,0,1,0-.25C1,7,1,6.9,1,6.82a.59.59,0,0,0,0-.23s0-.09,0-.14,0-.09,0-.13,0-.05,0-.07a1,1,0,0,1,0-.25c0-.07,0-.15,0-.22a.81.81,0,0,0,0-.22.37.37,0,0,1,.08-.24.35.35,0,0,1,.23-.12H3.87a1.42,1.42,0,0,0,0-.2c0-.07.06-.13,0-.2S4,4.68,4,4.6s0-.07,0-.11a.65.65,0,0,1,0-.2A2.41,2.41,0,0,0,4.18,4l.09-.24c0-.07.05-.14.07-.21s.11-.28.17-.41A.66.66,0,0,1,4.6,3c0-.06.05-.11.07-.17a.3.3,0,0,0,.07-.15A3.13,3.13,0,0,0,5,2.33c.11-.18.22-.35.34-.52l.09-.13.27-.32c.11-.12.22-.24.33-.34a4.54,4.54,0,0,1,.6-.46C6.72.48,6.86.39,7,.32S7.2.24,7.29.2s.28-.08.42-.13.07,0,.11,0A.34.34,0,0,1,8,0c.11,0,.2,0,.31,0h.3a1.49,1.49,0,0,0,.21,0c.07,0,.13,0,.19,0s.17.05.26.05h0c.12.05.24.07.35.12l.16.07A1.4,1.4,0,0,0,9.94.4a2.47,2.47,0,0,1,.44.27,2.69,2.69,0,0,1,.37.3c.05.06.12.1.17.16a4,4,0,0,1,.28.3c.12.14.24.28.34.42s.17.26.25.39l.21.35.09.2a.52.52,0,0,1,.09.2.43.43,0,0,0,0,.07,1.53,1.53,0,0,1,.11.27c.06,0,0,.12.08.15s.05.11.06.17,0,.06,0,.09,0,.07,0,.11a.56.56,0,0,0,0,.12c0,.14.09.26.12.4a2,2,0,0,0,.06.23.19.19,0,0,1,0,.08s0,0,0,.05,0,0,0,0,0,.16.05.25a.55.55,0,0,0,0,.17h2.46a.32.32,0,0,1,.22.07.45.45,0,0,1,.1.13.41.41,0,0,1,0,.22c0,.12,0,.24,0,.36s0,.17,0,.26a1.33,1.33,0,0,0,0,.28.62.62,0,0,1,0,.19c0,.11,0,.22,0,.33s0,.17,0,.26a1,1,0,0,0,0,.17s0,.11,0,.16,0,0,0,.08,0,.29,0,.43a2,2,0,0,0,0,.25c0,.1,0,.2,0,.3s0,.13,0,.19a1.53,1.53,0,0,1,0,.37c0,.07,0,.16,0,.23a.59.59,0,0,1,0,.23.58.58,0,0,0,0,.14c0,.05,0,.1,0,.15s0,.06,0,.08a3,3,0,0,0,0,.42.37.37,0,0,1,0,.18,1.41,1.41,0,0,0,0,.2c0,.06,0,.13,0,.19a.59.59,0,0,1,0,.23.58.58,0,0,0,0,.14c0,.05,0,.1,0,.15s0,0,0,.06a.75.75,0,0,0,0,.26c0,.08,0,.16,0,.24s0,.1,0,.16a2,2,0,0,1,0,.35c0,.06,0,.13,0,.2a1.11,1.11,0,0,0,0,.17.61.61,0,0,0,0,.19,1.23,1.23,0,0,1,0,.19,2,2,0,0,1,0,.34,1,1,0,0,1,0,.17.51.51,0,0,1,0,.17,1.09,1.09,0,0,0,0,.18s0,.08,0,.13a.15.15,0,0,0,0,.13.27.27,0,0,1,0,.09,2.42,2.42,0,0,0,0,.38.41.41,0,0,1,0,.19.71.71,0,0,0,0,.2s0,.12,0,.18,0,.06,0,.09a.59.59,0,0,0,0,.23c0,.08,0,.16,0,.23a.34.34,0,0,1,0,.2c0,.05,0,.1,0,.16a.3.3,0,0,0,0,.16s0,0,0,.06,0,.3,0,.45a1.94,1.94,0,0,0,0,.24c0,.11,0,.22,0,.33a1.23,1.23,0,0,0,0,.2,1.77,1.77,0,0,1,0,.32.68.68,0,0,1,0,.14.69.69,0,0,0,0,.13s0,.06,0,.08a.9.9,0,0,0,0,.23c0,.07,0,.14,0,.21a.27.27,0,0,1,0,.09,1.1,1.1,0,0,0,0,.26.32.32,0,0,1,0,.16ZM.63,19.1H16.19l.06,0s0-.07,0-.09,0-.1,0-.14a.8.8,0,0,1,0-.15.54.54,0,0,0,0-.22c0-.07,0-.13,0-.19a1.36,1.36,0,0,1,0-.2.65.65,0,0,0,0-.19c0-.1,0-.21,0-.32s0-.13,0-.19a.38.38,0,0,1,0-.15.39.39,0,0,1,0-.15c0-.15,0-.29,0-.44h0c0-.08,0-.17,0-.25a2.17,2.17,0,0,1,0-.26s0,0,0-.05,0-.11,0-.16,0-.1,0-.15a.45.45,0,0,0,0-.23c0-.07,0-.13,0-.2a.79.79,0,0,1,0-.22.26.26,0,0,0,0-.15c0-.11,0-.22,0-.34s0-.12,0-.18,0-.17,0-.26a.72.72,0,0,0,0-.21c0-.08,0-.15,0-.22a.82.82,0,0,1,0-.22s0-.07,0-.09,0-.1,0-.16a.77.77,0,0,1,0-.15,1.1,1.1,0,0,0,0-.26.33.33,0,0,1,0-.14.68.68,0,0,1,0-.14l0-.45s0,0,0,0,0-.11,0-.17,0-.12,0-.19a.9.9,0,0,0,0-.23,1.94,1.94,0,0,1,0-.34,1.5,1.5,0,0,0,0-.2,1.18,1.18,0,0,1,0-.27,2.26,2.26,0,0,0,0-.26,1.56,1.56,0,0,1,0-.43s0,0,0-.06,0-.11,0-.16a.26.26,0,0,1,0-.15.74.74,0,0,0,0-.21s0-.08,0-.12,0-.08,0-.12a1.22,1.22,0,0,0,0-.27c0-.09,0-.18,0-.27s0-.21,0-.32,0-.14,0-.22,0-.11,0-.17a.88.88,0,0,0,0-.17c0-.07,0-.15,0-.21a1.56,1.56,0,0,0,0-.31c0-.08,0-.16,0-.24a3,3,0,0,1,0-.42s0-.06,0-.08a.14.14,0,0,1,0-.11s0-.08,0-.12a1.76,1.76,0,0,0,0-.23,1.5,1.5,0,0,0,0-.22l0,0h-2l-.09,0s0,0,0,0a.58.58,0,0,1,0,.19.17.17,0,0,0,0,.07.78.78,0,0,1,0,.26s0,0,0,.06a.88.88,0,0,1,0,.32s0,0,0,.06,0,.07,0,.11a.5.5,0,0,1,0,.12c0,.11,0,.23,0,.34a3,3,0,0,1,0,.43v.09l.15.15a.38.38,0,0,1,.09.17s0,0,0,.08v.17s0,.1,0,.13,0,.07,0,.11l-.15.16A.56.56,0,0,1,13,9a.55.55,0,0,1-.18,0c-.06,0-.09-.06-.15,0s0,0-.06,0l-.06,0c-.08,0-.11-.11-.16-.18a.34.34,0,0,1-.06-.24V8.37a.49.49,0,0,1,.2-.4l.08-.06a3.17,3.17,0,0,0,0-.44,1.53,1.53,0,0,0,0-.3,1.93,1.93,0,0,0,0-.24,1,1,0,0,1,0-.3s0-.06,0-.07,0-.08,0-.13,0-.09,0-.13,0-.07,0-.09a1.08,1.08,0,0,1,0-.19.38.38,0,0,0-.05-.21h-8l0,0a.51.51,0,0,0,0,.17s0,.06,0,.08a.53.53,0,0,0,0,.25v0s0,.1,0,.14v.16s0,.05,0,.07a.79.79,0,0,0,0,.2,1.62,1.62,0,0,1,0,.31,1.64,1.64,0,0,0,0,.22c0,.13,0,.26,0,.39A1.19,1.19,0,0,1,4.39,8a1.59,1.59,0,0,1,.14.26v.28a1.38,1.38,0,0,1-.08.17.41.41,0,0,1-.12.14.78.78,0,0,1-.15.1C4.12,9,4.08,9,4,9H3.83c-.08,0-.16-.06-.22-.1a.58.58,0,0,1-.17-.18.64.64,0,0,1-.09-.22V8.27a1.21,1.21,0,0,1,.2-.3.86.86,0,0,1,0-.16,1,1,0,0,1,0-.34,2,2,0,0,1,0-.34.42.42,0,0,1,0-.22,1.51,1.51,0,0,0,0-.3.17.17,0,0,1,0-.07.9.9,0,0,0,0-.28s0,0,0,0,0-.08,0-.12,0-.08,0-.12,0,0,0-.06,0-.08,0-.1h-2l0,0a1.36,1.36,0,0,0,0,.2v.22h0c-.05.06,0,.13,0,.19a.66.66,0,0,0,0,.2s0,.09,0,.12,0,.15,0,.22a.7.7,0,0,0,0,.25s0,0,0,.07,0,.09,0,.13a.78.78,0,0,0,0,.14,1.51,1.51,0,0,1,0,.3,1.94,1.94,0,0,0,0,.24c0,.1,0,.2,0,.3a1.79,1.79,0,0,0,0,.24,3.11,3.11,0,0,0,0,.43s0,.06,0,.08,0,.14,0,.21a.5.5,0,0,0,0,.21c0,.05,0,.1,0,.15a3,3,0,0,0,0,.31.49.49,0,0,1,0,.24,2.68,2.68,0,0,0,0,.4s0,.06,0,.08,0,.09,0,.14a.66.66,0,0,0,0,.15.54.54,0,0,1,0,.22c0,.05,0,.09,0,.14s0,.08,0,.13a1.13,1.13,0,0,1,0,.26c0,.08,0,.16,0,.24a.41.41,0,0,0,0,.19c0,.06,0,.11,0,.17a1.36,1.36,0,0,1,0,.2c0,.05,0,.11,0,.16a1,1,0,0,1,0,.17,1.93,1.93,0,0,1,0,.24,2.69,2.69,0,0,0,0,.4s0,.07,0,.09,0,.15,0,.23a.59.59,0,0,0,0,.23s0,.07,0,.09,0,.12,0,.17a.65.65,0,0,0,0,.19c0,.05,0,.11,0,.15s0,.15,0,.23a.88.88,0,0,0,0,.23s0,.06,0,.08,0,.1,0,.14a.8.8,0,0,0,0,.15.7.7,0,0,1,0,.25s0,.08,0,.12a.5.5,0,0,1,0,.12,1.77,1.77,0,0,1,0,.32,1.65,1.65,0,0,1,0,.21.48.48,0,0,0,0,.17c0,.06,0,.11,0,.16a1.23,1.23,0,0,1,0,.2c0,.05,0,.12,0,.18a.88.88,0,0,1,0,.16.6.6,0,0,1,0,.23.66.66,0,0,0,0,.14c0,.05,0,.09,0,.13a2.46,2.46,0,0,1,0,.28,1.88,1.88,0,0,0,0,.34l0,.31v0C.61,19,.64,19,.63,19.1ZM12.22,4.82c-.06-.07,0-.16-.08-.23s0-.07,0-.11a.76.76,0,0,1,0-.11C12,4.18,12,4,11.9,3.83a.39.39,0,0,1-.05-.14c-.06,0,0-.13-.08-.16a1.09,1.09,0,0,0-.11-.27,7.54,7.54,0,0,0-.46-.83,4.11,4.11,0,0,0-.44-.59,3.15,3.15,0,0,0-.36-.37A3.09,3.09,0,0,0,10,1.11L9.82,1,9.7,1S9.62.89,9.56.89s-.08,0-.13-.06S9.35.77,9.3.77,9.21.71,9.15.72A.12.12,0,0,1,9,.68H9A3,3,0,0,0,8.64.61,5.15,5.15,0,0,0,8,.63h0s-.08,0-.12,0-.14.06-.22,0-.1,0-.14.06-.11,0-.14.07-.09,0-.14.06A.54.54,0,0,0,7.05,1a3.22,3.22,0,0,0-.39.25,3.8,3.8,0,0,0-.37.33,1.54,1.54,0,0,0-.17.19A1.9,1.9,0,0,0,5.93,2l-.07.09a1.88,1.88,0,0,0-.18.24c-.09.13-.17.26-.25.4L5.24,3l-.09.2c-.05.07-.06.17-.12.24s-.16.41-.23.61,0,.19-.1.28,0,.09,0,.12a.16.16,0,0,1,0,.1.35.35,0,0,0,0,.14c-.05.07,0,.15-.07.22a.66.66,0,0,0,0,.24h7.78l0-.2S12.23,4.89,12.22,4.82Z"/></g></g></svg>