<svg xmlns="http://www.w3.org/2000/svg" viewBox="0 0 177.54 57.97"><defs><style>.cls-1{fill:#fff;}</style></defs><g id="Layer_2" data-name="Layer 2"><g id="HEADER"><path class="cls-1" d="M61.31,53.05s0,0,0,0,0,0,0,0l0,0Z"/><path class="cls-1" d="M61.23,53.06h0Z"/><path class="cls-1" d="M128.6,56.92h0v0s0,0,0,0l0,0a.06.06,0,0,0,0,0l-.07,0s0,0,0,0,0,0,0,0,.06,0,.07,0,0,0,0,0a.08.08,0,0,0,0,0v0l0,0a0,0,0,0,0,0,0l-.07,0s0,0,0,0,0,0,0,0l.07,0a.08.08,0,0,0,0,0v0l0,0s0,0,0,0h.07s0,0,0,0,0,0,0,0h-.07s0,0,0,0,0,0,0,0h.07s0,0,0,0h-.07l0,0v0l0,0v0h-.08s0,0,0,0h.07v0s0,0,0,0l0,0v0s0,0,0,0h-.07s0,0,0,0a0,0,0,0,1,0,0l0,0s0,0,0,0h.07s0,0,0,0,0,0,0,0H128l0,0H128s0,0,0,0l0,0-.06-.15,0,0,0,0v0s0,0,0,0h-.07s0,0,0,0l0,0h.08l0,0,0,0v0l0,0,0,0s0,0,0,0,0,0,0,0h-.07s0,0,0,0l0,0h.07s0,0,0,0l-.07,0,0,0,.07,0s0,0,0,0l.07,0s0,0,0,0,0,0,0,0l.07,0-.07-.15s-.06,0-.07,0,0,0,0,0,0,0,0,0l-.07,0s0,0,0,0v0l0,0,0,0,0-.07-.07,0s0,0,0,0l0,0,.07,0,0,0,0,0v0l0,0,.06,0,0,0-.06,0,0,0,0-.07,0,0,0,0,0,0,0,0,0,0s0,0,0,0,0,0,0,0l-.07,0a.1.1,0,0,1,0,0l.06,0s0,0,0,0,0,0,0,0v0l0,0s0,0,0,0l0,0,0,0s0,0,0,0l0,0s0,0,0,0l.06,0s0,0,0,0l-.07,0s0,0,0,0v0l0,0,0,0,0,0,0,0-.07-.12,0,0s0,0,0,0l0,0,0-.06,0,0v0l0,0,0,0,0,0,0,0,.07,0s0,0,0,0l.06,0,0,0-.06,0s0,0,0,0l-.06,0s0,0,0,0l0,0v0s0,0,0,0,0,0-.07,0v0l.06,0,0,0a0,0,0,0,0,0,0s0,0,0,0v0s0,0,0,0l-.06,0s0,0,0,0l.06,0s0,0,0,0l0,0v0l-.07,0v0l.06,0,0,0s0,0,0,0l0,0v0l-.08-.11,0,0s0,0,0,0,0,0,0,0l-.06,0s0,0,0,0l.06,0s0,0,0,0,0,0,0,0l-.06,0,0,0s0,0,0,0l.06,0,0,0,0,0,0,0s0,0,0,0l0,0-.07-.11,0,0,0,0,0,0-.07-.12,0,0,0,0v0l0,0,0,0s0,0,0,0,0,0,0,0,0,0,0,0l-.07,0,0,0s0,0,0,0l.07,0s0,0,0,0l0,0,0,0,0,0,0,0,0,0,0,0,0,0s0,0,0,0-.06,0-.07,0,0,0,0,0l0,0s0,0,0,0l.06,0,0,0,0,0,0,0,0,0,0,0-.08-.11,0,0,0,0,0,0,0,0-.06,0,0,0,0,0s0,0,0,0l.06,0,0,0,0,0-.08-.11s0,0,.06-.05l0,0-.06,0s0,0,0,0l-.06,0,0,0,0,0,.06-.05,0,0,0,0,0,0s0,0,0,0l0,0,0,0,0,0s0,0,0,0l0,0,0,0s0,0,0,0l0,0s0,0,0,0l-.06,0,0,0,0,0,0,0,0,0,0,0s0,0,0,0l.06,0s0,0,0,0l0,0s0,0,.06,0l0,0-.06,0s0,0,0,0l-.06,0,0,0s0,0,0,0l.06,0s0,0,0,0l-.06,0s0,0,0,0l0,0s0,0,0,0l0,0,0,0,0,0,0,0,0,0-.08-.12,0,0,0,0,0,0,0,0s0,0,0,0l.06,0,0,0,0,0-.06.05,0,0,0,0s0,0,0,0,0,0,0,0l.06,0s0,0,0,0l0,0,0,0s0,0,0,0l.06,0s0,0,0,0l-.06.05s0,0,0,0l0,0a0,0,0,0,1,0,0s0,0,0,0l0-.05,0,0,0,0,0,0s0,0,0,0l-.06,0s0,0,0,0l0,0,.06,0s0,0,0,0l0,0s0,0,0,0l-.06.05s0,0,0,0l0,0,0,0,0,0,0,0,.06,0,0,0-.06,0,0,0,0,0,0,0,0,0,0,0,0,0,0,0,0,0,0,0s0,0,0,0l.06,0s0,0,0,0l0,0s0,0,0,0,0,0,0,0l-.06,0,0,0,0,0,0,0,0,0,0,0,0,0,0,0,0,0,0,0s0,0,0,0l0,0,.06-.05s0,0,0,0l-.06,0s0,0,0,0l0,0,0,0,0,0,0,0,0,0,0,0,0,0-.09-.11,0,0,0,0,0,0,0,0,0,0-.09-.11-.08-.1,0-.06,0,0,0,0,.05-.05,0,0,0,0s0,0,0,0,0,0,0,0l.06,0,0,0,0,0s0,0,0,0l0,0,0,0s0,0,0,0,0,0,0,0l0,0,0,0,0,0,0,0,0,0,0,0,0,0,0,0s0-.05,0-.05l0,0,0,0,0,0a0,0,0,0,0,0,0s0,0,0,0l-.06,0,0,0,0,0,0,0,0,0,0,0s0,0,0,0,0,.05-.06,0l0,0s0,0,0,0l0,0s0,0,0,0l0,0,0,0s0,0,0,0,0,0,0,0l.06,0,0,0,0,0,0,0s0,0,0-.05l0,0-.06,0s0,0,0,0l0,.05,0,0,0,0,0,0,0,0,0,0,.05,0a0,0,0,0,0,0,0s0,0,0,0l-.06.05,0,0,0,0,0,0,0,0,0,0,0,0,0,0,0,0,0,0s0-.05,0-.05l0,0,0,0,0,0,0,0,0,0,0,0,0,0,0,0,0,0,0,0,0,.05,0,0,0,0,0,0s0,0,0,0l.05,0,0,0s0,0,0,0l0,.05s0,0,0,0l0,0s0,0,0,0l0,0,0,0,0,0-.06.06,0,0,0,0,.06-.06,0,0,0,0s0,0,0,0,0,0,0,0l0,.06,0,0,.05,0s0,0,0,0l0,0,0,0,0,0-.06,0,0,0,0,0,.05,0s0,0,0,0l0,0,0,0,0,0,0,0s0,0,0,0l0,0,0,0,0,0,0,0,0-.05,0,0,0,0,0,0,.06,0,0,0,0,0s-.05,0-.06.06l0,0,0,0,.06-.05,0,0s0,0,0,0l-.06,0,0,0,0,0,0,0,0,0,0,0,0,0s0,0,0,0,.05,0,.05-.06l0,0,0,0,0,0,0,0,0,0,0,0h0l.41-.05.6-.1c.13,0,.25-.05.51-.08l.6-.09a3.83,3.83,0,0,1,.51-.09l.51,0,.61-.07.59-.09.51-.08a3.29,3.29,0,0,1,.49,0,5.52,5.52,0,0,0,.64-.06l.6-.09a4.26,4.26,0,0,1,.51-.08l.53-.06.59-.06c.32-.05.48-.09.63-.12a3.64,3.64,0,0,1,.47-.08c.32,0,.49-.09.63-.12a4,4,0,0,1,.47-.09,1.85,1.85,0,0,1,.4,0,2.69,2.69,0,0,0,.75,0l.61-.11c.13,0,.24,0,.49-.08s.57-.29.51-.55a.64.64,0,0,0-.73-.38c-.3,0-.47.08-.61.11l-.49.08a1.85,1.85,0,0,1-.4,0,3.07,3.07,0,0,0-.74,0c-.33,0-.49.09-.64.12a3.27,3.27,0,0,1-.47.09c-.31,0-.48.08-.62.11a3.82,3.82,0,0,1-.48.09l-.52,0-.6.07-.59.09-.52.09a3.06,3.06,0,0,1-.47,0c-.16,0-.33,0-.65,0s-.45.07-.59.1l-.52.08L122,42c-.15,0-.3,0-.6.06l-.6.1a4.26,4.26,0,0,1-.51.08l-.6.1c-.13,0-.25.05-.5.08l-.53.06c-.14,0-.3,0-.59.06H118s0,0,0,0l0,0,0,.06,0,0,0,0a.12.12,0,0,1,0-.05s0,0,0,0l0,0,0,0,0,0,0,0,0,0,0,0,0,0a0,0,0,0,0,0,0l0,0s0,0,0,0,0,0,0,0,0,0,0,0l0,0,0-.06s0,0,0,0l0,0,0,0s0,0,0,0l0,0,0,0s0,0,0,.06,0,0,0,0l0,0,0-.06,0,0s0,0,0,0l0,0,0,0s0,0,0-.06l0,0,0,0s0,.05,0,.05,0,0,0,0,0,0,0,.06l0,0,.05-.05,0,0s0,0,0,0l0,.05,0,0,0,0s.05-.05.05-.06l0,0-.05.06,0,0,0,0,0,0,0,0s0,0,0,0,0,.06,0,.06l0,0,0,0,0,0,0,0s0,0,0,0l0,0,0,0,0,0,0,0s0,.06,0,.06,0,0,0,0l0,0,0,0s0,0,0,0,0,0,0,0,0,0,0-.05l0,0s0,0,0,0,0,.05,0,.06,0,0,0,0,0,0,0,0,0,0,0,0l0,0,0,0,0,0,0,0,0,0,0,0s0,0,0,0l0,0,0,0,0,0s0,0,0,0l0,0s0,0,0,0l0,.05s0,0,0,0l0-.06s0,0,0,0l0,0,0,.06,0,0,0-.06a0,0,0,0,0,0,0s0,0,0,0l0,0s0,0,0,0l0,0,0,0,0,0s0,0,0-.06,0,0,0,0,0,0,0,0l0,.05,0,0,0-.06,0,0s0,.06-.05.06l0,0s0,0,0,0l0,0,0,0,0,0s0,0,0,0l0,0,0,0,0,0,0,0,0,0,0,0,0,0,0,0,0,0,0,0,0,0,0,0h0a5.12,5.12,0,0,0,.58-.17l.49-.14a4.54,4.54,0,0,0,.58-.17c.13,0,.24-.08.49-.14l.51-.12.59-.13.57-.16c.12,0,.25-.08.5-.14a4.16,4.16,0,0,1,.48-.1,5,5,0,0,0,.63-.13l.58-.17.49-.14.52-.12c.14,0,.29-.06.57-.14a4.06,4.06,0,0,0,.61-.18,4.14,4.14,0,0,1,.46-.15,6,6,0,0,0,.61-.19,3.63,3.63,0,0,1,.45-.14,1.69,1.69,0,0,1,.39-.06,2.76,2.76,0,0,0,.74-.1,5.81,5.81,0,0,0,.59-.18l.48-.14.53-.13.56-.14.58-.17a5.06,5.06,0,0,1,.49-.14l.52-.13c.14,0,.29-.06.57-.14A3.55,3.55,0,0,0,131,36c.13,0,.22-.08.45-.14a4.3,4.3,0,0,1,.44-.08,5.18,5.18,0,0,0,.68-.12c.33-.09.5-.35.39-.6a.69.69,0,0,0-.8-.29c-.22,0-.32.06-.45.08A3.82,3.82,0,0,0,131,35a3.75,3.75,0,0,0-.62.2,2.9,2.9,0,0,1-.44.14l-.52.13c-.14,0-.29.06-.57.14s-.45.12-.58.16l-.49.15-.53.13-.56.14a4.83,4.83,0,0,0-.59.17,4.5,4.5,0,0,1-.47.15,1.31,1.31,0,0,1-.4.05,3.42,3.42,0,0,0-.74.11,6,6,0,0,0-.61.19,3.11,3.11,0,0,1-.45.14,4.9,4.9,0,0,0-.6.19,3.34,3.34,0,0,1-.46.14l-.52.13c-.14,0-.29.06-.58.13l-.57.17-.5.14a4.09,4.09,0,0,1-.47.1,3.73,3.73,0,0,0-.64.13l-.57.15-.5.14-.51.13a4.45,4.45,0,0,0-.59.13,5.12,5.12,0,0,0-.58.17l-.49.14a5.12,5.12,0,0,0-.58.17,5.06,5.06,0,0,1-.49.14l-.51.12-.16,0,0,0,0,0s0,0,0,0l0-.06,0,0,0,0,0,.06,0,0,0,0,0,0,0,0,0,0,0-.06,0,0,0,0,0,.06,0,0,0,0a0,0,0,0,0,0,0l0,0-.11-.08,0,0,0,0,0,0,0,0,0,0-.06,0,0,0,0,0-.12-.07,0,0-.06,0,0,0,0,0,0,0-.11-.08,0,0,0,0,0,0-.06,0,0,0,0,0,0,0,0,0,0,0s0,0,0,0,0-.06,0-.06l0,0,0,0,0,.06,0,0,0,0,0,0s0,0,0,0l0,0,0,.07,0,0,0,0,0-.06,0,0,0,0h0l0,0,0,0,0,0,0,0,0,.07,0,0,0-.06,0,0-.11-.07,0,0,0,0,0,0-.12-.07h0l0,0,0,0s0,0,0,0l0-.06,0,0,0,0,0,.07,0,0,0-.06,0,0,0,0s0,.06,0,.06h0l0,0s0,0,0,0,0,.06,0,.06,0,0,0,0l0-.06s0,0,0,0h0l0,0,0,0,0,0,0,.07,0,0s0-.05,0-.07h0l0,0,0,0,0,0h0s0,0,0,0l0,.06s0,0,0,0h0l0-.07h0l0,0,0,0,0,.06,0,0h0l0,0,0-.06,0,0s0,.06,0,.06l0,0,0-.06s0,0,0,0h0s0,0,0,0,0,0,0,.06l0,0,0-.06,0,0,0,0h0l0,0,0,0,0,0,0,0h0l0,0s0,.06,0,.06h0l0-.07,0,0s0,0,0,0,0,.06,0,.06l0,0,0,0h0l0,0,0-.06,0,0,0,.06,0,0s0-.05,0-.06l0,0,0,.07,0,0,0,0,0-.06s0,0,0,0,0,0,0,0l0,0h0l-.06,0h0l.29-.16a3.63,3.63,0,0,1,.4-.2A4.43,4.43,0,0,0,111,36l.46-.28a4.5,4.5,0,0,1,.4-.25,3.59,3.59,0,0,1,.42-.22c.12-.07.25-.13.48-.27s.36-.22.47-.29.19-.13.39-.24l.47-.29.39-.25a3.59,3.59,0,0,1,.42-.22c.12-.06.25-.13.48-.27a3.75,3.75,0,0,0,.46-.28l.4-.24a3.63,3.63,0,0,1,.4-.2,4.43,4.43,0,0,0,.53-.27c.24-.14.36-.21.47-.29l.39-.24.43-.23.48-.26a5.48,5.48,0,0,0,.48-.32,2.72,2.72,0,0,1,.36-.24,3.85,3.85,0,0,0,.48-.32,2.34,2.34,0,0,1,.35-.23,1,1,0,0,1,.34-.14,3.62,3.62,0,0,0,.65-.27l.47-.31c.1-.06.18-.13.38-.24l.43-.24.46-.26a.4.4,0,0,0,.11-.66.77.77,0,0,0-.88-.09l-.43.25-.46.25a4.17,4.17,0,0,0-.47.31l-.38.24a1.75,1.75,0,0,1-.34.14,2.6,2.6,0,0,0-.64.27,4.67,4.67,0,0,0-.49.32,2.46,2.46,0,0,1-.35.24,4.1,4.1,0,0,0-.48.31,2.72,2.72,0,0,1-.36.24l-.42.23-.48.26a4,4,0,0,0-.46.29c-.1.06-.2.13-.4.24s-.29.15-.39.2a3.77,3.77,0,0,0-.54.27c-.24.13-.35.21-.46.28l-.4.25-.42.22c-.13.06-.25.13-.49.27a4,4,0,0,0-.46.29l-.4.24c-.24.14-.35.22-.46.29l-.39.25-.42.22-.49.26-.46.29a4.5,4.5,0,0,1-.4.25l-.4.2a4.05,4.05,0,0,0-.52.26l-.43.24-.19.11h0l0,0s0,0,0,0l0,.06h0l0-.07h0l0,0,0,0,0,.07,0,0h0l0,0s0,0,0-.06l0,0s0,0,0,0,0,.06,0,.06h0l0-.07s0,0,0,0,0,0,0,.06,0,0,0,0l0,0,0,0h0l0,0,0-.06,0,0,0,0h0l0,.07s0,0,0,0l0-.07h0l0,0,0,.07,0,0h0l0-.07s0,0,0,0,0,.06,0,.06,0,0,0,0l0,0,0,0s0-.05,0-.06l0,0,0,.07,0,0h0l0-.07h0l0,0,0,0-.12-.06h0l0,0,0,0h0l0,0h0l0-.07h0l0,0s0,.06,0,.07l0,0h0l0,0,0,0H107l-.06,0-.13,0,0,0-.06,0-.13-.06s0,.06,0,.07l0,0,0-.06,0,0,0-.06,0,0h0l0,.07,0,0h-.06l0,0h-.07l0,0s0,0,0,0l0-.07h0s0,.06,0,.07l0,0h0l0-.07h0a.36.36,0,0,1,0,.07l0,0H106l0,0h0l0,0h-.06s0-.06,0-.07h0l0,0h0s0,.06,0,.07l0,0h-.07l0,0h-.06l0,0-.13-.05h0l0,0h0l.21-.23a3.76,3.76,0,0,0,.33-.37c.16-.19.24-.3.31-.39a2.57,2.57,0,0,1,.25-.33,4.72,4.72,0,0,0,.3-.39,4.09,4.09,0,0,1,.25-.33l.29-.32c.09-.09.18-.18.34-.37a.41.41,0,0,0-.2-.65.77.77,0,0,0-.87.15,3.64,3.64,0,0,1-.29.32c-.08.09-.17.18-.33.37a4.21,4.21,0,0,0-.3.39,2.91,2.91,0,0,1-.26.33l-.3.39a4.09,4.09,0,0,1-.25.33l-.29.32-.28.31h0l0,.05h0s0-.07,0-.07h-.06l0,0h-.2l-.13,0h-.23l0,0h-.06l0,.07s0,0,0,0,0-.07,0-.07h0l0,.07h0a.49.49,0,0,1,0-.07h-.07l0,0h-.06l0,.07h0s0-.06,0-.07h0s0-.06,0-.07h0l0,.07s0,.06,0,.07H103l0,0,0-.07h-.06l0,.07h-.06s0-.06,0-.07h-.06s0,.06,0,.07h-.06l0,0h-.06l0-.07h-.09s0,0,0,0a.64.64,0,0,0,0,.07h-.07l0,0h-.06s0-.06,0-.07h-.07s0,0,0,0l0,.07h-.07l0,0h0l0-.07H102s0,0,0,0l0,.07h-.07s0-.07,0-.07,0,0,0,0h-.06l0-.07h0s0,0,0,0a.19.19,0,0,1,0,.07s0,0,0,0,0,0,0,0,0,.06,0,.07h-.07l0,0h-.07s0-.06,0-.07h-.13a0,0,0,0,0,0,0l0,.07H101l0-.07H101s0,0,0,0,0,.06,0,.07h-.1s0-.06,0-.07h0l0,.07s0,0,0,0h-.1s0-.06,0-.07,0,0,0,0h-.1l0,.07h0s0-.06,0-.07h-.29l0,.07h-.07l0-.07h0l0,.07H100a.53.53,0,0,0,.15-.19l.16-.41c0-.1.07-.2.15-.4l.16-.39.18-.42a2,2,0,0,1,.16-.35,2.68,2.68,0,0,0,.22-.45,4.63,4.63,0,0,0,.15-.44,3.37,3.37,0,0,1,.14-.37,2.25,2.25,0,0,1,.16-.38c0-.11.1-.21.19-.43a3.26,3.26,0,0,0,.15-.45,2.41,2.41,0,0,1,.13-.37c.08-.22.12-.34.15-.45a2.48,2.48,0,0,1,.12-.38l.17-.37c0-.1.1-.21.19-.43s.12-.33.15-.43a2.78,2.78,0,0,1,.14-.39,1.84,1.84,0,0,1,.16-.34,2.53,2.53,0,0,0,.23-.45c.08-.22.12-.34.15-.45s.06-.19.13-.37a3.61,3.61,0,0,1,.16-.38l.19-.43a2.34,2.34,0,0,0,.14-.47,1.69,1.69,0,0,1,.11-.36,3,3,0,0,0,.14-.48,1.64,1.64,0,0,1,.1-.35.65.65,0,0,1,.17-.26,1.84,1.84,0,0,0,.31-.52,2.09,2.09,0,0,0,.14-.45,3.67,3.67,0,0,1,.12-.37l.16-.39c0-.11.09-.21.17-.42a3.26,3.26,0,0,0,.15-.45c0-.09.06-.19.13-.37l.16-.39a4.27,4.27,0,0,0,.18-.42,2.59,2.59,0,0,0,.14-.48,1.49,1.49,0,0,1,.1-.35,1.09,1.09,0,0,1,.16-.31,2.39,2.39,0,0,0,.26-.48l.16-.39c0-.11.09-.21.17-.42s-.09-.51-.42-.59a.68.68,0,0,0-.78.32l-.16.4c0,.1-.09.2-.18.41a1.87,1.87,0,0,1-.16.32,1.86,1.86,0,0,0-.26.47,2.43,2.43,0,0,0-.14.49,1.2,1.2,0,0,1-.1.35,3.35,3.35,0,0,1-.16.38c0,.11-.09.21-.17.42a4.46,4.46,0,0,0-.16.45,2.48,2.48,0,0,1-.12.38l-.16.39c0,.1-.09.21-.17.42a3.26,3.26,0,0,0-.15.45,3.67,3.67,0,0,1-.12.37.77.77,0,0,1-.16.27,1.44,1.44,0,0,0-.32.51,3.31,3.31,0,0,0-.14.47,1.12,1.12,0,0,1-.1.35,2.39,2.39,0,0,0-.14.48,1.83,1.83,0,0,1-.11.35c-.07.19-.12.29-.16.38s-.1.21-.19.43-.12.33-.15.44a3.53,3.53,0,0,1-.29.72,1.91,1.91,0,0,0-.23.46c-.08.21-.12.32-.15.43a2.76,2.76,0,0,1-.14.38c-.07.19-.12.28-.16.38a3.37,3.37,0,0,0-.19.43A3.81,3.81,0,0,0,101,27c0,.1-.06.2-.13.38a3.26,3.26,0,0,0-.15.45,2.85,2.85,0,0,1-.13.37,3.35,3.35,0,0,1-.16.38c0,.1-.1.21-.19.43a3.25,3.25,0,0,0-.15.43,2.76,2.76,0,0,1-.14.38,1.7,1.7,0,0,1-.16.35,3.15,3.15,0,0,0-.22.45l-.16.4a4.39,4.39,0,0,0-.17.41l-.16.41-.15.41a.26.26,0,0,0,0,.08h-.16s0,0,0,0,0,.06,0,.07a0,0,0,0,1,0,0h-.3s0-.06,0-.08h0l0,.08h-.06v-.07s0,0,0,0h0s0,0,0,0v.07H97.9l0-.07h0v.07h-.14l0-.08h-.07s0,0,0,0,0,0,0,0,0,.06,0,.07,0,0,0,0H97.5s0-.07,0-.07h-.13s0,.07,0,.08h-.1V32h-.1s0,.06,0,.07h-.07s0-.06,0-.08H97s0,0,0,0V32h-.14s0-.06,0-.07,0,0,0,0h0V32s0,0,0,0h-.27s0,0,0,0,0-.06,0-.08H96.4s0,0,0,0v.07h-.07s0-.07,0-.08h-.1v.08h-.07a.64.64,0,0,0,0-.07H96s0,0,0,0,0,.06,0,.07h-.07v-.08h-.1s0,0,0,0v.07h-.11l0-.07h-.07s0-.06,0-.08h0s0,.07,0,.07,0,0,0,0,0,.08,0,.08h0s0-.06,0-.07h-.24s0,0,0,0,0-.06,0-.07,0,0,0,0,0,.06,0,.07,0,0,0,0h0s0,0,0,0h0a.25.25,0,0,0,0,.08h-.24v-.07h0s0,.08,0,.08h-.2v-.07s0,0,0,0,0,.07,0,.07h-.27V31.5s0,0,0,0h-.11v.07H94v-.07H94s0,0,0,0v.07h0l-.14,0H93.7v-.08h0s0,.07,0,.07h-.24s0,0,0,0,0-.06,0-.07h-.07s0,0,0,0,0,.07,0,.07h-.13v-.07s0,0,0,0h0v.08s0,0,0,0,0,0,0,0H93s0-.06,0-.07,0,0,0,0h0s0,0,0,0,0,.06,0,.07,0,0,0,0h-.17s0-.07,0-.08h0v.07s0,0,0,0h0V31.3h0s0,0,0,0,0,.07,0,.07h-.13s0,0,0,0v.07h-.07s0-.07,0-.08,0,0,0,0h-.34v.07h0v-.07h-.11c0-.09-.07-.19-.14-.37l-.14-.38c0-.1-.07-.21-.15-.42a2.24,2.24,0,0,1-.1-.35,2.31,2.31,0,0,0-.14-.46,4.27,4.27,0,0,0-.18-.42l-.15-.37c-.07-.19-.1-.28-.13-.38s-.06-.21-.14-.43-.14-.33-.19-.43a2.24,2.24,0,0,1-.16-.36,4.19,4.19,0,0,0-.19-.43c0-.09-.08-.17-.15-.36s-.1-.27-.13-.37a4,4,0,0,0-.14-.43,4.27,4.27,0,0,0-.18-.42c0-.1-.09-.18-.16-.37a1.37,1.37,0,0,1-.09-.35,3.31,3.31,0,0,0-.14-.47,4.27,4.27,0,0,0-.18-.42,3,3,0,0,1-.16-.37c-.07-.18-.1-.28-.13-.37a4,4,0,0,0-.14-.43,2.68,2.68,0,0,0-.22-.45,2.87,2.87,0,0,1-.16-.34,1.87,1.87,0,0,0-.22-.45,2.58,2.58,0,0,1-.16-.33.64.64,0,0,1,0-.28,1.15,1.15,0,0,0-.09-.55c-.09-.22-.15-.34-.2-.44a2.49,2.49,0,0,1-.16-.35.66.66,0,0,0-.77-.32c-.34.07-.53.33-.44.58s.15.33.2.44a2.49,2.49,0,0,1,.16.35.64.64,0,0,1,0,.28,1.37,1.37,0,0,0,.1.55,1.69,1.69,0,0,0,.22.45,3.5,3.5,0,0,1,.16.33,2.16,2.16,0,0,0,.21.45,2.87,2.87,0,0,1,.16.34c.07.18.1.27.13.37a4,4,0,0,0,.14.43,4.19,4.19,0,0,0,.19.43,3,3,0,0,1,.15.36,1.12,1.12,0,0,1,.1.35,2.55,2.55,0,0,0,.14.47c.08.21.13.32.17.42a2.46,2.46,0,0,1,.16.37,3.67,3.67,0,0,1,.12.37c0,.11.07.22.15.43a3.37,3.37,0,0,0,.19.43c0,.1.09.18.15.36s.14.33.19.43a2.75,2.75,0,0,1,.16.36,2.48,2.48,0,0,1,.12.38c0,.1.07.21.15.43a4.27,4.27,0,0,0,.18.42c0,.09.08.18.15.37a1.64,1.64,0,0,1,.11.35,2.91,2.91,0,0,0,.13.46,3.32,3.32,0,0,1,.14.39c0,.1.07.21.15.41l0,0v0s0,0,0,0h-.62v-.07s0,0,0,0h0v.07h-.14s0-.07,0-.08h0v.08h0s0,0,0,0h-.38v-.07h-.17s0,.07,0,.07,0,0,0,0h-.2s0,0,0,0h-.17v-.07s0,0,0,0h0s0-.06,0-.07,0,0,0,0,0,.07,0,.07,0,0,0,0,0,.07,0,.07H88v-.07h0s0,0,0,0,0,.07,0,.07h-.11v-.08s0,0,0,0v.07h-.1s0,0,0,0v-.07h-.1v.08s0,0,0,0,0,0,0,0H87.4s0,0,0,0H87.2v-.07s0,0,0,0,0,0,0,0,0,.06,0,.07h-.62s0,0,0,0,0-.07,0-.08H86.4v.07h-.14s0,0,0,0v.07h0s0-.07,0-.07,0,0,0,0H86s0,.06,0,.07,0,0,0,0h-.06s0,0,0,0,0-.07,0-.08h0s0,0,0,0,0,.07,0,.07h-.07v-.07h-.07s0,0,0,0,0,.07,0,.08h0s0,0,0,0v-.07h-.13l-.16-.2a2.07,2.07,0,0,1-.23-.32,3.67,3.67,0,0,0-.3-.42c-.16-.19-.25-.28-.33-.37s-.15-.16-.29-.33a2.81,2.81,0,0,1-.26-.34l-.3-.39a3.55,3.55,0,0,0-.34-.37c-.07-.08-.15-.16-.28-.32s-.26-.29-.34-.38l-.29-.32L82,27.25c-.07-.1-.14-.2-.3-.4l-.32-.37-.29-.32a1.84,1.84,0,0,1-.22-.32,3.2,3.2,0,0,0-.3-.43c-.16-.19-.25-.28-.34-.37L80,24.72a4.26,4.26,0,0,1-.26-.35c-.07-.09-.14-.19-.3-.38A5.26,5.26,0,0,0,79,23.6c-.08-.08-.15-.14-.28-.29a3.08,3.08,0,0,0-.38-.4,2,2,0,0,1-.27-.29.7.7,0,0,1-.16-.26,1.45,1.45,0,0,0-.29-.51c-.17-.2-.27-.3-.36-.39a3.43,3.43,0,0,1-.28-.31l-.28-.34c-.07-.1-.15-.19-.3-.37a3,3,0,0,0-.34-.38l-.29-.32-.27-.35c-.07-.09-.14-.19-.29-.37a3.79,3.79,0,0,0-.39-.4,1.81,1.81,0,0,1-.28-.28,1.27,1.27,0,0,1-.19-.3,2.2,2.2,0,0,0-.3-.46l-.28-.34c-.07-.1-.15-.19-.3-.37l-.26-.34a4.72,4.72,0,0,0-.3-.39,3.08,3.08,0,0,0-.38-.4,1.45,1.45,0,0,1-.28-.28c-.16-.2-.26-.29-.34-.38a3.43,3.43,0,0,1-.28-.31,3.35,3.35,0,0,1-.25-.34c-.07-.09-.14-.2-.3-.4l-.31-.36c-.07-.09-.15-.17-.29-.35a2.28,2.28,0,0,1-.24-.33,4.47,4.47,0,0,0-.3-.4.77.77,0,0,0-.87-.16c-.3.14-.39.43-.2.65a3.48,3.48,0,0,1,.24.33,3.81,3.81,0,0,0,.3.41l.3.36.3.35a4.09,4.09,0,0,1,.25.33,4,4,0,0,0,.3.4c.16.19.25.29.34.38a2.7,2.7,0,0,1,.28.32,2.78,2.78,0,0,0,.39.39,2.78,2.78,0,0,1,.27.29,2.81,2.81,0,0,1,.26.34l.31.38c.14.17.2.26.27.35l.3.37a1,1,0,0,1,.19.3,2.58,2.58,0,0,0,.31.46,2.48,2.48,0,0,0,.39.4,1.84,1.84,0,0,1,.27.28l.27.34c.07.09.14.19.3.38s.26.29.34.38.15.15.29.31l.28.35c.07.1.14.19.29.37a3.59,3.59,0,0,0,.36.38,3.43,3.43,0,0,1,.28.31.68.68,0,0,1,.15.27,1.63,1.63,0,0,0,.3.51,2.35,2.35,0,0,0,.38.39,2.78,2.78,0,0,1,.27.29,2.94,2.94,0,0,0,.37.39,2.14,2.14,0,0,1,.28.3c.14.16.2.25.27.34l.29.38c.16.19.25.29.34.38l.29.32a2.8,2.8,0,0,1,.22.31,2.28,2.28,0,0,0,.3.43,3.76,3.76,0,0,0,.33.37l.29.33.26.34a4.09,4.09,0,0,0,.29.39c.16.19.26.29.34.38s.15.15.29.31a3,3,0,0,0,.34.38,3.9,3.9,0,0,1,.28.32,2.81,2.81,0,0,1,.26.34l.3.39c.16.19.25.28.33.37a4.34,4.34,0,0,1,.29.33,2.31,2.31,0,0,1,.23.32,2.93,2.93,0,0,0,.19.27h0s0,0,0,0h-.3v.07s0,0,0,0,0-.06,0-.07H83.4s0,0,0,0v.07h-.07v-.07s0,0,0,0h-.14s0,.06,0,.07h-.07s0,0,0,0v-.07h-.17v.07h0s0-.08,0-.08h-.34s0,.07,0,.08h-.11v-.08h-.07l0,.08h-.07s0-.06,0-.07,0,0,0,0h0s0,.06,0,.07,0,0,0,0v-.07s0,0,0,0h0s0,.06,0,.07,0,0,0,0l0-.08h-.3v-.07h0s0,.06,0,.07,0,0,0,0h0l-.13,0H81.3s0,0,0,0h0l0-.07h0s0,0,0,0,0,.06,0,.07,0,0,0,0H80.8l-.07,0h-.27s0,0,0,0,0-.06,0-.07h0v.07h-.17V32s0,0,0,0v.07h-.5v.08h0s0-.06,0-.07H79s0,0,0,0,0-.07,0-.08h-.06s0,.07,0,.07,0,0,0,0h-.07v-.07h0l0,.07h-.07a.64.64,0,0,1,0,.07s0,0,0,0,0-.07,0-.08h0s0,0,0,0h-.06l0-.07h0a.64.64,0,0,1,0,.07h-.1s0,0,0,0a.64.64,0,0,1,0,.07h0l0-.08h-.07l-.13,0H78l-.13,0h-.3l0,.07s0,0,0,0,0-.06,0-.07,0,0,0,0h-.13l0,.08h0l-.22-.17a5,5,0,0,0-.51-.31,3,3,0,0,1-.39-.24,4.06,4.06,0,0,0-.51-.31,3,3,0,0,1-.38-.24l-.4-.29L74.56,31c-.23-.16-.35-.23-.47-.3l-.41-.27c-.18-.13-.25-.2-.34-.27a4,4,0,0,0-.45-.37l-.46-.3L72,29.19l-.39-.29-.43-.32c-.23-.16-.36-.24-.48-.31a3.14,3.14,0,0,1-.4-.26,5,5,0,0,0-.48-.31l-.4-.26-.38-.28c-.11-.09-.21-.17-.44-.33l-.46-.31-.41-.26A2.77,2.77,0,0,1,67.4,26a3.39,3.39,0,0,0-.45-.35l-.41-.29c-.1-.09-.21-.16-.43-.32l-.43-.29-.42-.29a.78.78,0,0,0-.89,0,.4.4,0,0,0,0,.67l.44.3.42.28.4.29.43.32a2.93,2.93,0,0,1,.35.27,3.39,3.39,0,0,0,.45.35l.47.31c.1.07.21.13.4.27l.39.28a4.41,4.41,0,0,0,.44.33l.47.31a3.14,3.14,0,0,1,.4.26c.23.16.36.24.48.31a4.06,4.06,0,0,1,.4.26,4.21,4.21,0,0,1,.38.28l.44.33.46.3.41.28a2,2,0,0,1,.34.27,4.68,4.68,0,0,0,.46.36,4.55,4.55,0,0,0,.47.3c.1.07.21.13.4.27a4.34,4.34,0,0,1,.39.29l.44.32a4.06,4.06,0,0,0,.51.31,3.84,3.84,0,0,1,.39.24,4.46,4.46,0,0,0,.51.32l0,0h-.11l-.13,0h-.07l0,.07h0l0,0h-.16s0-.06,0-.07h0l0,.07h0s0,0,0,0h-.1a.25.25,0,0,0,0-.07s0,0,0,0h0s0,.07,0,.07h-.07l0-.07,0,0h0l0,.07h0l0-.07h0l0,.07s0,0,0,0h-.06l0-.07s0,0,0,0l0,.06,0,0-.13,0h-.06l0,0h-.07l0-.07h0l0,.07h-.06l0-.07h0l0,0,0,.06s0,0,0,0h0l0-.07h0s0,.06,0,.07,0,0,0,0l0-.07s0,0,0,0h-.06l0,0s0,0,0,.07h0l0-.07H74l0,.07H74s0,0,0,0,0-.07,0-.07h0l0,0h-.1s0,.06,0,.07,0,0,0,0l0-.07h-.07l0,.07h0l-.13.05h-.13l0-.06h-.06a.64.64,0,0,1,0,.07h-.12l0-.07,0,0s0,.06,0,.07,0,0,0,0h0l0,0s0-.06,0-.07,0,0,0,0l0,0s0,0,0,0,0,.06,0,.07h0l0,0h-.06l0,0h-.06l0-.06h-.06l0,0h0l0,.07h0l0,0h0a.36.36,0,0,1,0-.07h0l0,0h0l0,0,0,.06s0,0,0,0l0-.07h0a.49.49,0,0,0,0,.07h0l0,0h0l0,0,0-.07h0l0,0,0,.06s0,0,0,0h-.07l0,0H72l0,0h0s0-.06,0-.07l0,0H71.8l0,0,0,.07h-.06l0,0,0-.07h0l0,0h-.07l0,0s0,0,0,0l0,.07h0l0,0a.36.36,0,0,1,0-.07h-.07l0,0h0l0,.07h0l0,0,0-.07s0,0,0,0l0,0h-.06l0,.07,0,0h0l0-.07s0,0,0,0h0l0,.07H71l0,0h0s0,0,0,0,0-.06,0-.06,0,0,0,0h0a.49.49,0,0,0,0,.07h0l0,0s0,0,0,0,0-.06,0-.06,0,0,0,0h0l0,0s0,0,0,.06l0,0h-.07l0,0,0-.07h0l0,0h0l0,0s0-.07,0-.07l0,0h0l0,0s0,0,0,0,0,.07,0,.07l0,0h0s0,0,0,0h0s0,.06,0,.07,0,0,0,0l0-.07,0,0h0l0,0h0s0,.06,0,.07,0,0,0,0h0l0,0h0l0,0s0,0,0,0,0,0,0-.06,0,0,0,0l0,0,0,0h0s0,0,0,0l0,.06,0,0,0,0s0,0,0,0,0-.06,0-.07l0,0,0,0,0,.06,0,0a2.32,2.32,0,0,0-.41-.19,4.1,4.1,0,0,0-.61-.2A2,2,0,0,1,68,35.4l-.47-.19L67,35l-.56-.2L66,34.64l-.49-.2-.5-.2c-.27-.11-.43-.16-.56-.2a4.37,4.37,0,0,1-.46-.16,1,1,0,0,1-.31-.17,2.26,2.26,0,0,0-.6-.33,6,6,0,0,0-.59-.19L62.07,33a5.22,5.22,0,0,0-.58-.19,3.28,3.28,0,0,1-.44-.15l-.46-.19-.52-.22-.54-.2a4.23,4.23,0,0,1-.47-.17,3.48,3.48,0,0,1-.4-.18,4.26,4.26,0,0,0-.55-.26l-.54-.19-.47-.18-.45-.19c-.13-.06-.26-.12-.52-.22s-.42-.16-.55-.2-.24-.07-.46-.16-.42-.16-.55-.2L54.11,30l-.45-.19c-.13-.06-.26-.12-.53-.22l-.53-.2-.47-.17a2.54,2.54,0,0,1-.42-.19,5.77,5.77,0,0,0-.54-.24l-.48-.2-.5-.21-.51-.2L49.19,28a.74.74,0,0,0-.85.19c-.16.23,0,.52.27.64l.51.2.48.18.48.2.5.21a2.54,2.54,0,0,1,.42.19,5.77,5.77,0,0,0,.54.24l.54.2.47.17.45.19.52.23.55.19.46.17c.27.11.42.15.55.2a3.22,3.22,0,0,1,.46.16,3.66,3.66,0,0,1,.45.2l.53.22.53.19.47.18c.21.08.3.13.41.18a3.24,3.24,0,0,0,.55.26L59,33l.47.17.46.2.51.21a4.5,4.5,0,0,0,.59.2,4.63,4.63,0,0,1,.44.15,3.72,3.72,0,0,0,.59.19c.12,0,.23.07.43.15a.94.94,0,0,1,.32.17,2.26,2.26,0,0,0,.6.33,5.26,5.26,0,0,0,.56.19l.46.16.47.2.51.2c.27.11.42.16.55.2a3.22,3.22,0,0,1,.46.16l.47.19a5.29,5.29,0,0,0,.51.22,3.79,3.79,0,0,0,.61.19l.28.09h0l0,0-.12.06h0l0,0,0,0h0l0,0h0l0,0,0,0h0l0,0h0l0,0,0-.07,0,0s0,0,0,0l0,.06,0,0h0l0,0,0,0s0-.07,0-.07l0,0,0,.06s0,0,0,0l0,0,0,0,0,0-.11.07,0,0h0l0,0,0,0,0,0,0,0-.12.07h0l0,0,0,0,0,0,0,0h0s0,0,0,0l0-.06,0,0h0s0,0,0,0,0,.06,0,.07h0l0,0,0,0,0,0,0,0h0s0-.06,0-.06l0,0,0,0h0l0,0,0,0,0,.06,0,0,0,0,0,0h0l0,0,0,0,0,0,0,0h0l0,0,0,0,0,0L66,37.9l0,0,0,0h0l0,0,0,0,0,0,0,0h0s0,0,0,0,0-.05,0-.06l0,0,0,0h0l0,0,0,0,0,0h0s0,.06,0,.07h0l0,0,0,0,0,0,0,0h0s0,0,0,0l0-.06s0,0,0,0l0,.06,0,0,0,0h0s0,0,0,0,0-.06,0-.06l0,0,0,0h0l0,.07h0l0,0,0-.06,0,0s0,.06,0,.06,0,0,0,0l0,0,0,0,0,0,0,0,0,0,0,0,0,0s0,0,0,0l0-.06,0,0s0,0,0,0l0,.06s0,0,0,0l0-.06,0,0,0,.06,0,0,0,0,0,0s0-.06,0-.06l0,0,0,0,0,0,0,0,0,0,0,0a.31.31,0,0,1,0,.06s0,0,0,0l0,0,0,0,0-.06,0,0,0,.06,0,0,0,0,0,0,0,0s0-.06,0-.06l0,0,0,0,0,0s0,0,0,.06l0,0,0,0,0,0,0,0,0,0,0-.06,0,0,0,0,0,.06,0,0,0,0,0,0s0-.06,0-.06,0,0,0,0l0,.06,0,0s0-.06,0-.06l0,0,0,0s.05,0,.05.06l0,0,0,0,0,0,0,0,0,0,0,0,0-.06s0,0,0,0l0,.06,0,0,0,0,0,0,0,0-.11.08,0,0,0,0,0,0s0-.06-.05-.06l0,0,0,0,0,.06,0,0s0,0,0,0l0,0L63,39.85s0,0,0,0l0,.06,0,0,0,0,0,0s0-.06-.05-.06l0,0,0,0,0,.06,0,0s0,0,0,0l0,0,0,0,0,0a.31.31,0,0,0,0-.06s0,0,0,0,0-.05,0-.06l-.05,0s0,0,0,.06l0,0s0,0,0,0l0,0,0,0,0,0,0,.05,0,0,0,0,0,0s0,0,0,0l0-.06,0,0,0,0,0,0,0,0s0,0,0,0l0,0,0,0s0,0,0,0l0,.06,0,0,0,0,0,0s0,0,0,0l0,0,0,0,0-.06,0,0s0,0,0,.06l0,0,0,0,0,0s0,0,0,0l0-.06,0,0,0,.06,0,0,0,0,0,0s0,0,0,0l0,0,0,0s0,0,0,0l.05.06,0,0,0,0,0,0,0,0,0,0,0,0-.11.09,0,0,0,0,0,0,0,0,0,0,0,0,0,0s0-.06,0-.06l0,0,0,0,0,0,0,0,0,0,0,0,.05.06s0,0,0,0l0-.06,0,0s0,0,0,0l.05,0,0,0h0a.62.62,0,0,0-.51-.32l-.57-.06-.55,0L58.82,41,58.24,41l-.49-.07a4.9,4.9,0,0,0-.63-.1l-.6-.06a4.38,4.38,0,0,1-.53,0l-.52-.07-.6-.08-.61,0-.52,0c-.31,0-.46,0-.62-.05l-.51,0-.52-.07-.6-.08a4.37,4.37,0,0,0-.6-.05l-.53,0L49.88,40a4.83,4.83,0,0,0-.64-.1l-.61,0a5,5,0,0,1-.52-.05l-.53-.06a5.28,5.28,0,0,0-.59-.08,4.54,4.54,0,0,0-.65,0l-.48,0a4.73,4.73,0,0,0-.66,0l-.48,0a1.77,1.77,0,0,1-.38-.09,3.15,3.15,0,0,0-.72-.16L43,39.26a3.68,3.68,0,0,1-.51,0l-.54-.07-.58-.06c-.3,0-.47-.05-.61-.06a4.25,4.25,0,0,1-.52,0l-.54-.06-.58-.07a4.86,4.86,0,0,0-.67,0,4.57,4.57,0,0,1-.47,0,2.2,2.2,0,0,1-.44-.09,6.25,6.25,0,0,0-.67-.12l-.54-.06-.58-.07-.53-.07-.59-.08a6.4,6.4,0,0,0-.66,0,3.24,3.24,0,0,1-.48,0l-.61,0c-.14,0-.26,0-.52,0l-.51-.07a4.9,4.9,0,0,0-.61-.09L30.66,38l-.56-.05-.5-.08L29,37.73a6.46,6.46,0,0,0-.67,0,1.92,1.92,0,0,1-.46,0,4.66,4.66,0,0,1-.49-.07,4.9,4.9,0,0,0-.63-.1l-.58-.06-.55-.05a4.61,4.61,0,0,0-.65,0,3.36,3.36,0,0,1-.49,0,2.57,2.57,0,0,1-.43-.08,4.12,4.12,0,0,0-.67-.13l-.6,0-.54,0L21.66,37l-.56-.06-.53-.07L20,36.76l-.53-.07-.59-.08a3.72,3.72,0,0,0-.74,0,1.38,1.38,0,0,1-.41,0,3.41,3.41,0,0,1-.46-.08,5.16,5.16,0,0,0-.66-.11l-.53-.07-.59-.07-.55-.07-.57-.06-.52-.08-.6-.08a3.61,3.61,0,0,0-.75,0,1.75,1.75,0,0,1-.4,0,.62.62,0,0,0-.71.39c-.06.26.18.5.52.54a3,3,0,0,0,.75,0,1.45,1.45,0,0,1,.41,0l.51.06.61.09.55.06.57.07.53.07.59.07c.24,0,.34.06.47.08a3.49,3.49,0,0,0,.65.11,3.61,3.61,0,0,0,.73,0,2,2,0,0,1,.41,0l.54.06a5.28,5.28,0,0,0,.59.08l.53.07.59.07.56.06L22,38l.6.06a4.38,4.38,0,0,1,.53,0,3.65,3.65,0,0,1,.44.09,4.42,4.42,0,0,0,.67.12,4.73,4.73,0,0,0,.66,0,3.24,3.24,0,0,1,.48,0l.58.06.55,0,.48.08c.15,0,.31.06.63.1a6.73,6.73,0,0,0,.68,0,2.47,2.47,0,0,1,.46,0,4.64,4.64,0,0,1,.51.08l.61.09.57.06.56,0,.51.08c.14,0,.3,0,.61.08s.47,0,.61,0,.26,0,.52,0a4.73,4.73,0,0,0,.66,0,3.24,3.24,0,0,1,.48,0l.52.06a6,6,0,0,0,.6.08l.54.07.58.07a1.74,1.74,0,0,1,.44.08,6.25,6.25,0,0,0,.67.12,4.39,4.39,0,0,0,.66,0,3.18,3.18,0,0,1,.48,0l.53.07.59.07.62.05a4.26,4.26,0,0,1,.51,0l.55.06.57.07.63.05.51,0a1.41,1.41,0,0,1,.38.09,3,3,0,0,0,.72.16,6.13,6.13,0,0,0,.65,0l.48,0a4.61,4.61,0,0,0,.65,0l.49,0,.53.07.59.08.61,0,.52,0,.48.08a4.55,4.55,0,0,0,.64.1c.29,0,.45,0,.6.05l.53,0,.52.07c.14,0,.29,0,.6.08l.61.05.52,0,.61,0c.13,0,.26,0,.52,0l.52.07c.14,0,.3.05.6.08l.6.06c.14,0,.27,0,.53,0l.48.07a3.58,3.58,0,0,0,.63.1l.55.07.58.07.57.06.5,0,0,0,0,0,0,0,0,0-.1.1,0,0,0,0,0,0,0,0,0,0,0,0,0,0,0,.06,0,0,0,0,0,0,0,0,0,0s0,0,0,0l.05,0s0,0,0,0l0,0,0,0-.05-.06,0,0,0,0,0,0s0,0,0,0l0,0,0,0,0,0,0,0,0,0,0,0,0,0s0,0,0,0,0,0,0,.05,0,0,0,0l0,0,0,0,0,0-.1.09,0,0,0,0,0,0,0,0,0,0,0,0-.1.09,0,0,0,0,0,0,0,0,0,0,0,0,0,0,0,0,0,0,0,0,0,0,0,0,0,0,0,0,0,0,0,0s0,0,0,0l0,0,0,0,0,0,0,0,0,0,0,0s0,0,0,0l.05,0s0,0,0,0l0,0,0,0s0,0,0,0l0,0,0,0,0,0,.05,0s0,0,0,0l0,0-.1.09,0,0,0,0,0-.05s0,0,0,0l0,0,.05.06s0,0,0,0l0,0,0,0-.06,0,0,0,.05.05,0,0-.06,0s0,0,0,0l0,0s0,0,0,0l0,0,0,0,0,0,0,0,.05,0s0,0,0,0l0,0-.09.11,0,0,0,0,0,0,0,0,0,0h0l-.44,0h-.61l-.54,0-.5,0a5.14,5.14,0,0,0-.65-.06l-.56,0-.59,0-.59,0-.56,0a.59.59,0,0,0-.67.44c0,.26.24.48.59.5l.58,0,.57,0,.55,0,.6,0,.5,0a3.74,3.74,0,0,0,.65.06c.3,0,.46,0,.61,0h.23l0,0s0,0,0,0l0,0,0,0,0,0,0,0s0,0,0,0l-.05-.05,0,0s0,0,0,0l.06,0,0,0,0,0s0,0,0,0l-.06,0s0,0,0,0l0,0,0,0,.06,0,0,0,0,0,0,0,0,0,0,0,0,0,0,0,0,0a0,0,0,0,1,0,0l0,0s0,0,0,0l-.06,0s0,0,0,0l0,0,.06,0s0,0,0,0l0,0,0,0,0,0,0,0,0,0,0,0-.09.11,0,0-.09.11,0,0,0,0,0,0-.09.1,0,0,0,0,0,0,0,0-.05,0,0,0,0,0,0,0,0,0,0,0,0,0,0,0-.05.05,0,0-.08.1,0,0,0,0,0,0-.08.11,0,0,0,0,0,0s0,0,0,0l.06,0,0,0-.06-.05,0,0,.06,0,0,0s0,0,0,0l-.05-.05,0,0,0,0,0,0,0,0,0,0,0,0s0,0,0,0,0,0,0,0l.06,0s0,0,0,0L54.67,48l0,0-.08.11,0,0,0,0,.06.05,0,0-.06,0s0,0,0,0l-.06,0,0,0s.05,0,.06.05l0,0,0,0,0,0,0,0,0,0-.09.1,0,0,0,0,0,0,0,0s0,0,0,0l0,0s.06.05,0,.05,0,0,0,0l-.06-.05,0,0-.08.1,0,0,0,0,0,0,0,.06a1,1,0,0,0-.08.11l0,0-.08.11,0,0,0,0s0,0,0,0,0,0-.06,0l0,0,.06,0s0,0,0,0v0l0,0,0,0,0,0s0,0,0,0l0,0s0,0,0,0l.06,0s0,0,0,0,0,0,0,0l-.06,0s0,0,0,0l0,0,0,0s0,0,0,0l0,0-.08.11,0,0,0,0,0,0,0,0s0,0,0,0l.06,0s0,0,0,0l-.06-.05s0,0,0,0l0,0,0,0,0,0L53,50.19s0,0,0,0l.06,0s0,0,0,0l0,0-.08.11,0,0,0,0,0,0s0,0,0,0l-.06,0,0,0s0,0,0,0l.06,0s0,0,0,0l0,0,0,.05-.08.12,0,0-.08.12,0,0,0,0,0,0,0,.06,0,0,0,.06,0,0-.08.11,0,0,0,0,0,0-.08.12,0,0,0,0,0,0s0,0,0,0l-.06,0,0,0,0,0,.07,0,0,0,0,0,0,0v0s-.06,0-.07,0v0s.06,0,.06,0l0,0,0,0-.07.12v0l0,0,0,0,0,.06-.07.11,0,0,0,.06-.07.12,0,0,0,.06,0,0,0,.06,0,0-.07.11,0,0,0,0v0l-.07.12,0,0,0,0,0,0,.07,0,0,0-.06,0s0,0,0,0,0,0,0,0l0,0v0l0,.06-.07.12,0,0-.07.12,0,0v0l0,0,0,0s0,0,0,0,0,0,0,0l.06,0,0,0v0l-.07,0s0,0,0,0v0l0,0,0,0,0,.06s0,0-.07,0l0,0s.07,0,.07,0l0,0,.07,0s0,0,0,0l0,0-.06,0s0,0,0,0l0,0,0,0s0,0,0,0l0,0,0,0,0,0,.07,0,0,0,0,0-.06,0s0,0,0,0l.07,0s0,0,0,0l-.06,0s0,0,0,0a0,0,0,0,0,0,0l0,0a0,0,0,0,0,0,0s0,0,0,0,0,0,0,0l-.06,0s0,0,0,0,0,0,0,0l.06,0s0,0,0,0l0,0s.06,0,.07,0l0,0v0l-.07,0s0,0,0,0,0,0,0,0v0l0,0,0,0v0l0,0,.07,0s0,0,0,0l-.06,0s0,0,0,0v0l0,0v0l0,0,0,0s0,0,0,0l-.07,0s0,0,0,0l0,0s0,0,0,0l.06,0v0l0,0,0,0,.07,0,0,.06s0,0,0,0l-.06,0s0,0,0,0,0,0,0,0l0,0s0,0,0,0-.05,0-.07,0l0,.06s.06,0,.07,0l0,0,0,0v0l0,0s0,0,0,0l.06,0v0l-.07,0a0,0,0,0,0,0,0l0,0v0l.06,0v0l-.07,0,0,0v0l0,0v0l0,0s0,0,0,0l.06,0s0,0,0,0,0,0,0,0l-.06,0s0,0,0,0l.07,0,0,0-.07,0v0l0,0v0l-.06.12,0,0,0,0v0l0,0v0l0,0,.07,0,0,0-.06,0s0,0,0,0,0,0,0,0,0,0,0,0v0l0,0,0,0v0l0,0s0,0,0,0l.06,0v0l-.07,0a0,0,0,0,0,0,0l0,0v0l-.09.25.22,0h0l0,.07h.07l0-.07h.2l.13,0h.1l.07,0H50s0,.08,0,.08h0v-.07h.24l.14,0h.3l.14,0H51s0,0,0,0v.07s0,0,0,0,0-.07,0-.08h1.38s0,.07,0,.07h0V57.9h.62s0,.06,0,.07,0,0,0,0v-.08h.48v.08h.17s0-.06,0-.07h0v.08h0v-.07h.2s0-.06,0-.07,0,0,0,0,0,0,0,0,0,.07,0,.07,0,0,0,0h.3s0,0,0,0,0,.06,0,.07,0,0,0,0l0-.08h.27l.14,0h.27l0,.07h0l0-.07,0,0h0s0-.05,0-.07h.07l0,.07s0,0,0,0,0,.07,0,.08l0,0h0a.64.64,0,0,1,0-.07h0l.14,0h.13l0-.07s0,0,0,0l0,.07h0l0,0h0l.13,0h.06l0,0h.09s0-.07,0-.07h0l0,.07,0,0h.06s0,0,0,0l0,.06s0,0,0,0h0l0,0,0-.07h0l0,0h.07l0,0h0l.06,0,.13-.06L57,56.8l.13-.06s0-.05,0-.07h0l0,.06s0,0,0,0l0,.06,0,0,0-.06,0,0h0l0,0,0,0h0l0,0,.06,0,0,0,.06,0,0,0h0l0,0,0,0,0,.06s0,0,0,0l0-.06s0,0,0,0l0,0,.05,0,0,0,0,0,0,0,0,0h0l0,0,.06,0,0,0,.06,0h0l0,0,0,0,0,.06,0,0,0-.06,0,0,0,0,0,0,0,0,0,0s0,0,0,0l0,.06s0,0,0,0l0,0s0,0,0,0l0,0,0,0,0,0,0,0,0,0,0,0,0,0,0,.06,0,0,0,0s0,0,0,0l0-.06s0,0,0,0a0,0,0,0,1,0,0l.06,0,0,0,0,0,0,0,0,0,0,0,0,0,0,0,0,0,0,0,0,.06,0,0,0,0,0,0,0,0,0,0,0,0-.05,0s0,0,0,0l0,0,0,0s0,0,0,0l.05.06s0,0,0,0,0,0,0-.05l0,0,0,0,0,0,0,0,0,0,0,0s0,0,0,0l0,.06,0,0s0,0,0,0l0,0s0,0,0,0,0,0,0,0l0,.05s0,0,0,0-.05,0-.05-.06l0,0,0,0,0,0,0,0,0,0,0,0,.05,0,0-.05s0,0,0,0l0,0s0,0,0,0l0,.05.05-.05,0,0,0,0-.06,0s0,0,0,0-.06,0-.06-.05l0,0,0,0,0,0,0,0,0,0,0,0s0,0,0,0,0,0,0,0l.06.05,0,0,0,0a0,0,0,0,0,0,0s0,0,0-.05,0,0,0,0l0,0,0,0s0,0,0,0l.06.05s0,0,0,0l0,0,0,0s0,0,0,0l-.06,0,0,0,0,0,0,0,0,0,.06,0s0,0,0,0l0,0-.06,0s0,0,0,0l.06,0,0,0-.06,0,0,0,0,0,0,0,0-.06,0,0,0-.06,0,0,0,0,0,0,0,0,0,0,0,0s0,0,0,0l.07,0v0s0,0,0,0l-.06,0,0,0,0,0s0,0,0,0l.07,0s0,0,0,0l0,0,0,0v0s0,0,0,0l0,0,0,0,0,0,0,0s0,0,0,0l-.06,0s0,0,0,0l0,0,0,0,0,0s0,0,0,0l.05-.07h.14l0,.07,0,0,.07,0,0,0-.06,0s0,0,0,0l.06,0s0,0,0,0l.07,0,0,.06h0l0,0s0,0,0,0l0,0s0,0,0,0l0,0s0,0,0,0l-.05,0s0,0,0,0l0,0,.06,0,0,0,0,0,0,0,0,0s0,0,0,0l0,.05,0,0,0,0,0,0s0,0,0,0l.06-.05,0,0,0,0,0,0,0,.06,0,0,0,0a0,0,0,0,1,0,0l0,0,0,0,0,.05,0,0,0,0,.05,0,0,0,0,0s0,0,0,0l-.05.06,0,0L62,54l0,0s0,0,0,.06l0,0,.06,0s0,0,0,0l0,0,0,0,0,0,0,0,0,.05a0,0,0,0,0,0,0,.13.13,0,0,1,0-.06s0,0,0,0l0,0,0,.05,0,0,0,0,0,0,0,0s0,0,0,0l0,0s0-.06.05-.06l0,0,0,0,0,0,0,0,0,.06s0,0,0,0l0-.05s0,0,0,0l0,0,0,0,.05,0,0,0,0,0,0,0,0,.06,0,0s0-.06,0-.06l0,0,0,0,0,0,0,0,0,0,0,0,0,0,0,0s0,0,0,0l0,0,0,0s0-.06,0-.06l0,0,0,.06s0,0,0,0,0,0,0,.06,0,0,0,0,0-.05,0-.06l0,0,0,0,0-.06,0,0,0,.06,0,0,0,0,0,0s0,0,.05-.06,0,0,0,0,0,0,.05-.06l0,0,0,.06s0,0,0,0l0,0,0,0,0,0s0,.06,0,.06,0,0,0,0l0,0,0,0,0-.06h0l0,0s0,0,0,0l0,.06s0,0,0,0l0,0,0,0s0-.06,0-.06h0l0,0,0,0,0,0,0,0,0,0,.06,0,0,0,.07,0,0,0,0,0h0l0,0,0,0h0l0,0,0,0h0l0,0,0,.06,0,0s0-.06,0-.06,0,0,0,0l0,.07s0,0,0,0l0,0,0,0a.49.49,0,0,1,0-.07l0,0h0l0,0h0l0,0h0l0,0h0s0,0,0,0,0,.06,0,.06l0,0s0,0,0,0l0-.07s0,0,0,0,0,0,0,.07h0L65,56l0,0,0,.07h0l0-.07,0,0h0l0,0,0,.07h.09l0,0s0,0,0,0,0-.06,0-.07l0,0s0,0,0,0,0,.06,0,.07h.07l0,0a.17.17,0,0,1,0,.06l0,0,0-.07s0,0,0,0h0l0,0h0s0-.06,0-.07h0l0,0h.17l0,0H66l0,.07h0l0-.07h.07s0,.06,0,.07h0s0,0,0,0l0-.07h0s0,.06,0,.07h0l0-.07,0,0s0,0,0,0h.24l.13,0h.27l0,.07s0,0,0,0h.24l0-.07h.13v.07h0s0,0,0,0,0,0,0,0,0-.06,0-.07,0,0,0,0h0l.07,0h.21s0,.06,0,.07h0v-.08h0v.07s0,0,0,0h0v-.07h.35V57h.14v-.07s0,0,0,0h.1V57h.06s0-.06,0-.07h.07V57h0v-.07h.07V57h.07V57s0,0,0,0H69s0,.07,0,.08H69V57h.07V57h.34s0-.06,0-.07h0V57h.07V57h.14V57h0s0-.07,0-.08h.07s0,.06,0,.07h.11V57h.42V57h0v-.07h.11V57h0v.07h0s0-.07,0-.08,0,0,0,0v-.08h.31s0,0,0,0,0,.06,0,.07,0,0,0,0H71s0-.06,0-.07h.07v.08h.17v-.08h.07s0,0,0,0,0,0,0,0,0,.06,0,.07,0,0,0,0v-.07h.1s0,.07,0,.07h0v-.07s0,0,0,0h.07s0,.06,0,.07,0,0,0,0l0-.07h0v.08h.11a.2.2,0,0,0,0,.07s0,0,0,0l0-.07h0s0-.06,0-.07,0,0,0,0l0,.07h0s0-.06,0-.07h0s0,0,0,0,0,0,0,0v.07h.07l0-.07h.17s0,0,0,0,0,.06,0,.07h.1l0-.07h.1l0,.07s0,0,0,0,0,0,0,0,0,0,0-.06,0,0,0,0h0s0,0,0,0,0,.06,0,.07,0,0,0,0h0l0,0h.07s0,.06,0,.07l.07,0h0s0-.07,0-.07h0l0,0h.07s0-.06,0-.07h0l0,.07h.07l0,0,.07,0h0l.06,0,0,0,.06,0h0l0,0h0l0,0,.06,0,0,0h0l0,0h.06l0,0h0s0,0,0,0l0-.06,0,0s0,0,0,0,0,.07,0,.07l0,0h0l0,0h0l.07,0h0l0,0,0,0h0l0,0,0-.07h0l0,.06h0l.06,0h0l0,0h0l0,0,.06,0,0,0,.06,0,0,0,.06,0,0,0,.06,0,0,0,.06,0,0,0,.06,0,0,0,.06,0,0,0,.06,0,0,0,.06,0,0,0,.06,0,0,0,.06,0,0,0,0,0,0,0,0,0,0,0,0,0,0,0,0,0,0,0,0,0,0,0,0-.06,0,0,0,.06,0,0,0-.05,0,0,.06,0,0,0,0,0,0,0,0,0,0,0,0,0,0,0,0,0,0,0,0,0,0,0s0,0,0-.05,0,0,0,0l0,.06,0,0,0,0,0,0,0,0,0,0s0,0,0-.06l0,0,.05,0,0,0,0,0,0,0,0,0s0,0,0-.05,0,0,0,0l0,0s0,0,0,0a0,0,0,0,0,0,0l0,0s0,0,0,0l0,0,0,0,0,0,0,.05,0,0,0-.05,0,0L77,54l0,0,0-.05,0,0,0-.05,0,0,0,0,0,0-.06,0,0,0,0,0,.06.05,0,0,0,0,0,0s0,0,0,0,0,0,0,0l.06.05,0,0s0,0,0,0l0,0,0-.05,0,0,0,0,0,0,0,0,0,0,0,0,0,0s0,0,0,0l.06,0,0,0-.11-.1,0,0,0,0a0,0,0,0,1,0,0l0,0s0,0,0,0,0,0,0,0l.06,0,0,0,0,0,0,0,0,0,0,0,0,0,0,0,0,0s0,0,0,0l.06,0,0,0,0,0s0,0-.06-.05l0,0,0,0,0,0s0,0,0,0l.06,0s0,0,0,0l0,0s0,0,0,0l-.06,0,0,0s0,0,0,0l0,0-.06,0v0s0,0,0,0l.06,0,0,0,0,0,0,0,0,0,0,0s0,0,0,0l0,0,0,0,0,0,0,0-.07,0s0,0,0,0l.06,0s0,0,0,0l0,0,0,0,0,0v0l.07,0,0,0v0l-.06,0s0,0,0,0l0,0v0l0,0v0l0,0,0,0-.07,0,0,0,.06,0s0,0,0,0v0s0,0,0,0l-.07,0,0,0v0s0,0,0,0,.06,0,.07,0,0,0,0,0l.07,0v0s0,0-.06,0l0-.07v0l0,0-.07,0v0s.07,0,.07,0,0,0,0,0a.1.1,0,0,0,0,0s-.07,0-.07,0v0l0,0h0l0-.05,0-.13,0-.07c0-.08.07-.16.1-.25h.07a1.86,1.86,0,0,0,.1.25l-.05.12v0l0,0a0,0,0,0,1,0,0,.06.06,0,0,1,0,0s0,0,0,0l0,0v.08l0,0v0l-.07,0s0,0,0,0a0,0,0,0,0,0,0s0,0,0,0,0,0,.06,0,0,0,0,0v0l0,0v0l0,0,0,0s0,0,0,0l0,0a.1.1,0,0,0,0,0l.07,0s0,0,0,0-.06,0-.06,0,0,0,0,0v0l0,0s0,0,0,0l-.06,0s0,0,0,0l.07,0v0l0,0,0,0,0,.06v0l0,.06,0,0,0,.06v0l0,0,0,0,0,0,0,.06,0,0,0,0s0,0,0,0l-.06,0s0,0,0,0v0s0,0,0,0l.06,0s0,0,0,0l0,0,0,0s0,0,0,0-.06,0-.06,0l0,0,.06,0,0,0,0,.06,0,0,0,0,0,0,0,0,0,.06,0,0,0,.05,0,0,0,.06,0,0,0,0,0,0,0,0a.1.1,0,0,0,0,.05l0,0,0,0s0,0,0,0,0,0,0,0l-.06,0,0,0,0,0,0,0,0,0-.06,0,0,0,.05,0,0,0,0,0,0,0s0,0,0,0l0,0s0,0,0,0l.06-.05,0,0-.06,0,0,0s0,0,0,0l0,0s0,0,0,0l0,0,0,0s0,0,0,0l0,0,0,0,0,0,0,0,0,0,0,0,0,0,0,0s0,0,.06,0l0,0,0,0,0,0s0,.05,0,.06l0,0,0-.05,0,0,0,0,0,0,0,0,0,0,0,0,0,0,0,0,0,0s0,0,0,0l0,0,0-.05s0,0,0,0,0,0,0,0l0,0,0,.05,0,0,0,0s0,0,0,0,0-.05,0-.05l0,0,0,0s0,0,0,0,0,0,0,0l0-.06,0,0,0,.06s0,0,0,0l0,0,0,0,0,0,0,0,0,0,0,0,0,0,.11.09,0,0,0,0,0,0,0,0s0,0,0,0l0-.05,0,0,0,0,0,0s0,0,0,.06,0,0,0,0l0,0s0-.05,0-.06l0,0,0,0,0,0,0,0,0,0,0,0,0,0s0,0,0,0a.31.31,0,0,0,0,.06l0,0,0-.06,0,0,0,0,0,0,0,0,0,0,0,0,0,0,0,.06,0,0h0l0,0,0,0,0,0s0-.06,0-.06l0,0,0,0h0l0,0,0,0,.12.07,0,0,0,0,0,0,.06,0,.12.06.13.07.06,0,0,0h0l0,0,.12.07h0l0,0,0,.06,0,0,0,0,0-.07,0,0h0l0,0h0l0,0,.13,0h0l0,0h0l0,0h.06l0,0h0s0,.06,0,.07,0,0,0,0,0,.06,0,.07l0,0,0-.07s0-.07,0-.07,0,0,0,0l0,0h.07l0,0,.13.05h.1l.06,0,0,0H85l0,.07s0,0,0,0h0l0-.07h0l.07,0h.06l0,0h.1s0,.07,0,.07,0,0,0,0h0l0-.07h.1a.64.64,0,0,0,0,.07h0l0-.07h0l.13,0h.14s0,0,0,0,0,.06,0,.07H86s0-.07,0-.07,0,0,0,0h0s0,.06,0,.07,0,0,0,0,0,.06,0,.07h0l0-.08h.13v.07h.1s0-.06,0-.07,0,0,0,0,0-.06,0-.08l.07,0h.06s0,.07,0,.07,0,0,0,0h.11v-.07h.1V57H87s0,0,0,0,0-.06,0-.07h0s0,0,0,0h.14V57s0,0,0,0h.07V57s0,0,0,0,0,.07,0,.07h.17s0,0,0,0V57H88v.07h.31s0,0,0,0,0,0,0,0V57h.11v.08h.07s0-.06,0-.07h0v.08s0,0,0,0,0,.06,0,.07h0s0-.06,0-.08h0s0,0,0,0,0,0,0,0V57h0s0,.07,0,.07,0,0,0,0H89S89,57,89,57h.11s0,.07,0,.08h.07V57s0,0,0,0,0,0,0,0h.07s0,.07,0,.08h.07V57h.31a.22.22,0,0,1,0,.08h.11s0-.06,0-.07h.27V57h.07s0-.06,0-.07h.11l.13,0h.24s0,.07,0,.07,0,0,0,0h.24l0-.07H91s0,0,0,0v.07h.21s0,0,0,0l0-.07h.1l0,.07h0s0,0,0,0l0-.07h.17s0,.07,0,.07,0,0,0,0h.1s0-.07,0-.07h.07l0,0h0l0,.07H92l0,0h.1s0-.06,0-.07h.06l0,0s0,.07,0,.07h0s0,0,0,0,0-.06,0-.07,0,0,0,0h0l0,.07h.07l0,0h.1l0,0h0l0,0s0-.06,0-.06l0,0s0,.07,0,.07h0l0,0a.49.49,0,0,1,0-.07h0s0,.06,0,.07l0,0s0,0,0,0l0-.07h0l0,.06h0l.13-.06h.06l0,0a.31.31,0,0,0,0-.06l0,0h0l0,.06h0l0-.07h0l0,0a.21.21,0,0,1,0,.07l0,0h0l0-.07,0,0,0,.07,0,0h0l0,0,0,0s0,0,0,0,0,.06,0,.06,0,0,0,0l0,0s0,0,0,0l0-.06,0,0,0,.07,0,0s0-.06,0-.06l0,0,0,0h0l0,0s0,.06,0,.06h0l0,0a.31.31,0,0,0,0-.06l0,0,0,0h0l0,0,.06,0,.12-.08.12-.07.06,0,0,0,0,0h0l0,0,0,0,.11-.08,0,0,0,0,0,0,0,0,0,0a0,0,0,0,1,0,0s0,0,0,0,0,.06,0,.06,0,0,0,0l0,0,0-.06s0,0,0,0,0,0,0,0l0,0,0,0,0,0,0,0,0,0,0,0,0,0,0,0,0,0,0,.05s0,0,0,0l0,0,0,0,0-.06,0,0s0,0,0,0,0,.06,0,.06l0,0s0,0,0,0l0,0,0,0,0,0,0,0,0,0s0,0,0,0l0,0,0-.06s0,0,0,0l0,0,0,0,0,0,0,0,0,0s0,0,0,0l.05.06,0,0-.05,0s0,0,0,0l0,0,0,0s0,0,0,0,0,0,.05,0l0,0,0,0s0,0,0,0l0,0s0,0,0,0l0,0,0,0,0,0s0,0,0,0l0,0s0,0,0,0,0,0,0,0l0,.05s0,0,0,0l0,0a0,0,0,0,1,0,0l0,0a0,0,0,0,0,0,0l0,0,0,0,0,0,0,0s0,0,0,0l0,0,0,0,0,0,0,0s0,0,0,0,0,0,0,0,0,0,0,0l-.06,0,0,0,0,0,0,0s0,0,0,0,0,0,0,0l0,0,0,0,0,0,0,0,0,0,0-.05,0,0,.06.05s0,0,0,0l-.06,0,0,0,0,0,0,0,0,0,0,0,0,0,0-.06,0,0,0,0,0,0,0,0s0,0,0,0l0,0,0,0L97,53s0,0,0,0l0,0,0,0s0,0,0,0l0,0s0,0,0,0l.06,0,0,0s0,0,0,0-.06,0-.06-.05l0,0s0,0,0,0l-.06,0s0,0,0,0l.06,0s0,0,0,0,0,0,0,0l0,0,0,0v0l0,0,0,0,.07-.12,0,0,0,0s0,0,0,0l.07-.12,0,0,0,0,0,0v0l0,0,0,0s0,0,0,0l0,0,.06,0s0,0,0,0,0,0,0,0l-.06,0s0,0,0,0l0,0v0l0,0,0,0,.06,0s0,0,0,0a.06.06,0,0,0,0,0l0,0s0,0,0,0l-.06,0s0,0,0,0l.06,0,0,0v0l0,0v0s-.06,0-.06,0,0,0,0,0,0,0,0,0l0,0,0,0v0h0s0,0,0,0h0s0,0,0,0l0,0v-.06L98,51s0,0,0,0l0,0v0l0-.11c0-.1.08-.19.11-.29h.08l.12.29v.12l0,.07a0,0,0,0,0,0,0l0,0v0s0,0,0,0,0,0,0,0l.07,0,.07,0s0,0,0,0l-.06,0s0,0,0,0l0,0s0,0,0,0l0,0s0,0,0,0,.06,0,.06,0,0,0,0,0h0l0,0v0l0,0a0,0,0,0,0,0,0s0,0,0,0l.06,0s0,0,0,0l0,0v0s0,0,0,0l-.07,0s0,0,0,0l.06,0,0,0,0,0v0l0,0s0,0,0,0-.06,0-.06,0,0,0,0,0l0,0s0,0,0,0,0,0,0,0l.07,0,0,0v0s0,0,0,0l-.06,0s0,0,0,0l0,0v0l0,0,0,0,0,0,0,0s0,0,0,0,0,0,0,0,.06,0,.07,0,0,0,0,0v0l0,0s0,0,0,0-.06,0-.06,0,0,0,0,0l0,0v0s0,0,0,0l0,0,0,0,0,0s0,0,0,0l-.06,0s0,0,0,0l0,0,0,0s0,0,0,0l.06,0s0,0,0,0l0,0s0,0,0,0l0,0s0,0,0,0l.06,0s0,0,0,0l0,0,0,0,0,0s0,0-.06,0l0,0,0,0,.06,0s0,0,0,0l0,0s0,0,0,0l0,0s0,0,0,0l.06-.05s0,0,0,0l0,0-.06,0,0,0,0,0s0,0,0,0l0,0,0,0,0,0,.09.11,0,0,0,0,0,0,0,0,0,0,0,0,0,0,0,0,0,0,0,0,0-.05s0,0,0,0,0,0,0,0l0,0,0,0,0,0,0,0,0,0s0,0,0,0l.06-.06,0,0,0,0s0,0,0,0,0,.05,0,.05,0,0,0,0l0,0,0,0,0,0,0,0,.05.05,0,0,0,.05,0,0,.11.1,0,0,0,0,0,0,0,0,0,0,0,.06s0,0,0,0l0,0s0,0,0,0,0-.05,0-.06l0,0,0,0,0,0,0,0,0,0,0,0,0,0,0,0,0,0s0,0,0,0l0,.06,0,0,0,0,0,0s0-.06.05-.06l0,0,0,0s0,0,0,0,0,0,0,0l0,0,0,0,0,0s0-.06,0-.06l0,0,0,0,0,0,0,0,0,0,0,0,0,0s0,0,0,0,0,0,0-.06l0,0,0,.05s0,0,0,.06,0,0,0,0,0,0,0,.06l0,0,.06,0s0,0,0,0l0-.07,0,0,0,0,0,0,0-.06,0,0,0,0,0,.06,0,0s0,0,0,0l0-.06,0,0,0,.06,0,0,0,0,0,0,0,0,0,0,0,0h0l0,0,0,0,0,0s0,0,0,0l0-.07,0,0,0,0s0,0,0,.06l0,0h0s0-.06,0-.06l0,0,0,.06,0,0,.13.06,0,0h0l0,0,0,0,0-.07,0,0s0,.06,0,.06l0,0,0-.07,0,0,0,0a.33.33,0,0,1,0,.06s0,0,0,0,0,.06,0,.07,0,0,0,0,0-.05,0-.06h0l0,0h0l0,0,0-.07h0s0,0,0,0l0,.06,0,0h0l0,0h0l0,0h0l.06,0h0l.07,0h0l0,0h0l0,0h.06l.07,0h0l.07,0,0,0h.07l0-.07h0s0,.07,0,.07h.07l0,0h0l.07,0H104l0,0h.16l0,0s0-.07,0-.08h.07s0,.06,0,.07,0,0,0,0h0l.07,0h.27l0-.07h0s0,.07,0,.07h.1l0-.07h0l0,.07H105s0-.07,0-.08h0l0,.07h.11l.07,0h.27V57h0a.25.25,0,0,0,0-.07h.1v.08h0s0,0,0,0,0-.06,0-.07,0,0,0,0l0,.08h.14V57h.18v.07h0V57h.32v.07h.07s0,0,0,0v-.07s0,0,0,0v.07s0,0,0,0h0s0-.06,0-.07h.07v.07h.07s0-.06,0-.07h.28s0,.06,0,.07,0,0,0,0v-.07h.28s0,0,0,0v.08h.07v-.08h.21v.08H108s0,0,0,0,0-.06,0-.07h.18v.07h0v.07s0,0,0,0h0s0-.06,0-.07h0s0,0,0,0V57.1h.07s0,.07,0,.08h.17s0-.06,0-.07h.07v.08h.15s0-.07,0-.07,0,0,0,0h0v.07s0,0,0,0V57h.11v.07h.07s0-.06,0-.07,0,0,0,0,0,0,0,0,0,.06,0,.07,0,0,0,0,0,.06,0,.07,0,0,0,0,0-.06,0-.07h.07a.64.64,0,0,0,0-.07h.18s0,0,0,0,0,.07,0,.08h.13l.07,0s0,.07,0,.08h0s0-.07,0-.07h.1s0-.06,0-.07H110s0,.06,0,.07,0,0,0,0h0l0-.08h0s0,.06,0,.07h.07s0-.06,0-.07h.13s0,0,0,0,0,0,0,0l0,.07h.24l0-.07h.07l0,.08s0,0,0,0h0s0,0,0,0,0,.06,0,.07,0,0,0,0,0-.07,0-.07h0l0,0h.07l0-.07H111s0,0,0,0,0,.07,0,.07l0,0a.24.24,0,0,1,0-.07h.11l0,.07h0l0-.07h.1l0,0h0l0,.07s0,0,0,0l0-.07s0,0,0,0h.1l0,0s0,.06,0,.07h0l0-.07h0l0,.06h.1l0,0h0l0-.07h0l0,.07,0,0,0-.06,0,0a.21.21,0,0,0,0,.07l0,0,0-.06,0,0h0l0,0,0,.07,0,0s0-.06,0-.06l0,0h0l0,0h0s0,.06,0,.06,0,0,0,0l0,0h0l0,0h0l0,0h0l0,0h0l0-.07,0,0s0,.06,0,.07l0,0,0-.06,0,0s0,.07,0,.07l0,0,0,0h0s0,0,0,0,0-.06,0-.07,0,0,0,0l0,0,0,0,0,.07s0,0,0,0l0,0h0l0,0,0,0,0-.06s0,0,0,0h0l0,.06,0,0,0,0s0,0,0,0l0-.06,0,0,0,.07,0,0,0,0,0,0,0,0,0,0s0,0,0,0l0-.06s0,0,0,0l0,0h0s0,.06,0,.06l0,0,0,0,0,0s0,0,0,0l0,0,0,0,0,0s0,.06,0,.06,0,0,0,0,0,0,0,0,0,0,0-.06,0,0,0-.06l0,0,0,.06.06,0,0,0,.11-.08,0,0,0,0,0,0,0,0,0,0s0,.06,0,.06l0,0,0-.06,0,0s0,.06,0,.06l0,0,0,0,0-.05,0,0,0,0,0,0,.11-.09,0,0,0,0,0,0,0,0,0,0,0,0,0,0,0,.06,0,0,0-.06s0,0,0,0l0,0,0,0,0,0,0,0,0,0,0,0,0,0,0,.06s0,0,0,0l0,0s0,0,0,0l0,0,0,0,0,0,0,0,.1-.1,0,0,0,0,0,0,0,.06s0,0,0,0l0,0s0,0,0,0l-.05-.05,0,0,0,0,0,0,0,0,0,0,0,0,0,0,0,0,.09-.11,0,0,0,0,0,0,0,0,0,0,0,0,.09-.1v0l.06,0s0,0,0,0,0,0,0,0,0,0,0,0l-.06,0,0,0s.06,0,.06,0l0,0s0,0,0,0l0,0-.06,0s0,0,0,0l0,0,0,0,0,0h0l0,0h0l.09-.11H116l.1.15,0,0,0,0,0,0,.06,0,0,0-.06,0,0,0,0,0,.06.05,0,0,0,0,0,0,.06,0,0,0-.06,0,0,0,0,0,0,0,0,0,0,0,0,0h0l0,0s0,0,0,0l.06,0s0,0,0,0,0,0,0,0l0,0s0,0,0,0,0,0,0,0l.06,0,0,0-.06,0s0,0,0,0l0,0,0,0,0,0,0,0,0,0,0,0,0,0s0,0,0,0l0,0,0,0s0,0,0,0l-.05,0s0,0,0,0l0,0,.06-.05s0,0,0,0l.06,0s0,0,0,0l0,0,0,0,0,0,0,0,0,0,.06,0s0,0,0,0l0,0,0,0,0,0,0,0,0,0,0,0a.52.52,0,0,0,.1.11l0,0,0,0,0,0s0,0,0,0l-.06,0,0,0s0,0,0,0l.06,0s0,0,0,0l0,0,0,0,0,0,0,0,0,0s0,0,0,0l-.05.06s0,0,0,0l0,0,0,0s0,0,0,0l0,0,0,.06,0,0s0,0,0,0,0-.06,0-.06,0,0,0,0l0,0,0,0,0,0,0,0,0,0,0,0,0,0,0,0,0,0,0,0s0,0,0,0,0,0,0,.06,0,0,0,0l0,0,0,0,0,0,0,0,0,0,.05-.06,0,0,0,0s0,0,0,0l0,0,0,0,.05-.06,0,0-.05.06,0,0s0,0,0,0l0-.06,0,0,0,0,0,0,0,0,0,0,0,0,0,0,0,0,0,.06,0,0,0,0,0,0s0,0,0-.06l0,0,0,0,0,0,0,0,0,0,0,0,0,.06,0,0,0,0,0,0,0,0s0-.05,0-.06l0,0,0,.06s0,0,0,0l0,0,0,0s0,0,0,0l0-.06,0,0,0,0a.31.31,0,0,0,0,.06l0,0,0,0,0,0h0l0,0s0-.06,0-.06l0,0,0,.06,0,0s0-.06,0-.06,0,0,0,0l0,0,0,0,0,0,0,0s0,.05,0,.06l0,0,0,0,0-.07,0,0,0,.06,0,0s0-.06,0-.06l0,0h0l0,0,0,.07h0a.05.05,0,0,0,0,0,.49.49,0,0,0,0-.07l0,0,0,0h0l0,0,0,.06,0,0,0,0,0-.07,0,0,0,.06s0,0,0,0,0,0,0,0l0,.06s0,0,0,0,0-.06,0-.07,0,0,0,0,0,0,0,0,0-.06,0-.06,0,0,0,0l0,0,0,0,0,.06,0,0s0,0,0,0l0-.06s0,0,0,0,0,.06,0,.07h0l0,0H120l0,0h0s0,.06,0,.07,0,0,0,0h.06s0-.06,0-.06,0,0,0,0h0l0,0h0l0,0,.06,0,0,0h0l0,0h.14s0,0,0,0l0,.06,0,0h.06s0,0,0,0,0-.06,0-.07l0,0h0l.07,0h0l.07,0h0l.07,0h0l.07,0h0l.07,0h0l.07,0h0l.07,0h.1l0-.07h0s0,.07,0,.07h.49l0,.07h.07s0,0,0,0v-.07s0,0,0,0h0v.07h0a.31.31,0,0,0,0-.08h.35l.07,0H123l.14,0h.14s0,.06,0,.08,0,0,0,0,0,.06,0,.07h.07v-.07a.22.22,0,0,1,0-.08h0v.07h.07v-.08h.07s0,.07,0,.07h.14a.22.22,0,0,1,0-.08h.21v.07H124s0-.07,0-.08h.08v.07h0v-.07h.39v-.08h0v.07h.14v.07h0s0-.07,0-.07h.39v.07h0v-.08h1v.07h0v-.07h.28s0,.06,0,.07h0l0-.07s0,0,0,0h.1s0,.08,0,.08h0s0-.06,0-.07,0,0,0,0h.25l.07,0h0l.07,0h.24l.07,0h.14a.24.24,0,0,0,0,.08h0l0-.07s0,0,0,0h.1l.07,0h0l0,0h.07a.19.19,0,0,1,0,.07s0,0,0,0h.1l0-.07.07,0s0,.07,0,.07l.09,0,.1-.06.09-.06.08-.07.07-.07,0-.06v-.06Zm-9.68-13.56h0Zm-20-11v.06h0ZM84.1,31.56h0s0-.05,0-.07ZM49.36,56.75h0a.43.43,0,0,0,0,.05v0h0s0,0,0,0v0l0-.06Zm.34.67,0,0v0l-.05-.11.1,0h0S49.7,57.41,49.7,57.42Z"/><path class="cls-1" d="M21,5.68l.41.25c.11.06.22.14.46.27a4.24,4.24,0,0,0,.49.26l.41.22.43.26.45.26c.24.14.38.21.5.27a4.07,4.07,0,0,1,.41.21.74.74,0,0,1,.26.21,2.27,2.27,0,0,0,.52.4,3,3,0,0,0,.53.26,2.42,2.42,0,0,1,.39.2,5.35,5.35,0,0,0,.53.27,2.08,2.08,0,0,1,.4.2l.4.24a4.76,4.76,0,0,0,.46.28c.24.14.36.21.49.27a4.7,4.7,0,0,1,.77.46,3.87,3.87,0,0,0,.47.32l.48.26a4.08,4.08,0,0,1,.42.23l.4.24a5.11,5.11,0,0,0,.46.29c.24.14.37.2.49.26l.42.22c.23.14.37.21.49.27a3.65,3.65,0,0,1,.41.22c.21.11.3.18.4.24a5.11,5.11,0,0,0,.46.29l.48.26.42.23c.19.11.27.17.36.23a5.48,5.48,0,0,0,.48.32l.41.25.45.27.45.25.44.25a.78.78,0,0,0,.88-.08.4.4,0,0,0-.11-.66l-.45-.26-.44-.25-.42-.25-.44-.27c-.2-.11-.27-.17-.37-.23a3,3,0,0,0-.47-.32l-.48-.26a4.08,4.08,0,0,1-.42-.23l-.4-.24a5.11,5.11,0,0,0-.46-.29c-.24-.14-.37-.2-.49-.26s-.22-.11-.42-.23l-.49-.26a3.65,3.65,0,0,1-.41-.22l-.4-.24a5.11,5.11,0,0,0-.46-.29,5.35,5.35,0,0,0-.48-.26L30.58,10a3.55,3.55,0,0,1-.35-.23,2.26,2.26,0,0,0-.48-.32c-.24-.14-.36-.21-.49-.27L28.85,9l-.41-.25L28,8.47a5.35,5.35,0,0,0-.53-.27,3.63,3.63,0,0,1-.4-.2,4,4,0,0,0-.53-.26,2.92,2.92,0,0,1-.39-.2.79.79,0,0,1-.27-.21,2.15,2.15,0,0,0-.51-.4,5,5,0,0,0-.51-.26l-.41-.21L24,6.2l-.45-.26-.49-.27a3.59,3.59,0,0,1-.42-.22l-.41-.25-.45-.27a.8.8,0,0,0-.89.08A.41.41,0,0,0,21,5.68Z"/><path class="cls-1" d="M40.57,17.1c.26.14.42.21.55.27s.21.09.41.2l.46.27.44.25a2.38,2.38,0,0,1,.37.24c.11.08.24.17.49.32a5.54,5.54,0,0,0,.57.28,2.06,2.06,0,0,1,.39.18l.39.25c.11.08.23.16.48.31l.46.26.44.25a4.5,4.5,0,0,1,.4.25,4.4,4.4,0,0,0,.48.3,3.87,3.87,0,0,0,.5.27c.11.06.22.11.42.23a3.29,3.29,0,0,0,.56.27,2.92,2.92,0,0,1,.39.2c.22.12.31.19.42.25a5.11,5.11,0,0,0,.46.29l.43.26.46.27a1.56,1.56,0,0,1,.33.24,4,4,0,0,0,.51.35,3.71,3.71,0,0,0,.55.27,2.92,2.92,0,0,1,.4.2l.42.25c.12.07.23.15.47.28a4.67,4.67,0,0,0,.5.27l.43.23.43.26.46.27.51.27a2.94,2.94,0,0,1,.42.22,1.18,1.18,0,0,1,.28.22,2.06,2.06,0,0,0,.52.4,5.23,5.23,0,0,0,.54.27,2.93,2.93,0,0,1,.41.2,4.92,4.92,0,0,0,.53.28,2.93,2.93,0,0,1,.41.2l.41.26.47.28c.24.14.37.21.5.27s.22.11.42.23a3,3,0,0,1,.37.24,4.33,4.33,0,0,0,.49.33l.48.26.44.24.4.25.47.29.5.27.43.23c.24.14.37.2.5.27a3.59,3.59,0,0,1,.42.22l.41.26.47.29.49.26.43.24a2.38,2.38,0,0,1,.37.24,4.67,4.67,0,0,0,.49.32l.43.25a3.75,3.75,0,0,0,.46.28l.46.26.44.26a.73.73,0,0,0,.39.1.67.67,0,0,0,.49-.19.4.4,0,0,0-.11-.66l-.46-.26-.44-.26-.43-.25L68.39,32a3.34,3.34,0,0,1-.38-.24,4.25,4.25,0,0,0-.48-.32c-.24-.14-.37-.2-.49-.26l-.43-.24-.41-.25c-.11-.08-.23-.15-.47-.29s-.37-.21-.5-.27-.22-.11-.42-.23l-.5-.27a3.54,3.54,0,0,1-.43-.22l-.41-.25a5.16,5.16,0,0,0-.47-.3l-.48-.27a3.22,3.22,0,0,1-.43-.23,2.38,2.38,0,0,1-.37-.24,4.33,4.33,0,0,0-.49-.33,5.07,5.07,0,0,0-.5-.26l-.42-.23c-.21-.12-.31-.19-.42-.26s-.22-.15-.46-.28a5.92,5.92,0,0,0-.54-.28c-.11-.05-.21-.09-.41-.2a5.92,5.92,0,0,0-.54-.28,2.42,2.42,0,0,1-.4-.2,1,1,0,0,1-.28-.21,2,2,0,0,0-.52-.41c-.25-.14-.39-.21-.52-.27a4.63,4.63,0,0,1-.42-.22l-.43-.26-.46-.27c-.24-.14-.38-.21-.5-.27a3.59,3.59,0,0,1-.42-.22l-.43-.26-.46-.28a4.32,4.32,0,0,0-.56-.27,2.92,2.92,0,0,1-.39-.2,2.14,2.14,0,0,1-.34-.23,3,3,0,0,0-.5-.35l-.43-.26-.46-.27a4.55,4.55,0,0,1-.41-.26L49.54,21c-.26-.14-.41-.21-.55-.27a3.63,3.63,0,0,1-.4-.2c-.24-.14-.38-.2-.5-.26s-.22-.11-.42-.23-.3-.19-.4-.25a4.4,4.4,0,0,0-.48-.3c-.23-.14-.34-.2-.46-.26l-.44-.26-.39-.25c-.11-.07-.23-.16-.48-.3a4,4,0,0,0-.57-.28,2.06,2.06,0,0,1-.39-.18l-.37-.25c-.11-.08-.24-.17-.49-.32l-.46-.26-.45-.26c-.25-.14-.41-.21-.54-.27a3.59,3.59,0,0,1-.41-.2.78.78,0,0,0-.88.08A.41.41,0,0,0,40.57,17.1Z"/><path class="cls-1" d="M47.5,6.69l.4.33c.21.17.34.26.45.34a4.28,4.28,0,0,1,.38.27,1,1,0,0,1,.23.26,2,2,0,0,0,.43.47,3.49,3.49,0,0,0,.48.34,2.35,2.35,0,0,1,.36.26,4.24,4.24,0,0,0,.48.34l.36.26c.19.16.27.23.36.32l.41.34a5.11,5.11,0,0,0,.43.33c.1.08.2.14.38.29a3.76,3.76,0,0,1,.32.29,3.25,3.25,0,0,0,.41.39l.43.34c.1.07.2.14.38.29s.27.23.36.31.19.18.4.35.33.25.44.33.2.14.38.29.33.25.44.33.2.14.38.29.26.22.35.31l.4.35c.21.17.33.25.44.33l.38.29a3.76,3.76,0,0,1,.32.29,2.72,2.72,0,0,0,.41.38l.38.32a3.85,3.85,0,0,0,.4.33c.19.17.3.25.4.33l.39.31a.73.73,0,0,0,.46.16.8.8,0,0,0,.43-.13.4.4,0,0,0,0-.67l-.4-.32L60.59,16l-.37-.31c-.1-.09-.2-.18-.4-.34a3.49,3.49,0,0,1-.32-.3,5,5,0,0,0-.42-.38l-.43-.33c-.1-.07-.2-.14-.38-.29l-.35-.31-.41-.35-.44-.34a4.25,4.25,0,0,1-.38-.28l-.44-.34-.38-.28-.35-.31a3.94,3.94,0,0,0-.41-.35c-.2-.17-.31-.25-.42-.33s-.2-.14-.38-.29a2.49,2.49,0,0,1-.32-.3c-.09-.09-.19-.2-.41-.39s-.33-.25-.44-.33-.2-.14-.38-.29l-.36-.31L52,8.93a4.71,4.71,0,0,0-.48-.35,2.67,2.67,0,0,1-.36-.26A4.13,4.13,0,0,0,50.67,8a4.06,4.06,0,0,1-.36-.26,1.21,1.21,0,0,1-.23-.25A2,2,0,0,0,49.65,7a4.5,4.5,0,0,0-.46-.33l-.37-.28-.38-.32L48,5.73a.78.78,0,0,0-.88,0,.39.39,0,0,0,0,.67Z"/><path class="cls-1" d="M65,20.35A.4.4,0,0,0,65,21c.21.17.35.25.46.33a2.49,2.49,0,0,1,.34.24l.35.3c.09.09.19.17.39.34l.42.32c.1.07.19.13.36.27a3,3,0,0,1,.3.28,3.1,3.1,0,0,0,.4.38l.41.31.37.28.33.3.39.34c.21.17.33.25.43.32s.19.13.36.27a3.5,3.5,0,0,0,.43.32l.36.27.33.3.39.34.42.32a3.34,3.34,0,0,1,.36.28,2.19,2.19,0,0,1,.3.28,3.71,3.71,0,0,0,.41.36l.35.31c.1.07.19.16.39.32l.38.31.38.3a.73.73,0,0,0,.46.15A.76.76,0,0,0,75.7,29a.39.39,0,0,0,0-.67l-.39-.31-.37-.3-.36-.3-.38-.32a3.08,3.08,0,0,1-.3-.28,3.18,3.18,0,0,0-.4-.37,3.59,3.59,0,0,0-.42-.32l-.36-.28c-.18-.14-.25-.22-.34-.3L72,25.25c-.2-.16-.32-.24-.43-.32l-.35-.27-.43-.32c-.1-.07-.19-.13-.36-.27l-.34-.29a3.29,3.29,0,0,0-.39-.34,5,5,0,0,0-.41-.32L69,22.84a2,2,0,0,1-.29-.28,4,4,0,0,0-.4-.38l-.43-.32-.36-.27-.34-.3L66.74,21a5.22,5.22,0,0,0-.46-.32,3,3,0,0,1-.35-.26A.78.78,0,0,0,65,20.35Z"/><path class="cls-1" d="M59,1.14a2.71,2.71,0,0,0,.3.42,4.22,4.22,0,0,0,.33.38l.29.32.26.35c.07.09.14.2.3.39a3.55,3.55,0,0,0,.34.37c.08.09.15.16.28.33s.26.29.34.37a3.64,3.64,0,0,1,.29.32,3.93,3.93,0,0,1,.26.34,4.72,4.72,0,0,0,.3.39l.33.38.29.32a3.13,3.13,0,0,1,.23.32,2.71,2.71,0,0,0,.3.42l.28.35c.07.09.14.19.3.37s.22.27.3.36l.29.35a.69.69,0,0,0,.54.23,1,1,0,0,0,.33-.07.41.41,0,0,0,.2-.65c-.15-.18-.23-.27-.3-.37s-.15-.17-.3-.34-.21-.26-.27-.35l-.3-.37a1.67,1.67,0,0,1-.23-.33,4.86,4.86,0,0,0-.3-.42c-.16-.19-.25-.28-.33-.37a2.86,2.86,0,0,1-.29-.33,2.19,2.19,0,0,1-.26-.34l-.3-.38a4.07,4.07,0,0,0-.34-.38l-.29-.32a3,3,0,0,0-.34-.38,3.9,3.9,0,0,1-.28-.32,2.81,2.81,0,0,1-.26-.34L61,1.77c-.16-.19-.25-.28-.33-.37l-.29-.33a2.31,2.31,0,0,1-.23-.32,3.2,3.2,0,0,0-.3-.43A.75.75,0,0,0,59,.17a.41.41,0,0,0-.21.65A1.68,1.68,0,0,1,59,1.14Z"/><path class="cls-1" d="M78.72.59a3.36,3.36,0,0,0,.2.44c0,.1.09.18.16.37s.11.3.14.4l.16.43a2.4,2.4,0,0,0,.2.44,3.56,3.56,0,0,1,.16.36.5.5,0,0,1,.05.3,1.41,1.41,0,0,0,.1.56,3.19,3.19,0,0,0,.23.46,1.57,1.57,0,0,1,.16.34,3.4,3.4,0,0,0,.22.46,1.84,1.84,0,0,1,.16.34,2.14,2.14,0,0,1,.13.39c0,.11.07.22.16.44s.13.33.18.44a2.46,2.46,0,0,1,.16.37,1.69,1.69,0,0,1,.11.36,2.15,2.15,0,0,0,.13.47c.09.22.14.33.19.44l.16.38c.07.19.09.28.12.38s.07.23.15.45a3.09,3.09,0,0,0,.2.43c0,.1.09.19.16.38a3.37,3.37,0,0,0,.19.43c0,.1.09.19.16.38s.1.28.13.38a3.25,3.25,0,0,0,.15.44,3.73,3.73,0,0,0,.18.43,3.35,3.35,0,0,1,.16.38,1.92,1.92,0,0,1,.11.37,2.55,2.55,0,0,0,.14.47l.14.39c0,.11.07.22.15.43s.13.31.17.42.08.2.15.4a.65.65,0,0,0,.61.34l.17,0c.33-.07.53-.33.43-.58l-.16-.42-.16-.4c-.07-.2-.11-.3-.14-.4s-.07-.21-.15-.42a1.87,1.87,0,0,1-.11-.36,2.39,2.39,0,0,0-.14-.48c-.08-.21-.14-.32-.18-.43a4.15,4.15,0,0,1-.17-.38,2.48,2.48,0,0,1-.12-.38c0-.11-.07-.22-.15-.44s-.14-.33-.19-.44a4,4,0,0,1-.16-.37,4.29,4.29,0,0,0-.2-.44c0-.1-.09-.19-.16-.38s-.1-.28-.13-.38a3.25,3.25,0,0,0-.15-.44,3.73,3.73,0,0,0-.18-.43l-.16-.38a2.64,2.64,0,0,1-.1-.36,2.59,2.59,0,0,0-.14-.48,3.73,3.73,0,0,0-.18-.43c0-.1-.09-.19-.17-.38s-.1-.29-.13-.39-.07-.22-.15-.44a2.68,2.68,0,0,0-.22-.45,3.2,3.2,0,0,1-.16-.35A2.5,2.5,0,0,0,81.27,4a2.63,2.63,0,0,1-.17-.34.74.74,0,0,1,0-.3,1.41,1.41,0,0,0-.1-.56c-.09-.22-.15-.34-.2-.44A2.17,2.17,0,0,1,80.59,2c-.08-.21-.12-.31-.15-.41s-.07-.21-.15-.42S80.14.8,80.09.7a2.46,2.46,0,0,1-.16-.37L79.81,0H78.52c0,.06,0,.11,0,.16S78.64.38,78.72.59Z"/><path class="cls-1" d="M96.94,28.6h0a.58.58,0,0,0,.63-.43l0-.43,0-.42c0-.21,0-.31.06-.41s0-.22.06-.44a1.73,1.73,0,0,1,.07-.37,3.2,3.2,0,0,0,.09-.48c0-.23,0-.34,0-.45a2.25,2.25,0,0,1,0-.4,3.56,3.56,0,0,1,.06-.4c0-.11,0-.22.07-.45a4.67,4.67,0,0,0,0-.47c0-.1,0-.19,0-.39a4.6,4.6,0,0,0,0-.46,2.15,2.15,0,0,1,0-.39,3.3,3.3,0,0,1,.06-.39c0-.12,0-.23.07-.46s0-.34,0-.46a3.79,3.79,0,0,1,0-.39,1.73,1.73,0,0,1,.07-.37,2.91,2.91,0,0,0,.1-.48c0-.23,0-.35,0-.46a3.44,3.44,0,0,1,0-.4c0-.2,0-.29.06-.4s0-.22.07-.45a2.7,2.7,0,0,0,0-.48,1.6,1.6,0,0,1,0-.37,2.93,2.93,0,0,0,0-.5,1.4,1.4,0,0,1,0-.36.83.83,0,0,1,.09-.29,1.42,1.42,0,0,0,.17-.55,2.05,2.05,0,0,0,0-.47,3.13,3.13,0,0,1,0-.39c0-.2,0-.31,0-.41s0-.22.06-.44a4.6,4.6,0,0,0,0-.46,2.31,2.31,0,0,1,0-.4c0-.2,0-.3,0-.4a4.28,4.28,0,0,0,.06-.44,2.24,2.24,0,0,0,0-.51,1.34,1.34,0,0,1,0-.35,1.06,1.06,0,0,1,.08-.34,2,2,0,0,0,.12-.51c0-.2,0-.31,0-.41a4.28,4.28,0,0,0,.06-.44,3.56,3.56,0,0,1,.06-.4c0-.11,0-.22.07-.45a2.68,2.68,0,0,0,0-.5,1.52,1.52,0,0,1,0-.36,4.6,4.6,0,0,0,0-.46,2.15,2.15,0,0,1,0-.39,3.3,3.3,0,0,1,.06-.39c0-.11,0-.23.08-.46l0-.43,0-.43a1.86,1.86,0,0,1,.07-.38c0-.11.05-.23.08-.46a1.65,1.65,0,0,0,0-.52,1.25,1.25,0,0,1,0-.34,1.73,1.73,0,0,1,.07-.37,2.27,2.27,0,0,0,.09-.48c0-.26-.22-.49-.57-.51a.6.6,0,0,0-.68.43,1.73,1.73,0,0,1-.07.37,3.2,3.2,0,0,0-.09.48,2.1,2.1,0,0,0,0,.51,1,1,0,0,1,0,.35c0,.19-.05.28-.07.38a2.3,2.3,0,0,0-.08.47c0,.22,0,.32,0,.43s0,.21,0,.42a3.69,3.69,0,0,1-.06.39c0,.11,0,.23-.08.46a4.6,4.6,0,0,0,0,.46,2.31,2.31,0,0,1,0,.4,2.57,2.57,0,0,0,0,.49,1.52,1.52,0,0,1,0,.36,3.56,3.56,0,0,1-.06.4c0,.11,0,.23-.06.45s0,.31,0,.42a4,4,0,0,0-.06.43,1.42,1.42,0,0,1-.08.34,1.64,1.64,0,0,0-.12.51,2.15,2.15,0,0,0,0,.5,1.41,1.41,0,0,1,0,.36c0,.2,0,.3,0,.4s0,.23-.07.45a4.6,4.6,0,0,0,0,.46,3.13,3.13,0,0,1,0,.39c0,.21,0,.31-.06.42s0,.22,0,.43a3,3,0,0,0,0,.48,3.07,3.07,0,0,1,0,.38.76.76,0,0,1-.09.29,1.42,1.42,0,0,0-.17.55,2.06,2.06,0,0,0,0,.49,1.49,1.49,0,0,1,0,.37,3.09,3.09,0,0,0,0,.49,2.21,2.21,0,0,1,0,.37c0,.2,0,.29-.06.4s0,.22-.07.45,0,.34,0,.46a3.3,3.3,0,0,1,0,.39,1.51,1.51,0,0,1-.08.36,2.4,2.4,0,0,0-.09.49c0,.22,0,.34,0,.45a3.36,3.36,0,0,1,0,.4c0,.2,0,.3-.06.4a3.19,3.19,0,0,0-.08.45,4.6,4.6,0,0,0,0,.46,3.36,3.36,0,0,1,0,.4,3,3,0,0,0,0,.46,2.15,2.15,0,0,1,0,.39,4,4,0,0,1-.06.4c0,.11,0,.22-.07.45s0,.34,0,.46a3.3,3.3,0,0,1,0,.39,2.74,2.74,0,0,1-.07.37,2.13,2.13,0,0,0-.1.48c0,.2,0,.31,0,.41s0,.22-.06.44l0,.44,0,.41C96.34,28.35,96.6,28.58,96.94,28.6Z"/><path class="cls-1" d="M116.08,13.09a.87.87,0,0,0,.28.05.68.68,0,0,0,.56-.26l.25-.38.25-.38c.12-.18.19-.27.25-.35s.14-.19.27-.39a3,3,0,0,1,.25-.32,3.28,3.28,0,0,0,.32-.41,3,3,0,0,0,.25-.41c.06-.09.11-.18.23-.35a3,3,0,0,1,.25-.35c.07-.09.15-.19.29-.39l.25-.42a3.29,3.29,0,0,1,.22-.35c.13-.2.19-.32.25-.42s.1-.18.21-.35l.25-.34a2.62,2.62,0,0,0,.29-.4c.14-.2.2-.3.26-.4a3.18,3.18,0,0,1,.22-.36,1.93,1.93,0,0,1,.25-.31,4.29,4.29,0,0,0,.33-.41,4.36,4.36,0,0,0,.25-.42,3.29,3.29,0,0,1,.22-.35c.12-.18.18-.26.25-.35s.15-.19.29-.39a4.29,4.29,0,0,0,.25-.44,1.55,1.55,0,0,1,.19-.34,2.49,2.49,0,0,0,.25-.45,1.82,1.82,0,0,1,.19-.33.86.86,0,0,1,.22-.24,1.69,1.69,0,0,0,.43-.45,3.5,3.5,0,0,0,.25-.43,2.27,2.27,0,0,1,.21-.34c.12-.19.19-.28.25-.37l.27-.38.07-.11h-1.41l0,.05a4.09,4.09,0,0,0-.27.38c-.14.21-.2.33-.26.43a2.52,2.52,0,0,1-.2.34.89.89,0,0,1-.23.24,2,2,0,0,0-.43.46,3.36,3.36,0,0,0-.25.45,2.38,2.38,0,0,1-.18.33,2.38,2.38,0,0,0-.26.44,1.82,1.82,0,0,1-.19.33c-.12.18-.18.26-.25.35l-.28.39c-.14.21-.2.32-.26.42s-.1.18-.21.35a2.7,2.7,0,0,1-.25.31,2.77,2.77,0,0,0-.33.42l-.25.4-.23.36a2.74,2.74,0,0,1-.25.34l-.29.4a3.74,3.74,0,0,0-.25.41,2.51,2.51,0,0,1-.22.35l-.25.42a3.29,3.29,0,0,1-.22.35,3.3,3.3,0,0,1-.24.34c-.08.1-.16.2-.3.4s-.19.31-.25.41-.1.18-.22.36a1.93,1.93,0,0,1-.25.31,3.28,3.28,0,0,0-.32.41l-.25.36-.27.39c-.13.19-.19.29-.26.38a4.13,4.13,0,0,1-.24.37C115.64,12.68,115.77,13,116.08,13.09Z"/><path class="cls-1" d="M112.4,17.48l-.25.4-.21.34a3.81,3.81,0,0,1-.25.33l-.28.39c-.13.2-.19.31-.25.41a2.59,2.59,0,0,1-.2.33,4.55,4.55,0,0,0-.25.41c0,.09-.09.17-.2.34s-.18.24-.25.33-.15.19-.28.38a4.06,4.06,0,0,0-.24.4c-.06.09-.1.17-.22.34a1.87,1.87,0,0,1-.23.3,2.54,2.54,0,0,0-.32.41l-.24.34-.27.38-.24.37L108,24c-.16.23,0,.52.28.63a.66.66,0,0,0,.28,0,.68.68,0,0,0,.56-.25l.25-.38c.05-.09.11-.18.23-.36s.18-.26.25-.34l.26-.38c.11-.15.17-.22.24-.3a3.15,3.15,0,0,0,.31-.4l.25-.4.21-.34.24-.33c.08-.1.15-.19.29-.39s.19-.31.24-.4l.21-.34a4.55,4.55,0,0,0,.25-.41c0-.09.09-.17.2-.34l.24-.33c.08-.09.15-.19.29-.38l.25-.4.21-.34c.16-.23,0-.52-.28-.63A.73.73,0,0,0,112.4,17.48Z"/><path class="cls-1" d="M132.75,11.07a.76.76,0,0,0,.39.1.73.73,0,0,0,.5-.18l.35-.35c.08-.09.17-.17.34-.34l.35-.32.37-.35a2.32,2.32,0,0,1,.33-.29,3.21,3.21,0,0,0,.43-.37l.36-.37.31-.32c.17-.16.25-.24.35-.32l.39-.35a4.88,4.88,0,0,0,.36-.38,3.74,3.74,0,0,1,.31-.33c.19-.18.27-.28.36-.37a3.74,3.74,0,0,1,.31-.33c.16-.16.25-.23.34-.31l.39-.35c.19-.18.27-.28.36-.37a4.29,4.29,0,0,1,.32-.33,2.13,2.13,0,0,1,.33-.28c.1-.08.23-.18.43-.37a3.55,3.55,0,0,0,.36-.38l.31-.32.35-.32c.09-.08.2-.17.38-.35a3.4,3.4,0,0,0,.37-.41c.07-.08.13-.16.28-.31a3.4,3.4,0,0,0,.37-.41,1.91,1.91,0,0,1,.27-.31,1.48,1.48,0,0,1,.29-.21,2.38,2.38,0,0,0,.55-.39c.19-.19.28-.3.36-.39a2.53,2.53,0,0,1,.3-.32L145,0h-1.53l-.2.2a1.15,1.15,0,0,1-.29.21,2.19,2.19,0,0,0-.54.4,3.29,3.29,0,0,0-.37.41,3.78,3.78,0,0,1-.27.31,2.28,2.28,0,0,0-.37.41c-.07.08-.13.15-.28.3l-.34.32a4.22,4.22,0,0,0-.39.35,4.88,4.88,0,0,0-.36.38c-.08.08-.15.17-.31.32a2.13,2.13,0,0,1-.33.28,4.06,4.06,0,0,0-.44.37l-.36.37a4.29,4.29,0,0,1-.32.33,3.68,3.68,0,0,1-.34.31c-.1.09-.2.17-.39.36a3.55,3.55,0,0,0-.36.38l-.31.32a4.88,4.88,0,0,0-.36.38,2.75,2.75,0,0,1-.31.32c-.16.16-.25.23-.34.31l-.39.36c-.19.18-.27.28-.36.37a4.29,4.29,0,0,1-.32.33,2.13,2.13,0,0,1-.33.28c-.1.08-.22.18-.42.37l-.35.33-.37.34-.36.35a3.51,3.51,0,0,1-.34.34A.4.4,0,0,0,132.75,11.07Z"/><path class="cls-1" d="M124,20.43a3.47,3.47,0,0,1,.29-.31l.34-.33c.09-.08.18-.16.36-.34a4.58,4.58,0,0,0,.35-.37c.08-.08.14-.16.3-.31l.34-.32.36-.34a3.29,3.29,0,0,0,.37-.41,1.68,1.68,0,0,1,.25-.3,1.63,1.63,0,0,1,.31-.24,3.07,3.07,0,0,0,.47-.38,3.53,3.53,0,0,1,.34-.31l.36-.35.33-.3a4.44,4.44,0,0,0,.38-.35,2.48,2.48,0,0,0,.36-.41,2.63,2.63,0,0,1,.26-.29,4.88,4.88,0,0,0,.36-.38,3.73,3.73,0,0,1,.3-.31c.15-.15.24-.22.33-.3l.39-.35a.4.4,0,0,0-.11-.66.78.78,0,0,0-.88.08l-.33.3c-.1.08-.21.17-.4.35a4.58,4.58,0,0,0-.35.37,3.6,3.6,0,0,1-.3.32,2.48,2.48,0,0,0-.36.41,2.55,2.55,0,0,1-.26.3l-.34.3-.38.35-.34.32-.36.34a1.63,1.63,0,0,1-.3.24,3,3,0,0,0-.47.37,2.9,2.9,0,0,0-.36.42,2,2,0,0,1-.26.29l-.34.32-.36.34a4.88,4.88,0,0,0-.36.38,3.73,3.73,0,0,1-.3.31l-.34.32-.35.34a4.88,4.88,0,0,0-.36.38,3.34,3.34,0,0,1-.29.31.87.87,0,0,1-.28.2,2.37,2.37,0,0,0-.54.39c-.19.2-.28.31-.36.41a1.85,1.85,0,0,1-.26.3,2.54,2.54,0,0,0-.36.4,2.72,2.72,0,0,1-.27.3l-.34.3-.38.35c-.18.18-.26.28-.35.37s-.14.16-.3.32a3.84,3.84,0,0,1-.32.27,3.81,3.81,0,0,0-.43.36l-.35.36a4.1,4.1,0,0,1-.31.32,3.28,3.28,0,0,1-.33.3l-.39.35c-.18.18-.27.29-.35.38a3.73,3.73,0,0,1-.3.31,3.26,3.26,0,0,0-.35.37l-.3.32-.33.3-.39.35-.35.36-.31.32a3.84,3.84,0,0,1-.32.27c-.11.09-.22.18-.42.37l-.34.31-.36.34c-.18.17-.26.26-.35.35l-.33.33a.4.4,0,0,0,.11.66.86.86,0,0,0,.38.1.72.72,0,0,0,.5-.19l.35-.34.33-.33.34-.32a4.57,4.57,0,0,0,.36-.34,3.84,3.84,0,0,1,.32-.27,3.81,3.81,0,0,0,.43-.36c.18-.18.27-.28.35-.37l.31-.32c.15-.15.24-.22.33-.3a4.44,4.44,0,0,0,.38-.35c.19-.18.28-.28.36-.37s.14-.16.29-.31a4.88,4.88,0,0,0,.36-.38,3.73,3.73,0,0,1,.3-.31,3.28,3.28,0,0,1,.33-.3c.1-.09.2-.17.38-.35l.36-.36a3.6,3.6,0,0,1,.3-.32,2.53,2.53,0,0,1,.32-.27,3.81,3.81,0,0,0,.43-.36c.19-.19.27-.28.36-.38a3.73,3.73,0,0,1,.3-.31l.33-.31.38-.34a4.13,4.13,0,0,0,.36-.4,2.61,2.61,0,0,1,.27-.31,2.54,2.54,0,0,0,.36-.4,2.72,2.72,0,0,1,.27-.3,1.05,1.05,0,0,1,.28-.2,2.37,2.37,0,0,0,.54-.39A3.12,3.12,0,0,0,124,20.43Z"/><path class="cls-1" d="M177.46,10.49a.76.76,0,0,0-.86-.17c-.23.1-.34.14-.46.18l-.53.21-.48.2-.51.21a2.81,2.81,0,0,1-.4.14,3,3,0,0,0-.63.21,4.34,4.34,0,0,0-.54.27,4.34,4.34,0,0,1-.39.2l-.47.19-.52.21c-.26.11-.4.18-.52.24l-.43.21-.48.2-.5.21c-.27.11-.41.18-.53.24a4,4,0,0,1-.42.21,1.29,1.29,0,0,1-.37.1,2.86,2.86,0,0,0-.69.21,2.62,2.62,0,0,0-.54.27l-.4.19a4,4,0,0,0-.53.27,4.46,4.46,0,0,1-.41.19l-.46.19-.53.21c-.26.11-.39.18-.51.24a4.55,4.55,0,0,1-.45.2,3.62,3.62,0,0,1-.43.16,4.44,4.44,0,0,0-.58.21l-.51.23-.45.21-.46.18-.53.21c-.27.11-.4.18-.52.24l-.44.21c-.26.11-.4.18-.52.24l-.43.2c-.23.1-.34.14-.46.18l-.54.21c-.26.11-.38.18-.51.24l-.44.2a3.18,3.18,0,0,1-.44.16,5.74,5.74,0,0,0-.57.21l-.48.2-.51.21-.49.21-.48.21c-.3.13-.41.42-.23.64a.64.64,0,0,0,.54.24.81.81,0,0,0,.31-.06l.5-.22.47-.2.48-.2.51-.21a4.41,4.41,0,0,1,.43-.16,4.44,4.44,0,0,0,.58-.21l.51-.23.45-.21a4.06,4.06,0,0,1,.46-.18l.53-.21c.26-.11.4-.18.52-.24l.43-.21c.27-.11.4-.18.52-.24l.44-.2a4.06,4.06,0,0,1,.46-.18l.53-.21c.26-.11.39-.18.51-.24l.45-.2a4.41,4.41,0,0,1,.43-.16,3.31,3.31,0,0,0,.58-.21l.52-.23.44-.21a4.89,4.89,0,0,1,.47-.18l.52-.21a4.34,4.34,0,0,0,.54-.27,2.88,2.88,0,0,1,.4-.2A3.71,3.71,0,0,0,168,15a2.56,2.56,0,0,1,.4-.19,1.3,1.3,0,0,1,.36-.11,3.28,3.28,0,0,0,.7-.2l.52-.25.43-.21.48-.2.5-.2.52-.25c.11,0,.21-.11.43-.2l.47-.19.52-.21a3.73,3.73,0,0,0,.55-.28,3,3,0,0,1,.38-.2l.41-.13a4.48,4.48,0,0,0,.62-.21l.48-.2.51-.21.46-.18.53-.21A.42.42,0,0,0,177.46,10.49Z"/><path class="cls-1" d="M122.66,33.27c-.12,0-.22.11-.45.2l-.52.25a4.15,4.15,0,0,1-.44.2l-.47.19-.54.21-.52.24-.45.21a3.67,3.67,0,0,1-.45.16,5.74,5.74,0,0,0-.57.21l-.49.2-.51.21-.5.22-.48.21c-.31.13-.41.42-.24.64a.68.68,0,0,0,.55.24.85.85,0,0,0,.31-.06l.5-.22.48-.21.48-.2.52-.21a4.38,4.38,0,0,1,.44-.16c.14,0,.3-.1.58-.21l.52-.24.45-.21.47-.19a4.5,4.5,0,0,0,.54-.21l.52-.24.44-.21c.27-.11.4-.18.53-.24l.44-.21.47-.18c.13,0,.27-.1.54-.22l.52-.23.45-.21a4.38,4.38,0,0,1,.44-.16,5,5,0,0,0,.59-.21l.52-.24.45-.21.47-.19c.13,0,.27-.1.53-.21a4.34,4.34,0,0,0,.54-.27,4,4,0,0,1,.41-.2,4,4,0,0,0,.55-.27,2.88,2.88,0,0,1,.4-.2,1.46,1.46,0,0,1,.37-.11,2.66,2.66,0,0,0,.7-.2,4.35,4.35,0,0,0,.53-.26,4.15,4.15,0,0,1,.44-.2l.48-.2.51-.21.53-.25.44-.21.48-.19.52-.22a4,4,0,0,0,.55-.27,2.69,2.69,0,0,1,.39-.2,2,2,0,0,1,.42-.14,4,4,0,0,0,.63-.22l.48-.19.51-.22.47-.18.54-.21c.28-.13.42-.21.55-.28a2.88,2.88,0,0,1,.4-.2l.52-.25.44-.2c.23-.1.34-.14.46-.18l.56-.21.5-.22.48-.21c.22-.1.33-.13.46-.18a5.13,5.13,0,0,0,.56-.21,4.37,4.37,0,0,0,.56-.29,2.18,2.18,0,0,1,.38-.19,3.07,3.07,0,0,1,.44-.17,4.92,4.92,0,0,0,.58-.22l.5-.21.49-.21a4,4,0,0,0,.54-.28,4,4,0,0,1,.41-.2.41.41,0,0,0,.23-.64.75.75,0,0,0-.85-.18,4,4,0,0,0-.55.27,2.13,2.13,0,0,1-.41.21l-.5.22-.48.2a3.09,3.09,0,0,1-.45.17l-.58.21a4.69,4.69,0,0,0-.55.29,2.13,2.13,0,0,1-.38.2l-.46.17c-.14.05-.29.1-.56.22l-.5.22L142,25l-.47.17c-.13,0-.28.1-.55.22s-.4.18-.52.24l-.45.21a3.79,3.79,0,0,0-.55.28,3.61,3.61,0,0,1-.39.19l-.47.19a5.62,5.62,0,0,0-.54.22l-.48.19-.51.22a2.88,2.88,0,0,1-.42.14,3,3,0,0,0-.63.21,3.73,3.73,0,0,0-.55.28,3.28,3.28,0,0,1-.39.2l-.48.19-.52.21-.53.25c-.11.05-.21.11-.44.2l-.49.21-.51.21a5.86,5.86,0,0,0-.53.25l-.43.21a1.38,1.38,0,0,1-.37.1,3.46,3.46,0,0,0-.7.21,4.34,4.34,0,0,0-.54.27,4,4,0,0,1-.41.2l-.54.27a4,4,0,0,1-.41.2l-.47.19-.53.21-.53.25-.44.2a4.38,4.38,0,0,1-.44.16,5.67,5.67,0,0,0-.59.21l-.52.24-.45.21-.47.18-.54.21A5.34,5.34,0,0,0,122.66,33.27Z"/><path class="cls-1" d="M167.91,35.92l-.58.08-.55.08-.52.05c-.15,0-.32,0-.63.06l-.61.1c-.13,0-.25.05-.51.08a4.28,4.28,0,0,0-.65.12,3.27,3.27,0,0,1-.47.09l-.53.06c-.15,0-.31,0-.61.06l-.55.07-.59.07a2.77,2.77,0,0,1-.45,0,5.32,5.32,0,0,0-.7,0,6.12,6.12,0,0,0-.65.12,2.31,2.31,0,0,1-.46.09l-.55.07-.59.07-.61.09-.52.09-.55.07-.58.07c-.31,0-.48.07-.62.1l-.5.08a1.15,1.15,0,0,1-.41,0,4,4,0,0,0-.75,0,4.28,4.28,0,0,0-.65.12,3.27,3.27,0,0,1-.47.09c-.32,0-.49.08-.64.11a3.82,3.82,0,0,1-.48.09l-.54.06-.6.07-.61.09a4.51,4.51,0,0,1-.52.08,2.48,2.48,0,0,1-.49,0,5.64,5.64,0,0,0-.65.06l-.6.09-.53.08-.53,0-.61.07c-.31,0-.46.07-.61.1l-.51.08c-.31,0-.46.07-.61.1l-.52.08c-.26,0-.39,0-.53.06l-.61.06c-.3,0-.45.07-.6.1l-.52.08-.5,0a5.07,5.07,0,0,0-.65,0l-.55.07-.58.07-.58.08-.55.07c-.34,0-.57.29-.51.55a.6.6,0,0,0,.62.39h.1l.58-.08.55-.07.55-.07.59-.07.5,0c.15,0,.32,0,.64-.05s.46-.07.6-.1l.53-.08.53-.06c.15,0,.31,0,.61-.06l.61-.1c.13,0,.25,0,.51-.08s.46-.07.61-.1l.52-.08c.26,0,.39,0,.53-.06l.61-.06.59-.09.53-.08a4.21,4.21,0,0,1,.49-.05,3.8,3.8,0,0,0,.66,0l.6-.09.52-.08.54-.06.6-.07a4.35,4.35,0,0,0,.64-.12l.48-.08a5.35,5.35,0,0,0,.64-.12,3.82,3.82,0,0,1,.48-.09,2,2,0,0,1,.41,0,2.8,2.8,0,0,0,.75,0l.62-.1a4.64,4.64,0,0,1,.51-.08l.55-.07.58-.07a4.08,4.08,0,0,0,.61-.11l.52-.08.54-.06.59-.07a4.28,4.28,0,0,0,.65-.12,3.59,3.59,0,0,1,.47-.09,2.88,2.88,0,0,1,.46,0,3.12,3.12,0,0,0,.69,0c.27,0,.41-.05.55-.06l.59-.08.53-.05.6-.07a4.28,4.28,0,0,0,.65-.12,3.59,3.59,0,0,1,.47-.09c.31,0,.47-.07.61-.1l.52-.08a5,5,0,0,1,.52,0L167,37l.58-.08.55-.08c.35-.05.57-.29.52-.55A.64.64,0,0,0,167.91,35.92Z"/><path class="cls-1" d="M45.94,44.08a4.81,4.81,0,0,0-.67,0,4.18,4.18,0,0,1-.51,0l-.55,0c-.15,0-.3,0-.61,0s-.47,0-.63,0h-.54a3.73,3.73,0,0,1-.5,0,5.35,5.35,0,0,0-.66-.06l-.62,0c-.14,0-.28,0-.55,0a4.84,4.84,0,0,1-.54,0c-.16,0-.31,0-.62,0s-.48,0-.64,0-.27,0-.53,0H36.6a4.86,4.86,0,0,1-.55,0c-.15,0-.31,0-.62,0l-.62,0h-.55l-.5,0a5.57,5.57,0,0,0-.66-.06l-.56,0-.6,0-.59,0-.58,0a.6.6,0,0,0-.67.44c0,.26.24.48.59.5l.59,0,.58,0,.56,0,.6,0a3.73,3.73,0,0,1,.51.05l.65.06h.63l.54,0,.55,0c.15,0,.3,0,.61,0a4.8,4.8,0,0,0,.64,0c.13,0,.27,0,.53,0h1.17a4.86,4.86,0,0,1,.55,0c.15,0,.31,0,.62,0s.46,0,.62,0l.55,0a3.93,3.93,0,0,1,.5.05l.66.06H43c.15,0,.28,0,.55,0l.55,0,.61,0h.67c.13,0,.25,0,.51,0a.58.58,0,0,0,.66-.44C46.55,44.32,46.28,44.1,45.94,44.08Z"/><path class="cls-1" d="M12.1,22.57l.57.16.51.15.49.16a4.86,4.86,0,0,0,.56.19l.58.17.5.13.58.17.49.13.49.17.56.19.57.16.51.15a4.1,4.1,0,0,1,.45.16,4.1,4.1,0,0,0,.58.21l.52.17.54.18.54.16.52.16a1.09,1.09,0,0,0,.24,0,.65.65,0,0,0,.58-.3c.14-.24,0-.51-.33-.61l-.55-.17-.52-.15-.51-.17L20,24a3.72,3.72,0,0,1-.46-.16,5.36,5.36,0,0,0-.58-.22l-.57-.16c-.13,0-.26-.06-.51-.14l-.48-.17L16.87,23c-.29-.1-.44-.13-.59-.17a4.7,4.7,0,0,1-.49-.14l-.59-.16a4.7,4.7,0,0,1-.49-.14c-.25-.07-.37-.12-.49-.16L13.66,22a5.65,5.65,0,0,0-.57-.16l-.5-.15a2.55,2.55,0,0,1-.45-.17,5.49,5.49,0,0,0-.59-.21L11,21.15,10.48,21l-.5-.17-.56-.19c-.3-.09-.47-.12-.62-.16a2.45,2.45,0,0,1-.47-.12c-.3-.09-.47-.12-.62-.16a2.92,2.92,0,0,1-.47-.11A1.46,1.46,0,0,1,6.89,20a2.59,2.59,0,0,0-.65-.29c-.29-.09-.45-.13-.59-.16l-.49-.13-.52-.17L4.1,19c-.29-.09-.45-.13-.59-.16L3,18.73c-.25-.07-.37-.12-.5-.16L2,18.39a4.8,4.8,0,0,0-.64-.16,4.05,4.05,0,0,1-.46-.11.71.71,0,0,0-.82.25c-.13.24,0,.52.34.62a3.19,3.19,0,0,0,.64.15l.46.12.5.16c.14,0,.27.1.55.18l.59.17.49.13.52.17.54.17a5.68,5.68,0,0,0,.6.16l.48.14a1.07,1.07,0,0,1,.35.15,2.78,2.78,0,0,0,.65.29c.31.09.48.13.63.16a2.63,2.63,0,0,1,.46.11,4.35,4.35,0,0,0,.62.16c.13,0,.24.05.47.12l.5.17c.13.05.27.1.55.18s.44.13.58.17a4.72,4.72,0,0,1,.5.14,3.17,3.17,0,0,1,.44.16A4.59,4.59,0,0,0,12.1,22.57Z"/><path class="cls-1" d="M47.1,32.36l-.58-.16c-.13,0-.25-.05-.48-.12l-.5-.16L45,31.75c-.28-.09-.44-.13-.57-.16a4.06,4.06,0,0,1-.48-.14,4,4,0,0,1-.49-.16l-.54-.17A4.09,4.09,0,0,0,42.3,31a3.91,3.91,0,0,1-.44-.1,3,3,0,0,1-.39-.16,4.22,4.22,0,0,0-.61-.24l-.49-.16-.53-.18a4.71,4.71,0,0,1-.49-.16l-.54-.18a5.68,5.68,0,0,0-.62-.15l-.45-.11c-.28-.09-.44-.13-.57-.16a4.06,4.06,0,0,1-.48-.14,4.84,4.84,0,0,1-.47-.16l-.55-.19-.53-.16-.51-.16a4.46,4.46,0,0,1-.46-.16l-.56-.2A6.33,6.33,0,0,0,33,28a2,2,0,0,1-.43-.1,3.17,3.17,0,0,1-.44-.16,6,6,0,0,0-.58-.21L31,27.41l-.51-.15a4.31,4.31,0,0,0-.61-.16,2.63,2.63,0,0,1-.46-.11.72.72,0,0,0-.82.25c-.13.24,0,.52.34.62a5.68,5.68,0,0,0,.62.15c.12,0,.23,0,.45.12l.53.16.51.15a3.17,3.17,0,0,1,.44.16,4.36,4.36,0,0,0,.57.21,3.41,3.41,0,0,0,.65.15,2.45,2.45,0,0,1,.43.11l.46.16a4.24,4.24,0,0,0,.56.19l.53.17.51.15c.23.07.34.12.46.16s.27.11.56.2l.57.16a4.7,4.7,0,0,1,.48.13,5.68,5.68,0,0,0,.62.15,2.57,2.57,0,0,1,.45.11l.48.16.54.19.5.16.53.17a1.63,1.63,0,0,1,.4.16,3.55,3.55,0,0,0,.6.24,5.23,5.23,0,0,0,.63.15,2.51,2.51,0,0,1,.44.11l.49.16.54.18.57.15a4.06,4.06,0,0,1,.48.14l.5.16.53.17c.29.09.45.12.59.16a3.22,3.22,0,0,1,.47.12,1.3,1.3,0,0,1,.33.15,2.86,2.86,0,0,0,.64.29,5.68,5.68,0,0,0,.62.15l.45.11a4.31,4.31,0,0,0,.61.16c.12,0,.23,0,.45.12s.36.12.48.16l.55.18a5,5,0,0,0,.57.16l.48.14a3.86,3.86,0,0,1,.43.15,3.82,3.82,0,0,0,.58.22,5,5,0,0,0,.56.16l.49.14.47.16.55.19c.28.09.43.12.57.16l.48.13c.28.09.44.12.57.16l.48.13.48.16.55.19c.27.09.42.12.56.16l.48.14a3.17,3.17,0,0,1,.44.16l.58.21c.25.07.37.12.49.16l.53.17.53.16.51.16a1,1,0,0,0,.25,0,.65.65,0,0,0,.57-.29c.14-.24,0-.51-.34-.61l-.52-.17-.51-.15-.5-.16-.54-.17c-.22-.07-.32-.12-.43-.16a4.36,4.36,0,0,0-.57-.21,5,5,0,0,0-.57-.16l-.48-.14L58,35.77l-.55-.19a5.65,5.65,0,0,0-.57-.16l-.48-.13a5.65,5.65,0,0,0-.57-.16L55.36,35l-.47-.16-.55-.19-.56-.16-.49-.14a3.47,3.47,0,0,1-.43-.16,4.1,4.1,0,0,0-.58-.21,5,5,0,0,0-.57-.16l-.48-.14-.48-.16c-.13-.05-.27-.1-.55-.18s-.46-.13-.6-.16l-.46-.11a4.69,4.69,0,0,0-.61-.16,3.53,3.53,0,0,1-.45-.11,1.4,1.4,0,0,1-.34-.15A2.65,2.65,0,0,0,47.1,32.36Z"/><path class="cls-1" d="M38,23.61l-.45-.19A5.29,5.29,0,0,0,37,23.2L36.5,23,36,22.84a2.78,2.78,0,0,1-.41-.19c-.12-.06-.26-.13-.53-.24l-.47-.19-.5-.21-.5-.19-.48-.19a.75.75,0,0,0-.85.2.43.43,0,0,0,.26.64l.5.19.48.19L34,23l.5.2a2.78,2.78,0,0,1,.41.19,5.27,5.27,0,0,0,.53.24c.26.11.4.15.53.2l.46.16.45.19a5.29,5.29,0,0,0,.51.22l.54.2c.12,0,.24.07.46.16l.54.2a3.2,3.2,0,0,1,.45.16,4,4,0,0,1,.45.19l.51.22.53.19.46.17a3.48,3.48,0,0,1,.4.18,3.66,3.66,0,0,0,.54.25c.27.11.41.16.54.2l.46.17a2.73,2.73,0,0,1,.45.19l.51.21a3.69,3.69,0,0,0,.58.19l.43.15a.71.71,0,0,0,.29.05.68.68,0,0,0,.56-.25c.16-.23,0-.51-.26-.64a6,6,0,0,0-.58-.19,2.93,2.93,0,0,1-.43-.14l-.46-.19a5.29,5.29,0,0,0-.51-.22,4.62,4.62,0,0,0-.53-.19l-.46-.17a3.48,3.48,0,0,1-.4-.18,3.66,3.66,0,0,0-.54-.25c-.26-.11-.4-.15-.53-.2l-.46-.17-.44-.19L40,24.32l-.54-.19L39,24c-.26-.11-.41-.15-.54-.2S38.21,23.7,38,23.61Z"/><path class="cls-1" d="M167.82,25.56a4.64,4.64,0,0,1-.48.1c-.15,0-.32.06-.63.14a3.75,3.75,0,0,0-.62.2,2.15,2.15,0,0,1-.43.14,3.12,3.12,0,0,1-.5.11l-.6.14-.55.14-.53.14a3.66,3.66,0,0,1-.5.11c-.14,0-.31.06-.6.14a5.12,5.12,0,0,0-.58.17l-.49.14a6,6,0,0,0-.61.19,2.88,2.88,0,0,1-.45.15l-.51.12-.58.13-.53.13-.56.14a2.61,2.61,0,0,1-.44.08,5.18,5.18,0,0,0-.68.12,5.4,5.4,0,0,0-.61.2,2.29,2.29,0,0,1-.44.14l-.52.13-.57.14a4.07,4.07,0,0,0-.58.17c-.13,0-.24.08-.49.14l-.53.13-.56.14-.59.17a4.5,4.5,0,0,1-.47.15,1.27,1.27,0,0,1-.4.05,3.51,3.51,0,0,0-.74.11,6,6,0,0,0-.61.19,3.11,3.11,0,0,1-.45.14,5.57,5.57,0,0,0-.6.19,4.71,4.71,0,0,1-.46.14c-.25.07-.38.09-.51.12l-.58.14c-.29.08-.44.12-.57.17l-.5.14a3.63,3.63,0,0,1-.47.09c-.16,0-.33,0-.64.13l-.57.16-.5.15-.51.11c-.14,0-.3.06-.58.14a4.54,4.54,0,0,0-.58.17l-.49.14c-.3.07-.44.12-.58.16l-.49.15-.51.11c-.15,0-.3.06-.59.14l-.57.16c-.13,0-.24.08-.5.14a4.16,4.16,0,0,1-.48.1l-.62.13-.53.13-.56.14-.55.15-.53.14c-.33.08-.5.35-.39.59a.63.63,0,0,0,.59.32.75.75,0,0,0,.21,0l.55-.15.53-.14.52-.13.57-.13a4.16,4.16,0,0,1,.48-.1L139,34l.57-.17.5-.14.51-.12.59-.13.58-.17a5.06,5.06,0,0,1,.49-.14l.57-.17.49-.14.51-.12.59-.13.57-.17.5-.14.48-.09a5,5,0,0,0,.63-.13,4.8,4.8,0,0,0,.57-.17l.5-.14.51-.12.58-.14a4.23,4.23,0,0,0,.6-.18,3.34,3.34,0,0,1,.46-.14,5.4,5.4,0,0,0,.61-.2c.12,0,.22-.08.45-.14a1.68,1.68,0,0,1,.4-.06,2.7,2.7,0,0,0,.73-.1,5.81,5.81,0,0,0,.59-.18c.13,0,.24-.08.48-.14l.53-.13.56-.14.58-.17a5.06,5.06,0,0,1,.49-.14l.52-.13.57-.13c.31-.09.47-.15.61-.2a2.69,2.69,0,0,1,.44-.15,2.63,2.63,0,0,1,.45-.07,4.32,4.32,0,0,0,.67-.13l.53-.13.56-.13.51-.13.58-.13a3.55,3.55,0,0,0,.61-.2c.12,0,.22-.08.45-.14l.58-.17a5.06,5.06,0,0,1,.49-.14,3.37,3.37,0,0,1,.5-.11c.14,0,.3-.06.6-.14l.55-.14.53-.14a3.3,3.3,0,0,1,.49-.11c.15,0,.31-.06.61-.14a3.75,3.75,0,0,0,.62-.2,2.15,2.15,0,0,1,.43-.14,2.93,2.93,0,0,1,.48-.1c.15,0,.32-.06.63-.14s.5-.35.39-.6A.71.71,0,0,0,167.82,25.56Z"/><path class="cls-1" d="M130.8,23.31a4.43,4.43,0,0,0-.53.27l-.44.25-.47.26-.45.27-.44.25a.4.4,0,0,0-.12.66.68.68,0,0,0,.5.19.72.72,0,0,0,.38-.1l.46-.27.44-.25c.21-.13.32-.19.44-.25l.47-.26a3.23,3.23,0,0,1,.41-.21c.12-.06.27-.12.53-.27l.47-.29.41-.25c.21-.12.31-.18.42-.23s.26-.13.5-.27l.47-.29.4-.25a4,4,0,0,0,.47-.3l.4-.25.43-.23c.13-.06.26-.13.5-.27s.35-.21.46-.28l.42-.25a2.67,2.67,0,0,1,.4-.21,3.73,3.73,0,0,0,.54-.27l.47-.29.41-.25.43-.24.49-.26a4.67,4.67,0,0,0,.49-.32,3.87,3.87,0,0,1,.36-.25,3.77,3.77,0,0,0,.49-.32,3,3,0,0,1,.37-.24,1.36,1.36,0,0,1,.34-.15,2.44,2.44,0,0,0,.66-.27l.48-.31a3.34,3.34,0,0,1,.38-.24l.44-.25.47-.27c.24-.14.37-.22.48-.3a4.46,4.46,0,0,1,.39-.24l.44-.25.48-.26a4.33,4.33,0,0,0,.49-.33,3.26,3.26,0,0,1,.35-.24,2.06,2.06,0,0,1,.39-.18,3.14,3.14,0,0,0,.58-.28l.44-.24.47-.27.43-.23.49-.27a4.67,4.67,0,0,0,.49-.32,1.93,1.93,0,0,1,.36-.25c.25-.14.36-.22.47-.29l.41-.25c.2-.12.31-.17.42-.23s.26-.12.51-.26a.41.41,0,0,0,.11-.67.78.78,0,0,0-.88-.08l-.42.22-.51.27a3.29,3.29,0,0,0-.47.3l-.41.25a3.29,3.29,0,0,0-.49.33,2.34,2.34,0,0,1-.35.23l-.44.24-.49.26c-.21.13-.32.19-.44.25l-.47.27a2.45,2.45,0,0,1-.38.18,2.94,2.94,0,0,0-.58.27,3.38,3.38,0,0,0-.5.34,1.9,1.9,0,0,1-.35.23l-.44.25c-.11.06-.24.12-.47.26a4.4,4.4,0,0,0-.48.3l-.39.25-.45.25-.46.26c-.25.14-.37.23-.48.3l-.39.25a1,1,0,0,1-.34.14,3,3,0,0,0-.66.28,3.29,3.29,0,0,0-.49.33,2.72,2.72,0,0,1-.36.24,3.45,3.45,0,0,0-.49.32,3,3,0,0,1-.37.24l-.43.24c-.12.06-.25.12-.49.26l-.47.29-.4.26a2.93,2.93,0,0,1-.41.2,3.73,3.73,0,0,0-.54.27l-.47.28a4.55,4.55,0,0,1-.41.26l-.43.23c-.12.06-.25.12-.49.26s-.37.23-.48.3a4,4,0,0,1-.39.25c-.25.14-.36.22-.48.3l-.4.24a4.55,4.55,0,0,1-.43.24c-.12.06-.25.12-.49.26l-.47.29-.41.25A2.28,2.28,0,0,1,130.8,23.31Z"/><path class="cls-1" d="M107.79,11.28a.55.55,0,0,0,.18,0,.63.63,0,0,0,.6-.33c.08-.21.12-.31.15-.41l.15-.39.16-.38c0-.11.09-.21.17-.41a2.26,2.26,0,0,1,.16-.34,2.91,2.91,0,0,0,.22-.44c.08-.22.12-.33.15-.44l.13-.37a2.75,2.75,0,0,1,.16-.36c0-.11.1-.21.18-.43a2.84,2.84,0,0,0,.15-.44,2.85,2.85,0,0,1,.13-.36c.08-.22.11-.34.14-.44s.06-.19.13-.37a2.75,2.75,0,0,1,.16-.36c0-.11.1-.21.19-.43s.11-.32.15-.42a1.88,1.88,0,0,1,.13-.38,2,2,0,0,1,.16-.33,2.68,2.68,0,0,0,.22-.45c.08-.21.12-.32.15-.43a2.41,2.41,0,0,1,.13-.37c.07-.19.11-.28.15-.37s.1-.21.19-.42a3.31,3.31,0,0,0,.14-.47,1.59,1.59,0,0,1,.1-.34,2.34,2.34,0,0,0,.14-.47l0-.15h-1.27a1.59,1.59,0,0,1-.11.34,2.69,2.69,0,0,0-.13.47,1.79,1.79,0,0,1-.11.34,2.46,2.46,0,0,1-.16.37,4.27,4.27,0,0,0-.18.42c-.08.22-.12.33-.15.44s-.05.18-.12.37a1.73,1.73,0,0,1-.17.32,3.4,3.4,0,0,0-.22.46c-.08.21-.12.32-.15.42s-.06.19-.13.38a2.75,2.75,0,0,1-.16.36c0,.11-.1.21-.19.43a2.85,2.85,0,0,0-.14.43c0,.1-.06.19-.13.37a3.25,3.25,0,0,0-.15.44,2.46,2.46,0,0,1-.12.37,2.75,2.75,0,0,1-.16.36c0,.1-.1.21-.19.42s-.11.33-.15.43a2.86,2.86,0,0,1-.13.38,2.23,2.23,0,0,1-.16.34,2.64,2.64,0,0,0-.21.44l-.16.38a4.39,4.39,0,0,0-.17.41l-.16.4a3.87,3.87,0,0,1-.15.4C107.26,11,107.46,11.21,107.79,11.28Z"/><path class="cls-1" d="M91.33.53c0,.1,0,.2,0,.39a2,2,0,0,1,0,.37,3.35,3.35,0,0,0,0,.49c0,.22,0,.34.06.45s0,.2,0,.39a3,3,0,0,1,0,.4,4.6,4.6,0,0,0,0,.46,4.45,4.45,0,0,0,.06.46c0,.1,0,.19,0,.39a3.17,3.17,0,0,0,.05.46,2.2,2.2,0,0,1,0,.39,3.21,3.21,0,0,1,0,.39c0,.12,0,.23,0,.46s0,.34,0,.45a2.35,2.35,0,0,1,0,.4,1.49,1.49,0,0,1,0,.37,2.46,2.46,0,0,0,0,.48c0,.21,0,.31,0,.41s0,.22,0,.44l0,.44,0,.42a.57.57,0,0,0,.62.44h0c.35,0,.61-.24.59-.5a3.14,3.14,0,0,0,0-.43c0-.1,0-.21,0-.42s0-.31,0-.41a4.16,4.16,0,0,0,0-.44c0-.18,0-.27,0-.37a3.3,3.3,0,0,0,0-.48A4.45,4.45,0,0,0,93,6.37c0-.1,0-.2,0-.39a3.44,3.44,0,0,1,0-.4,3.91,3.91,0,0,0,0-.46,4.17,4.17,0,0,0-.06-.45c0-.11,0-.2-.05-.39s0-.35-.06-.47a3.91,3.91,0,0,1-.05-.39c0-.19,0-.29,0-.39s0-.23,0-.46,0-.34-.06-.45l0-.4a2.1,2.1,0,0,1,0-.36,1.83,1.83,0,0,0,0-.49,4.45,4.45,0,0,0-.06-.46c0-.1,0-.2,0-.39V0H91.27V.07A4.45,4.45,0,0,0,91.33.53Z"/><path class="cls-1" d="M92.39,15.37a3.54,3.54,0,0,0,.07.46,1.31,1.31,0,0,1,.06.35,3.21,3.21,0,0,1,0,.39c0,.11,0,.21,0,.43a3.89,3.89,0,0,0,.06.44c0,.1,0,.19,0,.38a1.25,1.25,0,0,1,0,.34,2.26,2.26,0,0,0,0,.48,4.32,4.32,0,0,0,0,.43c0,.1,0,.19,0,.38a2.33,2.33,0,0,1,0,.38,4.16,4.16,0,0,0,0,.44c0,.22,0,.34.06.45s0,.18,0,.37a3.89,3.89,0,0,0,.06.44,2.05,2.05,0,0,1,0,.37c0,.19,0,.28,0,.38a4.16,4.16,0,0,0,0,.44,2.83,2.83,0,0,0,0,.44c0,.1,0,.19,0,.38a2,2,0,0,1,0,.35,3.1,3.1,0,0,0,0,.47,3.21,3.21,0,0,1,0,.39c0,.11,0,.21,0,.43l0,.41c0,.1,0,.2,0,.4a.57.57,0,0,0,.63.44h0c.35,0,.61-.23.59-.49s0-.32,0-.42l0-.4c0-.2,0-.3,0-.39a3.91,3.91,0,0,0,0-.43,2,2,0,0,1,0-.35,2.37,2.37,0,0,0,0-.47,2.83,2.83,0,0,0,0-.44c0-.09,0-.18,0-.37s0-.28,0-.38a4.16,4.16,0,0,0,0-.44,3,3,0,0,0,0-.45,1.92,1.92,0,0,1,0-.36,3.82,3.82,0,0,0-.06-.45c0-.1,0-.19,0-.37s0-.28,0-.38,0-.22,0-.44,0-.33,0-.44a3.61,3.61,0,0,1,0-.38,1.68,1.68,0,0,1,0-.34,2.26,2.26,0,0,0,0-.48,4.28,4.28,0,0,0-.06-.44c0-.09,0-.18,0-.37a3.15,3.15,0,0,1,0-.38c0-.11,0-.22,0-.44a2.3,2.3,0,0,0-.08-.47,2.78,2.78,0,0,1-.06-.34.58.58,0,0,0-.66-.45C92.63,14.88,92.37,15.11,92.39,15.37Z"/><path class="cls-1" d="M67.94.71c.11.18.16.27.21.37l.25.42c.13.21.21.31.28.41a3.26,3.26,0,0,1,.24.35c.14.21.21.31.29.41a3.26,3.26,0,0,1,.24.35l.21.36a4.69,4.69,0,0,0,.24.42c.13.21.21.31.28.41a3.65,3.65,0,0,1,.24.36,1.83,1.83,0,0,1,.19.35,3.6,3.6,0,0,0,.24.45c.12.18.17.28.23.37s.11.2.24.41l.25.39.25.38a.66.66,0,0,0,.57.27.8.8,0,0,0,.26-.05c.32-.11.45-.39.3-.62l-.25-.4-.24-.38c-.12-.18-.18-.28-.23-.37S72.11,5.16,72,5a3,3,0,0,1-.18-.34,2.59,2.59,0,0,0-.24-.45c-.13-.21-.21-.31-.28-.41s-.13-.18-.24-.36L70.83,3a4.69,4.69,0,0,0-.24-.42c-.14-.21-.21-.32-.29-.42a2.46,2.46,0,0,1-.24-.35,4.83,4.83,0,0,0-.29-.41l-.24-.35c-.11-.18-.16-.26-.21-.36a3.78,3.78,0,0,0-.24-.42A3.17,3.17,0,0,0,68.87,0H67.46c.1.16.18.26.24.35A3.65,3.65,0,0,1,67.94.71Z"/><path class="cls-1" d="M73.86,10.17l.24.4a3.88,3.88,0,0,0,.28.4c.07.09.13.17.24.34s.18.28.23.38l.24.39a4,4,0,0,0,.29.41,3.68,3.68,0,0,1,.24.33.72.72,0,0,1,.11.28,1.43,1.43,0,0,0,.22.53,2.7,2.7,0,0,0,.31.43,2,2,0,0,1,.24.31,2.37,2.37,0,0,0,.31.42,2.27,2.27,0,0,1,.23.32l.21.36c.06.11.11.21.24.41s.21.3.28.41a2.23,2.23,0,0,1,.24.34,2.09,2.09,0,0,1,.17.33,2.37,2.37,0,0,0,.23.45,3.88,3.88,0,0,0,.28.4l.23.35.21.36a3.78,3.78,0,0,0,.24.42c.13.2.21.31.28.4s.13.17.24.34.21.31.28.41a3.15,3.15,0,0,1,.23.34l.21.36a3.9,3.9,0,0,0,.24.41l.27.4c.07.09.13.18.24.35a2.36,2.36,0,0,1,.18.34,2.59,2.59,0,0,0,.24.44l.22.37.24.4c.12.19.18.29.25.38l.24.38a.66.66,0,0,0,.57.27.8.8,0,0,0,.26-.05c.32-.11.45-.39.3-.62a4,4,0,0,0-.25-.39l-.23-.37-.23-.37c-.06-.1-.11-.2-.24-.4a1.93,1.93,0,0,1-.18-.34,3.23,3.23,0,0,0-.23-.44,3.88,3.88,0,0,0-.28-.4c-.06-.09-.12-.17-.23-.35s-.16-.26-.21-.36-.11-.21-.24-.41-.21-.31-.28-.41a2.92,2.92,0,0,1-.24-.34c-.13-.21-.21-.31-.28-.41a2.23,2.23,0,0,1-.24-.34,3,3,0,0,1-.2-.36c-.06-.1-.11-.21-.24-.41l-.27-.4a3.26,3.26,0,0,1-.24-.35,2.09,2.09,0,0,1-.17-.33,3,3,0,0,0-.24-.46,4.71,4.71,0,0,0-.28-.4l-.23-.34-.22-.36a4.41,4.41,0,0,0-.54-.84,2.87,2.87,0,0,1-.24-.31,3,3,0,0,0-.31-.42,2,2,0,0,1-.24-.32A.69.69,0,0,1,77,13a1.46,1.46,0,0,0-.22-.54,2.85,2.85,0,0,0-.29-.41,2.5,2.5,0,0,1-.23-.33c-.12-.19-.18-.28-.23-.38l-.24-.39a3.59,3.59,0,0,0-.29-.41,3.69,3.69,0,0,1-.23-.34c-.12-.18-.17-.27-.22-.36l-.24-.4a.73.73,0,0,0-.84-.23c-.31.11-.45.39-.3.63A3.1,3.1,0,0,1,73.86,10.17Z"/><path class="cls-1" d="M165.22,43.67l-.57,0-.55,0-.55,0H163a3.5,3.5,0,0,1-.49,0c-.15,0-.32,0-.64,0l-.6,0-.53,0h-1.12l-.61,0a4.59,4.59,0,0,1-.52,0,5.65,5.65,0,0,0-.61,0l-.51,0h-1.13l-.6,0-.53,0a3.35,3.35,0,0,1-.48,0,5.93,5.93,0,0,0-.65,0,5.84,5.84,0,0,0-.6,0l-.52,0H151.7a5.69,5.69,0,0,0-.64,0l-.48,0a5.14,5.14,0,0,0-.65.06c-.13,0-.24,0-.48,0a2.06,2.06,0,0,1-.39,0,3.1,3.1,0,0,0-.74-.06l-.62,0-.5,0h-1.13c-.31,0-.47,0-.61,0a3.19,3.19,0,0,1-.52,0h-.53c-.15,0-.3,0-.59,0a3.89,3.89,0,0,0-.66.06,3.73,3.73,0,0,1-.47,0,2.57,2.57,0,0,1-.44,0,4.35,4.35,0,0,0-.69,0h-2.25a5.57,5.57,0,0,0-.66.06,3.73,3.73,0,0,1-.47,0l-.61,0a5,5,0,0,1-.51,0h-1.13l-.58,0-.55,0h-1.13a5.57,5.57,0,0,0-.67.06,3,3,0,0,1-.45,0,3.45,3.45,0,0,1-.49,0,5.79,5.79,0,0,0-.64,0l-.58,0-.55,0a6.16,6.16,0,0,0-.65,0,2.38,2.38,0,0,1-.47,0,2.87,2.87,0,0,1-.44,0,3.21,3.21,0,0,0-.69,0l-.6,0c-.14,0-.26,0-.53,0l-.57,0h-2.82a3,3,0,0,0-.71.09,1.8,1.8,0,0,1-.41.06c-.34,0-.61.23-.6.49a.59.59,0,0,0,.63.45h0a3.78,3.78,0,0,0,.72-.09,1.7,1.7,0,0,1,.4-.06h2.26l.57,0,.56,0,.59,0,.53,0a1.86,1.86,0,0,1,.44,0,5.51,5.51,0,0,0,.69,0,5.14,5.14,0,0,0,.65-.06l.48,0,.57,0,.55,0H132a5.79,5.79,0,0,0,.64,0,3.66,3.66,0,0,0,.67-.07,2.43,2.43,0,0,1,.46,0h.5c.15,0,.32,0,.63,0l.57,0,.55,0h1.13l.61,0a4.59,4.59,0,0,1,.52,0,5.71,5.71,0,0,0,.65,0,2.47,2.47,0,0,1,.47,0h2.26a2,2,0,0,1,.45,0,5.77,5.77,0,0,0,.68,0,5.57,5.57,0,0,0,.66-.06,3.72,3.72,0,0,1,.46,0H145c.31,0,.47,0,.61,0l.51,0,.55,0h.58l.62,0a4.37,4.37,0,0,1,.51,0,1.35,1.35,0,0,1,.38,0,3.26,3.26,0,0,0,.75.06,5.35,5.35,0,0,0,.65-.06l.47,0a5.69,5.69,0,0,0,.64-.05l.48,0h1.13a5.86,5.86,0,0,0,.61,0l.52,0a3.35,3.35,0,0,1,.48,0,5.93,5.93,0,0,0,.65,0l.6,0,.52,0h1.13a5.65,5.65,0,0,0,.61,0l.52,0a6.09,6.09,0,0,0,.61,0l.51,0h.52a6,6,0,0,0,.61,0l.6,0,.52,0c.25,0,.36,0,.49,0a5.86,5.86,0,0,0,.64,0h1.13l.57,0,.56,0c.35,0,.61-.23.6-.49A.59.59,0,0,0,165.22,43.67Z"/><path class="cls-1" d="M62.12,22.27a4.31,4.31,0,0,0-.48-.31,2.87,2.87,0,0,1-.39-.25,1,1,0,0,1-.25-.23,2.05,2.05,0,0,0-.47-.44,3.56,3.56,0,0,0-.52-.31c-.1-.06-.2-.11-.37-.23a4.06,4.06,0,0,0-.51-.31,4,4,0,0,1-.38-.24l-.38-.28-.43-.32c-.23-.16-.35-.23-.47-.3a4.24,4.24,0,0,1-.39-.26,2.49,2.49,0,0,1-.34-.27,4.55,4.55,0,0,0-.45-.35,4.85,4.85,0,0,0-.45-.3c-.11-.07-.21-.13-.4-.27l-.38-.28c-.1-.08-.21-.17-.43-.32a4,4,0,0,0-.47-.3l-.4-.26c-.22-.16-.35-.23-.46-.31a4.25,4.25,0,0,1-.4-.25l-.38-.28-.43-.33-.46-.3-.4-.26a2.49,2.49,0,0,1-.34-.27c-.1-.08-.21-.18-.45-.35a4.34,4.34,0,0,1-.39-.29l-.43-.3-.43-.3-.41-.28a.78.78,0,0,0-.89,0,.4.4,0,0,0,0,.67l.43.29.41.29.4.28.43.31a3.63,3.63,0,0,1,.34.27,3.39,3.39,0,0,0,.45.35c.22.16.34.23.45.3l.4.26a3.85,3.85,0,0,1,.38.29l.43.32c.23.16.35.23.47.3a3.14,3.14,0,0,1,.4.26,4.55,4.55,0,0,0,.47.3,4.24,4.24,0,0,1,.39.26,3.78,3.78,0,0,1,.38.28l.43.32a4.69,4.69,0,0,0,.46.3l.4.27a2.51,2.51,0,0,1,.33.26,4.24,4.24,0,0,0,.45.36l.46.3.4.26.39.28a3.94,3.94,0,0,0,.43.32,3.13,3.13,0,0,0,.5.31,3,3,0,0,1,.38.24,5.82,5.82,0,0,0,.51.31,2.71,2.71,0,0,1,.38.23,1,1,0,0,1,.25.23,2.05,2.05,0,0,0,.47.44c.23.16.37.24.48.31a4.25,4.25,0,0,1,.4.25.76.76,0,0,0,.42.12.73.73,0,0,0,.46-.15A.38.38,0,0,0,62.12,22.27Z"/><path class="cls-1" d="M113,23.47a3.08,3.08,0,0,0-.3.4c-.07.08-.12.17-.26.33a4.21,4.21,0,0,0-.3.39l-.26.34-.29.32c-.09.09-.18.18-.34.37a4.72,4.72,0,0,0-.3.39l-.27.34a2.68,2.68,0,0,1-.28.29A5.26,5.26,0,0,0,110,27l-.29.34c-.09.09-.17.18-.32.36l-.3.37c-.07.09-.15.17-.29.35s-.1.51.2.65a.75.75,0,0,0,.33.07.7.7,0,0,0,.53-.22l.3-.36.29-.36.3-.33c.08-.1.16-.18.31-.37a2.86,2.86,0,0,1,.29-.3,3.41,3.41,0,0,0,.37-.38,4.72,4.72,0,0,0,.3-.39c.07-.09.13-.17.27-.33a2.86,2.86,0,0,1,.29-.33c.08-.09.17-.18.33-.37s.24-.3.31-.39a3.86,3.86,0,0,1,.25-.34c.16-.19.24-.3.31-.4l.25-.33.29-.32c.09-.09.18-.18.34-.37a4.72,4.72,0,0,0,.3-.39l.27-.34a2.39,2.39,0,0,1,.28-.28,3.6,3.6,0,0,0,.38-.39l.31-.4c.06-.08.12-.17.26-.33a4.34,4.34,0,0,1,.29-.33c.08-.09.17-.18.33-.37a2.71,2.71,0,0,0,.3-.42,3.13,3.13,0,0,1,.23-.32,2.31,2.31,0,0,0,.31-.43,2.09,2.09,0,0,1,.22-.31.85.85,0,0,1,.26-.22,2.08,2.08,0,0,0,.48-.43,4.6,4.6,0,0,0,.31-.4,2.54,2.54,0,0,1,.24-.33c.15-.17.22-.26.3-.34l.31-.36c.16-.2.24-.31.3-.4a2.91,2.91,0,0,1,.26-.33c.14-.17.21-.26.29-.34s.17-.18.32-.37a2.31,2.31,0,0,0,.31-.43,1.53,1.53,0,0,1,.22-.31,1.27,1.27,0,0,1,.27-.26,3.66,3.66,0,0,0,.42-.41l.29-.34.32-.36a4.34,4.34,0,0,1,.29-.33c.08-.09.17-.18.33-.37a2.7,2.7,0,0,0,.31-.43,1.31,1.31,0,0,1,.22-.32,4.21,4.21,0,0,0,.3-.39c.07-.09.12-.17.26-.33a2.58,2.58,0,0,1,.29-.32c.08-.08.18-.18.35-.38l.3-.36.28-.35c.14-.16.21-.23.29-.31a5,5,0,0,0,.36-.38,2.11,2.11,0,0,0,.3-.45,1.52,1.52,0,0,1,.21-.3,2,2,0,0,1,.28-.29,3.72,3.72,0,0,0,.37-.39l.31-.37.28-.35a2.7,2.7,0,0,0,.31-.43,1.69,1.69,0,0,1,.23-.31,1.26,1.26,0,0,1,.26-.26,2.5,2.5,0,0,0,.43-.41c.16-.19.23-.29.3-.38s.13-.18.27-.34l.3-.36.3-.35.29-.34c.08-.09.17-.18.33-.37a.41.41,0,0,0-.2-.65.77.77,0,0,0-.87.15,4.34,4.34,0,0,1-.29.33c-.08.09-.17.18-.33.37l-.3.36c-.07.09-.14.18-.29.35s-.23.29-.31.39a3.93,3.93,0,0,1-.26.34,2.06,2.06,0,0,1-.27.26,2.73,2.73,0,0,0-.43.4,3.2,3.2,0,0,0-.3.43,3.13,3.13,0,0,1-.23.32l-.3.36c-.07.09-.14.18-.29.35a3,3,0,0,1-.28.3,2.4,2.4,0,0,0-.37.39,2,2,0,0,0-.31.45,2.5,2.5,0,0,1-.21.3,2.19,2.19,0,0,1-.28.3c-.09.09-.19.19-.36.39l-.3.36c-.07.09-.14.18-.29.35a2.31,2.31,0,0,1-.29.31c-.08.09-.18.19-.34.38s-.24.31-.31.4a4.09,4.09,0,0,1-.25.33,2.7,2.7,0,0,0-.31.43,1.4,1.4,0,0,1-.22.31,4.34,4.34,0,0,1-.29.33c-.09.09-.18.18-.34.37s-.22.26-.29.34l-.32.37a1.27,1.27,0,0,1-.27.26,2.54,2.54,0,0,0-.41.41,2.31,2.31,0,0,0-.31.43,2.09,2.09,0,0,1-.22.31l-.29.34a4.81,4.81,0,0,0-.33.36c-.16.2-.23.31-.3.4a4.09,4.09,0,0,1-.25.33l-.3.35-.31.36c-.17.2-.24.31-.31.4a3.48,3.48,0,0,1-.24.33,1,1,0,0,1-.25.22,2.23,2.23,0,0,0-.49.42c-.17.21-.24.33-.31.43a1.53,1.53,0,0,1-.22.32,4.14,4.14,0,0,0-.31.42A2.07,2.07,0,0,1,116,20l-.29.33-.33.36c-.16.2-.23.3-.3.4l-.26.33a2.69,2.69,0,0,1-.28.29,3.6,3.6,0,0,0-.38.39c-.16.19-.23.29-.31.39s-.12.17-.26.34l-.29.32C113.24,23.19,113.15,23.28,113,23.47Z"/></g></g></svg>